<svg xmlns="http://www.w3.org/2000/svg" width="1707" height="183" viewBox="0 0 1707 183" fill="none"><path d="M1522.35 93.7728C1522.35 95.8267 1525.9 108.479 1533 131.729C1533.43 132.67 1534.04 133.51 1534.82 134.194C1535.47 135.005 1536.4 135.535 1537.43 135.672C1537.76 135.672 1543.34 131.369 1554.17 122.764C1565.01 114.158 1572.56 109.865 1576.82 109.886C1579.1 109.886 1580.55 110.317 1581.07 111.18C1581.66 112.17 1581.9 113.332 1581.75 114.476C1581.82 116.902 1580.93 119.259 1579.29 121.038C1575.9 124.55 1569.5 130.466 1560.08 138.784C1552.12 145.788 1548.13 149.567 1548.11 150.121C1548.11 152.175 1554.51 156.776 1567.31 163.924C1579.44 170.825 1585.99 174.275 1586.98 174.275C1588.09 173.972 1589.13 173.471 1590.06 172.797C1590.7 169.716 1591.53 165.002 1592.52 158.655C1593.04 154.404 1593.53 150.121 1594 145.839C1594.69 140.583 1595.94 135.418 1597.75 130.435C1598.38 129.12 1599.28 127.954 1600.4 127.015C1601.18 126.07 1602.27 125.428 1603.47 125.197C1606.55 125.197 1608.71 128.001 1610.03 133.577C1610.67 136.492 1611 139.466 1611.01 142.45V160.935C1611.01 161.49 1611.01 162.691 1610.77 164.54C1610.52 166.388 1610.52 167.96 1610.52 169.161C1610.52 174.09 1611.94 176.555 1614.8 176.555C1620.15 175.283 1625.42 173.709 1630.59 171.841C1638.72 169.296 1646.72 166.335 1654.56 162.969C1655.22 162.607 1655.76 162.057 1656.11 161.388C1656.46 160.719 1656.61 159.961 1656.53 159.21C1656.53 158.881 1651.85 153.428 1642.49 142.851C1633.14 132.273 1628.46 125.023 1628.46 121.1C1628.6 119.382 1629.19 117.733 1630.19 116.325C1631.32 114.476 1632.55 113.521 1633.88 113.521C1637.26 113.521 1643.96 117.495 1653.97 125.444C1663.98 133.392 1669.36 137.336 1670.28 137.336C1672.38 137.336 1674.19 134.84 1675.7 129.788C1676.68 126.522 1678.93 119.621 1682.44 109.085C1685.18 100.766 1686.53 96.3299 1686.53 95.7753C1686.53 92.8485 1684.62 91.3697 1680.81 91.3697L1652.25 93.3414C1640.43 93.3414 1634.52 91.1232 1634.52 86.7484C1634.52 85.6701 1635.94 84.2529 1638.8 82.4968C1640.29 81.5154 1641.88 80.6895 1643.54 80.0322C1655.26 76.0887 1667.07 72.4738 1678.99 69.1876C1679.1 68.7758 1679.27 68.3816 1679.49 68.0168C1679.68 67.3881 1679.8 66.7352 1679.82 66.0759C1679.82 63.5496 1672.39 52.2532 1657.51 32.1866C1657.06 31.4569 1656.43 30.8507 1655.68 30.4211C1654.93 29.9914 1654.09 29.7513 1653.23 29.7219C1651.61 29.7219 1646.85 35.9349 1638.96 48.361C1631.06 60.7871 1625.37 66.9488 1621.91 66.8461C1621.04 66.8401 1620.18 66.5921 1619.44 66.1297C1618.71 65.6674 1618.11 65.0089 1617.72 64.2274C1616.7 62.5487 1616.15 60.619 1616.15 58.6511C1616.15 55.5702 1618.52 48.3918 1623.2 36.777C1626.02 30.5609 1628.39 24.1458 1630.28 17.5833C1630.23 16.9466 1630.03 16.3317 1629.68 15.7939C1629.34 15.2561 1628.87 14.8123 1628.31 14.5025C1627.49 14.0536 1626.59 13.7807 1625.66 13.7015L1586.46 12.3767C1585.53 12.6591 1584.68 13.1667 1583.99 13.8545C1583.31 14.5424 1582.8 15.3893 1582.52 16.3202C1582.52 16.6488 1584.65 22.6976 1588.92 34.4664C1593.18 46.2352 1595.32 53.8757 1595.32 57.3879C1595.32 62.9643 1593.69 65.7678 1590.39 65.7678C1587.1 65.7678 1581.93 59.2364 1574.79 46.1428C1567.65 33.0492 1563.44 26.5178 1562.02 26.5178C1560.14 26.5178 1554.64 31.8169 1545.43 42.4458C1536.23 53.0747 1531.65 59.2981 1531.65 61.1774C1531.65 62.4713 1532.54 63.5188 1534.29 64.2582L1539.96 66.7229C1544.33 68.3412 1548.79 69.7092 1553.31 70.8204C1557.87 71.9317 1562.2 73.7955 1566.14 76.3351C1568.13 77.7666 1569.79 79.6064 1571.01 81.7316C1572.23 83.8568 1572.99 86.2184 1573.22 88.6585C1572.32 89.4302 1571.27 90.0164 1570.15 90.3838C1569.01 90.9256 1567.79 91.2893 1566.55 91.4621L1559.01 91.2157C1554.51 91.0308 1552.02 90.9692 1551.53 90.9692C1551.04 90.9692 1547.1 90.6611 1539.71 90.0449C1532.32 89.4287 1528.42 89.1515 1527.99 89.1515C1524.2 89.1823 1522.35 90.7227 1522.35 93.7728ZM1595.2 95.5905C1595.2 92.5037 1596.39 89.5371 1598.52 87.303C1599.54 86.1222 1600.81 85.1796 1602.23 84.541C1603.66 83.9023 1605.21 83.5832 1606.77 83.6059C1608.23 83.6134 1609.67 83.9397 1610.99 84.5622C1612.32 85.1847 1613.49 86.0885 1614.43 87.2105C1616.49 89.38 1617.65 92.2567 1617.66 95.2516C1617.69 97.7409 1616.88 100.168 1615.38 102.153C1614.34 103.515 1612.97 104.6 1611.41 105.314C1609.85 106.029 1608.14 106.35 1606.43 106.25C1605.72 106.183 1605.04 105.996 1604.4 105.696C1603.71 105.361 1602.97 105.163 1602.21 105.11C1600.67 105.11 1599.13 103.786 1597.47 101.167C1596.22 99.5492 1595.44 97.6216 1595.2 95.5905Z" fill="#BE141A"></path><path d="M1290.64 127.662C1290.69 134.07 1292.31 140.354 1295.32 145.908C1298.08 151.749 1302.73 156.338 1308.42 158.838C1313.11 161.022 1318.01 162.628 1323.05 163.625C1329.44 163.46 1335.68 161.521 1341.15 157.999C1347.01 154.632 1351.91 149.65 1355.34 143.577C1357.98 145.883 1360 148.898 1361.19 152.311C1364.11 159.584 1365.46 163.252 1365.58 163.376C1367.53 166.464 1370.01 170.857 1373.04 176.555L1389.27 146.405C1393.57 151.366 1398.38 155.807 1403.6 159.646C1408.13 162.347 1413.25 163.72 1418.43 163.625C1418.11 163.625 1420.86 163.034 1426.68 161.822C1435.22 160.248 1442.85 155.183 1447.92 147.71C1452.57 140.69 1454.97 132.266 1454.76 123.684C1454.88 121.255 1454.79 118.819 1454.47 116.41C1453.42 112.311 1451.61 108.476 1449.15 105.127C1447.5 103.184 1445.68 101.415 1443.71 99.8432C1442.04 98.5067 1441.19 97.3566 1441.19 96.362C1442.3 94.2929 1443.67 92.3905 1445.26 90.7049C1447.5 88.0692 1449.46 85.1822 1451.11 82.0951C1453.1 77.4105 1454.1 72.3166 1454.03 67.1754C1453.87 56.8394 1450.22 46.9097 1443.74 39.201C1436.54 29.8762 1428.35 25.4625 1419.08 25.4625C1409.8 25.4625 1400.68 32.6426 1391.96 47.0028C1389.34 41.6968 1387.04 36.2146 1385.09 30.5911C1382.78 24.0859 1379.63 17.9551 1375.73 12.3767C1370.97 18.0959 1364.84 29.4204 1357.33 46.35C1357.06 46.3904 1356.78 46.3474 1356.53 46.2263C1356.28 46.1051 1356.07 45.9107 1355.92 45.6662C1352.61 39.9178 1347.71 35.4005 1341.88 32.7358C1336.57 29.611 1330.64 27.8545 1324.57 27.6072C1319.88 27.5932 1315.27 28.8297 1311.16 31.2032C1307.05 33.5766 1303.56 37.0109 1301.02 41.1903C1296.12 47.9673 1293.42 56.2404 1293.3 64.782C1293.58 70.1176 1295.08 75.3009 1297.66 79.8882C1300.75 86.2854 1305.28 91.773 1310.85 95.8646C1310.85 96.1755 1310.38 96.6728 1309.44 97.3566C1296.9 102.102 1290.64 112.204 1290.64 127.662ZM1398.4 98.1648C1398.42 89.3781 1399.52 80.6318 1401.67 72.1486C1405.57 57.7884 1411.72 50.6084 1420.1 50.6084C1422.02 50.5941 1423.93 51.0424 1425.66 51.9198C1427.4 52.7972 1428.93 54.0809 1430.13 55.6748C1432.79 58.7184 1434.27 62.7128 1434.29 66.8646C1434.38 70.2425 1433.34 73.5461 1431.36 76.1893C1430.16 77.6789 1428.65 78.8565 1426.95 79.6322C1425.25 80.4078 1423.41 80.7612 1421.56 80.6652C1418.99 80.9062 1416.43 80.1315 1414.37 78.4895C1413.55 77.5886 1412.89 76.5348 1412.44 75.3812C1412.1 74.4887 1411.65 73.6515 1411.09 72.8946C1410.44 74.0543 1410.07 75.3679 1410.01 76.7177C1410.23 78.8439 1410.7 80.9322 1411.41 82.9343C1412.24 85.6653 1413.37 88.2837 1414.78 90.736C1416.18 92.9535 1417.77 95.0339 1419.52 96.9526C1414.95 102.342 1412.3 109.258 1412.03 116.504C1412.03 122.471 1413 125.455 1414.95 125.455C1415.36 125.455 1415.83 124.399 1416.36 122.347C1416.65 120.18 1417.46 118.128 1418.7 116.379C1419.64 115.294 1420.8 114.451 1422.09 113.912C1423.38 113.374 1424.77 113.154 1426.16 113.271C1433.88 113.271 1437.71 117.716 1437.71 126.543C1437.76 128.316 1437.71 130.091 1437.56 131.858C1436.85 133.472 1435.86 134.927 1434.64 136.148C1432.5 137.885 1430.13 139.287 1427.62 140.313C1425.96 141.219 1424.17 141.828 1422.32 142.116C1422.11 142.143 1421.89 142.08 1421.72 141.942C1421.54 141.803 1421.42 141.598 1421.39 141.37C1421.39 140.872 1420.92 140.624 1420.28 140.624C1417.21 140.426 1414.25 139.352 1411.71 137.515C1409.24 135.759 1407.08 133.573 1405.3 131.05C1400.7 123.176 1398.4 112.214 1398.4 98.1648ZM1363.79 97.8539C1363.79 82.8099 1367.27 65.6316 1374.23 46.3189C1380.46 60.5512 1383.8 76.0096 1384.06 91.6996C1383.88 109.56 1380.33 127.199 1373.62 143.577C1370.42 137.154 1368.13 130.261 1366.83 123.124C1364.92 114.85 1363.9 106.373 1363.79 97.8539ZM1310.85 125.176C1310.85 123.657 1311.16 122.157 1311.77 120.781C1312.38 119.406 1313.26 118.19 1314.36 117.218C1316.65 115.037 1319.64 113.86 1322.72 113.924C1324.51 113.676 1326.33 114.081 1327.87 115.074C1330.02 118.421 1331.5 122.196 1332.23 126.17C1333.57 124.079 1334.56 121.754 1335.16 119.301C1335.99 116.762 1336.51 114.119 1336.71 111.437C1336.71 109.365 1334.89 104.557 1331.26 97.0147C1334.35 94.2169 1336.69 90.6041 1338.05 86.5399C1339.32 83.3369 1340.01 79.9112 1340.1 76.438C1340.19 73.4618 1339.6 70.507 1338.37 67.8281L1334.95 75.7853C1334.38 77.2604 1333.4 78.5209 1332.15 79.4065C1330.9 80.292 1329.43 80.7626 1327.93 80.7585C1326.29 80.7955 1324.66 80.466 1323.15 79.7913C1321.64 79.1166 1320.28 78.1118 1319.15 76.8421C1317.95 75.4232 1317.02 73.7645 1316.41 71.9615C1315.81 70.1585 1315.55 68.2467 1315.64 66.3362C1315.64 57.26 1320.32 52.722 1329.69 52.722C1333.38 52.5104 1337.05 53.5126 1340.19 55.5924C1343.33 57.6722 1345.79 60.7288 1347.24 64.3469C1349.93 70.7395 1351.21 77.7046 1350.98 84.706C1351 93.8101 1350.02 102.885 1348.06 111.748C1345.25 123.559 1340.99 131.568 1335.27 135.775C1333.89 136.97 1332.3 137.867 1330.59 138.417C1330.29 138.416 1329.98 138.482 1329.7 138.61C1329.42 138.739 1329.16 138.927 1328.95 139.163C1328.77 139.385 1328.55 139.566 1328.29 139.694C1328.04 139.822 1327.77 139.895 1327.49 139.909C1326.8 139.876 1326.11 139.762 1325.44 139.567C1324.79 139.378 1324.11 139.274 1323.43 139.256C1321.56 139.244 1319.73 138.738 1318.09 137.783C1316.46 136.827 1315.07 135.453 1314.07 133.785C1312.15 131.359 1311.02 128.339 1310.85 125.176Z" fill="#BE141A"></path><path d="M1121.41 15.3274C1107.19 15.3275 1094.62 18.5519 1085.85 23.4387C1076.85 28.4454 1073.12 34.3378 1073.12 39.3596C1073.12 45.6744 1079.22 53.401 1093.13 58.6184L1109.19 64.6438L1093.13 70.6692C1079.22 75.8867 1073.12 83.6141 1073.12 89.929C1073.12 96.2437 1079.22 103.97 1093.13 109.188L1109.19 115.213L1093.13 121.239C1079.22 126.456 1073.12 134.183 1073.12 140.498C1073.12 145.52 1076.85 151.413 1085.85 156.419C1094.62 161.306 1107.19 164.53 1121.41 164.531C1135.64 164.531 1148.2 161.306 1156.98 156.419C1165.97 151.413 1169.7 145.52 1169.7 140.498C1169.7 134.183 1163.6 126.456 1149.69 121.239L1133.63 115.213L1149.69 109.188C1163.6 103.97 1169.7 96.2438 1169.7 89.929C1169.7 83.6141 1163.6 75.8867 1149.69 70.6692L1133.63 64.6438L1149.69 58.6184C1163.6 53.401 1169.7 45.6744 1169.7 39.3596C1169.7 34.3378 1165.97 28.4454 1156.98 23.4387C1148.2 18.5519 1135.64 15.3274 1121.41 15.3274ZM1124.26 118.472L1154.95 134.648L1165.75 140.341L1154.95 146.034L1124.26 162.21L1121.26 163.791L1118.26 162.21L1087.57 146.034L1076.77 140.341L1087.57 134.648L1118.26 118.472L1121.26 116.891L1124.26 118.472ZM1139.71 71.2434C1145.13 71.2435 1148.35 75.4326 1149.83 78.3616C1151.5 81.654 1152.34 85.7533 1152.34 89.929C1152.34 94.1047 1151.5 98.2039 1149.83 101.496C1148.35 104.425 1145.13 108.613 1139.71 108.614C1134.28 108.614 1131.06 104.425 1129.58 101.496C1127.91 98.2039 1127.07 94.1047 1127.07 89.929C1127.07 85.7532 1127.91 81.654 1129.58 78.3616C1131.06 75.4326 1134.28 71.2434 1139.71 71.2434ZM1103.12 71.2434C1108.54 71.2434 1111.76 75.4326 1113.25 78.3616C1114.91 81.654 1115.75 85.7532 1115.75 89.929C1115.75 94.1047 1114.91 98.2039 1113.25 101.496C1111.76 104.425 1108.54 108.614 1103.12 108.614C1097.7 108.614 1094.48 104.425 1093 101.496C1091.33 98.2039 1090.49 94.1047 1090.49 89.929C1090.49 85.7532 1091.33 81.654 1093 78.3616C1094.48 75.4326 1097.7 71.2434 1103.12 71.2434ZM1124.26 17.3333L1154.95 33.509L1165.75 39.2024L1154.95 44.8948L1124.26 61.0706L1121.26 62.6526L1118.26 61.0706L1087.57 44.8948L1076.77 39.2024L1087.57 33.509L1118.26 17.3333L1121.26 15.7512L1124.26 17.3333Z" fill="#BE141A" stroke="#BE141A" stroke-width="12.8708"></path><path d="M800.732 29.6325C800.732 29.6325 801.025 32.016 801.611 36.5246C802.082 39.8668 802.366 43.2319 802.461 46.6045C802.461 75.0923 814.594 89.3362 838.86 89.3362C839.299 89.3362 842.347 89.0203 848.003 88.4172C853.659 87.8141 856.795 87.4982 857.293 87.4982C860.019 87.4982 861.367 89.5946 861.367 93.7874C861.367 95.9125 859.96 97.6931 857.147 99.129C855.557 99.9933 853.8 100.522 851.989 100.68H847.622L841.38 100.364C837.424 100.163 834.288 100.048 832.002 100.048L830.742 101.426L828.866 100.68C828.323 100.661 827.785 100.79 827.313 101.053C826.938 101.293 826.5 101.422 826.053 101.426L824.792 102.661C819.88 103.632 815.362 105.981 811.787 109.423C808.213 112.864 805.736 117.25 804.659 122.045C803.311 126.525 802.608 135.399 802.608 148.638V164.834C802.769 166.099 803.345 167.278 804.249 168.195C805.125 168.962 806.159 169.536 807.282 169.878C808.404 170.22 809.589 170.322 810.755 170.176C811.253 170.176 812.835 170.032 815.444 169.716L821.686 169.114C827.196 168.711 832.735 168.338 838.244 168.022C843.773 167.428 849.161 165.933 854.187 163.6C864.913 158.316 870.276 147.528 870.276 131.235C870.263 126.409 869.743 121.598 868.723 116.876C868.561 115.98 868.626 115.058 868.913 114.192C869.199 113.326 869.697 112.542 870.364 111.908C870.973 111.213 871.729 110.656 872.579 110.274C873.428 109.892 874.353 109.696 875.287 109.697C876.305 109.58 877.333 109.799 878.209 110.319C879.084 110.839 879.758 111.631 880.123 112.569V136.605C880.885 141.026 882.307 145.313 884.343 149.327C888.387 158.9 897.453 164.251 911.54 165.38L936.069 166.012C939.462 166.164 942.863 165.952 946.209 165.38C947.905 165.047 949.417 164.114 950.455 162.757C951.493 161.401 951.985 159.717 951.836 158.028C951.521 148.278 950.542 138.56 948.905 128.938C948.173 126.209 947.147 122.16 945.769 116.848C944.966 114.533 943.689 112.403 942.018 110.587C940.23 108.102 937.654 106.265 934.692 105.361L932.669 103.379L932.025 103.982L930.149 102.144C929.515 102.115 928.886 102.019 928.273 101.857C927.614 101.675 926.936 101.569 926.251 101.541L924.991 100.163H920.478C919.95 100.163 917.547 100.163 913.034 99.8469C908.521 99.531 906.089 99.5596 905.473 99.5596C904.867 99.5828 904.267 99.6794 903.685 99.8469C903.021 100.049 902.33 100.155 901.634 100.163C900.698 100.24 899.78 100.453 898.908 100.794C898.051 101.113 897.154 101.316 896.242 101.398C895.924 101.413 895.607 101.35 895.32 101.215C895.034 101.079 894.786 100.875 894.6 100.622C894.249 100.105 893.897 99.6458 893.604 99.2438C893.39 97.0087 893.39 94.7588 893.604 92.5238C893.701 91.4749 894.211 90.5045 895.027 89.8182C895.842 89.1319 896.898 88.784 897.971 88.848C898.498 88.848 900.638 88.848 904.389 89.1351C908.14 89.4223 910.25 89.451 910.953 89.451C929.065 89.451 940.885 84.5499 946.414 74.7476C949.833 68.717 951.553 57.23 951.572 40.2866C951.585 38.855 951.692 37.4257 951.894 36.0077C952.06 34.8945 952.158 33.7725 952.188 32.6478C951.941 28.6546 951.263 24.6982 950.165 20.845C949.755 19.4091 947.498 18.6912 943.454 18.6912C933.514 19.138 923.604 20.0966 913.767 21.5629C910.836 22.5967 906.206 23.8602 900.169 25.411C896.828 26.014 893.194 29.3453 889.237 35.3473C885.281 41.3492 883.757 45.2548 883.757 48.2127V63.6915C884.505 67.1561 884.868 70.6896 884.841 74.2307C883.083 76.7004 881.325 77.9067 879.537 77.9067C876.79 77.5082 874.26 76.213 872.357 74.2307C872.562 68.7457 872.357 60.5039 872.034 49.5912C871.339 45.7161 869.971 41.9863 867.99 38.5636C865.849 34.1297 862.554 30.3264 858.436 27.536C853.096 24.6876 847.184 23.0213 841.116 22.6542C837.658 22.3479 831.562 22.1946 822.829 22.1946C821.891 22.1946 820.162 22.1946 817.671 21.9648C815.18 21.7351 813.246 21.7352 811.81 21.7352C808.549 21.4134 805.267 22.1068 802.432 23.7167C801.728 24.5232 801.211 25.4699 800.918 26.4914C800.624 27.5128 800.561 28.5847 800.732 29.6325ZM892.461 55.4783C892.236 51.3854 892.997 47.2981 894.682 43.5466C896.368 39.7951 898.93 36.4847 902.161 33.8827C905.757 31.4473 909.961 30.0177 914.324 29.7473C917.86 29.5367 921.406 29.2782 924.962 28.9719C934.545 27.9668 939.117 27.3926 938.707 27.3064H942.78V57.948C942.734 58.6662 942.545 59.3685 942.223 60.0155C941.96 60.5706 941.782 61.1611 941.696 61.7674C941.461 68.9181 937.476 74.2308 929.651 77.7056C924.325 79.9678 918.575 81.1123 912.77 81.0655C912.448 81.0655 910.514 81.0655 906.909 80.6922C903.304 80.3189 900.638 80.2903 898.879 80.2903C905.327 74.183 911.784 68.0087 918.251 61.7674C928.567 51.8886 933.724 46.4035 933.724 45.3984C933.585 44.3288 933.114 43.3267 932.376 42.5267C932.073 42.0186 931.647 41.5909 931.136 41.2806C930.625 40.9703 930.045 40.7869 929.446 40.7462C928.303 40.7462 923.584 44.7379 914.792 52.6926C901.663 64.9454 894.893 71.2824 894.483 71.7036C893.349 66.3694 892.673 60.9518 892.461 55.507V55.4783ZM888.563 127.904L889.032 122.16C889.308 119.46 889.406 116.746 889.325 114.033L908.081 133.016C918.182 143.124 923.702 148.178 924.639 148.178C925.372 148.178 926.896 147.202 929.182 145.307C929.136 144.108 928.929 142.92 928.567 141.774C924.659 137.409 914.548 126.793 898.234 109.927C903.491 108.589 908.893 107.875 914.324 107.802C925.382 107.802 933.099 111.631 937.476 119.289C938.714 122.172 939.552 125.204 939.967 128.306C941.684 136.738 942.665 145.298 942.897 153.893C942.897 156.42 942.575 157.713 941.96 157.713L926.163 157.397L910.25 157.11C909.639 157.004 909.053 156.79 908.521 156.478C907.803 156.277 907.041 156.277 906.323 156.478L905.092 155.272C904.824 155.37 904.536 155.405 904.251 155.375C903.966 155.345 903.692 155.251 903.451 155.099C902.993 154.841 902.483 154.684 901.956 154.64C900.939 154.542 899.955 154.235 899.066 153.741C898.178 153.246 897.405 152.574 896.798 151.768C891.289 146.388 888.544 138.443 888.563 127.933V127.904ZM809.817 36.0077V31.2694H838.391C855.467 31.2694 864.014 41.4737 864.034 61.8822C864.141 66.0528 863.718 70.2202 862.774 74.2882L829.95 40.7174C829.397 40.5728 828.823 40.5147 828.251 40.5452C827.684 40.4687 827.108 40.5035 826.555 40.6475C826.003 40.7915 825.485 41.0419 825.032 41.384C824.579 41.7262 824.201 42.1532 823.918 42.6402C823.635 43.1273 823.454 43.6646 823.386 44.2209L854.333 78.9979C842.884 80.319 837.521 80.9795 838.244 80.9795C834.027 80.8186 829.884 79.8426 826.053 78.1077C821.731 76.7796 818.098 73.8683 815.913 69.9806C813.413 63.2399 811.932 56.1773 811.517 49.0169C811.517 47.4948 811.048 44.824 810.432 41.062C810.022 38.1903 809.817 36.4098 809.817 35.8929V36.0077ZM811.224 162.049L811.693 132.039C811.693 116.244 821.686 108.338 841.673 108.318H847.945C850.49 108.527 853.048 108.527 855.594 108.318L834.669 129.742C825.291 136.711 820.602 141.382 820.602 143.756C820.602 146.743 822.008 148.236 824.822 148.236C825.975 148.236 831.338 143.852 840.911 135.083L859.814 117.853C861.279 129.072 862.012 134.327 862.012 133.619C862.005 137.561 861.208 141.464 859.667 145.106C858.26 149.225 855.375 152.704 851.549 154.898L850.143 156.277H848.267L846.86 157.512C846.321 157.526 845.787 157.623 845.278 157.799C844.735 158.004 844.159 158.111 843.578 158.115C843.05 158.115 841.233 158.344 838.098 158.804C834.962 159.263 833.116 159.493 832.559 159.493C832.002 159.493 830.654 159.493 828.573 159.809C826.492 160.125 825.203 160.096 824.734 160.096C823.952 160.187 823.19 160.4 822.477 160.728C821.781 161.038 821.039 161.242 820.279 161.331L818.404 160.728C815.949 160.744 813.517 161.191 811.224 162.049Z" fill="#BE141A" stroke="#BE141A" stroke-width="5.05163"></path><path d="M652.19 20.3773C675.564 18.9754 695.16 33.8155 698.814 56.1264C699.581 60.8099 699.548 66.1499 698.891 71.4886C697.698 81.1863 692.796 89.9431 687.273 98.0925L652.189 149.861L587.417 59.6838L572.057 70.1685L649.749 178.332L700.414 103.573C705.641 95.8604 710.262 87.6284 712.045 78.5491C713.639 70.4294 714.027 62.0585 712.701 53.9651C707.861 24.4113 681.64 4.87538 651.327 6.69339C622.817 8.40346 601.718 31.1294 603.378 59.088C604.783 82.7626 621.144 102.102 646.108 104.773C672.321 107.578 689.428 86.0062 688.66 63.5128C688.301 52.995 682.868 43.1557 675.15 36.7202C667.388 30.2492 656.517 26.6424 645.463 30.3289C639.035 32.4727 634.048 36.3495 630.856 41.615C627.716 46.7948 626.587 52.8547 626.931 59.0615C627.393 67.4147 631.49 74.851 637.618 79.2052C643.942 83.6992 652.61 84.8732 660.301 79.7932C665.77 76.1803 667.663 70.2954 667.626 65.2695C667.59 60.289 665.709 54.9865 662.053 51.1937C659.394 48.4349 654.944 48.2996 652.114 50.8919C649.283 53.4842 649.145 57.8223 651.804 60.5814C652.744 61.5567 653.549 63.4063 653.563 65.3674C653.577 67.2833 652.887 68.1298 652.411 68.4439C650.336 69.8148 648.16 69.7308 645.902 68.1265C643.447 66.3824 641.226 62.88 640.974 58.3226C640.743 54.1519 641.547 50.927 642.964 48.59C644.329 46.3382 646.523 44.465 650.015 43.3005C655.252 41.5542 661.04 42.9962 666.009 47.139C671.021 51.3175 674.389 57.6577 674.604 63.9686C675.158 80.1848 663.365 92.8278 647.643 91.1453C630.304 89.2899 618.475 76.1081 617.418 58.2962C616.212 37.9965 631.29 21.6308 652.19 20.3773Z" fill="#BE141A"></path><path d="M484.92 141.666C484.92 143.992 484.001 145.357 482.097 145.822C472.306 147.465 462.02 148.356 451.632 148.458C446.644 148.464 441.743 149.075 437.398 150.232C433.053 151.388 429.408 153.052 426.813 155.064C426.813 157.266 426.813 160.46 426.091 164.646C425.349 167.36 423.082 169.93 419.525 172.089C417.865 173.383 415.562 174.465 412.817 175.243C410.071 176.022 406.965 176.472 403.767 176.555C398.871 176.335 394.349 175.223 391.161 173.454C387.277 171.762 384.383 169.626 382.757 167.252C382.757 166.6 382.757 164.678 382.757 161.483C383.015 159.751 382.547 158.012 381.378 156.366C380.151 154.937 378.301 153.647 375.948 152.578C373.595 151.509 370.792 150.687 367.721 150.164C361.533 149.456 355.178 149.122 348.812 149.171C341.761 149.227 334.737 148.756 327.998 147.776C325.762 147.443 323.831 146.762 322.519 145.844C321.208 144.926 320.593 143.825 320.776 142.721C320.776 138.1 327.67 135.34 341.458 134.472C343.171 133.979 345.064 133.643 347.039 133.479L350.584 134.131L353.014 132.983C355.844 132.467 358.766 132.072 361.746 131.805C363.298 131.342 364.949 130.957 366.671 130.657C369.954 130.657 371.661 128.827 371.923 125.199C371.923 122.346 365.357 119.462 353.211 116.516C341.064 113.569 334.367 110.592 334.367 107.615C334.28 106.695 334.61 105.776 335.335 104.92C336.059 104.064 337.162 103.292 338.569 102.653C344.448 100.846 350.668 99.2989 357.15 98.0323C364.988 96.5131 371.944 94.1314 377.439 91.0856C378.62 82.9191 379.211 79.1666 379.211 79.8282C379.273 78.894 379.142 77.9591 378.817 77.037C377.149 75.3339 374.483 73.892 371.135 72.8815C368.816 71.8238 367.333 70.4229 366.933 68.9118C366.014 66.9581 365.095 65.0663 364.176 63.2986C363.435 62.725 362.478 62.2205 361.352 61.8101C354.787 61.1589 348.221 60.4146 341.655 59.5772C338.613 59.2508 335.933 58.4058 334.128 57.2042C332.323 56.0026 331.52 54.5286 331.872 53.0647C331.571 51.5102 332.367 49.9524 334.137 48.6341C335.906 47.3158 338.55 46.3111 341.655 45.7768C348.1 45.0226 354.713 44.6374 361.352 44.6294C366.996 44.8842 372.659 44.2402 377.439 42.7996C378.161 37.2795 379.014 31.7904 379.934 26.2702C382.232 16.9665 388.797 12.3767 399.631 12.3767C410.464 12.3767 417.49 16.4704 421.035 24.6266C421.955 29.7953 423.005 34.9639 424.187 40.1326C424.688 41.0811 425.683 41.9553 427.082 42.6757C428.481 43.3961 430.24 43.9398 432.197 44.2572L453.93 45.2496C464.632 46.118 470.016 48.847 470.016 53.3438C470.223 54.4335 469.815 55.5295 468.835 56.5208C467.855 57.5121 466.337 58.3633 464.435 58.988C460.504 59.866 456.286 60.4218 451.96 60.6316C447.657 60.8455 443.462 61.4012 439.551 62.2753C437.818 65.9825 435.243 69.5905 431.869 73.0365C429.382 73.7972 427.166 74.7393 425.303 75.8277C424.193 78.8371 423.731 81.8919 423.924 84.9453C423.814 86.9567 424.779 88.9488 426.73 90.7375C428.681 92.5263 431.555 94.054 435.086 95.1793C442.112 96.9469 449.268 98.7456 456.622 100.544C463.976 102.343 467.653 104.607 467.653 107.243C467.653 109.879 461.743 112.887 449.991 115.864C438.238 118.841 432.329 121.819 432.329 124.796C432.395 126.569 433.61 128.29 435.808 129.727C436.771 130.502 438.155 131.141 439.818 131.577C441.481 132.014 443.361 132.231 445.263 132.208H450.844C452.146 132.274 453.402 132.476 454.521 132.797C455.729 133.15 457.107 133.353 458.526 133.386H464.173C470.19 133.379 475.971 134.494 480.259 136.487C481.761 137.148 482.952 137.951 483.755 138.843C484.559 139.735 484.955 140.697 484.92 141.666Z" fill="#BE141A"></path><path fill-rule="evenodd" clip-rule="evenodd" d="M132.673 35.6069L125.106 11.5738C124.461 9.52521 126.545 7.56323 129.365 7.56323H185.57C188.391 7.56323 190.474 9.52521 189.829 11.5738L173.573 63.2079C173.089 64.7444 174.652 66.2159 176.767 66.2159H201.762C204.178 66.2159 206.137 67.6773 206.137 69.48V111.098H206.132C206.072 117.516 205.441 122.548 201.089 128.782C197.273 134.247 190.762 139.851 182.375 142.064L189.829 165.74C190.474 167.789 188.391 169.751 185.57 169.751H129.365C126.545 169.751 124.461 167.789 125.106 165.74L141.362 114.106C141.846 112.569 140.284 111.098 138.168 111.098H113.174C110.757 111.098 108.799 109.637 108.799 107.834V66.2159H108.809C108.892 59.9965 109.586 55.0482 113.82 48.9507C117.651 43.4339 124.216 37.7752 132.673 35.6069ZM173.573 114.106C173.089 112.569 174.652 111.098 176.767 111.098H191.83C193.652 111.098 195.136 112.207 195.069 113.565C194.848 118.044 194.029 121.157 191.327 125.028C189.143 128.156 186.309 130.73 183.258 132.462C181.609 133.399 179.397 132.606 178.924 131.101L173.573 114.106ZM136.103 46.5028C135.634 45.0128 133.458 44.2165 131.81 45.1282C128.679 46.8605 125.764 49.4902 123.531 52.705C120.929 56.452 120.082 59.4885 119.831 63.7412C119.751 65.1026 121.238 66.2159 123.064 66.2159H138.168C140.284 66.2159 141.846 64.7444 141.362 63.2079L136.103 46.5028ZM166.764 30.3102C166.764 35.7184 162.602 40.1026 157.468 40.1026C152.334 40.1026 148.171 35.7184 148.171 30.3102C148.171 24.902 152.334 20.5178 157.468 20.5178C162.602 20.5178 166.764 24.902 166.764 30.3102ZM157.468 156.796C162.602 156.796 166.764 152.412 166.764 147.003C166.764 141.595 162.602 137.211 157.468 137.211C152.334 137.211 148.171 141.595 148.171 147.003C148.171 152.412 152.334 156.796 157.468 156.796ZM157.468 97.6333C170.152 97.6333 180.435 93.6144 180.435 88.6569C180.435 83.6994 170.152 79.6805 157.468 79.6805C144.783 79.6805 134.5 83.6994 134.5 88.6569C134.5 93.6144 144.783 97.6333 157.468 97.6333Z" fill="#BE141A"></path></svg>