<svg xmlns="http://www.w3.org/2000/svg" width="1650" height="179" viewBox="0 0 1650 179" fill="none"><path d="M1481.86 27.6586C1492.1 36.403 1497.23 41.6455 1497.23 43.386C1497.23 44.2668 1494.07 47.7897 1487.74 53.9549C1492.36 59.0715 1498.47 65.3625 1506.08 72.8278C1516.29 82.6417 1522.59 88.8697 1525.05 91.4176L1487.84 129.698C1494.69 135.989 1498.11 139.512 1498.11 140.267C1498.11 141.053 1496.5 143.066 1493.24 146.306L1484.45 155.019C1487.39 158.385 1492.33 163.575 1499.31 170.747C1504.17 165.727 1509.29 160.971 1514.65 156.498C1518.52 159.602 1522.18 162.965 1525.59 166.563L1564.49 128.534L1608.5 169.74C1612.37 166.867 1615.83 163.481 1618.78 159.675C1622.49 162.694 1627.82 167.161 1634.78 173.074C1635.92 171.973 1640.85 166.783 1649.61 157.347C1645.23 152.682 1640.43 148.418 1635.28 144.608C1638.12 140.012 1641.52 135.786 1645.4 132.026L1602.94 90.2852C1603.4 89.4519 1603.76 88.5645 1604.01 87.643C1613.69 77.7033 1626.89 64.1777 1643.63 47.0663L1633.36 36.8435C1634.95 34.3604 1636.87 32.1061 1639.08 30.1436C1643.7 25.331 1646.6 22.2484 1647.84 20.9273C1645.84 18.2966 1643.59 15.8728 1641.1 13.6927L1632.15 5.32568C1622.95 14.9194 1617.99 19.732 1617.32 19.732C1616.66 19.732 1612.71 16.3349 1605.88 9.50918L1563.6 52.6652L1524.61 16.209C1522.34 17.8052 1520.22 19.6058 1518.29 21.5878C1515.6 24.2615 1513.86 25.6141 1513.07 25.6141C1510.59 24.2797 1508.36 22.5231 1506.49 20.424C1501.2 15.4961 1498.17 12.6966 1497.39 12.0256C1495.01 13.9274 1492.81 16.0324 1490.81 18.3166C1485.81 23.6639 1482.78 26.7779 1481.86 27.6586ZM1513.29 128.88L1551.24 90.9458L1513.1 53.8605C1515.46 50.9457 1519.29 46.8566 1524.58 41.5931L1563.63 77.8606L1606.7 35.774C1607.84 36.8749 1609.86 38.9194 1612.42 41.8762C1614.98 44.833 1617.01 46.8461 1618.11 47.947L1576.79 90.7885L1619.82 133.032C1618.68 134.133 1616.85 136.178 1614.26 139.072C1611.66 141.966 1609.67 144.042 1608.34 145.363L1564.36 104.157L1525.53 141.116C1521.01 137.491 1516.91 133.388 1513.29 128.88Z" fill="#F4A321"></path><path d="M1236.66 137.427C1236.66 139.803 1237.6 141.198 1239.55 141.673C1249.55 143.352 1260.06 144.262 1270.67 144.366C1275.77 144.373 1280.78 144.997 1285.22 146.178C1289.66 147.36 1293.38 149.06 1296.03 151.116C1296.03 153.365 1296.03 156.629 1296.77 160.907C1297.53 163.679 1299.84 166.305 1303.48 168.512C1305.17 169.833 1307.53 170.939 1310.33 171.734C1313.14 172.529 1316.31 172.989 1319.58 173.074C1324.58 172.85 1329.2 171.713 1332.46 169.906C1336.43 168.177 1339.38 165.994 1341.05 163.568C1341.05 162.903 1341.05 160.938 1341.05 157.675C1340.78 155.905 1341.26 154.128 1342.45 152.446C1343.71 150.986 1345.6 149.668 1348 148.576C1350.41 147.484 1353.27 146.643 1356.41 146.109C1362.73 145.386 1369.22 145.045 1375.73 145.095C1382.93 145.152 1390.11 144.671 1397 143.669C1399.28 143.329 1401.25 142.633 1402.59 141.695C1403.93 140.757 1404.56 139.632 1404.37 138.504C1404.37 133.783 1397.33 130.963 1383.24 130.076C1381.49 129.573 1379.56 129.229 1377.54 129.062L1373.92 129.727L1371.44 128.555C1368.54 128.027 1365.56 127.624 1362.51 127.351C1360.93 126.878 1359.24 126.485 1357.48 126.178C1354.13 126.178 1352.38 124.309 1352.12 120.601C1352.12 117.686 1358.82 114.739 1371.23 111.729C1383.65 108.719 1390.49 105.677 1390.49 102.635C1390.58 101.695 1390.24 100.756 1389.5 99.8814C1388.76 99.0072 1387.63 98.2176 1386.19 97.5652C1380.19 95.7186 1373.83 94.1381 1367.21 92.844C1359.2 91.2917 1352.09 88.8582 1346.48 85.7462C1345.27 77.4021 1344.67 73.568 1344.67 74.244C1344.61 73.2894 1344.74 72.3342 1345.07 71.3921C1346.78 69.6519 1349.5 68.1787 1352.92 67.1462C1355.29 66.0655 1356.81 64.6341 1357.21 63.0902C1358.15 61.094 1359.09 59.1611 1360.03 57.355C1360.79 56.7689 1361.77 56.2534 1362.92 55.8341C1369.62 55.1687 1376.33 54.4082 1383.04 53.5526C1386.15 53.2191 1388.89 52.3558 1390.73 51.128C1392.58 49.9002 1393.4 48.3942 1393.04 46.8984C1393.35 45.3102 1392.53 43.7185 1390.72 42.3715C1388.92 41.0246 1386.21 39.9981 1383.04 39.4521C1376.46 38.6815 1369.7 38.2879 1362.92 38.2797C1357.15 38.5401 1351.36 37.882 1346.48 36.4102C1345.74 30.77 1344.87 25.1615 1343.93 19.5213C1341.58 10.0153 1334.87 5.32568 1323.8 5.32568C1312.74 5.32568 1305.56 9.50835 1301.94 17.8419C1301 23.123 1299.92 28.4041 1298.71 33.6852C1298.2 34.6543 1297.19 35.5475 1295.76 36.2835C1294.33 37.0196 1292.53 37.5751 1290.53 37.8995L1268.33 38.9135C1257.39 39.8007 1251.89 42.5891 1251.89 47.1836C1251.68 48.297 1252.09 49.4169 1253.1 50.4297C1254.1 51.4426 1255.65 52.3123 1257.59 52.9506C1261.61 53.8477 1265.92 54.4156 1270.34 54.63C1274.73 54.8485 1279.02 55.4163 1283.02 56.3094C1284.79 60.0972 1287.42 63.7837 1290.87 67.3046C1293.41 68.0818 1295.67 69.0444 1297.57 70.1565C1298.71 73.2313 1299.18 76.3525 1298.98 79.4723C1299.1 81.5275 1298.11 83.5629 1296.12 85.3906C1294.12 87.2182 1291.19 88.7791 1287.58 89.9289C1280.4 91.735 1273.09 93.5728 1265.57 95.4106C1258.06 97.2484 1254.3 99.5616 1254.3 102.255C1254.3 104.948 1260.34 108.022 1272.35 111.064C1284.36 114.106 1290.4 117.148 1290.4 120.19C1290.33 122.001 1289.09 123.759 1286.84 125.228C1285.86 126.02 1284.44 126.673 1282.74 127.118C1281.04 127.564 1279.12 127.787 1277.18 127.763H1271.48C1270.15 127.831 1268.86 128.036 1267.72 128.365C1266.49 128.726 1265.08 128.933 1263.63 128.967H1257.86C1251.71 128.96 1245.81 130.098 1241.42 132.135C1239.89 132.81 1238.67 133.63 1237.85 134.542C1237.03 135.454 1236.62 136.437 1236.66 137.427Z" fill="#F4A321"></path><path d="M991.525 80.1471H1011.66C1012.07 80.1471 1012.27 80.2032 1012.27 80.3154C1012.27 80.3154 1012.27 80.596 1011.87 80.8204C1011.46 81.0449 1011.46 81.2133 1011.46 81.3255C1011.46 81.4377 1011.66 81.4938 1012.07 81.4938C1012.48 81.4938 1013.32 81.4938 1013.39 81.1571C1013.46 80.8204 1013.39 80.8204 1013.7 80.8204C1014.41 87.1433 1014.61 93.4984 1014.31 99.8436C1012.27 101.19 1007.59 101.864 1000.27 101.864C999.213 101.812 998.159 101.7 997.119 101.527C995.878 101.33 994.619 101.217 993.356 101.19C993.284 108.442 994.872 115.639 998.034 122.402C1001.43 129.395 1005.37 136.199 1009.83 142.772C1011.32 144.455 1013.97 147.261 1017.77 151.189C1020.03 152.873 1023.42 155.679 1027.94 159.607C1027.94 159.607 1028.75 159.775 1030.38 159.775C1030.92 159.775 1031.94 160.364 1033.43 161.543C1034.92 162.721 1035.94 163.479 1036.48 163.815C1039.55 165.583 1043 166.841 1046.65 167.519C1047.46 167.519 1047.63 167.743 1047.16 168.192C1046.68 168.641 1046.82 168.866 1047.57 168.866C1048.78 169.018 1049.94 169.391 1050.96 169.96C1051.97 170.528 1053.13 170.902 1054.35 171.054C1055.76 171.155 1057.16 171.381 1058.52 171.728C1059.84 172.066 1061.2 172.292 1062.58 172.401C1063.26 172.401 1065.67 172.513 1069.81 172.738C1073.94 172.962 1076.35 173.074 1077.03 173.074C1078.61 172.954 1080.17 172.728 1081.71 172.401C1083.18 172.089 1084.67 171.863 1086.18 171.728C1091.74 171.728 1101.71 168.922 1116.08 163.31L1118.73 161.122C1140.15 148.664 1153.37 129.697 1158.39 104.221C1158.12 103.745 1157.7 103.338 1157.17 103.042C1149.8 102.477 1142.37 102.477 1135 103.042L1134.59 103.884V82.1672H1159.21V78.4636C1159.21 79.8104 1158.46 76.2751 1156.97 67.8578C1155.36 61.187 1152.84 54.6911 1149.44 48.4979C1144.5 38.5166 1136.98 29.5524 1127.41 22.2358C1118.18 14.5939 1106.35 9.4647 1093.5 7.53355L1091.67 6.01843C1086.61 5.47994 1081.52 5.25485 1076.42 5.34504C1075.74 5.34504 1073.2 5.5695 1068.79 6.01843C1064.38 6.46735 1061.84 6.69182 1061.16 6.69182C1057.77 6.69182 1052.01 8.45945 1043.87 11.9947C1039.89 13.5001 1036.08 15.2934 1032.48 17.3538C1030.22 17.3538 1026.35 19.7106 1020.88 24.4243C1016.18 28.3574 1012.1 32.7699 1008.75 37.5554L1002.24 47.8245C1002.43 48.4852 1002.5 49.1666 1002.44 49.8447C1002.47 49.6845 1002.45 49.5209 1002.39 49.3672C1002.33 49.2134 1002.23 49.0737 1002.09 48.9592C1001.95 48.8447 1001.78 48.7586 1001.59 48.7077C1001.41 48.6568 1001.21 48.6426 1001.02 48.6662C1000.2 48.6662 999.797 50.1814 999.797 53.2116C999.203 55.0481 998.456 56.8482 997.56 58.5987C995.932 62.1901 994.915 64.6031 994.508 65.8376C994.102 68.3067 993.085 72.2348 991.457 77.6219L991.525 80.1471ZM1006.58 66.1182C1008.48 62.1901 1011.53 56.5785 1015.73 49.2835C1016.41 48.2734 1019.12 45.131 1023.87 39.8561C1024.74 38.7599 1025.42 37.5704 1025.9 36.3208C1026.72 34.8618 1027.46 34.1323 1028.14 34.1323C1029.63 34.1323 1030.38 34.469 1030.38 35.1424L1029.16 34.3007C1037.56 27.0056 1044.21 23.0214 1049.09 22.3481L1050.72 21.0013C1051.58 20.9513 1052.44 20.8099 1053.26 20.5804C1054.15 20.3383 1055.07 20.1968 1056.01 20.1595C1058.33 19.7823 1060.6 19.2185 1062.79 18.4761C1064.98 17.7337 1067.25 17.1698 1069.57 16.7926C1075.73 16.8655 1081.87 17.4863 1087.88 18.6444C1090.86 19.5423 1095.13 20.6646 1100.69 22.0114C1100.69 22.0114 1100.69 22.2639 1100.28 22.4322C1099.88 22.6006 1099.88 22.7409 1099.88 22.8531C1099.88 22.9653 1100.22 23.0214 1100.89 23.0214C1102.69 22.9302 1104.5 23.1599 1106.18 23.6948L1108.83 25.8833C1115.61 28.5769 1122.32 33.964 1128.97 42.0446C1135.57 50.0468 1140.45 58.9309 1143.41 68.3067C1142.95 68.403 1142.5 68.5443 1142.09 68.7276C1141.35 69.0059 1140.55 69.1495 1139.75 69.1484C1139.46 69.1734 1139.18 69.1091 1138.96 68.9685C1138.73 68.8279 1138.58 68.6215 1138.53 68.3909C1138.39 67.8858 1137.92 67.6333 1137.1 67.6333C1135.34 67.6333 1134.32 67.0721 1134.05 65.9498C1133.74 65.3095 1133.6 64.6196 1133.64 63.9297C1131.53 59.8449 1129.15 55.8552 1126.52 51.9771C1123.94 46.7703 1119.98 42.1102 1114.93 38.341C1108.56 32.9539 1103 29.9236 1098.25 29.2503L1095.61 27.2301C1094.71 27.2199 1093.82 27.1066 1092.96 26.8934C1092.2 26.695 1091.42 26.5818 1090.62 26.5567C1089.45 26.4448 1088.31 26.1894 1087.23 25.7992C1085.6 25.2941 1084.47 24.9855 1083.84 24.8733C1078.82 24.9368 1073.79 24.7682 1068.79 24.3682L1067.16 25.715C1062.82 25.7378 1058.53 26.482 1054.55 27.9035L1051.91 29.9236C1047.7 30.3726 1042.34 33.3467 1035.84 38.846C1030.3 43.1775 1025.87 48.3875 1022.82 54.1656C1022.18 54.5922 1021.63 55.1042 1021.19 55.6807C1019.9 59.4939 1018.33 63.2414 1016.51 66.9038C1015.97 67.4649 1014.61 67.7455 1012.44 67.7455C1010.34 67.5929 1008.32 66.9937 1006.58 66.0059V66.1182ZM1008.41 114.602C1015.19 114.602 1017.9 114.77 1016.54 115.107C1017.45 116.297 1018.47 117.423 1019.6 118.474C1019.73 118.923 1019.87 119.54 1020 120.326C1021.15 122.707 1022.51 125.014 1024.07 127.228C1027.46 131.381 1030.17 134.467 1032.21 136.487C1035.27 139.877 1039.1 142.737 1043.5 144.904C1046.82 146.307 1050.99 148.178 1056.01 150.516L1055.4 150.937C1055.13 151.105 1054.99 151.245 1054.99 151.358H1056.01L1058.65 150.684L1060.28 152.199L1061.09 151.358L1062.92 152.873C1064.32 152.887 1065.72 152.999 1067.09 153.209C1068.21 153.393 1069.34 153.505 1070.48 153.546C1071.62 153.587 1072.76 153.7 1073.87 153.883C1074.99 154.066 1076.13 154.179 1077.26 154.22C1077.94 154.22 1078.08 153.995 1077.67 153.546C1077.26 153.097 1077.4 152.873 1078.08 152.873H1089.06C1090.71 152.526 1092.26 151.926 1093.64 151.105C1095.04 150.266 1096.63 149.665 1098.32 149.338C1099.06 149.338 1099.5 149.113 1099.64 148.664C1099.78 148.215 1100.22 147.991 1100.96 147.991C1102.81 147.508 1104.51 146.705 1105.95 145.634C1109.34 143.502 1111.23 142.323 1111.64 142.099C1113.36 140.769 1114.99 139.364 1116.52 137.89C1118.29 136.206 1119.54 135.365 1120.29 135.365C1121.03 135.365 1125.47 128.743 1133.61 115.5C1136.06 115.589 1138.51 115.477 1140.93 115.163V118.867C1139.93 121.176 1138.67 123.403 1137.17 125.516C1135.11 128.782 1132.85 131.957 1130.39 135.028C1125.2 141.245 1118.72 146.658 1111.27 151.021C1101.5 156.857 1092.62 159.775 1084.62 159.775C1083.08 159.894 1081.54 160.119 1080.04 160.448C1078.54 160.778 1077.01 161.003 1075.47 161.122C1070.53 161.089 1065.62 160.58 1060.82 159.607C1059.46 159.312 1058.16 158.859 1056.96 158.26C1055.84 157.668 1054.6 157.267 1053.3 157.081C1052.53 157.05 1051.8 156.78 1051.26 156.324C1050.72 155.868 1050 155.597 1049.23 155.566C1044.34 155.566 1036.58 150.797 1025.94 141.257C1015.29 131.717 1010.04 124.235 1010.17 118.811C1009.48 117.401 1008.89 115.958 1008.41 114.49V114.602ZM1034.45 65.9498C1037.79 60.5507 1041.67 55.3893 1046.04 50.5181C1051.19 45.2026 1058.24 41.3722 1066.18 39.5755C1067.81 38.2288 1068.94 37.5554 1069.57 37.5554L1072.01 38.2288L1073.64 36.882H1075.87C1086.06 37.1677 1095.84 40.2472 1103.67 45.636C1106.52 48.3296 1110.39 52.1454 1115.27 57.0836C1117.91 60.557 1119.9 64.3409 1121.17 68.3067H1113.84C1111.69 63.9878 1108.66 60.0032 1104.89 56.5224C1098.25 49.5641 1092.35 46.0849 1087.2 46.0849C1085.15 45.9578 1083.11 45.7329 1081.1 45.4115C1077.84 44.9626 1075.94 44.7381 1075.4 44.7381C1071.57 45.1571 1067.9 46.2476 1064.62 47.9367C1061.51 49.1426 1058.59 50.6496 1055.91 52.426C1054.35 53.6605 1052.68 54.8951 1050.92 56.1296C1048.94 57.8453 1047.48 59.9211 1046.65 62.1901C1046.18 63.0619 1045.64 63.9056 1045.02 64.7153C1044.32 65.5589 1043.83 66.5143 1043.6 67.5211H1035.46C1035.37 66.8797 1035.01 66.2851 1034.45 65.8376V65.9498ZM1036.28 114.602C1034.92 114.602 1037.84 114.939 1045.02 115.612C1047.36 119.195 1050.31 122.483 1053.77 125.376C1056.32 127.536 1059.19 129.421 1062.31 130.988C1065.5 132.954 1069.23 134.228 1073.16 134.691H1082.93C1085.69 133.842 1088.35 132.77 1090.86 131.493C1095.7 129.286 1098.18 128.182 1098.32 128.182C1099.27 128.182 1100.76 127.34 1102.79 125.657C1104.6 124.207 1106.18 122.565 1107.47 120.775C1108.28 119.54 1109.03 118.362 1109.71 117.239C1110.25 116.576 1110.98 116.031 1111.83 115.65C1112.68 115.269 1113.62 115.063 1114.59 115.051C1116.09 114.899 1117.61 115.198 1118.86 115.893C1117.37 120.606 1112.08 126.723 1103 134.242C1101.34 135.666 1099.42 136.86 1097.3 137.778C1094.6 138.932 1091.77 139.872 1088.86 140.583C1086.59 141.299 1084.24 141.807 1081.84 142.099C1081.03 142.099 1079.23 141.986 1076.45 141.762C1073.67 141.537 1071.87 141.425 1071.06 141.425C1070.12 141.395 1069.21 141.163 1068.42 140.752C1067.72 140.37 1066.91 140.139 1066.08 140.078C1065.33 140.037 1064.62 139.801 1064.04 139.405C1063.44 138.998 1062.69 138.762 1061.91 138.732C1058.52 138.732 1054.24 136.431 1049.09 131.829C1045.79 129.09 1042.98 125.972 1040.75 122.57C1039.06 119.955 1037.57 117.256 1036.28 114.49V114.602ZM1052.14 91.0335C1052.14 89.4622 1054.99 87.4982 1060.69 85.1413C1063.81 83.6452 1067.16 82.5123 1070.65 81.7744C1071.47 77.2852 1072.28 72.852 1073.09 68.475C1074.31 62.5268 1075.87 59.1037 1077.77 58.2059C1078.04 58.2059 1078.21 58.262 1078.28 58.3742C1078.28 58.3742 1078.79 58.5426 1079.6 58.5426C1081.1 58.5426 1082.04 60.5627 1082.45 64.6031C1082.99 69.5412 1083.87 75.265 1085.1 81.7744L1085.5 82.2794L1096.59 85.3097C1099.48 85.9403 1102.08 87.2919 1104.01 89.1817C1104.96 91.2018 1105.44 92.1371 1105.44 91.9874C1105.44 94.5687 1102.86 96.7573 1097.71 98.553L1084.89 102.593C1084.08 106.185 1083.2 109.72 1082.25 113.199C1080.76 118.698 1079.06 121.953 1077.16 122.963C1076.35 122.376 1075.7 121.66 1075.23 120.859C1074.87 120.23 1074.43 119.637 1073.91 119.091C1072.82 115.395 1072 111.647 1071.47 107.868C1071.33 102.481 1069.84 99.7875 1066.99 99.7875L1064.35 100.461L1061.91 98.4407L1061.09 99.1141L1058.24 96.9256C1056.6 96.5041 1055.15 95.6829 1054.07 94.5688C1052.91 93.5894 1052.23 92.2917 1052.14 90.9212V91.0335Z" fill="#F4A321"></path><path d="M900.024 40.2742H782.747C777.792 40.4108 772.943 41.7392 768.611 44.147C764.278 46.5548 760.59 49.971 757.857 54.1065C754.972 58.3419 753.362 63.3164 753.219 68.4395C753.077 73.5626 754.408 78.6189 757.054 83.0081C758.852 86.4555 761.458 89.4165 764.649 91.6384C767.839 93.8604 771.52 95.2773 775.377 95.7683C779.235 96.2593 783.153 95.8097 786.799 94.458C790.445 93.1062 793.709 90.8925 796.314 88.0056C799.697 84.2504 801.57 79.3749 801.57 74.3202C801.57 69.2654 799.697 64.3898 796.314 60.6346C793.386 57.3114 789.262 55.281 784.843 54.9864C780.424 54.6917 776.067 56.1569 772.724 59.0621C770.524 61.0869 769.027 63.7598 768.449 66.6931C767.871 69.6264 768.242 72.6676 769.509 75.3756C770.364 77.3951 771.856 79.0793 773.758 80.171C775.66 81.2627 777.867 81.7018 780.042 81.4215C781.196 81.3167 782.266 80.7737 783.032 79.9038C783.798 79.034 784.201 77.9037 784.159 76.7456C784.12 76.1341 783.954 75.5376 783.67 74.9945C783.387 74.4514 782.993 73.9738 782.513 73.5925C782.034 73.2112 781.48 72.9345 780.887 72.7806C780.294 72.6266 779.675 72.5987 779.071 72.6987C778.658 72.7685 778.029 72.8663 777.449 71.6362C777.009 70.6506 776.873 69.556 777.058 68.4926C777.244 67.4293 777.743 66.4455 778.49 65.6671C779.316 64.9373 780.284 64.3868 781.333 64.0504C782.382 63.7139 783.489 63.5989 784.585 63.7126C785.681 63.8263 786.741 64.1661 787.699 64.7106C788.657 65.2552 789.491 65.9927 790.149 66.8763C791.979 69.0822 792.933 71.8842 792.83 74.7483C792.727 77.6124 791.573 80.3384 789.59 82.4071C787.886 84.1939 785.778 85.5444 783.442 86.3442C781.106 87.1441 778.613 87.3698 776.171 87.0024C773.73 86.6349 771.413 85.6851 769.416 84.2331C767.42 82.7812 765.802 80.8699 764.7 78.6607C762.863 75.6791 761.933 72.2279 762.022 68.7272C762.112 65.2264 763.217 61.8272 765.203 58.9432C767.326 55.7106 770.27 53.1006 773.733 51.381C777.197 49.6614 781.056 48.8941 784.914 49.1578C790.356 49.459 795.536 51.5963 799.607 55.2206C803.678 58.8448 806.4 63.7422 807.329 69.113C807.925 73.108 807.664 77.184 806.564 81.0704C805.463 84.9568 803.548 88.5644 800.946 91.6538C798.344 94.7431 795.115 97.2434 791.472 98.9884C787.829 100.733 783.857 101.683 779.818 101.775H760.248C758.394 101.775 756.616 102.511 755.305 103.822C753.995 105.133 753.258 106.911 753.258 108.765V109.464C753.258 111.317 753.995 113.095 755.305 114.406C756.616 115.717 758.394 116.453 760.248 116.453H805.204C806.131 116.453 807.02 116.821 807.676 117.477C808.331 118.132 808.699 119.021 808.699 119.948C808.699 120.875 808.331 121.764 807.676 122.419C807.02 123.074 806.131 123.443 805.204 123.443H760.234C758.38 123.443 756.602 124.179 755.291 125.49C753.981 126.801 753.244 128.578 753.244 130.432V131.131C753.244 132.985 753.981 134.763 755.291 136.073C756.602 137.384 758.38 138.121 760.234 138.121H877.504C882.459 137.983 887.307 136.655 891.64 134.247C895.972 131.839 899.661 128.423 902.394 124.288C905.281 120.054 906.892 115.079 907.035 109.956C907.179 104.833 905.85 99.7765 903.205 95.3866C901.405 91.9405 898.799 88.9809 895.608 86.7599C892.417 84.539 888.737 83.1227 884.88 82.6318C881.024 82.1409 877.105 82.5899 873.46 83.9407C869.815 85.2915 866.55 87.5038 863.944 90.3891C860.561 94.1443 858.688 99.0199 858.688 104.075C858.688 109.129 860.561 114.005 863.944 117.76C866.872 121.083 870.996 123.114 875.415 123.408C879.834 123.703 884.191 122.238 887.534 119.333C889.734 117.308 891.231 114.635 891.809 111.702C892.387 108.768 892.016 105.727 890.749 103.019C889.894 101 888.402 99.3155 886.5 98.2238C884.598 97.1321 882.391 96.6929 880.216 96.9732C879.062 97.078 877.992 97.6212 877.226 98.491C876.46 99.3608 876.057 100.491 876.099 101.649C876.138 102.261 876.304 102.857 876.588 103.4C876.871 103.943 877.266 104.421 877.745 104.802C878.224 105.184 878.779 105.46 879.372 105.614C879.965 105.768 880.583 105.796 881.188 105.696C881.6 105.626 882.229 105.521 882.809 106.759C883.249 107.744 883.385 108.839 883.2 109.902C883.014 110.965 882.516 111.949 881.768 112.728C880.942 113.457 879.975 114.008 878.925 114.344C877.876 114.681 876.769 114.796 875.673 114.682C874.577 114.569 873.517 114.229 872.559 113.684C871.601 113.139 870.767 112.402 870.109 111.518C868.279 109.313 867.323 106.512 867.425 103.648C867.527 100.784 868.679 98.0571 870.661 95.9877C872.365 94.2008 874.474 92.8504 876.809 92.0505C879.145 91.2507 881.639 91.0249 884.08 91.3924C886.521 91.7598 888.838 92.7097 890.835 94.1617C892.831 95.6136 894.449 97.525 895.551 99.7341C897.388 102.716 898.318 106.167 898.229 109.668C898.139 113.168 897.034 116.568 895.048 119.452C892.926 122.684 889.982 125.294 886.518 127.014C883.054 128.733 879.195 129.501 875.337 129.237C869.895 128.936 864.716 126.799 860.644 123.174C856.573 119.55 853.851 114.653 852.922 109.282C852.327 105.287 852.589 101.211 853.69 97.3255C854.791 93.4396 856.706 89.8324 859.308 86.7433C861.909 83.6542 865.139 81.154 868.781 79.4085C872.423 77.6631 876.395 76.7125 880.433 76.6197H900.003C901.857 76.6197 903.635 75.8833 904.946 74.5725C906.257 73.2617 906.993 71.4839 906.993 69.6302V68.9313C906.993 67.0775 906.257 65.2997 904.946 63.9889C903.635 62.6781 901.857 61.9418 900.003 61.9418H855.068C854.141 61.9418 853.252 61.5735 852.597 60.9181C851.941 60.2627 851.573 59.3739 851.573 58.447C851.573 57.5201 851.941 56.6312 852.597 55.9758C853.252 55.3204 854.141 54.9522 855.068 54.9522H900.024C901.878 54.9522 903.656 54.2158 904.967 52.905C906.278 51.5943 907.014 49.8164 907.014 47.9627V47.2637C907.014 45.41 906.278 43.6321 904.967 42.3214C903.656 41.0106 901.878 40.2742 900.024 40.2742Z" fill="#F4A321"></path><path d="M501.055 123.118C501.115 129.666 502.762 136.086 505.837 141.76C508.664 147.728 513.417 152.417 519.226 154.972C524.016 157.203 529.03 158.844 534.17 159.863C540.703 159.695 547.081 157.713 552.67 154.115C558.659 150.674 563.666 145.584 567.166 139.379C569.869 141.736 571.933 144.816 573.143 148.303C576.132 155.734 577.507 159.482 577.626 159.609C579.619 162.763 582.159 167.252 585.247 173.074L601.835 142.269C606.232 147.338 611.144 151.875 616.48 155.798C621.102 158.557 626.332 159.96 631.632 159.863C631.304 159.863 634.113 159.259 640.061 158.021C648.789 156.413 656.577 151.237 661.759 143.602C666.51 136.43 668.963 127.822 668.752 119.053C668.876 116.571 668.776 114.083 668.453 111.622C667.377 107.434 665.528 103.515 663.014 100.093C661.328 98.1081 659.467 96.3001 657.455 94.6943C655.751 93.3286 654.885 92.1536 654.885 91.1373C656.022 89.0233 657.419 87.0795 659.039 85.3572C661.326 82.6642 663.33 79.7144 665.016 76.5602C667.054 71.7738 668.075 66.569 668.005 61.316C667.842 50.7553 664.107 40.6097 657.485 32.7333C650.133 23.2057 641.764 18.696 632.29 18.696C622.816 18.696 613.491 26.0323 604.584 40.7047C601.903 35.2834 599.557 29.682 597.561 23.9362C595.205 17.2895 591.985 11.0254 587.997 5.32568C583.135 11.1693 576.869 22.74 569.198 40.0378C568.921 40.079 568.639 40.0351 568.384 39.9113C568.13 39.7875 567.915 39.5889 567.763 39.3391C564.381 33.4657 559.369 28.8502 553.417 26.1275C547.986 22.9348 541.926 21.14 535.724 20.8874C530.941 20.8731 526.231 22.1365 522.027 24.5616C517.823 26.9866 514.26 30.4956 511.665 34.7659C506.664 41.6902 503.897 50.1432 503.775 58.8706C504.064 64.3223 505.592 69.6183 508.228 74.3053C511.389 80.8416 516.019 86.4485 521.707 90.6292C521.707 90.9468 521.229 91.4549 520.272 92.1536C507.461 97.002 501.055 107.324 501.055 123.118ZM611.16 92.9793C611.18 84.0015 612.306 75.0651 614.507 66.3974C618.492 51.7249 624.768 44.3887 633.336 44.3887C635.301 44.3742 637.245 44.8323 639.02 45.7287C640.795 46.6252 642.357 47.9368 643.587 49.5654C646.302 52.6751 647.817 56.7564 647.831 60.9984C647.926 64.4498 646.867 67.8252 644.843 70.526C643.611 72.048 642.07 73.2511 640.334 74.0437C638.599 74.8362 636.717 75.1973 634.83 75.0992C632.206 75.3455 629.588 74.5539 627.478 72.8761C626.642 71.9557 625.973 70.879 625.506 69.7003C625.163 68.7884 624.7 67.9329 624.131 67.1596C623.464 68.3446 623.084 69.6867 623.025 71.0659C623.252 73.2383 623.734 75.372 624.459 77.4176C625.309 80.2081 626.462 82.8834 627.896 85.389C629.33 87.6547 630.95 89.7803 632.738 91.7407C628.073 97.2472 625.366 104.314 625.087 111.717C625.087 117.814 626.083 120.863 628.076 120.863C628.494 120.863 628.972 119.784 629.51 117.687C629.812 115.474 630.635 113.377 631.901 111.59C632.862 110.481 634.047 109.619 635.368 109.069C636.688 108.519 638.109 108.295 639.523 108.414C647.413 108.414 651.328 112.955 651.328 121.975C651.38 123.787 651.33 125.6 651.179 127.406C650.452 129.054 649.438 130.541 648.19 131.788C646.002 133.563 643.587 134.996 641.017 136.044C639.321 136.97 637.494 137.592 635.607 137.886C635.386 137.914 635.164 137.85 634.986 137.708C634.808 137.566 634.688 137.357 634.651 137.124C634.651 136.616 634.173 136.361 633.515 136.361C630.381 136.159 627.355 135.062 624.758 133.186C622.242 131.391 620.029 129.158 618.213 126.58C613.511 118.534 611.16 107.334 611.16 92.9793ZM575.803 92.6617C575.803 77.2906 579.36 59.7387 586.473 40.006C592.829 54.5478 596.249 70.3424 596.515 86.3735C596.327 104.622 592.699 122.645 585.845 139.379C582.572 132.816 580.235 125.774 578.911 118.481C576.959 110.028 575.916 101.366 575.803 92.6617ZM521.707 120.577C521.707 119.026 522.028 117.493 522.648 116.088C523.268 114.683 524.171 113.44 525.294 112.447C527.641 110.218 530.694 109.016 533.841 109.081C535.669 108.827 537.524 109.242 539.101 110.256C541.293 113.676 542.808 117.533 543.555 121.594C544.928 119.457 545.939 117.082 546.543 114.575C547.396 111.981 547.929 109.28 548.127 106.54C548.127 104.423 546.274 99.511 542.568 91.8042C545.724 88.9456 548.115 85.2543 549.502 81.1016C550.797 77.829 551.506 74.3288 551.594 70.7801C551.686 67.7392 551.081 64.7201 549.831 61.9829L546.334 70.1131C545.747 71.6204 544.752 72.9083 543.475 73.8131C542.198 74.7179 540.696 75.1987 539.161 75.1945C537.486 75.2323 535.823 74.8956 534.278 74.2063C532.733 73.5169 531.342 72.4903 530.195 71.1929C528.961 69.7431 528.009 68.0484 527.393 66.2062C526.778 64.364 526.511 62.4107 526.609 60.4585C526.609 51.185 531.391 46.5483 540.954 46.5483C544.73 46.3321 548.476 47.3561 551.684 49.4812C554.892 51.6062 557.407 54.7293 558.887 58.426C561.643 64.9576 562.952 72.0742 562.712 79.2279C562.729 88.5299 561.726 97.8024 559.724 106.858C556.854 118.926 552.501 127.109 546.663 131.407C545.249 132.628 543.625 133.545 541.881 134.107C541.568 134.106 541.258 134.173 540.97 134.304C540.682 134.435 540.423 134.627 540.207 134.869C540.019 135.096 539.79 135.28 539.533 135.411C539.276 135.542 538.997 135.617 538.713 135.631C538.005 135.598 537.304 135.481 536.621 135.282C535.948 135.089 535.255 134.982 534.559 134.964C532.653 134.952 530.779 134.435 529.109 133.459C527.439 132.483 526.025 131.079 524.995 129.375C523.035 126.895 521.882 123.81 521.707 120.577Z" fill="#F4A321"></path><path d="M245.202 163.944C245.202 172.734 254.956 177.14 274.465 177.163C300.688 177.163 318.734 170.972 328.603 158.59C332.563 158.319 336.546 158.625 340.392 159.493C342.489 160.779 344.376 162.31 346 164.045C348.073 166.148 350.416 168.034 352.982 169.667C358.638 172.641 364.832 174.746 371.296 175.891C378.068 177.482 385.04 178.325 392.05 178.401C413.06 178.401 423.577 173.939 423.603 165.015C423.603 152.856 419.597 144.947 411.585 141.288C406.167 138.79 394.975 137.54 378.01 137.54C377.133 137.61 376.278 137.826 375.492 138.176C374.64 138.57 373.705 138.809 372.745 138.879C366.585 139.295 360.575 140.749 355.043 143.162C350.447 144.805 346.082 146.905 342.033 149.42C340.659 147.747 339.972 142.46 339.972 133.525C339.972 129.509 343.788 126.631 351.151 124.958C355.562 124.11 360.066 123.695 364.581 123.719C375.721 123.719 384.115 125.527 389.799 129.074C390.219 129.308 391.936 130.613 394.912 132.989C397.087 134.662 398.498 135.499 399.185 135.499C401.16 135.42 403.054 134.79 404.591 133.701C406.129 132.611 407.229 131.119 407.731 129.442C408.793 126.867 409.335 124.149 409.334 121.41C409.334 119.269 407.464 117.294 403.649 115.521C401.159 114.062 398.28 113.197 395.293 113.011C393.048 113.084 390.813 113.331 388.617 113.747C386.403 114.138 384.158 114.373 381.902 114.45C381.215 114.45 376.293 115.42 367.137 117.395C357.98 119.369 353.097 120.34 352.486 120.34C350.553 120.602 348.65 121.016 346.802 121.578C344.758 122.149 342.682 122.629 340.583 123.017C339.726 116.976 339.254 110.898 339.171 104.812C342.866 102.334 347.078 100.515 351.571 99.4574C352.525 99.4574 355.729 99.4574 361.147 99.4574C366.353 99.3901 371.528 100.173 376.408 101.766C379.416 103 382.279 104.491 384.954 106.217C386.184 107.243 387.637 108.04 389.227 108.56C394.492 108.56 397.163 105.213 397.163 98.5204C397.436 96.7784 396.917 95.0121 395.718 93.6031C394.518 92.1941 392.735 91.2557 390.753 90.9908C387.058 90.4763 383.313 90.2858 379.575 90.422C378.686 90.4741 377.805 90.5972 376.942 90.79C376.067 90.9858 375.173 91.1091 374.271 91.1582C373.353 91.2506 372.461 91.4887 371.639 91.8609C370.782 92.245 369.85 92.4835 368.892 92.5637C367.49 92.6894 366.101 92.9019 364.733 93.1995C363.394 93.5072 362.029 93.7198 360.651 93.8353H356.836C356.529 93.8243 356.223 93.8725 355.939 93.9766C355.656 94.0807 355.402 94.238 355.195 94.4377C355.033 94.6335 354.821 94.7931 354.576 94.9036C354.331 95.0141 354.059 95.0723 353.784 95.0735C349.059 95.4999 344.453 96.6317 340.163 98.42C339.629 98.42 339.095 98.0853 338.523 97.3491C338.415 93.9885 338.084 90.6363 337.531 87.3097C337.531 83.7289 341.041 81.4533 348.099 80.6167C352.682 80.1474 357.298 79.9686 361.91 80.0814C366.792 80.2521 371.467 81.8547 375.187 84.6325C379.765 87.7113 382.016 89.2507 381.902 89.2507C387.167 89.2507 389.799 85.9042 389.799 79.4455C389.806 78.2342 389.459 77.0415 388.791 75.9812C388.123 74.9209 387.157 74.0284 385.984 73.3884C384.325 72.1615 382.24 71.4653 380.071 71.4139C371.766 71.8481 363.527 72.9686 355.462 74.7604C349.604 75.7253 343.829 77.0448 338.179 78.7093C337.32 74.2173 336.836 69.6764 336.729 65.1226C342.79 62.3617 349.603 61.1226 356.416 61.5418C360.607 61.7556 364.666 62.9077 368.205 64.8883C369.991 65.7607 371.519 66.9869 372.669 68.4691C373.043 68.5491 373.394 68.6972 373.699 68.904C374.247 69.2041 374.884 69.3554 375.53 69.3391C378.659 69.3391 380.567 67.5654 381.215 63.9847C381.215 61.843 381.482 59.7013 381.635 57.5595C380.286 56.7057 378.81 56.0187 377.247 55.5181C375.751 54.8474 374.14 54.3953 372.478 54.1795C366.038 54.4418 359.646 55.2829 353.402 56.6894C348.251 57.8607 343.025 58.9985 337.721 60.0359C336.951 56.449 336.543 52.8096 336.5 49.1598C338.281 48.0594 340.29 47.275 342.414 46.8507C344.778 46.1339 347.243 45.706 349.739 45.5791C352.219 45.5501 354.69 45.8549 357.065 46.4827C359.553 47.3395 361.911 48.4635 364.085 49.8292C365.746 51.0282 367.63 51.9677 369.655 52.6067C371.563 52.6067 373.127 51.4912 374.348 49.2602C375.088 47.8627 375.503 46.3495 375.569 44.8094C375.569 41.2287 372.478 39.455 366.259 39.455C356.998 39.7723 347.848 41.3413 339.133 44.1067H337.302C336.384 42.1178 335.905 39.9942 335.89 37.8487C335.89 35.0042 340.278 33.331 349.053 32.8625C355.262 33.1831 361.171 35.3151 365.84 38.9196C368.396 38.9196 369.884 35.8409 370.265 29.6499C368.184 28.3986 365.73 27.7119 363.207 27.6755C354.163 28.5132 345.224 30.0701 336.5 32.327L336.081 31.7916V24.3959C337.428 23.5412 338.94 22.9064 340.545 22.5219C342.086 21.9255 343.718 21.5309 345.39 21.3506C349.243 21.3733 353.026 22.2603 356.378 23.9273C359.964 25.6675 361.567 26.5042 361.147 26.5042C363.818 26.5042 365.191 24.8979 365.191 21.7187C365.191 19.4877 364.504 18.1156 363.131 17.6025C362.864 17.6025 361.033 17.0002 357.637 16.1636C358.506 15.6814 359.234 15.028 359.764 14.2552C360.294 13.4825 360.611 12.6118 360.689 11.7127V9.4036C359.409 8.5479 357.835 8.09956 356.225 8.13203V1.43906C354.547 0.881175 352.752 0.641586 350.96 0.73623C348.15 1.05128 345.361 1.4981 342.605 2.0748C337.721 2.94489 334.974 3.41348 334.478 3.41348C331.592 2.99949 328.738 2.42947 325.932 1.70674C323.125 0.987788 320.271 0.417821 317.386 0C316.685 0.0526142 315.994 0.176193 315.326 0.368166C314.473 0.599225 313.586 0.72311 312.693 0.73623C312.462 2.88741 312.952 5.0511 314.105 6.96074C312.922 7.32885 311.129 7.93114 308.84 8.76776V13.7541C309.527 14.1222 310.519 14.6911 311.892 15.5277C309.713 16.6031 307.394 17.4457 304.987 18.0376V22.8565C305.037 23.3481 305.219 23.8224 305.517 24.2409C305.815 24.6595 306.222 25.0107 306.703 25.266C307.588 25.9396 308.701 26.3394 309.87 26.4038C310.404 26.4038 311.244 25.8683 312.388 24.7974C313.219 23.9495 314.214 23.236 315.326 22.6891C318.18 21.7058 321.225 21.2172 324.292 21.2502C327.233 21.4879 330.152 21.9016 333.029 22.4884V31.7582L307.238 27.7424C302.621 27.7424 299.989 28.4452 299.302 29.8842C299.302 31.3231 299.302 32.7955 299.302 34.3349C299.424 35.2886 299.845 36.1939 300.519 36.9502C301.192 37.7064 302.092 38.2839 303.117 38.6184C301.4 38.9865 299.683 39.3881 297.967 39.8901C296.891 40.0138 295.907 40.4824 295.202 41.2054C294.498 41.9284 294.123 42.8546 294.151 43.8054C294.192 45.4666 294.607 47.1042 295.372 48.6244C296.44 51.0004 297.776 52.2051 299.416 52.2051C300.928 51.6676 302.303 50.8712 303.46 49.8625C304.918 48.7226 306.549 47.7654 308.306 47.0181C311.827 46.0127 315.515 45.5264 319.217 45.5791C323.662 45.4169 328.052 46.482 331.77 48.6244V58.2622C331.602 58.4322 331.496 58.6418 331.464 58.8646C331.464 59.1658 330.968 59.3331 330.129 59.3331C328.817 59.1841 327.533 58.8802 326.314 58.4296C324.792 57.8587 323.223 57.3888 321.621 57.0241C313.615 54.9576 305.351 53.7551 297.013 53.4433C291.061 53.4433 288.085 55.8862 288.085 60.7386C288.085 65.591 290.031 68.6029 293.96 68.6029C294.647 68.6029 295.487 68.1344 296.517 67.1639C297.109 66.578 297.76 66.0403 298.462 65.5576C301.316 64.0478 304.301 62.7387 307.39 61.6422C308.497 61.6422 311.205 61.6422 315.517 61.6422L319.332 60.906C323.592 61.178 327.684 62.4748 331.159 64.654V76.9691C330.991 77.1514 330.885 77.3719 330.854 77.6049C330.854 77.9061 330.32 78.04 329.519 78.04C310.519 73.1987 297.369 70.767 290.069 70.7447C288.259 71.0889 286.513 71.6521 284.88 72.4179C283.11 73.0419 281.432 73.8509 279.882 74.8274C279.094 83.6175 281.472 88.0236 287.017 88.0459C289.531 87.1854 291.835 85.9135 293.808 84.2979C298.478 81.5174 303.961 79.9726 309.603 79.8471L316.509 79.4789C321.518 79.5655 326.362 81.0678 330.32 83.7624C330.32 93.8019 329.862 98.5539 328.908 98.5539C327.094 98.2341 325.318 97.7635 323.605 97.1483L315.478 94.8059C303.762 91.8404 291.654 90.2315 279.463 90.0203C278.459 90.1434 277.493 90.4406 276.622 90.8945C275.751 91.3484 274.992 91.9499 274.388 92.6641C272.914 93.7652 271.918 95.2778 271.565 96.9476C271.507 99.5239 272.274 102.063 273.778 104.276C274.452 105.605 275.63 106.688 277.111 107.341C278.593 107.994 280.287 108.176 281.904 107.857C285.43 104.238 290.004 101.521 295.143 99.9929C299.035 99.4048 302.986 99.1693 306.932 99.2901C311.091 99.1197 315.257 99.4121 319.332 100.16C322.193 100.997 323.91 101.532 324.444 101.766C326.1 102.334 327.568 103.254 328.717 104.444C329.514 106.601 329.786 108.881 329.519 111.137C329.519 111.605 329.519 113.211 329.213 115.956C328.908 118.7 328.908 120.708 328.908 122.013L327.687 123.084C320.446 120.316 312.868 118.284 305.101 117.026C293.542 114.366 281.678 112.862 269.734 112.542C268.047 113.027 266.461 113.75 265.041 114.684C263.377 115.409 261.918 116.449 260.768 117.729C260.389 119.256 260.247 120.821 260.348 122.381C260.348 130.345 263.362 134.328 269.314 134.328C271.587 133.587 273.664 132.449 275.418 130.981C277.707 129.302 280.158 127.802 282.744 126.497C289.979 123.839 297.799 122.627 305.635 122.95C310.006 123.099 314.327 123.821 318.454 125.091C325.513 126.999 329.023 129.475 329.023 132.588C329.023 132.588 329.023 134.796 328.603 138.912C328.183 143.029 328.221 146.141 328.221 148.283L327.001 149.353C319.385 143.706 310.146 140.001 300.294 138.645C290.477 137.297 280.545 136.704 270.611 136.871C269.798 136.936 269.007 137.141 268.284 137.473C267.554 137.826 266.748 138.042 265.918 138.109C263.086 138.161 260.307 138.793 257.802 139.955C255.298 141.117 253.139 142.777 251.497 144.802C248.056 148.181 246.226 152.589 246.384 157.117C246.303 158.241 246.137 159.359 245.888 160.464C245.562 161.607 245.332 162.771 245.202 163.944ZM342.223 154.674C342.223 151.328 348.124 148.35 359.926 145.739C366.147 144.153 372.541 143.144 379.002 142.727C388.083 142.727 394.378 143.977 397.888 146.476C402.11 149.309 404.221 154.541 404.221 162.171C404.236 163.891 403.686 165.578 402.637 167.032C401.589 168.486 400.086 169.644 398.307 170.369C395.389 171.787 392.105 172.525 388.769 172.511H383.123C382.204 172.419 381.312 172.181 380.49 171.808C379.664 171.411 378.756 171.161 377.82 171.072C377.197 171.071 376.578 170.98 375.988 170.804C375.332 170.631 374.651 170.541 373.966 170.537H370.494C367.518 170.537 362.177 168.596 354.432 164.647C346.687 160.698 342.223 157.151 342.223 154.674ZM334.898 20.4804V16.7659C334.898 13.4194 337.95 11.947 344.474 11.947C346.698 11.8706 348.915 12.2135 350.975 12.9524C353.035 13.6913 354.89 14.8092 356.416 16.2305C350.96 17.0336 343.864 18.4726 334.898 20.4804ZM335.699 10.441V5.45478C337.907 4.6125 340.249 4.07078 342.643 3.84843C344.432 4.0482 346.157 4.56028 347.717 5.35439C349.249 5.93201 350.686 6.68607 351.99 7.59658L335.699 10.441ZM316.623 7.3958C317.646 6.11669 319.056 5.1133 320.694 4.49847C322.332 3.88364 324.133 3.68172 325.894 3.91543C327.45 3.87154 328.999 4.11722 330.44 4.63634C331.88 5.15546 333.178 5.93622 334.249 6.92724C333.557 8.02188 333.202 9.25614 333.219 10.508C332.8 10.3741 327.382 9.37018 316.776 7.46269L316.623 7.3958ZM311.968 16.1636C313.656 14.6461 315.615 13.3802 317.768 12.4155C319.581 11.981 321.461 11.8003 323.338 11.8801C328.527 11.8801 331.77 12.5828 333.105 14.0218V19.7108C328.527 18.8407 321.468 17.7029 312.121 16.2305L311.968 16.1636ZM304.338 38.6184C306.1 36.7373 308.339 35.2434 310.876 34.2557C313.413 33.268 316.178 32.8137 318.95 32.9294C322 32.8532 325.04 33.2731 327.916 34.1676C329.29 34.6362 330.701 35.1715 332.189 35.7739C332.225 37.8327 332.085 39.891 331.77 41.9314C331.702 42.6856 331.574 43.4349 331.388 44.1736C322.586 41.8996 313.644 40.0672 304.605 38.6853L304.338 38.6184ZM265.27 159.426C265.27 152.298 267.292 147.479 271.374 144.97C274.77 142.928 280.722 141.924 289.268 141.924C295.977 142.309 302.604 143.434 308.993 145.271C320.438 147.981 326.276 151.094 326.276 154.541C326.276 156.314 324.75 158.155 321.621 160.062C318.493 161.97 314.41 164.245 309.412 166.755C307.238 167.458 303.88 168.328 299.34 169.332C296.642 170.021 293.886 170.525 291.099 170.838C290.565 170.838 288.085 170.838 283.469 170.57L275.838 170.302C268.971 170.459 265.537 166.856 265.537 159.493L265.27 159.426Z" fill="#F4A321"></path><path d="M0.000307174 87.3285L58.3977 172.257L83.0577 140.55L106.296 173.074L167.749 91.0716L109.2 6.39514L84.5101 37.85C79.7899 31.3703 72.0439 20.5289 61.2721 5.32568L0.000307174 87.3285ZM96.6132 123.564L119.851 91.0402L96.6132 56.4398C99.3969 52.7596 103.391 47.8212 108.535 41.6875L142.363 92.0153L106.326 138.411L96.6132 123.564ZM72.5885 88.7439L78.2165 81.2891C80.7985 77.892 82.6744 75.47 83.8444 74.0231C83.8444 74.0231 86.2045 77.4831 90.6524 84.0572C92.2013 86.0262 93.4466 88.2334 94.3438 90.5998C93.4675 92.9288 92.1738 95.0636 90.5313 96.8908C88.5 99.7094 86.3074 102.398 83.9654 104.943L72.5885 88.7439ZM25.326 88.9641L61.3327 41.5931C63.3902 44.7386 66.6278 49.6141 71.1362 56.314L46.93 88.8383L70.1679 122.715C66.7993 127.99 62.9925 132.947 58.791 137.53L25.326 88.9641Z" fill="#F4A321"></path></svg>