<svg xmlns="http://www.w3.org/2000/svg" width="2723" height="295" viewBox="0 0 2723 295" fill="none"><path d="M277.379 46.2355C260.477 60.6617 252.026 69.3105 252.026 72.1819C252.026 73.6349 257.243 79.4469 267.676 89.6179C260.06 98.0591 249.974 108.438 237.419 120.754C220.57 136.944 210.188 147.219 206.119 151.422L267.52 214.576C256.217 224.954 250.566 230.766 250.566 232.012C250.566 233.309 253.226 236.63 258.599 241.975L273.102 256.35C268.25 261.902 260.112 270.464 248.583 282.296C240.579 274.015 232.133 266.168 223.282 258.789C216.894 263.91 210.864 269.458 205.233 275.394L141.068 212.656L68.4515 280.635C62.0645 275.896 56.3602 270.309 51.4973 264.03C45.3764 269.011 36.5776 276.38 25.101 286.136C23.223 284.32 15.0849 275.757 0.634766 260.19C7.86282 252.494 15.7718 245.46 24.2663 239.173C19.5899 231.591 13.9823 224.618 7.57295 218.416L77.6328 149.554C76.8633 148.179 76.2676 146.715 75.8592 145.195C59.8961 128.797 38.1079 106.483 10.4943 78.2534L27.4485 61.3882C24.8237 57.2918 21.6468 53.5728 18.0063 50.335C10.39 42.3954 5.59059 37.3099 3.55609 35.1304C6.84713 30.7905 10.5698 26.7918 14.6676 23.1951L29.4308 9.3916C44.6113 25.2189 52.8014 33.1585 53.8969 33.1585C54.9924 33.1585 61.5133 27.5541 72.7813 16.2934L142.528 87.4903L206.85 27.3465C210.594 29.9798 214.086 32.9502 217.283 36.2202C221.717 40.6311 224.586 42.8625 225.891 42.8625C229.983 40.6611 233.655 37.7631 236.741 34.3002C245.471 26.1703 250.479 21.5518 251.765 20.4448C255.68 23.5823 259.311 27.0551 262.616 30.8234C270.858 39.6451 275.866 44.7825 277.379 46.2355ZM225.525 213.227L162.925 150.644L225.838 89.4622C221.943 84.6535 215.631 77.9074 206.902 69.224L142.476 129.056L71.425 59.6238C69.547 61.4401 66.2083 64.8131 61.9828 69.691C57.7573 74.569 54.4186 77.8901 52.5928 79.7064L120.775 150.384L49.7758 220.076C51.6538 221.893 54.6794 225.266 58.9571 230.04C63.2348 234.814 66.5213 238.239 68.7123 240.418L141.276 172.439L205.337 233.413C212.783 227.432 219.552 220.664 225.525 213.227Z" fill="#F4A321"></path><path d="M681.898 227.327C681.898 231.247 680.349 233.547 677.139 234.331C660.635 237.101 643.297 238.602 625.786 238.775C617.378 238.785 609.117 239.815 601.793 241.764C594.468 243.714 588.325 246.518 583.951 249.909C583.951 253.621 583.951 259.005 582.733 266.062C581.482 270.636 577.661 274.968 571.666 278.608C568.867 280.788 564.986 282.613 560.357 283.925C555.729 285.237 550.493 285.996 545.104 286.136C536.851 285.765 529.229 283.89 523.854 280.909C517.308 278.057 512.428 274.456 509.688 270.454C509.688 269.356 509.688 266.115 509.688 260.73C510.123 257.811 509.334 254.88 507.364 252.105C505.296 249.696 502.177 247.521 498.211 245.719C494.245 243.918 489.52 242.531 484.343 241.65C473.911 240.456 463.201 239.894 452.469 239.977C440.585 240.071 428.744 239.277 417.385 237.625C413.615 237.063 410.36 235.915 408.149 234.368C405.938 232.821 404.902 230.965 405.21 229.104C405.21 221.315 416.831 216.662 440.073 215.199C442.961 214.369 446.151 213.802 449.48 213.526L455.457 214.624L459.552 212.69C464.322 211.819 469.248 211.154 474.272 210.703C476.888 209.923 479.67 209.275 482.572 208.769C488.106 208.769 490.984 205.685 491.426 199.568C491.426 194.759 480.359 189.898 459.884 184.932C439.409 179.965 428.12 174.947 428.12 169.929C427.974 168.377 428.53 166.828 429.752 165.385C430.973 163.943 432.832 162.641 435.203 161.564C445.113 158.518 455.598 155.91 466.525 153.775C479.736 151.215 491.461 147.2 500.723 142.066C502.715 128.3 503.711 121.975 503.711 123.09C503.816 121.515 503.594 119.939 503.047 118.385C500.235 115.514 495.742 113.084 490.098 111.38C486.189 109.597 483.689 107.236 483.015 104.689C481.466 101.396 479.916 98.2069 478.367 95.2272C477.119 94.2603 475.506 93.4099 473.608 92.7181C462.54 91.6204 451.473 90.3658 440.405 88.9543C435.278 88.404 430.76 86.9798 427.717 84.9542C424.675 82.9287 423.321 80.4442 423.915 77.9765C423.407 75.3563 424.749 72.7304 427.732 70.5082C430.715 68.2861 435.171 66.5926 440.405 65.6918C451.268 64.4206 462.416 63.7713 473.608 63.7577C483.122 64.1873 492.666 63.1017 500.723 60.6735C501.941 51.3685 503.379 42.1159 504.929 32.8109C508.802 17.1284 519.87 9.3916 538.131 9.3916C556.393 9.3916 568.235 16.292 574.211 30.0403C575.761 38.7529 577.532 47.4654 579.524 56.1779C580.368 57.7767 582.046 59.2502 584.404 60.4645C586.763 61.6788 589.726 62.5953 593.026 63.1304L629.66 64.8032C647.7 66.267 656.775 70.8671 656.775 78.447C657.123 80.2838 656.436 82.1314 654.783 83.8023C653.131 85.4732 650.573 86.908 647.368 87.9611C640.741 89.4411 633.631 90.378 626.339 90.7317C619.086 91.0921 612.014 92.0288 605.422 93.5022C602.501 99.7513 598.159 105.833 592.473 111.642C588.28 112.924 584.545 114.512 581.405 116.347C579.533 121.419 578.755 126.569 579.081 131.715C578.895 135.106 580.521 138.464 583.81 141.479C587.098 144.494 591.943 147.069 597.896 148.966C609.738 151.946 621.802 154.978 634.197 158.01C646.593 161.042 652.791 164.858 652.791 169.301C652.791 173.745 642.83 178.815 623.019 183.834C603.208 188.852 593.247 193.87 593.247 198.889C593.36 201.877 595.407 204.778 599.113 207.201C600.735 208.507 603.069 209.584 605.873 210.32C608.676 211.055 611.845 211.422 615.05 211.383H624.458C626.653 211.495 628.769 211.834 630.656 212.376C632.692 212.971 635.015 213.313 637.407 213.369H646.925C657.068 213.357 666.812 215.236 674.04 218.597C676.572 219.71 678.581 221.063 679.934 222.567C681.288 224.071 681.957 225.693 681.898 227.327Z" fill="#F4A321"></path><path d="M1086.31 132.829H1053.09C1052.42 132.829 1052.08 132.921 1052.08 133.106C1052.08 133.106 1052.08 133.569 1052.75 133.94C1053.43 134.31 1053.43 134.588 1053.43 134.773C1053.43 134.958 1053.09 135.05 1052.42 135.05C1051.75 135.05 1050.35 135.05 1050.24 134.495C1050.13 133.94 1050.24 133.94 1049.73 133.94C1048.56 144.371 1048.22 154.855 1048.73 165.323C1052.08 167.545 1059.8 168.656 1071.88 168.656C1073.63 168.571 1075.37 168.385 1077.08 168.1C1079.13 167.775 1081.21 167.589 1083.29 167.545C1083.41 179.508 1080.79 191.382 1075.57 202.539C1069.97 214.076 1063.46 225.301 1056.11 236.144C1053.65 238.922 1049.29 243.551 1043.02 250.031C1039.29 252.808 1033.7 257.437 1026.24 263.918C1026.24 263.918 1024.9 264.195 1022.22 264.195C1021.32 264.195 1019.64 265.167 1017.18 267.111C1014.72 269.056 1013.04 270.305 1012.15 270.861C1007.09 273.777 1001.39 275.852 995.369 276.971C994.027 276.971 993.747 277.341 994.53 278.082C995.313 278.822 995.09 279.193 993.859 279.193C991.856 279.443 989.945 280.06 988.266 280.998C986.587 281.936 984.676 282.553 982.673 282.803C980.338 282.969 978.032 283.342 975.794 283.914C973.608 284.473 971.359 284.845 969.082 285.025C967.963 285.025 963.992 285.21 957.169 285.581C950.345 285.951 946.374 286.136 945.255 286.136C942.651 285.937 940.07 285.565 937.537 285.025C935.111 284.51 932.644 284.138 930.154 283.914C920.982 283.914 904.538 279.285 880.823 270.028L876.461 266.417C841.113 245.865 819.3 214.574 811.022 172.544C811.471 171.759 812.166 171.087 813.036 170.6C825.202 169.667 837.447 169.667 849.614 170.6L850.285 171.989V136.161H809.68V130.051C809.68 132.273 810.91 126.441 813.371 112.554C816.017 101.549 820.183 90.8325 825.788 80.6152C833.936 64.1486 846.345 49.3597 862.143 37.2892C877.369 24.6818 896.882 16.22 918.073 13.034L921.093 10.5345C929.438 9.64608 937.851 9.27474 946.262 9.42353C947.381 9.42353 951.576 9.79384 958.847 10.5345C966.118 11.2751 970.312 11.6454 971.431 11.6454C977.024 11.6454 986.532 14.5616 999.956 20.3939C1006.52 22.8775 1012.81 25.836 1018.75 29.235C1022.48 29.235 1028.85 33.1232 1037.88 40.8997C1045.63 47.3884 1052.36 54.6679 1057.9 62.5627L1068.64 79.5043C1068.32 80.5943 1068.21 81.7185 1068.3 82.8371C1068.26 82.5728 1068.28 82.303 1068.39 82.0493C1068.49 81.7957 1068.66 81.5652 1068.89 81.3763C1069.12 81.1874 1069.39 81.0453 1069.7 80.9613C1070.01 80.8774 1070.33 80.854 1070.65 80.8929C1071.99 80.8929 1072.67 83.3925 1072.67 88.3917C1073.64 91.4215 1074.88 94.3912 1076.36 97.2791C1079.04 103.204 1080.72 107.185 1081.39 109.221C1082.06 113.295 1083.74 119.775 1086.42 128.663L1086.31 132.829ZM1061.48 109.684C1058.35 103.204 1053.31 93.9463 1046.38 81.9113C1045.26 80.2449 1040.78 75.0606 1032.95 66.3584C1031.52 64.5498 1030.39 62.5876 1029.6 60.526C1028.26 58.119 1027.03 56.9155 1025.91 56.9155C1023.45 56.9155 1022.22 57.471 1022.22 58.5819L1024.23 57.1933C1010.36 45.1582 999.396 38.5853 991.342 37.4744L988.658 35.2525C987.229 35.1701 985.82 34.9368 984.463 34.5582C982.997 34.1588 981.473 33.9252 979.932 33.8639C976.103 33.2415 972.357 32.3114 968.746 31.0865C965.136 29.8617 961.389 28.9315 957.56 28.3092C947.39 28.4294 937.264 29.4537 927.358 31.3643C922.436 32.8455 915.389 34.697 906.216 36.9189C906.216 36.9189 906.216 37.3355 906.887 37.6132C907.558 37.8909 907.558 38.1224 907.558 38.3075C907.558 38.4927 906.999 38.5853 905.88 38.5853C902.909 38.4348 899.934 38.8136 897.155 39.6962L892.793 43.3067C881.607 47.7504 870.532 56.6378 859.57 69.9689C848.679 83.1705 840.618 97.8271 835.743 113.295C836.501 113.454 837.234 113.687 837.925 113.989C839.136 114.448 840.452 114.685 841.784 114.684C842.248 114.725 842.714 114.619 843.088 114.387C843.462 114.155 843.715 113.814 843.797 113.434C844.021 112.601 844.804 112.184 846.147 112.184C849.055 112.184 850.733 111.258 851.18 109.407C851.698 108.35 851.927 107.212 851.851 106.074C855.346 99.335 859.267 92.753 863.597 86.355C867.856 77.7651 874.393 70.0771 882.725 63.8588C893.24 54.9714 902.413 49.9722 910.243 48.8613L914.606 45.5285C916.084 45.5117 917.552 45.3248 918.968 44.9731C920.219 44.6458 921.517 44.459 922.827 44.4176C924.756 44.2329 926.641 43.8117 928.42 43.1678C931.105 42.3346 932.969 41.8255 934.013 41.6403C942.303 41.7452 950.594 41.467 958.847 40.8071L961.531 43.029C968.689 43.0666 975.764 44.2944 982.337 46.6395L986.7 49.9722C993.635 50.7129 1002.47 55.6194 1013.21 64.692C1022.35 71.8378 1029.65 80.4331 1034.69 89.9655C1035.74 90.6693 1036.65 91.5141 1037.37 92.4651C1039.51 98.756 1042.09 104.938 1045.09 110.98C1045.99 111.906 1048.22 112.369 1051.8 112.369C1055.27 112.117 1058.61 111.129 1061.48 109.499V109.684ZM1058.46 189.671C1047.27 189.671 1042.8 189.949 1045.04 190.504C1043.55 192.467 1041.86 194.325 1040 196.059C1039.78 196.799 1039.55 197.818 1039.33 199.114C1037.44 203.042 1035.19 206.848 1032.62 210.501C1027.03 217.351 1022.55 222.443 1019.2 225.776C1014.15 231.369 1007.82 236.087 1000.57 239.662C995.09 241.977 988.21 245.063 979.932 248.92L980.939 249.614C981.387 249.892 981.61 250.124 981.61 250.309H979.932L975.57 249.198L972.885 251.697L971.543 250.309L968.523 252.808C966.214 252.831 963.913 253.017 961.643 253.364C959.799 253.666 957.929 253.852 956.05 253.919C954.171 253.987 952.302 254.172 950.457 254.475C948.612 254.777 946.743 254.963 944.864 255.03C943.745 255.03 943.522 254.66 944.193 253.919C944.864 253.179 944.64 252.808 943.522 252.808H925.4C922.685 252.236 920.123 251.247 917.849 249.892C915.535 248.507 912.912 247.516 910.131 246.976C908.901 246.976 908.173 246.606 907.95 245.865C907.726 245.124 906.999 244.754 905.768 244.754C902.724 243.958 899.921 242.633 897.547 240.866C891.954 237.348 888.821 235.404 888.15 235.034C885.318 232.84 882.63 230.522 880.096 228.09C877.188 225.313 875.119 223.924 873.888 223.924C872.658 223.924 865.331 213 851.907 191.152C847.868 191.3 843.821 191.114 839.826 190.597V196.707C841.475 200.517 843.554 204.19 846.035 207.677C849.432 213.065 853.165 218.303 857.221 223.369C865.788 233.625 876.465 242.555 888.766 249.753C904.874 259.381 919.527 264.195 932.727 264.195C935.277 264.391 937.802 264.763 940.278 265.306C942.753 265.85 945.279 266.221 947.828 266.417C955.972 266.362 964.081 265.524 971.99 263.918C974.233 263.432 976.38 262.684 978.366 261.696C980.202 260.719 982.256 260.058 984.407 259.752C985.676 259.7 986.875 259.254 987.763 258.502C988.651 257.75 989.849 257.303 991.119 257.252C999.173 257.252 1011.98 249.383 1029.54 233.645C1047.11 217.907 1055.77 205.563 1055.55 196.614C1056.69 194.289 1057.67 191.909 1058.46 189.486V189.671ZM1015.5 109.407C1009.99 100.499 1003.59 91.9843 996.376 83.948C987.882 75.1788 976.253 68.8595 963.153 65.8955C960.469 63.6736 958.604 62.5627 957.56 62.5627L953.533 63.6736L950.848 61.4518H947.157C930.357 61.9231 914.223 67.0036 901.294 75.8938C896.596 80.3375 890.22 86.6327 882.166 94.7795C877.812 100.51 874.531 106.752 872.434 113.295H884.515C888.072 106.17 893.065 99.5961 899.281 93.8537C910.243 82.3742 919.975 76.6344 928.476 76.6344C931.855 76.4247 935.217 76.0537 938.544 75.5235C943.913 74.7829 947.045 74.4126 947.94 74.4126C954.255 75.1037 960.319 76.9028 965.726 79.6895C970.855 81.6789 975.68 84.165 980.1 87.0956C982.673 89.1323 985.414 91.169 988.322 93.2057C991.584 96.0362 993.998 99.4608 995.369 103.204C996.147 104.642 997.044 106.034 998.054 107.37C999.216 108.762 1000.02 110.338 1000.4 111.999H1013.83C1013.98 110.941 1014.58 109.96 1015.5 109.221V109.407ZM1012.48 189.671C1014.72 189.671 1009.91 190.226 998.054 191.337C994.195 197.248 989.336 202.672 983.624 207.446C979.413 211.008 974.678 214.118 969.529 216.703C964.276 219.948 958.121 222.049 951.632 222.813H935.524C930.964 221.411 926.58 219.644 922.436 217.537C914.456 213.895 910.355 212.074 910.131 212.074C908.565 212.074 906.104 210.686 902.748 207.909C899.759 205.516 897.163 202.808 895.03 199.854C893.687 197.818 892.457 195.874 891.338 194.022C890.447 192.928 889.249 192.028 887.846 191.399C886.444 190.771 884.879 190.432 883.284 190.411C880.81 190.161 878.309 190.653 876.237 191.8C878.698 199.577 887.423 209.668 902.413 222.073C905.146 224.422 908.319 226.391 911.809 227.905C916.263 229.81 920.927 231.36 925.736 232.534C929.473 233.715 933.355 234.553 937.313 235.034C938.656 235.034 941.62 234.848 946.206 234.478C950.793 234.108 953.757 233.923 955.099 233.923C956.645 233.873 958.149 233.49 959.462 232.812C960.617 232.182 961.943 231.8 963.321 231.701C964.553 231.632 965.727 231.243 966.677 230.59C967.678 229.918 968.913 229.529 970.201 229.479C975.794 229.479 982.841 225.683 991.342 218.092C996.79 213.573 1001.42 208.429 1005.1 202.817C1007.89 198.501 1010.35 194.049 1012.48 189.486V189.671ZM986.309 150.789C986.309 148.196 981.61 144.956 972.214 141.068C967.067 138.6 961.534 136.731 955.77 135.513C954.428 128.107 953.086 120.794 951.743 113.573C949.73 103.759 947.157 98.1123 944.025 96.631C943.578 96.631 943.298 96.7236 943.186 96.9088C943.186 96.9088 942.347 97.1865 941.005 97.1865C938.544 97.1865 936.978 100.519 936.307 107.185C935.412 115.332 933.958 124.774 931.944 135.513L931.273 136.347L912.983 141.346C908.206 142.386 903.93 144.616 900.735 147.733C899.169 151.066 898.386 152.609 898.386 152.362C898.386 156.621 902.636 160.231 911.138 163.194L932.28 169.859C933.622 175.784 935.076 181.617 936.642 187.356C939.103 196.429 941.9 201.798 945.032 203.465C946.364 202.496 947.449 201.315 948.22 199.993C948.811 198.956 949.543 197.978 950.401 197.077C952.196 190.978 953.541 184.795 954.428 178.562C954.652 169.674 957.113 165.231 961.811 165.231L966.174 166.341L970.201 163.009L971.543 164.12L976.241 160.509C978.954 159.814 981.351 158.459 983.121 156.621C985.036 155.005 986.171 152.864 986.309 150.603V150.789Z" fill="#F4A321"></path><path d="M1467.88 67.0481H1274.4C1266.23 67.2736 1258.23 69.4651 1251.08 73.4373C1243.94 77.4096 1237.85 83.0456 1233.34 89.868C1228.58 96.8554 1225.93 105.062 1225.69 113.514C1225.46 121.966 1227.65 130.308 1232.02 137.549C1234.98 143.236 1239.28 148.121 1244.55 151.787C1249.81 155.452 1255.88 157.79 1262.25 158.6C1268.61 159.41 1275.07 158.668 1281.09 156.438C1287.1 154.208 1292.49 150.556 1296.79 145.793C1302.37 139.598 1305.46 131.555 1305.46 123.216C1305.46 114.877 1302.37 106.833 1296.79 100.638C1291.96 95.1553 1285.15 91.8057 1277.86 91.3196C1270.57 90.8336 1263.38 93.2507 1257.87 98.0435C1254.24 101.384 1251.77 105.794 1250.82 110.633C1249.86 115.472 1250.47 120.489 1252.56 124.957C1253.98 128.289 1256.44 131.067 1259.57 132.868C1262.71 134.669 1266.35 135.394 1269.94 134.931C1271.85 134.758 1273.61 133.862 1274.87 132.427C1276.14 130.992 1276.8 129.128 1276.73 127.217C1276.67 126.208 1276.4 125.224 1275.93 124.328C1275.46 123.432 1274.81 122.644 1274.02 122.015C1273.23 121.386 1272.31 120.93 1271.34 120.676C1270.36 120.422 1269.34 120.376 1268.34 120.541C1267.66 120.656 1266.62 120.817 1265.66 118.788C1264.94 117.162 1264.71 115.356 1265.02 113.602C1265.33 111.847 1266.15 110.224 1267.38 108.94C1268.74 107.736 1270.34 106.828 1272.07 106.273C1273.8 105.718 1275.63 105.528 1277.44 105.716C1279.24 105.903 1280.99 106.464 1282.57 107.362C1284.15 108.261 1285.53 109.477 1286.62 110.935C1289.63 114.574 1291.21 119.197 1291.04 123.922C1290.87 128.647 1288.97 133.144 1285.69 136.557C1282.88 139.505 1279.4 141.733 1275.55 143.052C1271.7 144.372 1267.58 144.744 1263.56 144.138C1259.53 143.532 1255.71 141.965 1252.41 139.57C1249.12 137.174 1246.45 134.021 1244.63 130.376C1241.6 125.458 1240.07 119.764 1240.21 113.989C1240.36 108.213 1242.18 102.605 1245.46 97.8475C1248.96 92.5144 1253.82 88.2085 1259.53 85.3716C1265.25 82.5348 1271.61 81.2689 1277.98 81.704C1286.96 82.2009 1295.5 85.7268 1302.22 91.706C1308.94 97.6852 1313.43 105.765 1314.96 114.625C1315.94 121.216 1315.51 127.94 1313.7 134.352C1311.88 140.763 1308.72 146.715 1304.43 151.812C1300.14 156.909 1294.81 161.033 1288.8 163.912C1282.79 166.791 1276.23 168.358 1269.57 168.509H1237.29C1234.23 168.509 1231.29 169.724 1229.13 171.887C1226.97 174.049 1225.76 176.982 1225.76 180.04V181.194C1225.76 184.252 1226.97 187.185 1229.13 189.347C1231.29 191.51 1234.23 192.725 1237.29 192.725H1311.45C1312.98 192.725 1314.45 193.332 1315.53 194.413C1316.61 195.495 1317.22 196.961 1317.22 198.49C1317.22 200.019 1316.61 201.486 1315.53 202.567C1314.45 203.648 1312.98 204.256 1311.45 204.256H1237.26C1234.2 204.256 1231.27 205.471 1229.11 207.633C1226.95 209.796 1225.73 212.729 1225.73 215.787V216.94C1225.73 219.998 1226.95 222.931 1229.11 225.093C1231.27 227.256 1234.2 228.471 1237.26 228.471H1430.73C1438.9 228.244 1446.9 226.052 1454.05 222.08C1461.2 218.108 1467.28 212.473 1471.79 205.651C1476.56 198.665 1479.21 190.458 1479.45 182.007C1479.69 173.555 1477.49 165.212 1473.13 157.97C1470.16 152.285 1465.86 147.402 1460.6 143.738C1455.33 140.074 1449.26 137.738 1442.9 136.928C1436.54 136.118 1430.07 136.859 1424.06 139.087C1418.04 141.316 1412.66 144.965 1408.36 149.725C1402.78 155.921 1399.69 163.964 1399.69 172.303C1399.69 180.642 1402.78 188.686 1408.36 194.881C1413.19 200.364 1419.99 203.713 1427.28 204.199C1434.57 204.685 1441.76 202.268 1447.28 197.475C1450.91 194.135 1453.38 189.725 1454.33 184.886C1455.28 180.047 1454.67 175.03 1452.58 170.562C1451.17 167.23 1448.71 164.452 1445.57 162.651C1442.43 160.85 1438.79 160.125 1435.2 160.588C1433.3 160.761 1431.53 161.657 1430.27 163.092C1429.01 164.527 1428.34 166.391 1428.41 168.302C1428.48 169.311 1428.75 170.295 1429.22 171.191C1429.69 172.087 1430.34 172.875 1431.13 173.504C1431.92 174.133 1432.83 174.589 1433.81 174.843C1434.79 175.097 1435.81 175.143 1436.81 174.978C1437.49 174.863 1438.53 174.69 1439.48 176.731C1440.21 178.357 1440.43 180.163 1440.13 181.917C1439.82 183.671 1439 185.294 1437.76 186.579C1436.4 187.783 1434.81 188.691 1433.08 189.246C1431.34 189.801 1429.52 189.991 1427.71 189.803C1425.9 189.616 1424.15 189.055 1422.57 188.157C1420.99 187.258 1419.62 186.041 1418.53 184.584C1415.51 180.946 1413.93 176.324 1414.1 171.599C1414.27 166.874 1416.17 162.376 1419.44 158.962C1422.25 156.014 1425.73 153.786 1429.58 152.466C1433.44 151.147 1437.55 150.774 1441.58 151.381C1445.61 151.987 1449.43 153.554 1452.72 155.949C1456.02 158.345 1458.69 161.498 1460.5 165.143C1463.53 170.061 1465.07 175.755 1464.92 181.53C1464.77 187.306 1462.95 192.914 1459.67 197.672C1456.17 203.005 1451.32 207.31 1445.6 210.147C1439.89 212.984 1433.52 214.25 1427.16 213.815C1418.18 213.318 1409.63 209.792 1402.92 203.813C1396.2 197.834 1391.71 189.754 1390.18 180.894C1389.19 174.303 1389.63 167.58 1391.44 161.169C1393.26 154.758 1396.42 148.807 1400.71 143.711C1405 138.615 1410.33 134.49 1416.34 131.61C1422.35 128.731 1428.9 127.162 1435.56 127.009H1467.85C1470.91 127.009 1473.84 125.794 1476 123.632C1478.16 121.47 1479.38 118.537 1479.38 115.478V114.325C1479.38 111.267 1478.16 108.334 1476 106.172C1473.84 104.009 1470.91 102.794 1467.85 102.794H1393.72C1392.19 102.794 1390.72 102.187 1389.64 101.106C1388.56 100.024 1387.95 98.5579 1387.95 97.0288C1387.95 95.4997 1388.56 94.0331 1389.64 92.9519C1390.72 91.8706 1392.19 91.2633 1393.72 91.2633H1467.88C1470.94 91.2633 1473.87 90.0484 1476.04 87.886C1478.2 85.7235 1479.41 82.7905 1479.41 79.7323V78.5791C1479.41 75.5209 1478.2 72.5879 1476.04 70.4254C1473.87 68.263 1470.94 67.0481 1467.88 67.0481Z" fill="#F4A321"></path><path d="M1895.47 203.72C1895.37 214.522 1892.65 225.114 1887.58 234.476C1882.92 244.321 1875.08 252.057 1865.49 256.271C1857.59 259.952 1849.32 262.659 1840.84 264.34C1830.06 264.063 1819.54 260.794 1810.32 254.857C1800.44 249.181 1792.18 240.784 1786.4 230.546C1781.94 234.435 1778.54 239.517 1776.54 245.269C1771.61 257.529 1769.34 263.711 1769.15 263.921C1765.86 269.125 1761.67 276.53 1756.57 286.136L1729.21 235.314C1721.95 243.677 1713.85 251.162 1705.05 257.634C1697.42 262.186 1688.79 264.5 1680.05 264.34C1680.59 264.34 1675.96 263.345 1666.14 261.301C1651.74 258.648 1638.9 250.11 1630.35 237.514C1622.51 225.681 1618.46 211.48 1618.81 197.014C1618.61 192.92 1618.77 188.815 1619.3 184.754C1621.08 177.845 1624.13 171.38 1628.28 165.735C1631.06 162.46 1634.13 159.477 1637.45 156.828C1640.26 154.575 1641.69 152.636 1641.69 150.96C1639.81 147.472 1637.51 144.265 1634.83 141.424C1631.06 136.981 1627.75 132.115 1624.97 126.911C1621.61 119.015 1619.93 110.428 1620.04 101.762C1620.31 84.3394 1626.47 67.6015 1637.4 54.6075C1649.53 38.8893 1663.33 31.4494 1678.96 31.4494C1694.59 31.4494 1709.98 43.5524 1724.67 67.7584C1729.09 58.8145 1732.97 49.5736 1736.26 40.0944C1740.15 29.129 1745.46 18.7947 1752.04 9.3916C1760.06 19.0321 1770.39 38.1209 1783.05 66.6581C1783.51 66.7261 1783.97 66.6537 1784.39 66.4495C1784.81 66.2452 1785.17 65.9176 1785.42 65.5054C1791 55.8157 1799.26 48.2013 1809.08 43.7096C1818.04 38.4423 1828.04 35.4814 1838.27 35.0646C1846.16 35.041 1853.94 37.1254 1860.87 41.1261C1867.81 45.1269 1873.68 50.9157 1877.97 57.9607C1886.22 69.3843 1890.78 83.3296 1890.98 97.7277C1890.51 106.722 1887.98 115.459 1883.64 123.191C1878.42 133.974 1870.78 143.224 1861.4 150.122C1861.4 150.645 1862.19 151.484 1863.76 152.636C1884.9 160.635 1895.47 177.663 1895.47 203.72ZM1713.82 153.999C1713.79 139.188 1711.93 124.445 1708.3 110.145C1701.73 85.939 1691.37 73.8361 1677.24 73.8361C1674 73.812 1670.79 74.5678 1667.86 76.0468C1664.93 77.5257 1662.36 79.6896 1660.33 82.3763C1655.85 87.5066 1653.35 94.2397 1653.32 101.238C1653.17 106.932 1654.91 112.501 1658.25 116.956C1660.29 119.467 1662.83 121.452 1665.69 122.76C1668.55 124.067 1671.66 124.663 1674.77 124.501C1679.1 124.907 1683.42 123.601 1686.9 120.833C1688.28 119.315 1689.38 117.539 1690.16 115.594C1690.72 114.09 1691.49 112.678 1692.42 111.402C1693.52 113.357 1694.15 115.572 1694.25 117.847C1693.87 121.431 1693.08 124.951 1691.88 128.326C1690.48 132.929 1688.58 137.343 1686.21 141.477C1683.85 145.214 1681.17 148.721 1678.22 151.955C1685.92 161.04 1690.39 172.698 1690.85 184.911C1690.85 194.971 1689.2 200.001 1685.92 200.001C1685.23 200.001 1684.44 198.219 1683.55 194.761C1683.05 191.109 1681.69 187.649 1679.6 184.702C1678.02 182.873 1676.06 181.45 1673.89 180.543C1671.71 179.635 1669.36 179.266 1667.03 179.462C1654.01 179.462 1647.56 186.954 1647.56 201.834C1647.47 204.823 1647.55 207.815 1647.8 210.794C1649 213.513 1650.67 215.966 1652.73 218.024C1656.34 220.952 1660.33 223.316 1664.57 225.045C1667.36 226.572 1670.38 227.599 1673.49 228.084C1673.86 228.129 1674.22 228.024 1674.52 227.79C1674.81 227.556 1675.01 227.211 1675.07 226.826C1675.07 225.988 1675.86 225.569 1676.94 225.569C1682.11 225.235 1687.1 223.425 1691.39 220.329C1695.54 217.369 1699.19 213.684 1702.19 209.431C1709.94 196.158 1713.82 177.681 1713.82 153.999ZM1772.15 153.475C1772.15 128.116 1766.29 99.1597 1754.55 66.6057C1744.06 90.596 1738.42 116.653 1737.98 143.101C1738.29 173.206 1744.28 202.94 1755.59 230.546C1760.99 219.72 1764.84 208.101 1767.03 196.071C1770.25 182.124 1771.97 167.834 1772.15 153.475ZM1861.4 199.529C1861.4 196.969 1860.87 194.44 1859.85 192.122C1858.82 189.804 1857.33 187.754 1855.48 186.116C1851.61 182.439 1846.57 180.455 1841.38 180.562C1838.36 180.144 1835.3 180.828 1832.7 182.501C1829.09 188.143 1826.59 194.506 1825.35 201.206C1823.09 197.68 1821.42 193.762 1820.42 189.626C1819.02 185.347 1818.14 180.891 1817.81 176.371C1817.81 172.878 1820.87 164.774 1826.98 152.06C1821.78 147.344 1817.83 141.254 1815.54 134.403C1813.41 129.004 1812.24 123.23 1812.09 117.375C1811.94 112.359 1812.94 107.378 1815 102.862L1820.77 116.275C1821.74 118.762 1823.38 120.886 1825.49 122.379C1827.59 123.872 1830.07 124.665 1832.6 124.658C1835.37 124.721 1838.11 124.165 1840.66 123.028C1843.21 121.89 1845.5 120.197 1847.4 118.057C1849.43 115.665 1851 112.869 1852.02 109.83C1853.03 106.79 1853.47 103.568 1853.31 100.347C1853.31 85.0483 1845.42 77.3989 1829.64 77.3989C1823.42 77.0422 1817.24 78.7315 1811.94 82.2374C1806.65 85.7432 1802.5 90.8955 1800.06 96.9942C1795.51 107.77 1793.35 119.51 1793.75 131.312C1793.72 146.658 1795.38 161.956 1798.68 176.895C1803.41 196.804 1810.6 210.305 1820.23 217.395C1822.56 219.409 1825.24 220.922 1828.12 221.849C1828.63 221.848 1829.14 221.959 1829.62 222.175C1830.09 222.391 1830.52 222.708 1830.88 223.106C1831.19 223.481 1831.57 223.785 1831.99 224.001C1832.41 224.217 1832.87 224.341 1833.34 224.364C1834.51 224.309 1835.67 224.116 1836.79 223.787C1837.9 223.469 1839.05 223.293 1840.2 223.263C1843.34 223.244 1846.43 222.39 1849.19 220.78C1851.94 219.169 1854.27 216.853 1855.97 214.042C1859.21 209.952 1861.11 204.861 1861.4 199.529Z" fill="#F4A321"></path><path d="M2317.56 271.072C2317.56 285.574 2301.47 292.843 2269.29 292.88C2226.03 292.88 2196.25 282.666 2179.97 262.239C2173.44 261.793 2166.87 262.296 2160.52 263.73C2157.06 265.85 2153.95 268.377 2151.27 271.238C2147.85 274.708 2143.99 277.82 2139.75 280.513C2130.42 285.42 2120.2 288.892 2109.54 290.782C2098.37 293.406 2086.86 294.797 2075.3 294.922C2040.64 294.922 2023.29 287.561 2023.25 272.839C2023.25 252.78 2029.86 239.732 2043.07 233.696C2052.01 229.574 2070.47 227.513 2098.46 227.513C2099.91 227.628 2101.32 227.984 2102.62 228.562C2104.02 229.211 2105.56 229.605 2107.15 229.721C2117.31 230.407 2127.23 232.806 2136.35 236.788C2143.93 239.497 2151.14 242.961 2157.82 247.112C2160.08 244.351 2161.22 235.628 2161.22 220.887C2161.22 214.262 2154.92 209.514 2142.77 206.754C2135.5 205.357 2128.07 204.671 2120.62 204.711C2102.24 204.711 2088.39 207.693 2079.01 213.545C2078.32 213.931 2075.49 216.084 2070.58 220.004C2066.99 222.765 2064.66 224.145 2063.53 224.145C2060.27 224.015 2057.15 222.975 2054.61 221.178C2052.07 219.38 2050.26 216.919 2049.43 214.152C2047.68 209.903 2046.78 205.42 2046.79 200.902C2046.79 197.369 2049.87 194.111 2056.16 191.185C2060.27 188.779 2065.02 187.352 2069.95 187.045C2073.65 187.166 2077.34 187.572 2080.96 188.259C2084.62 188.904 2088.32 189.292 2092.04 189.419C2093.17 189.419 2101.29 191.02 2116.4 194.277C2131.51 197.534 2139.56 199.135 2140.57 199.135C2143.76 199.568 2146.9 200.251 2149.95 201.178C2153.32 202.121 2156.75 202.913 2160.21 203.552C2161.62 193.587 2162.4 183.56 2162.54 173.518C2156.44 169.43 2149.49 166.429 2142.08 164.685C2140.51 164.685 2135.22 164.685 2126.28 164.685C2117.69 164.574 2109.16 165.866 2101.11 168.494C2096.14 170.53 2091.42 172.989 2087.01 175.837C2084.98 177.529 2082.58 178.843 2079.96 179.702C2071.27 179.702 2066.87 174.181 2066.87 163.139C2066.41 160.265 2067.27 157.351 2069.25 155.027C2071.23 152.702 2074.17 151.154 2077.44 150.717C2083.54 149.868 2089.71 149.554 2095.88 149.779C2097.35 149.865 2098.8 150.068 2100.22 150.386C2101.67 150.709 2103.14 150.912 2104.63 150.993C2106.15 151.146 2107.62 151.539 2108.97 152.153C2110.39 152.786 2111.92 153.18 2113.51 153.312C2115.82 153.519 2118.11 153.87 2120.37 154.361C2122.58 154.869 2124.83 155.219 2127.1 155.41H2133.4C2133.9 155.392 2134.41 155.471 2134.87 155.643C2135.34 155.815 2135.76 156.074 2136.1 156.404C2136.37 156.727 2136.72 156.99 2137.12 157.172C2137.53 157.355 2137.98 157.451 2138.43 157.453C2146.22 158.156 2153.82 160.023 2160.9 162.974C2161.78 162.974 2162.66 162.421 2163.61 161.207C2163.78 155.663 2164.33 150.132 2165.24 144.644C2165.24 138.737 2159.45 134.983 2147.81 133.602C2140.25 132.828 2132.63 132.533 2125.02 132.719C2116.97 133.001 2109.26 135.645 2103.12 140.228C2095.57 145.307 2091.85 147.846 2092.04 147.846C2083.36 147.846 2079.01 142.326 2079.01 131.67C2079 129.672 2079.58 127.704 2080.68 125.955C2081.78 124.206 2083.37 122.733 2085.31 121.677C2088.04 119.653 2091.48 118.505 2095.06 118.42C2108.76 119.136 2122.36 120.985 2135.66 123.941C2145.33 125.533 2154.85 127.71 2164.17 130.456C2165.59 123.045 2166.39 115.554 2166.57 108.041C2156.57 103.486 2145.33 101.442 2134.09 102.133C2127.17 102.486 2120.48 104.387 2114.64 107.654C2111.69 109.094 2109.17 111.117 2107.27 113.562C2106.66 113.694 2106.08 113.938 2105.57 114.279C2104.67 114.774 2103.62 115.024 2102.55 114.997C2097.39 114.997 2094.24 112.071 2093.17 106.164C2093.17 102.63 2092.73 99.097 2092.48 95.5636C2094.71 94.155 2097.14 93.0217 2099.72 92.1958C2102.19 91.0894 2104.85 90.3435 2107.59 89.9875C2118.21 90.4203 2128.76 91.8077 2139.06 94.1282C2147.56 96.0605 2156.18 97.9376 2164.93 99.649C2166.2 93.7315 2166.87 87.7274 2166.94 81.7062C2164.01 79.8908 2160.69 78.5967 2157.19 77.8968C2153.29 76.7142 2149.22 76.0082 2145.1 75.7988C2141.01 75.751 2136.94 76.2538 2133.02 77.2896C2128.91 78.7031 2125.02 80.5575 2121.44 82.8104C2118.69 84.7886 2115.59 86.3385 2112.25 87.3927C2109.1 87.3927 2106.52 85.5524 2104.5 81.8718C2103.28 79.5662 2102.6 77.0699 2102.49 74.5291C2102.49 68.6218 2107.59 65.6957 2117.85 65.6957C2133.13 66.219 2148.22 68.8076 2162.6 73.3698H2165.62C2167.13 70.0885 2167.93 66.5851 2167.95 63.0456C2167.95 58.3529 2160.71 55.5925 2146.24 54.8195C2135.99 55.3485 2126.24 58.8658 2118.54 64.8123C2114.32 64.8123 2111.87 59.7332 2111.24 49.5195C2114.67 47.4552 2118.72 46.3224 2122.88 46.2623C2137.8 47.6444 2152.55 50.2129 2166.94 53.9362L2167.64 53.0528V40.8517C2165.41 39.4417 2162.92 38.3944 2160.27 37.7601C2157.73 36.7762 2155.04 36.1252 2152.28 35.8277C2145.92 35.8652 2139.68 37.3286 2134.15 40.0787C2128.23 42.9496 2125.59 44.3299 2126.28 44.3299C2121.88 44.3299 2119.61 41.6799 2119.61 36.4351C2119.61 32.7545 2120.74 30.4909 2123.01 29.6444C2123.45 29.6444 2126.47 28.6506 2132.07 27.2704C2130.64 26.475 2129.44 25.397 2128.56 24.1221C2127.69 22.8473 2127.17 21.4109 2127.04 19.9276V16.1181C2129.15 14.7064 2131.75 13.9668 2134.4 14.0204V2.9786C2137.17 2.05822 2140.13 1.66295 2143.09 1.81909C2147.72 2.33885 2152.33 3.07599 2156.87 4.02741C2164.93 5.46284 2169.46 6.23589 2170.28 6.23589C2175.04 5.55292 2179.75 4.61253 2184.38 3.42019C2189.01 2.2341 2193.72 1.29379 2198.48 0.604492C2199.63 0.691293 2200.77 0.895167 2201.88 1.21188C2203.28 1.59307 2204.75 1.79745 2206.22 1.81909C2206.6 5.36801 2205.79 8.93757 2203.89 12.088C2205.84 12.6953 2208.8 13.6889 2212.58 15.0692V23.2954C2211.44 23.9027 2209.81 24.8412 2207.54 26.2214C2211.14 27.9956 2214.96 29.3857 2218.93 30.3621V38.3122C2218.85 39.1232 2218.55 39.9056 2218.06 40.5961C2217.57 41.2867 2216.9 41.866 2216.1 42.2872C2214.64 43.3985 2212.81 44.0581 2210.88 44.1643C2210 44.1643 2208.61 43.2809 2206.72 41.5142C2205.35 40.1154 2203.71 38.9382 2201.88 38.036C2197.17 36.4138 2192.14 35.6077 2187.08 35.6621C2182.23 36.0543 2177.42 36.7368 2172.67 37.7048V52.9977L2215.22 46.3726C2222.84 46.3726 2227.18 47.5321 2228.31 49.9061C2228.31 52.28 2228.31 54.7091 2228.31 57.2487C2228.11 58.8221 2227.42 60.3157 2226.3 61.5633C2225.19 62.8109 2223.71 63.7635 2222.02 64.3155C2224.85 64.9228 2227.68 65.5853 2230.51 66.4134C2232.29 66.6176 2233.91 67.3905 2235.08 68.5833C2236.24 69.7761 2236.86 71.3042 2236.81 72.8728C2236.74 75.6133 2236.06 78.315 2234.79 80.8228C2233.03 84.7426 2230.83 86.7302 2228.12 86.7302C2225.63 85.8434 2223.36 84.5295 2221.45 82.8655C2219.05 80.9849 2216.36 79.4058 2213.46 78.1729C2207.65 76.5142 2201.56 75.7119 2195.46 75.7988C2188.12 75.5312 2180.88 77.2885 2174.75 80.8228V96.723C2175.02 97.0034 2175.2 97.3491 2175.25 97.7167C2175.25 98.2136 2176.07 98.4897 2177.45 98.4897C2179.62 98.2438 2181.74 97.7424 2183.75 96.9991C2186.26 96.0572 2188.85 95.282 2191.49 94.6803C2204.7 91.2712 2218.33 89.2874 2232.09 88.7729C2241.91 88.7729 2246.82 92.8031 2246.82 100.808C2246.82 108.814 2243.61 113.782 2237.12 113.782C2235.99 113.782 2234.61 113.01 2232.91 111.409C2231.93 110.442 2230.86 109.555 2229.7 108.758C2224.99 106.268 2220.06 104.108 2214.97 102.299C2213.14 102.299 2208.67 102.299 2201.56 102.299L2195.27 101.085C2188.24 101.533 2181.49 103.673 2175.76 107.268V127.585C2176.03 127.885 2176.21 128.249 2176.26 128.634C2176.26 129.131 2177.14 129.351 2178.46 129.351C2209.81 121.365 2231.5 117.353 2243.54 117.316C2246.53 117.884 2249.41 118.813 2252.1 120.076C2255.02 121.106 2257.79 122.44 2260.35 124.051C2261.65 138.553 2257.73 145.822 2248.58 145.859C2244.43 144.439 2240.63 142.341 2237.38 139.675C2229.67 135.088 2220.63 132.54 2211.32 132.333L2199.92 131.725C2191.66 131.868 2183.67 134.347 2177.14 138.792C2177.14 155.355 2177.9 163.194 2179.47 163.194C2182.46 162.667 2185.39 161.89 2188.22 160.876L2201.62 157.011C2220.95 152.119 2240.93 149.465 2261.04 149.116C2262.7 149.319 2264.29 149.809 2265.73 150.558C2267.17 151.307 2268.42 152.299 2269.41 153.478C2271.84 155.294 2273.49 157.79 2274.07 160.544C2274.17 164.795 2272.9 168.983 2270.42 172.635C2269.31 174.827 2267.36 176.614 2264.92 177.691C2262.48 178.768 2259.68 179.069 2257.01 178.542C2251.2 172.572 2243.65 168.089 2235.17 165.568C2228.75 164.598 2222.23 164.21 2215.72 164.409C2208.86 164.128 2201.99 164.61 2195.27 165.844C2190.55 167.225 2187.71 168.108 2186.83 168.494C2184.1 169.431 2181.68 170.949 2179.78 172.911C2178.47 176.471 2178.02 180.232 2178.46 183.953C2178.46 184.726 2178.46 187.376 2178.97 191.903C2179.47 196.43 2179.47 199.743 2179.47 201.896L2181.48 203.662C2193.43 199.097 2205.93 195.744 2218.74 193.67C2237.81 189.281 2257.39 186.799 2277.09 186.272C2279.88 187.071 2282.49 188.264 2284.83 189.805C2287.58 191.001 2289.99 192.717 2291.88 194.829C2292.51 197.348 2292.74 199.929 2292.58 202.503C2292.58 215.643 2287.6 222.213 2277.78 222.213C2274.04 220.991 2270.61 219.113 2267.71 216.692C2263.94 213.922 2259.89 211.447 2255.63 209.294C2243.69 204.908 2230.79 202.909 2217.86 203.442C2210.65 203.688 2203.52 204.879 2196.71 206.975C2185.07 210.122 2179.28 214.207 2179.28 219.342C2179.28 219.342 2179.28 222.985 2179.97 229.776C2180.66 236.567 2180.6 241.701 2180.6 245.235L2182.62 247.001C2195.18 237.684 2210.42 231.573 2226.68 229.335C2242.87 227.111 2259.26 226.132 2275.64 226.408C2276.99 226.515 2278.29 226.853 2279.48 227.402C2280.69 227.983 2282.02 228.34 2283.39 228.451C2288.06 228.536 2292.64 229.579 2296.78 231.497C2300.91 233.414 2304.47 236.152 2307.18 239.493C2312.86 245.066 2315.87 252.339 2315.61 259.81C2315.75 261.664 2316.02 263.508 2316.43 265.331C2316.97 267.217 2317.35 269.137 2317.56 271.072ZM2157.5 255.779C2157.5 250.259 2147.77 245.345 2128.3 241.039C2118.03 238.422 2107.49 236.757 2096.83 236.07C2081.85 236.07 2071.46 238.131 2065.67 242.253C2058.7 246.928 2055.22 255.559 2055.22 268.146C2055.2 270.984 2056.1 273.768 2057.83 276.166C2059.56 278.565 2062.04 280.476 2064.98 281.672C2069.79 284.012 2075.21 285.228 2080.71 285.206H2090.03C2091.54 285.053 2093.02 284.66 2094.37 284.046C2095.73 283.392 2097.23 282.979 2098.78 282.832C2099.8 282.83 2100.83 282.681 2101.8 282.39C2102.88 282.105 2104 281.956 2105.13 281.949H2110.86C2115.77 281.949 2124.58 278.746 2137.36 272.232C2150.14 265.717 2157.5 259.865 2157.5 255.779ZM2169.59 34.3922V28.2641C2169.59 22.7433 2164.55 20.3141 2153.79 20.3141C2150.12 20.1882 2146.46 20.7537 2143.06 21.9728C2139.67 23.1918 2136.6 25.036 2134.09 27.3808C2143.09 28.7058 2154.8 31.0797 2169.59 34.3922ZM2168.27 17.8296V9.60355C2164.62 8.21399 2160.76 7.32029 2156.81 6.95347C2153.86 7.28303 2151.01 8.12784 2148.44 9.43793C2145.91 10.3909 2143.54 11.6349 2141.39 13.137L2168.27 17.8296ZM2199.74 12.8058C2198.05 10.6955 2195.72 9.04018 2193.02 8.02587C2190.32 7.01155 2187.35 6.67844 2184.44 7.06399C2181.87 6.99159 2179.32 7.3969 2176.94 8.25332C2174.57 9.10974 2172.42 10.3978 2170.66 12.0327C2171.8 13.8386 2172.39 15.8749 2172.36 17.9401C2173.05 17.7193 2181.99 16.063 2199.48 12.9161L2199.74 12.8058ZM2207.42 27.2704C2204.63 24.767 2201.4 22.6785 2197.85 21.0871C2194.86 20.3702 2191.76 20.0721 2188.66 20.2037C2180.1 20.2037 2174.75 21.363 2172.55 23.737V33.1225C2180.1 31.6871 2191.74 29.81 2207.16 27.3808L2207.42 27.2704ZM2220 64.3155C2217.1 61.2121 2213.4 58.7475 2209.22 57.118C2205.03 55.4885 2200.47 54.7392 2195.9 54.9299C2190.86 54.8043 2185.85 55.497 2181.11 56.9728C2178.84 57.7457 2176.51 58.6289 2174.06 59.6227C2174 63.0193 2174.23 66.4149 2174.75 69.7811C2174.86 71.0254 2175.07 72.2615 2175.38 73.4801C2189.9 69.7286 2204.65 66.7056 2219.56 64.4258L2220 64.3155ZM2284.46 263.619C2284.46 251.86 2281.12 243.91 2274.39 239.769C2268.78 236.401 2258.96 234.745 2244.87 234.745C2233.8 235.38 2222.86 237.235 2212.32 240.266C2193.44 244.738 2183.81 249.872 2183.81 255.559C2183.81 258.485 2186.33 261.521 2191.49 264.668C2196.65 267.815 2203.39 271.569 2211.63 275.71C2215.22 276.869 2220.76 278.305 2228.25 279.961C2232.7 281.098 2237.25 281.928 2241.84 282.445C2242.73 282.445 2246.82 282.445 2254.43 282.004L2267.02 281.562C2278.35 281.82 2284.02 275.875 2284.02 263.73L2284.46 263.619Z" fill="#F4A321"></path><path d="M2722.09 144.676L2625.74 284.787L2585.06 232.479L2546.72 286.136L2445.34 150.851L2541.93 11.1559L2582.66 63.0488C2590.45 52.3589 2603.23 34.4731 2621 9.3916L2722.09 144.676ZM2562.7 204.457L2524.36 150.8L2562.7 93.7175C2558.11 87.646 2551.52 79.4988 2543.03 69.3797L2487.22 152.408L2546.67 228.95L2562.7 204.457ZM2602.33 147.011L2593.05 134.713C2588.79 129.108 2585.69 125.113 2583.76 122.726C2583.76 122.726 2579.87 128.434 2572.53 139.279C2569.98 142.528 2567.92 146.169 2566.44 150.073C2567.89 153.915 2570.02 157.437 2572.73 160.452C2576.08 165.102 2579.7 169.538 2583.56 173.736L2602.33 147.011ZM2680.3 147.375L2620.9 69.224C2617.51 74.4133 2612.17 82.4567 2604.73 93.5098L2644.66 147.167L2606.33 203.056C2611.88 211.757 2618.16 219.936 2625.09 227.497L2680.3 147.375Z" fill="#F4A321"></path></svg>