<svg xmlns="http://www.w3.org/2000/svg" width="2719" height="295" viewBox="0 0 2719 295" fill="none"><path d="M271.799 145.998C271.799 149.386 265.943 170.259 254.232 208.616C253.532 210.168 252.511 211.554 251.237 212.682C250.166 214.022 248.62 214.896 246.922 215.122C246.38 215.122 237.174 208.023 219.303 193.826C201.432 179.628 188.977 172.546 181.937 172.58C178.18 172.58 175.794 173.292 174.931 174.715C173.952 176.348 173.559 178.266 173.814 180.153C173.695 184.156 175.154 188.045 177.875 190.979C183.46 196.774 194.02 206.532 209.555 220.255C222.688 231.81 229.271 238.045 229.305 238.96C229.305 242.348 218.745 249.938 197.625 261.73C177.622 273.115 166.808 278.808 165.183 278.808C163.358 278.307 161.638 277.48 160.106 276.368C159.04 271.285 157.669 263.509 156.045 253.039C155.181 246.025 154.369 238.96 153.608 231.895C152.468 223.224 150.391 214.703 147.414 206.481C146.374 204.312 144.886 202.389 143.048 200.84C141.754 199.281 139.959 198.221 137.971 197.841C132.894 197.841 129.34 202.466 127.157 211.666C126.107 216.475 125.562 221.381 125.532 226.304V256.8C125.532 257.715 125.532 259.697 125.938 262.746C126.345 265.796 126.344 268.388 126.344 270.37C126.344 278.503 124.009 282.569 119.288 282.569C110.467 280.47 101.771 277.874 93.2429 274.792C79.8185 270.593 66.618 265.707 53.6936 260.154C52.6002 259.558 51.7081 258.651 51.1297 257.547C50.5514 256.443 50.3129 255.193 50.4444 253.953C50.4444 253.411 58.1614 244.415 73.5952 226.965C89.0291 209.514 96.746 197.553 96.746 191.081C96.5208 188.247 95.5388 185.526 93.903 183.203C92.0245 180.153 89.9937 178.578 87.8106 178.578C82.226 178.578 71.1752 185.134 54.6582 198.248C38.1582 211.361 29.2736 217.867 27.7505 217.867C24.2982 217.867 21.3028 213.75 18.8151 205.414C17.1905 200.027 13.4843 188.641 7.69659 171.259C3.17812 157.536 0.944336 150.217 0.944336 149.302C0.944336 144.473 4.09196 142.033 10.3874 142.033L57.5013 145.286C76.9967 145.286 86.7445 141.627 86.7445 134.41C86.7445 132.631 84.409 130.293 79.6875 127.395C77.2269 125.776 74.6071 124.414 71.8691 123.329C52.5429 116.824 33.0474 110.86 13.3827 105.438C13.2052 104.759 12.9317 104.109 12.5704 103.507C12.2412 102.47 12.0534 101.393 12.012 100.305C12.012 96.1371 24.2813 77.5008 48.8198 44.3958C49.5744 43.1921 50.6123 42.192 51.8426 41.4831C53.0729 40.7742 54.4581 40.3782 55.8768 40.3297C58.5506 40.3297 66.4029 50.5797 79.4337 71.0797C92.4645 91.5797 101.84 101.745 107.56 101.576C108.997 101.566 110.404 101.156 111.623 100.394C112.842 99.631 113.826 98.5446 114.464 97.2553C116.157 94.4859 117.053 91.3024 117.054 88.0557C117.054 82.9731 113.144 71.1305 105.428 51.9689C100.768 41.7138 96.8649 31.1305 93.7507 20.304C93.8289 19.2536 94.1669 18.2391 94.734 17.3519C95.3012 16.4646 96.0798 15.7325 96.9998 15.2214C98.3472 14.4808 99.8345 14.0306 101.366 13.8999L166.046 11.7144C167.58 12.1802 168.976 13.0176 170.109 14.1524C171.243 15.2872 172.079 16.6844 172.545 18.2201C172.545 18.7623 169.025 28.7412 161.985 48.1569C154.945 67.5727 151.425 80.1776 151.425 85.9719C151.425 95.1714 154.115 99.7967 159.548 99.7967C164.98 99.7967 173.509 89.0215 185.288 67.4202C197.066 45.8189 204.022 35.0437 206.357 35.0437C209.454 35.0437 218.542 43.7859 233.722 61.321C248.902 78.8562 256.466 89.1231 256.466 92.2235C256.466 94.3582 254.994 96.0863 252.1 97.3062L242.759 101.372C235.548 104.042 228.191 106.299 220.725 108.132C213.212 109.966 206.057 113.04 199.554 117.23C196.274 119.592 193.536 122.627 191.522 126.133C189.509 129.639 188.266 133.535 187.877 137.561C189.366 138.834 191.092 139.801 192.954 140.407C194.831 141.301 196.835 141.901 198.894 142.186L211.332 141.779C218.745 141.474 222.857 141.373 223.669 141.373C224.482 141.373 230.98 140.864 243.165 139.848C255.349 138.831 261.797 138.374 262.508 138.374C268.752 138.425 271.799 140.966 271.799 145.998ZM151.628 148.997C151.617 143.904 149.655 139.01 146.145 135.324C144.458 133.376 142.366 131.821 140.016 130.768C137.665 129.714 135.113 129.188 132.538 129.225C130.126 129.237 127.746 129.776 125.563 130.803C123.379 131.83 121.446 133.321 119.897 135.172C116.495 138.751 114.588 143.497 114.566 148.438C114.525 152.544 115.846 156.549 118.323 159.823C120.048 162.07 122.297 163.861 124.872 165.039C127.447 166.217 130.27 166.747 133.097 166.583C134.258 166.473 135.392 166.163 136.448 165.668C137.576 165.117 138.8 164.789 140.052 164.702C142.591 164.702 145.129 162.517 147.871 158.196C149.933 155.528 151.232 152.348 151.628 148.997Z" fill="#2D7E50"></path><path d="M686.403 201.907C686.306 212.479 683.646 222.846 678.682 232.008C674.117 241.644 666.444 249.215 657.063 253.34C649.33 256.942 641.234 259.592 632.934 261.237C622.385 260.966 612.087 257.766 603.063 251.955C593.393 246.4 585.309 238.182 579.658 228.162C575.293 231.968 571.961 236.942 570.007 242.571C565.181 254.571 562.961 260.621 562.768 260.827C559.551 265.92 555.449 273.168 550.463 282.569L523.68 232.828C516.579 241.013 508.649 248.34 500.034 254.673C492.571 259.128 484.126 261.394 475.567 261.237C476.098 261.237 471.562 260.262 461.959 258.263C447.866 255.666 435.29 247.309 426.924 234.982C419.252 223.401 415.292 209.502 415.632 195.344C415.432 191.337 415.594 187.319 416.114 183.344C417.852 176.582 420.837 170.255 424.897 164.73C427.619 161.525 430.625 158.606 433.873 156.013C436.624 153.808 438.023 151.91 438.023 150.27C436.187 146.856 433.931 143.718 431.315 140.937C427.622 136.588 424.386 131.826 421.664 126.733C418.373 119.004 416.726 110.6 416.838 102.119C417.102 85.067 423.132 68.6854 433.825 55.9679C445.696 40.5843 459.208 33.3027 474.506 33.3027C489.803 33.3027 504.859 45.1481 519.24 68.8389C523.57 60.0854 527.358 51.0411 530.581 41.7637C534.385 31.0316 539.583 20.9173 546.023 11.7144C553.873 21.1496 563.991 39.8322 576.377 67.762C576.824 67.8286 577.28 67.7578 577.69 67.5579C578.101 67.3579 578.449 67.0373 578.693 66.6339C584.154 57.1504 592.246 49.6981 601.857 45.302C610.626 40.1468 620.41 37.2489 630.425 36.841C638.148 36.8179 645.754 38.8578 652.542 42.7735C659.33 46.6891 665.082 52.3547 669.272 59.2498C677.346 70.4302 681.814 84.0787 682.012 98.1703C681.545 106.973 679.078 115.524 674.822 123.092C669.717 133.646 662.241 142.699 653.057 149.449C653.057 149.962 653.83 150.782 655.374 151.91C676.06 159.739 686.403 176.405 686.403 201.907ZM508.624 153.244C508.59 138.748 506.773 124.319 503.219 110.323C496.784 86.6326 486.65 74.7872 472.817 74.7872C469.643 74.7637 466.506 75.5034 463.639 76.9509C460.773 78.3984 458.252 80.5162 456.264 83.1457C451.88 88.1668 449.434 94.7566 449.412 101.606C449.259 107.179 450.969 112.629 454.238 116.99C456.225 119.447 458.715 121.39 461.517 122.669C464.318 123.949 467.358 124.532 470.404 124.374C474.642 124.771 478.869 123.493 482.275 120.784C483.625 119.298 484.705 117.56 485.46 115.656C486.013 114.184 486.761 112.803 487.68 111.554C488.757 113.467 489.37 115.634 489.465 117.861C489.098 121.369 488.32 124.814 487.149 128.117C485.778 132.623 483.915 136.942 481.599 140.988C479.285 144.646 476.669 148.078 473.782 151.244C481.314 160.135 485.685 171.545 486.136 183.498C486.136 193.344 484.527 198.266 481.31 198.266C480.634 198.266 479.862 196.523 478.994 193.139C478.506 189.564 477.178 186.178 475.133 183.293C473.582 181.503 471.668 180.111 469.536 179.223C467.404 178.334 465.11 177.973 462.827 178.165C450.087 178.165 443.766 185.498 443.766 200.061C443.682 202.987 443.763 205.915 444.007 208.83C445.181 211.491 446.818 213.892 448.833 215.906C452.365 218.772 456.265 221.086 460.414 222.778C463.152 224.273 466.104 225.278 469.149 225.752C469.506 225.797 469.865 225.694 470.153 225.465C470.44 225.236 470.634 224.898 470.693 224.521C470.693 223.701 471.465 223.29 472.527 223.29C477.589 222.964 482.473 221.192 486.666 218.163C490.729 215.265 494.303 211.659 497.235 207.497C504.827 194.506 508.624 176.422 508.624 153.244ZM565.712 152.731C565.712 127.912 559.969 99.5719 548.484 67.7107C538.221 91.1905 532.698 116.693 532.27 142.578C532.573 172.042 538.431 201.144 549.497 228.162C554.782 217.566 558.555 206.195 560.693 194.421C563.845 180.771 565.529 166.785 565.712 152.731ZM653.057 197.805C653.058 195.299 652.539 192.824 651.538 190.556C650.537 188.287 649.079 186.28 647.267 184.678C643.477 181.079 638.546 179.137 633.465 179.242C630.513 178.833 627.518 179.502 624.972 181.139C621.433 186.661 618.987 192.889 617.781 199.446C615.564 195.996 613.931 192.16 612.956 188.113C611.579 183.925 610.719 179.564 610.398 175.14C610.398 171.721 613.39 163.79 619.374 151.346C614.279 146.731 610.417 140.771 608.178 134.065C606.088 128.781 604.942 123.13 604.8 117.4C604.652 112.49 605.629 107.615 607.647 103.196L613.294 116.323C614.241 118.757 615.848 120.836 617.91 122.297C619.972 123.758 622.397 124.534 624.875 124.528C627.58 124.589 630.266 124.045 632.76 122.932C635.254 121.819 637.5 120.161 639.352 118.067C641.345 115.726 642.882 112.989 643.876 110.015C644.87 107.04 645.301 103.886 645.143 100.734C645.143 85.7609 637.422 78.2742 621.98 78.2742C615.884 77.9252 609.836 79.5785 604.655 83.0097C599.475 86.4409 595.415 91.4835 593.025 97.4524C588.575 107.999 586.462 119.489 586.849 131.04C586.821 146.06 588.441 161.031 591.674 175.653C596.307 195.138 603.336 208.351 612.763 215.291C615.046 217.262 617.668 218.743 620.484 219.65C620.989 219.649 621.49 219.757 621.954 219.969C622.419 220.181 622.838 220.491 623.186 220.88C623.49 221.247 623.86 221.545 624.275 221.756C624.689 221.968 625.14 222.088 625.599 222.111C626.741 222.058 627.875 221.869 628.977 221.547C630.064 221.235 631.182 221.063 632.307 221.034C635.384 221.015 638.409 220.18 641.106 218.603C643.802 217.027 646.086 214.761 647.749 212.009C650.913 208.006 652.775 203.024 653.057 197.805Z" fill="#2D7E50"></path><path d="M965.579 22.9712C989.05 22.9712 1009.77 28.29 1024.26 36.3521C1039.09 44.6118 1045.25 54.333 1045.25 62.6177C1045.25 73.0357 1035.18 85.7835 1012.24 94.3911L985.738 104.332L1012.24 114.272C1035.18 122.88 1045.25 135.627 1045.25 146.045C1045.25 156.463 1035.18 169.21 1012.24 177.818L985.738 187.758L1012.24 197.699C1035.18 206.306 1045.25 219.054 1045.25 229.472C1045.25 237.757 1039.09 247.478 1024.26 255.738C1009.77 263.8 989.05 269.119 965.579 269.119C942.108 269.119 921.384 263.8 906.902 255.738C892.066 247.478 885.911 237.757 885.911 229.472C885.911 219.054 895.974 206.306 918.92 197.699L945.419 187.758L918.92 177.818C895.974 169.21 885.911 156.463 885.911 146.045C885.911 135.627 895.974 122.88 918.92 114.272L945.419 104.332L918.92 94.3911C895.974 85.7835 885.911 73.0357 885.911 62.6177C885.911 54.3329 892.066 44.6118 906.902 36.3521C921.384 28.29 942.108 22.9712 965.579 22.9712ZM960.878 193.135L910.248 219.821L892.43 229.213L910.248 238.605L960.878 265.292L965.828 267.901L970.778 265.292L1021.41 238.605L1039.23 229.213L1021.41 219.821L970.778 193.135L965.828 190.526L960.878 193.135ZM935.4 115.219C926.456 115.219 921.142 122.129 918.697 126.961C915.949 132.393 914.559 139.156 914.559 146.045C914.559 152.934 915.949 159.697 918.697 165.128C921.142 169.961 926.456 176.87 935.4 176.871C944.345 176.871 949.659 169.961 952.104 165.128C954.853 159.697 956.243 152.934 956.243 146.045C956.243 139.156 954.853 132.393 952.104 126.961C949.698 122.205 944.511 115.435 935.817 115.224L935.4 115.219ZM995.757 115.219C986.812 115.219 981.498 122.129 979.053 126.961C976.304 132.393 974.914 139.156 974.914 146.045C974.914 152.934 976.304 159.697 979.053 165.128C981.498 169.961 986.812 176.871 995.757 176.871C1004.7 176.871 1010.02 169.961 1012.46 165.128C1015.21 159.697 1016.6 152.934 1016.6 146.045C1016.6 139.156 1015.21 132.393 1012.46 126.961C1010.05 122.205 1004.87 115.435 996.174 115.224L995.757 115.219ZM960.878 26.2798L910.248 52.9663L892.43 62.3589L910.248 71.7505L960.878 98.437L965.828 101.046L970.778 98.437L1021.41 71.7505L1039.23 62.3589L1021.41 52.9663L970.778 26.2798L965.828 23.6704L960.878 26.2798Z" fill="#2D7E50" stroke="#2D7E50" stroke-width="21.2336"></path><path d="M1494.62 40.1822C1494.62 40.1822 1494.14 44.1143 1493.17 51.5525C1492.39 57.0663 1491.93 62.6177 1491.77 68.1818C1491.77 115.18 1471.75 138.679 1431.72 138.679C1431 138.679 1425.97 138.157 1416.64 137.163C1407.31 136.168 1402.13 135.646 1401.31 135.646C1396.81 135.646 1394.59 139.105 1394.59 146.022C1394.59 149.528 1396.91 152.465 1401.55 154.834C1404.17 156.26 1407.07 157.132 1410.06 157.393H1417.27L1427.56 156.871C1434.09 156.54 1439.26 156.35 1443.03 156.35L1445.11 158.624L1448.21 157.393C1449.1 157.361 1449.99 157.574 1450.77 158.008C1451.39 158.404 1452.11 158.618 1452.85 158.624L1454.93 160.662C1463.03 162.263 1470.49 166.139 1476.38 171.816C1482.28 177.494 1486.37 184.729 1488.14 192.641C1490.37 200.032 1491.53 214.671 1491.53 236.512V263.232C1491.26 265.319 1490.31 267.264 1488.82 268.776C1487.38 270.042 1485.67 270.989 1483.82 271.553C1481.96 272.117 1480.01 272.285 1478.09 272.045C1477.27 272.045 1474.65 271.808 1470.35 271.287L1460.05 270.292C1450.96 269.629 1441.83 269.013 1432.74 268.491C1423.62 267.511 1414.73 265.045 1406.43 261.195C1388.74 252.478 1379.89 234.68 1379.89 207.802C1379.91 199.84 1380.77 191.902 1382.45 184.113C1382.72 182.634 1382.61 181.114 1382.14 179.685C1381.67 178.256 1380.85 176.962 1379.75 175.917C1378.74 174.77 1377.5 173.851 1376.09 173.221C1374.69 172.591 1373.17 172.267 1371.62 172.269C1369.95 172.076 1368.25 172.437 1366.81 173.295C1365.36 174.153 1364.25 175.46 1363.65 177.007V216.661C1362.39 223.954 1360.04 231.026 1356.68 237.649C1350.01 253.441 1335.06 262.269 1311.82 264.133L1271.35 265.175C1265.75 265.426 1260.14 265.076 1254.62 264.133C1251.82 263.584 1249.33 262.043 1247.62 259.806C1245.9 257.568 1245.09 254.791 1245.34 252.004C1245.86 235.919 1247.47 219.886 1250.17 204.011C1251.38 199.51 1253.07 192.831 1255.35 184.066C1256.67 180.247 1258.78 176.733 1261.53 173.738C1264.49 169.638 1268.73 166.607 1273.62 165.115L1276.96 161.846L1278.02 162.841L1281.12 159.809C1282.16 159.761 1283.2 159.602 1284.21 159.335C1285.3 159.034 1286.42 158.86 1287.55 158.814L1289.63 156.54H1297.07C1297.94 156.54 1301.91 156.54 1309.35 156.019C1316.8 155.498 1320.81 155.545 1321.83 155.545C1322.82 155.583 1323.82 155.742 1324.77 156.019C1325.87 156.352 1327.01 156.528 1328.16 156.54C1329.7 156.667 1331.22 157.018 1332.66 157.582C1334.07 158.107 1335.55 158.442 1337.05 158.577C1337.58 158.602 1338.1 158.499 1338.57 158.275C1339.05 158.052 1339.46 157.716 1339.76 157.298C1340.34 156.445 1340.92 155.687 1341.41 155.024C1341.76 151.336 1341.76 147.625 1341.41 143.937C1341.25 142.207 1340.4 140.606 1339.06 139.474C1337.71 138.342 1335.97 137.768 1334.2 137.873C1333.33 137.873 1329.8 137.873 1323.61 138.347C1317.43 138.821 1313.94 138.868 1312.78 138.868C1282.9 138.868 1263.4 130.782 1254.28 114.611C1248.64 104.662 1245.81 85.7112 1245.77 57.7588C1245.75 55.397 1245.57 53.039 1245.24 50.6997C1244.97 48.8631 1244.81 47.0122 1244.76 45.1567C1245.16 38.5688 1246.28 32.0418 1248.09 25.6849C1248.77 23.316 1252.49 22.1316 1259.17 22.1316C1275.56 22.8688 1291.91 24.4502 1308.14 26.8693C1312.98 28.5748 1320.62 30.6593 1330.58 33.2176C1336.09 34.2125 1342.08 39.7084 1348.61 49.6101C1355.14 59.5119 1357.65 65.9551 1357.65 70.8349V96.3711C1356.42 102.087 1355.82 107.916 1355.86 113.758C1358.76 117.833 1361.66 119.823 1364.61 119.823C1369.15 119.165 1373.32 117.029 1376.46 113.758C1376.12 104.709 1376.46 91.1124 1376.99 73.1092C1378.14 66.7162 1380.4 60.5629 1383.66 54.9163C1387.2 47.6015 1392.63 41.3269 1399.42 36.7235C1408.23 32.0243 1417.99 29.2753 1428 28.6696C1433.7 28.1643 1443.76 27.9114 1458.17 27.9114C1459.71 27.9114 1462.57 27.9114 1466.68 27.5323C1470.79 27.1533 1473.98 27.1535 1476.35 27.1535C1481.73 26.6227 1487.14 27.7665 1491.82 30.4225C1492.98 31.7531 1493.83 33.3149 1494.32 35C1494.8 36.6852 1494.9 38.4535 1494.62 40.1822ZM1343.29 82.8214C1343.66 76.0691 1342.41 69.326 1339.63 63.137C1336.85 56.948 1332.62 51.4865 1327.29 47.1939C1321.36 43.1761 1314.42 40.8176 1307.22 40.3716C1301.39 40.0242 1295.54 39.5977 1289.67 39.0923C1273.86 37.4341 1266.32 36.4868 1267 36.3447H1260.28V86.8957C1260.35 88.0806 1260.67 89.2393 1261.2 90.3067C1261.63 91.2225 1261.92 92.1967 1262.07 93.1969C1262.45 104.994 1269.03 113.758 1281.94 119.491C1290.72 123.223 1300.21 125.111 1309.79 125.034C1310.32 125.034 1313.51 125.034 1319.46 124.418C1325.4 123.802 1329.8 123.755 1332.7 123.755C1322.07 113.68 1311.41 103.494 1300.75 93.1969C1283.73 76.8993 1275.22 67.8502 1275.22 66.192C1275.45 64.4274 1276.22 62.7742 1277.44 61.4544C1277.94 60.6162 1278.64 59.9106 1279.49 59.3987C1280.33 58.8868 1281.29 58.5842 1282.28 58.517C1284.16 58.517 1291.95 65.1023 1306.45 78.2257C1328.11 98.4398 1339.28 108.894 1339.96 109.589C1341.83 100.789 1342.94 91.8513 1343.29 82.8688V82.8214ZM1349.72 202.306L1348.95 192.83C1348.49 188.376 1348.33 183.898 1348.47 179.423L1317.52 210.739C1300.86 227.416 1291.75 235.754 1290.21 235.754C1289 235.754 1286.48 234.143 1282.71 231.016C1282.79 229.039 1283.13 227.079 1283.73 225.189C1290.17 217.988 1306.85 200.474 1333.77 172.648C1325.09 170.441 1316.18 169.264 1307.22 169.142C1288.98 169.142 1276.25 175.459 1269.03 188.093C1266.99 192.849 1265.6 197.852 1264.92 202.969C1262.09 216.88 1260.47 231.002 1260.08 245.182C1260.08 249.351 1260.62 251.483 1261.63 251.483L1287.69 250.962L1313.94 250.488C1314.95 250.314 1315.92 249.96 1316.8 249.446C1317.98 249.115 1319.24 249.115 1320.42 249.446L1322.45 247.456C1322.9 247.618 1323.37 247.676 1323.84 247.627C1324.31 247.578 1324.76 247.422 1325.16 247.172C1325.92 246.745 1326.76 246.486 1327.63 246.414C1329.3 246.252 1330.93 245.747 1332.4 244.931C1333.86 244.114 1335.14 243.006 1336.14 241.676C1345.23 232.801 1349.75 219.693 1349.72 202.353V202.306ZM1479.63 50.6997V42.8827H1432.49C1404.32 42.8827 1390.22 59.7172 1390.19 93.3863C1390.01 100.267 1390.71 107.142 1392.27 113.853L1446.42 58.4696C1447.33 58.231 1448.28 58.135 1449.22 58.1853C1450.16 58.0592 1451.11 58.1166 1452.02 58.3542C1452.93 58.5918 1453.79 59.0048 1454.53 59.5693C1455.28 60.1337 1455.91 60.8382 1456.37 61.6417C1456.84 62.4453 1457.14 63.3317 1457.25 64.2494L1406.19 121.623C1425.08 123.802 1433.93 124.892 1432.74 124.892C1439.69 124.627 1446.53 123.017 1452.85 120.154C1459.98 117.963 1465.97 113.16 1469.58 106.747C1473.7 95.6261 1476.15 83.9746 1476.83 72.1616C1476.83 69.6506 1477.6 65.2445 1478.62 59.0381C1479.3 54.3004 1479.63 51.3631 1479.63 50.5103V50.6997ZM1477.31 258.637L1476.54 209.128C1476.54 183.071 1460.05 170.026 1427.08 169.995H1416.73C1412.53 170.339 1408.31 170.339 1404.11 169.995L1438.64 205.338C1454.11 216.835 1461.84 224.541 1461.84 228.458C1461.84 233.385 1459.52 235.849 1454.88 235.849C1452.98 235.849 1444.13 228.616 1428.34 214.15L1397.15 185.724C1394.73 204.232 1393.53 212.902 1393.53 211.734C1393.54 218.238 1394.85 224.676 1397.39 230.684C1399.72 237.48 1404.47 243.221 1410.79 246.84L1413.11 249.114H1416.2L1418.52 251.151C1419.41 251.176 1420.29 251.336 1421.13 251.625C1422.03 251.964 1422.98 252.14 1423.94 252.146C1424.81 252.146 1427.81 252.525 1432.98 253.283C1438.15 254.041 1441.2 254.42 1442.12 254.42C1443.03 254.42 1445.26 254.42 1448.69 254.941C1452.12 255.463 1454.25 255.415 1455.03 255.415C1456.32 255.565 1457.57 255.916 1458.75 256.458C1459.9 256.97 1461.12 257.306 1462.37 257.453L1465.47 256.458C1469.52 256.484 1473.53 257.222 1477.31 258.637Z" fill="#2D7E50" stroke="#2D7E50" stroke-width="8.33396"></path><path d="M1770.73 28.2317C1809.29 25.919 1841.62 50.4014 1847.65 87.209C1848.91 94.9356 1848.86 103.745 1847.77 112.553C1845.8 128.552 1837.72 142.998 1828.61 156.443L1770.73 241.848L1663.87 93.0778L1638.53 110.375L1766.7 288.819L1850.29 165.485C1858.91 152.76 1866.53 139.18 1869.47 124.201C1872.1 110.806 1872.74 96.9955 1870.56 83.6433C1862.57 34.8869 1819.31 2.65733 1769.3 5.6566C1722.27 8.4778 1687.46 45.9701 1690.2 92.0949C1692.52 131.152 1719.51 163.057 1760.69 167.464C1803.94 172.092 1832.16 136.503 1830.89 99.3948C1830.3 82.0429 1821.34 65.8106 1808.61 55.1934C1795.8 44.5179 1777.87 38.5677 1759.63 44.6495C1749.02 48.1862 1740.8 54.5819 1735.53 63.2687C1730.35 71.8142 1728.49 81.8114 1729.06 92.0512C1729.82 105.832 1736.58 118.1 1746.69 125.283C1757.12 132.697 1771.42 134.634 1784.11 126.253C1793.13 120.293 1796.25 110.584 1796.19 102.293C1796.13 94.0764 1793.03 85.3284 1787 79.0712C1782.61 74.5199 1775.27 74.2967 1770.6 78.5733C1765.93 82.85 1765.7 90.0068 1770.09 94.5586C1771.64 96.1677 1772.97 99.219 1772.99 102.454C1773.02 105.615 1771.88 107.012 1771.09 107.53C1767.67 109.791 1764.08 109.653 1760.35 107.006C1756.3 104.129 1752.64 98.3507 1752.22 90.8323C1751.84 83.9516 1753.17 78.6313 1755.51 74.7757C1757.76 71.0609 1761.38 67.9705 1767.14 66.0494C1775.78 63.1683 1785.33 65.5473 1793.53 72.382C1801.79 79.2755 1807.35 89.7353 1807.71 100.147C1808.62 126.9 1789.16 147.757 1763.23 144.982C1734.62 141.921 1715.11 120.174 1713.36 90.7886C1711.37 57.2991 1736.25 30.2996 1770.73 28.2317Z" fill="#2D7E50"></path><path d="M2286.48 225.011C2286.48 228.848 2284.97 231.099 2281.83 231.867C2265.67 234.578 2248.7 236.046 2231.56 236.216C2223.34 236.226 2215.25 237.233 2208.08 239.141C2200.91 241.049 2194.9 243.794 2190.62 247.113C2190.62 250.746 2190.62 256.015 2189.43 262.922C2188.2 267.399 2184.46 271.639 2178.6 275.201C2175.86 277.335 2172.06 279.121 2167.53 280.405C2163 281.688 2157.87 282.431 2152.6 282.569C2144.52 282.206 2137.06 280.37 2131.8 277.452C2125.4 274.661 2120.62 271.137 2117.94 267.22C2117.94 266.146 2117.94 262.974 2117.94 257.704C2118.36 254.847 2117.59 251.978 2115.66 249.262C2113.64 246.905 2110.59 244.775 2106.71 243.012C2102.82 241.249 2098.2 239.892 2093.13 239.029C2082.92 237.861 2072.44 237.311 2061.94 237.392C2050.31 237.484 2038.72 236.707 2027.6 235.09C2023.91 234.54 2020.72 233.417 2018.56 231.902C2016.4 230.388 2015.38 228.572 2015.68 226.75C2015.68 219.127 2027.06 214.574 2049.8 213.141C2052.63 212.329 2055.75 211.774 2059.01 211.504L2064.86 212.578L2068.87 210.685C2073.54 209.834 2078.36 209.183 2083.28 208.741C2085.84 207.978 2088.56 207.343 2091.4 206.848C2096.82 206.848 2099.63 203.83 2100.06 197.844C2100.06 193.137 2089.23 188.379 2069.19 183.518C2049.15 178.658 2038.11 173.746 2038.11 168.835C2037.96 167.316 2038.51 165.8 2039.7 164.388C2040.9 162.977 2042.72 161.702 2045.04 160.648C2054.74 157.667 2065 155.115 2075.69 153.025C2088.62 150.519 2100.1 146.59 2109.16 141.565C2111.11 128.092 2112.09 121.901 2112.09 122.993C2112.19 121.452 2111.97 119.909 2111.44 118.388C2108.69 115.578 2104.29 113.2 2098.77 111.532C2094.94 109.788 2092.49 107.476 2091.83 104.984C2090.32 101.76 2088.8 98.6394 2087.28 95.7231C2086.06 94.7768 2084.48 93.9445 2082.63 93.2674C2071.79 92.193 2060.96 90.9651 2050.13 89.5837C2045.11 89.0451 2040.69 87.6512 2037.71 85.6688C2034.73 83.6864 2033.41 81.2547 2033.99 78.8396C2033.49 76.2751 2034.81 73.7051 2037.73 71.5302C2040.65 69.3554 2045.01 67.6979 2050.13 66.8163C2060.76 65.5722 2071.67 64.9366 2082.63 64.9233C2091.94 65.3438 2101.28 64.2813 2109.16 61.9048C2110.36 52.7978 2111.76 43.7421 2113.28 34.6352C2117.07 19.2865 2127.9 11.7144 2145.78 11.7144C2163.65 11.7144 2175.24 18.4679 2181.09 31.9236C2182.6 40.4507 2184.34 48.9778 2186.29 57.5049C2187.11 59.0696 2188.76 60.5118 2191.06 61.7002C2193.37 62.8887 2196.27 63.7857 2199.5 64.3094L2235.36 65.9467C2253.01 67.3792 2261.89 71.8814 2261.89 79.3C2262.23 81.0977 2261.56 82.906 2259.95 84.5413C2258.33 86.1767 2255.82 87.581 2252.69 88.6116C2246.2 90.0601 2239.24 90.9771 2232.11 91.3232C2225.01 91.676 2218.09 92.5928 2211.63 94.0348C2208.78 100.151 2204.53 106.103 2198.96 111.788C2194.86 113.043 2191.2 114.597 2188.13 116.393C2186.3 121.358 2185.53 126.397 2185.85 131.435C2185.67 134.753 2187.26 138.04 2190.48 140.991C2193.7 143.942 2198.44 146.462 2204.27 148.318C2215.86 151.235 2227.67 154.202 2239.8 157.169C2251.93 160.137 2257.99 163.872 2257.99 168.221C2257.99 172.569 2248.25 177.532 2228.86 182.444C2209.47 187.355 2199.72 192.267 2199.72 197.178C2199.83 200.103 2201.83 202.942 2205.46 205.313C2207.05 206.592 2209.33 207.646 2212.08 208.366C2214.82 209.086 2217.92 209.445 2221.06 209.406H2230.27C2232.41 209.516 2234.48 209.848 2236.33 210.379C2238.32 210.961 2240.6 211.296 2242.94 211.351H2252.25C2262.18 211.339 2271.72 213.177 2278.79 216.467C2281.27 217.557 2283.24 218.881 2284.56 220.353C2285.89 221.825 2286.54 223.412 2286.48 225.011Z" fill="#2D7E50"></path><path fill-rule="evenodd" clip-rule="evenodd" d="M2484.69 60.8378L2472.2 21.189C2471.14 17.8093 2474.58 14.5725 2479.23 14.5725H2571.95C2576.61 14.5725 2580.04 17.8093 2578.98 21.189L2552.16 106.373C2551.36 108.907 2553.94 111.335 2557.43 111.335H2598.67C2602.65 111.335 2605.88 113.746 2605.88 116.72V185.379H2605.88C2605.78 195.967 2604.74 204.269 2597.56 214.554C2591.26 223.57 2580.52 232.816 2566.68 236.465L2578.98 275.525C2580.04 278.905 2576.61 282.142 2571.95 282.142H2479.23C2474.58 282.142 2471.14 278.905 2472.2 275.525L2499.02 190.342C2499.82 187.807 2497.24 185.379 2493.75 185.379H2452.52C2448.53 185.379 2445.3 182.968 2445.3 179.994V111.335H2445.32C2445.45 101.075 2446.6 92.9111 2453.58 82.8517C2459.9 73.7503 2470.73 64.4149 2484.69 60.8378ZM2552.16 190.342C2551.36 187.807 2553.94 185.379 2557.43 185.379H2582.28C2585.29 185.379 2587.73 187.209 2587.62 189.45C2587.26 196.839 2585.91 201.974 2581.45 208.36C2577.85 213.52 2573.17 217.767 2568.14 220.625C2565.42 222.17 2561.77 220.863 2560.99 218.38L2552.16 190.342ZM2490.35 78.8133C2489.57 76.3551 2485.98 75.0415 2483.26 76.5455C2478.1 79.4034 2473.29 83.7417 2469.6 89.0454C2465.31 95.227 2463.91 100.236 2463.5 107.252C2463.37 109.498 2465.82 111.335 2468.83 111.335H2493.75C2497.24 111.335 2499.82 108.907 2499.02 106.373L2490.35 78.8133ZM2540.93 52.0995C2540.93 61.0217 2534.06 68.2546 2525.59 68.2546C2517.12 68.2546 2510.26 61.0217 2510.26 52.0995C2510.26 43.1772 2517.12 35.9443 2525.59 35.9443C2534.06 35.9443 2540.93 43.1772 2540.93 52.0995ZM2525.59 260.77C2534.06 260.77 2540.93 253.537 2540.93 244.615C2540.93 235.693 2534.06 228.46 2525.59 228.46C2517.12 228.46 2510.26 235.693 2510.26 244.615C2510.26 253.537 2517.12 260.77 2525.59 260.77ZM2525.59 163.166C2546.52 163.166 2563.48 156.536 2563.48 148.357C2563.48 140.179 2546.52 133.548 2525.59 133.548C2504.67 133.548 2487.7 140.179 2487.7 148.357C2487.7 156.536 2504.67 163.166 2525.59 163.166Z" fill="#2D7E50"></path></svg>