<svg xmlns="http://www.w3.org/2000/svg" width="4046" height="146" viewBox="0 0 4046 146" fill="none"><path d="M322.587 109.267C322.587 111.233 321.81 112.386 320.201 112.779C311.926 114.168 303.233 114.92 294.454 115.007C290.238 115.012 286.097 115.528 282.424 116.505C278.752 117.483 275.672 118.889 273.479 120.589C273.479 122.45 273.479 125.15 272.868 128.688C272.241 130.981 270.325 133.153 267.319 134.978C265.916 136.071 263.97 136.986 261.65 137.644C259.329 138.301 256.704 138.682 254.002 138.752C249.864 138.566 246.043 137.626 243.348 136.131C240.066 134.702 237.62 132.896 236.245 130.889C236.245 130.339 236.245 128.714 236.245 126.015C236.464 124.551 236.068 123.081 235.08 121.69C234.044 120.482 232.48 119.392 230.491 118.488C228.503 117.585 226.134 116.89 223.538 116.448C218.308 115.85 212.938 115.568 207.558 115.609C201.599 115.657 195.663 115.259 189.967 114.43C188.078 114.149 186.445 113.573 185.337 112.797C184.229 112.021 183.709 111.091 183.864 110.158C183.864 106.253 189.69 103.92 201.343 103.186C202.791 102.77 204.39 102.486 206.059 102.348L209.056 102.898L211.109 101.928C213.5 101.492 215.97 101.159 218.489 100.932C219.801 100.541 221.195 100.216 222.651 99.9627C225.425 99.9627 226.868 98.4163 227.09 95.3498C227.09 92.9386 221.541 90.5011 211.275 88.0113C201.01 85.5214 195.35 83.0053 195.35 80.4892C195.277 79.7112 195.556 78.9346 196.168 78.2115C196.78 77.4883 197.712 76.8352 198.901 76.2957C203.87 74.7682 209.127 73.461 214.605 72.3905C221.228 71.1066 227.107 69.0938 231.751 66.5197C232.75 59.6179 233.249 56.4466 233.249 57.0057C233.302 56.2162 233.19 55.4261 232.916 54.6469C231.506 53.2075 229.253 51.9889 226.424 51.1349C224.464 50.241 223.211 49.057 222.873 47.7801C222.096 46.1289 221.319 44.5301 220.542 43.0362C219.916 42.5514 219.108 42.1251 218.156 41.7782C212.607 41.2278 207.058 40.5988 201.509 39.8911C198.938 39.6152 196.673 38.9012 195.148 37.8856C193.622 36.8701 192.944 35.6244 193.241 34.3872C192.987 33.0735 193.66 31.7569 195.155 30.6428C196.651 29.5287 198.885 28.6796 201.509 28.228C206.956 27.5907 212.545 27.2651 218.156 27.2583C222.926 27.4737 227.711 26.9294 231.751 25.712C232.361 21.0467 233.083 16.4077 233.859 11.7425C235.802 3.87972 241.35 0.000732422 250.506 0.000732422C259.662 0.000732422 265.599 3.46038 268.596 10.3534C269.372 14.7216 270.26 19.0898 271.259 23.458C271.683 24.2596 272.524 24.9984 273.706 25.6072C274.889 26.216 276.374 26.6755 278.029 26.9438L296.396 27.7825C305.441 28.5164 309.991 30.8227 309.991 34.6231C310.165 35.544 309.82 36.4703 308.992 37.308C308.164 38.1458 306.881 38.8652 305.274 39.3932C301.952 40.1352 298.387 40.6049 294.731 40.7822C291.095 40.963 287.549 41.4326 284.244 42.1713C282.779 45.3044 280.602 48.3536 277.751 51.2659C275.65 51.9088 273.777 52.705 272.202 53.6248C271.264 56.1681 270.874 58.7498 271.037 61.3303C270.944 63.0303 271.759 64.7138 273.408 66.2255C275.057 67.7372 277.486 69.0283 280.47 69.9793C286.408 71.4733 292.456 72.9933 298.671 74.5135C304.886 76.0336 307.993 77.947 307.993 80.1747C307.993 82.4025 302.999 84.9447 293.066 87.4608C283.134 89.9769 278.14 92.493 278.14 95.0091C278.196 96.5074 279.223 97.9617 281.081 99.1764C281.894 99.8315 283.064 100.371 284.47 100.74C285.875 101.109 287.464 101.293 289.071 101.273H293.788C294.888 101.329 295.949 101.499 296.895 101.771C297.916 102.07 299.081 102.241 300.28 102.269H305.052C310.138 102.263 315.023 103.205 318.647 104.89C319.917 105.448 320.923 106.127 321.602 106.881C322.281 107.635 322.616 108.448 322.587 109.267Z" fill="#F4A321"></path><path d="M138.752 22.4998C130.277 29.7326 126.04 34.0689 126.04 35.5085C126.04 36.237 128.656 39.151 133.887 44.2504C130.068 48.4826 125.011 53.6861 118.717 59.8609C110.269 67.9784 105.064 73.1299 103.024 75.2373L133.808 106.901C128.141 112.104 125.308 115.018 125.308 115.643C125.308 116.293 126.642 117.958 129.336 120.638L136.607 127.845C134.174 130.629 130.094 134.922 124.314 140.854C120.301 136.702 116.067 132.767 111.629 129.068C108.426 131.635 105.403 134.417 102.579 137.393L70.4089 105.938L34.0013 140.021C30.7991 137.645 27.9391 134.844 25.501 131.695C22.4321 134.193 18.0207 137.888 12.2666 142.779C11.3251 141.868 7.24489 137.575 0 129.77C3.62394 125.912 7.58928 122.385 11.8481 119.233C9.50354 115.432 6.69205 111.936 3.4786 108.826L38.6045 74.3007C38.2187 73.6114 37.9201 72.8774 37.7153 72.1152C29.7119 63.8937 18.7879 52.7062 4.94327 38.5526L13.4436 30.0969C12.1276 28.0431 10.5348 26.1785 8.70957 24.5552C4.89096 20.5745 2.4847 18.0248 1.46467 16.932C3.11469 14.7561 4.98115 12.7513 7.03566 10.948L14.4375 4.02734C22.0486 11.9627 26.1548 15.9434 26.7041 15.9434C27.2533 15.9434 30.5227 13.1335 36.1722 7.48768L71.1412 43.1837L103.39 13.0294C105.267 14.3497 107.018 15.839 108.621 17.4784C110.844 19.6899 112.283 20.8086 112.937 20.8086C114.988 19.7049 116.83 18.252 118.377 16.5158C122.753 12.4397 125.264 10.1241 125.909 9.56909C127.872 11.1421 129.693 12.8833 131.35 14.7726C135.482 19.1956 137.993 21.7713 138.752 22.4998ZM112.754 106.224L81.3678 74.8471L112.91 44.1724C110.958 41.7614 107.793 38.3792 103.416 34.0256L71.1151 64.0238L35.4921 29.2123C34.5505 30.1229 32.8766 31.8141 30.7581 34.2597C28.6396 36.7054 26.9656 38.3705 26.0502 39.2811L60.2346 74.717L24.6379 109.659C25.5794 110.569 27.0964 112.26 29.2411 114.654C31.3858 117.048 33.0336 118.765 34.1321 119.857L70.5135 85.7744L102.632 116.345C106.365 113.347 109.759 109.953 112.754 106.224Z" fill="#F4A321"></path><path d="M497.454 28.908H400.449C396.351 29.021 392.34 30.1198 388.757 32.1113C385.173 34.1029 382.122 36.9286 379.862 40.3492C377.475 43.8524 376.144 47.9671 376.026 52.2046C375.908 56.4421 377.009 60.6244 379.197 64.2549C380.685 67.1063 382.84 69.5555 385.479 71.3933C388.118 73.2312 391.163 74.4032 394.353 74.8093C397.544 75.2154 400.785 74.8435 403.801 73.7255C406.816 72.6074 409.516 70.7763 411.671 68.3885C414.469 65.2824 416.018 61.2497 416.018 57.0687C416.018 52.8878 414.469 48.8549 411.671 45.7489C409.249 43.0001 405.838 41.3207 402.183 41.077C398.527 40.8333 394.924 42.0452 392.159 44.4481C390.339 46.123 389.101 48.3338 388.623 50.7601C388.144 53.1863 388.452 55.7018 389.499 57.9417C390.207 59.6121 391.441 61.0052 393.014 61.9082C394.587 62.8112 396.413 63.1744 398.212 62.9425C399.166 62.8559 400.052 62.4067 400.685 61.6872C401.318 60.9677 401.652 60.0328 401.617 59.0749C401.585 58.5691 401.447 58.0758 401.213 57.6265C400.978 57.1773 400.652 56.7823 400.256 56.4668C399.859 56.1514 399.401 55.9226 398.91 55.7953C398.42 55.6679 397.908 55.6449 397.408 55.7275C397.067 55.7853 396.547 55.8662 396.067 54.8487C395.703 54.0334 395.59 53.1281 395.744 52.2485C395.897 51.369 396.31 50.5553 396.928 49.9114C397.611 49.3078 398.412 48.8525 399.279 48.5742C400.147 48.2959 401.063 48.2008 401.97 48.2948C402.876 48.3888 403.753 48.6699 404.545 49.1203C405.337 49.5708 406.027 50.1808 406.572 50.9116C408.085 52.7362 408.874 55.0538 408.789 57.4228C408.704 59.7919 407.75 62.0467 406.109 63.7577C404.7 65.2357 402.956 66.3527 401.024 67.0143C399.092 67.6759 397.029 67.8626 395.01 67.5587C392.991 67.2547 391.074 66.4691 389.423 65.2681C387.771 64.0672 386.433 62.4862 385.522 60.6589C384.003 58.1928 383.233 55.3381 383.307 52.4425C383.381 49.5469 384.295 46.7353 385.938 44.3499C387.694 41.676 390.129 39.5172 392.994 38.0948C395.858 36.6725 399.05 36.0379 402.241 36.256C406.743 36.5051 411.027 38.2729 414.394 41.2707C417.762 44.2685 420.014 48.3192 420.782 52.7617C421.275 56.0661 421.059 59.4375 420.149 62.6521C419.239 65.8667 417.655 68.8507 415.503 71.406C413.35 73.9613 410.679 76.0294 407.666 77.4728C404.653 78.9162 401.367 79.7019 398.027 79.7777H381.839C380.306 79.7777 378.835 80.3868 377.751 81.471C376.667 82.5552 376.058 84.0257 376.058 85.559V86.1372C376.058 87.6705 376.667 89.141 377.751 90.2252C378.835 91.3094 380.306 91.9185 381.839 91.9185H419.025C419.791 91.9185 420.526 92.223 421.069 92.7651C421.611 93.3072 421.915 94.0425 421.915 94.8091C421.915 95.5758 421.611 96.311 421.069 96.8531C420.526 97.3952 419.791 97.6998 419.025 97.6998H381.828C380.294 97.6998 378.824 98.3089 377.74 99.3931C376.655 100.477 376.046 101.948 376.046 103.481V104.059C376.046 105.592 376.655 107.063 377.74 108.147C378.824 109.231 380.294 109.841 381.828 109.841H478.826C482.925 109.727 486.935 108.628 490.519 106.637C494.102 104.645 497.153 101.82 499.414 98.3994C501.802 94.8967 503.134 90.7822 503.253 86.5447C503.372 82.3072 502.272 78.1246 500.084 74.4936C498.596 71.6432 496.44 69.1952 493.801 67.3581C491.162 65.5211 488.117 64.3496 484.927 63.9436C481.737 63.5375 478.497 63.909 475.481 65.0262C472.466 66.1435 469.766 67.9734 467.611 70.36C464.812 73.466 463.263 77.4988 463.263 81.6798C463.263 85.8608 464.812 89.8935 467.611 92.9996C470.033 95.7484 473.443 97.4278 477.099 97.6715C480.754 97.9152 484.357 96.7034 487.123 94.3004C488.942 92.6256 490.181 90.4147 490.659 87.9885C491.137 85.5622 490.83 83.0468 489.782 80.8068C489.075 79.1364 487.84 77.7434 486.267 76.8404C484.694 75.9374 482.869 75.5741 481.07 75.806C480.115 75.8926 479.23 76.3419 478.596 77.0614C477.963 77.7808 477.629 78.7158 477.664 79.6737C477.696 80.1794 477.834 80.6728 478.069 81.122C478.303 81.5712 478.629 81.9663 479.026 82.2817C479.422 82.5971 479.881 82.8259 480.371 82.9532C480.862 83.0806 481.373 83.1037 481.873 83.021C482.214 82.9632 482.735 82.8765 483.214 83.8998C483.578 84.715 483.691 85.6204 483.537 86.4999C483.384 87.3795 482.972 88.1932 482.353 88.837C481.67 89.4406 480.87 89.896 480.002 90.1743C479.134 90.4526 478.218 90.5478 477.312 90.4538C476.405 90.3597 475.528 90.0786 474.736 89.6281C473.944 89.1777 473.254 88.5677 472.71 87.8368C471.196 86.0129 470.405 83.6958 470.49 81.3268C470.574 78.9578 471.527 76.7025 473.167 74.9908C474.576 73.5128 476.32 72.3958 478.252 71.7342C480.183 71.0726 482.246 70.8859 484.265 71.1898C486.285 71.4937 488.201 72.2795 489.853 73.4804C491.504 74.6814 492.842 76.2623 493.754 78.0896C495.273 80.5558 496.042 83.4103 495.969 86.3059C495.895 89.2015 494.981 92.0132 493.338 94.3987C491.582 97.0725 489.147 99.2313 486.282 100.654C483.417 102.076 480.225 102.711 477.034 102.492C472.533 102.243 468.249 100.476 464.881 97.4779C461.514 94.4801 459.262 90.4293 458.494 85.9869C458.001 82.6826 458.218 79.3115 459.129 76.0973C460.039 72.8832 461.623 69.8995 463.775 67.3444C465.927 64.7893 468.598 62.7212 471.611 61.2775C474.624 59.8338 477.909 59.0475 481.249 58.9708H497.436C498.97 58.9708 500.44 58.3617 501.524 57.2775C502.609 56.1933 503.218 54.7227 503.218 53.1895V52.6114C503.218 51.0781 502.609 49.6076 501.524 48.5234C500.44 47.4392 498.97 46.8301 497.436 46.8301H460.268C459.502 46.8301 458.767 46.5255 458.224 45.9834C457.682 45.4413 457.378 44.7061 457.378 43.9394C457.378 43.1728 457.682 42.4375 458.224 41.8954C458.767 41.3533 459.502 41.0487 460.268 41.0487H497.454C498.987 41.0487 500.458 40.4397 501.542 39.3554C502.626 38.2712 503.235 36.8007 503.235 35.2674V34.6893C503.235 33.156 502.626 31.6855 501.542 30.6013C500.458 29.5171 498.987 28.908 497.454 28.908Z" fill="#F4A321"></path><path d="M892.871 101.962C892.821 107.378 891.458 112.689 888.915 117.382C886.577 122.319 882.646 126.197 877.84 128.31C873.879 130.155 869.732 131.513 865.48 132.355C860.076 132.216 854.801 130.577 850.178 127.601C845.224 124.755 841.083 120.545 838.188 115.412C835.952 117.362 834.245 119.91 833.244 122.794C830.772 128.941 829.635 132.04 829.536 132.145C827.888 134.755 825.786 138.467 823.232 143.283L809.512 117.803C805.874 121.996 801.812 125.749 797.399 128.993C793.575 131.275 789.25 132.436 784.865 132.355C785.137 132.355 782.813 131.856 777.894 130.832C770.674 129.502 764.232 125.221 759.946 118.906C756.016 112.973 753.988 105.853 754.162 98.6001C754.059 96.5474 754.142 94.4891 754.409 92.4532C755.299 88.9892 756.828 85.7478 758.908 82.9177C760.302 81.2757 761.842 79.7802 763.506 78.452C764.915 77.3224 765.632 76.3505 765.632 75.5099C764.691 73.7613 763.536 72.1535 762.196 70.729C760.304 68.5014 758.646 66.0616 757.252 63.4525C755.566 59.4935 754.722 55.1885 754.78 50.8435C754.915 42.1083 758.004 33.7165 763.481 27.2017C769.563 19.321 776.485 15.5909 784.321 15.5909C792.158 15.5909 799.871 21.659 807.237 33.7951C809.456 29.3109 811.396 24.6778 813.047 19.9252C814.996 14.4275 817.659 9.24617 820.958 4.53174C824.979 9.36519 830.162 18.9358 836.507 33.2435C836.736 33.2776 836.97 33.2413 837.18 33.1389C837.39 33.0365 837.568 32.8722 837.694 32.6656C840.491 27.8074 844.637 23.9898 849.56 21.7378C854.052 19.0969 859.064 17.6124 864.194 17.4034C868.151 17.3916 872.047 18.4366 875.524 20.4425C879.002 22.4484 881.949 25.3507 884.095 28.8829C888.231 34.6103 890.52 41.6021 890.621 48.8208C890.382 53.3301 889.118 57.7107 886.938 61.5874C884.323 66.9939 880.493 71.6316 875.788 75.0896C875.788 75.3523 876.184 75.7726 876.975 76.3505C887.572 80.3608 892.871 88.8982 892.871 101.962ZM801.799 77.0335C801.782 69.6076 800.851 62.2159 799.03 55.0465C795.734 42.9104 790.543 36.8423 783.456 36.8423C781.83 36.8303 780.223 37.2092 778.755 37.9507C777.286 38.6922 775.995 39.7771 774.977 41.1241C772.731 43.6963 771.478 47.0721 771.466 50.5808C771.388 53.4356 772.264 56.2276 773.938 58.4615C774.957 59.7204 776.232 60.7155 777.667 61.3711C779.102 62.0266 780.66 62.3253 782.22 62.2442C784.391 62.4478 786.556 61.7931 788.301 60.4054C788.993 59.644 789.546 58.7534 789.933 57.7785C790.216 57.0242 790.599 56.3166 791.07 55.677C791.621 56.6571 791.936 57.7672 791.985 58.908C791.796 60.7049 791.398 62.4698 790.798 64.1618C790.096 66.4699 789.141 68.6828 787.955 70.7553C786.77 72.6293 785.429 74.3875 783.95 76.009C787.809 80.5636 790.048 86.4085 790.279 92.532C790.279 97.5756 789.455 100.097 787.807 100.097C787.461 100.097 787.065 99.2043 786.62 97.4706C786.37 95.6395 785.69 93.9048 784.643 92.427C783.848 91.51 782.867 90.797 781.775 90.3419C780.683 89.8868 779.508 89.7015 778.339 89.8001C771.812 89.8001 768.574 93.5565 768.574 101.017C768.531 102.515 768.572 104.015 768.698 105.509C769.299 106.872 770.138 108.102 771.17 109.134C772.979 110.602 774.977 111.787 777.103 112.654C778.505 113.42 780.017 113.935 781.577 114.177C781.76 114.2 781.944 114.148 782.091 114.03C782.239 113.913 782.338 113.74 782.368 113.547C782.368 113.127 782.764 112.917 783.308 112.917C785.9 112.749 788.403 111.842 790.551 110.29C792.632 108.805 794.463 106.958 795.965 104.826C799.854 98.1711 801.799 88.907 801.799 77.0335ZM831.044 76.7708C831.044 64.0567 828.102 49.5388 822.218 33.2172C816.961 45.2452 814.132 58.3096 813.912 71.5696C814.067 86.6636 817.068 101.571 822.737 115.412C825.445 109.984 827.377 104.159 828.473 98.1273C830.088 91.1348 830.95 83.9701 831.044 76.7708ZM875.788 99.861C875.789 98.5775 875.523 97.3096 875.01 96.1475C874.498 94.9853 873.75 93.9572 872.822 93.1362C870.881 91.2926 868.355 90.2978 865.752 90.3517C864.24 90.1421 862.706 90.4848 861.401 91.3236C859.588 94.1523 858.335 97.3428 857.718 100.702C856.582 98.9341 855.745 96.9695 855.245 94.8962C854.54 92.7504 854.1 90.5164 853.935 88.2502C853.935 86.499 855.468 82.4361 858.533 76.0615C855.923 73.697 853.945 70.6438 852.798 67.209C851.727 64.5021 851.14 61.6069 851.068 58.6716C850.992 56.1564 851.492 53.6592 852.526 51.3952L855.418 58.12C855.904 59.3667 856.727 60.4319 857.783 61.1803C858.84 61.9287 860.082 62.3264 861.351 62.323C862.737 62.3543 864.113 62.0758 865.391 61.5056C866.668 60.9354 867.819 60.0862 868.768 59.0131C869.789 57.8139 870.576 56.4122 871.085 54.8884C871.594 53.3646 871.815 51.749 871.734 50.1343C871.734 42.4638 867.779 38.6286 859.868 38.6286C856.746 38.4498 853.647 39.2967 850.993 41.0545C848.34 42.8122 846.26 45.3954 845.036 48.4531C842.756 53.8556 841.673 59.7421 841.871 65.6591C841.857 73.3532 842.687 81.0228 844.344 88.5129C846.717 98.495 850.318 105.264 855.147 108.819C856.316 109.828 857.66 110.587 859.102 111.051C859.361 111.051 859.617 111.107 859.855 111.215C860.093 111.323 860.308 111.482 860.486 111.682C860.642 111.87 860.832 112.022 861.044 112.131C861.256 112.239 861.487 112.301 861.722 112.312C862.307 112.285 862.888 112.188 863.453 112.023C864.009 111.864 864.582 111.776 865.159 111.761C866.735 111.751 868.284 111.323 869.666 110.516C871.047 109.708 872.217 108.547 873.069 107.137C874.69 105.087 875.644 102.534 875.788 99.861Z" fill="#F4A321"></path><path d="M1273.49 72.3595L1225.19 142.607L1204.79 116.381L1185.57 143.283L1134.74 75.4555L1183.17 5.41633L1203.59 31.4339C1207.5 26.0743 1213.9 17.1069 1222.81 4.53174L1273.49 72.3595ZM1193.58 102.332L1174.36 75.4295L1193.58 46.8102C1191.28 43.7662 1187.97 39.6814 1183.72 34.608L1155.74 76.2361L1185.55 114.612L1193.58 102.332ZM1213.45 73.5302L1208.8 67.3641C1206.66 64.5542 1205.11 62.5508 1204.14 61.354C1204.14 61.354 1202.19 64.216 1198.51 69.6536C1197.23 71.2823 1196.2 73.108 1195.46 75.0653C1196.18 76.9917 1197.25 78.7574 1198.61 80.2688C1200.29 82.6002 1202.1 84.8243 1204.04 86.9293L1213.45 73.5302ZM1252.54 73.7124L1222.76 34.53C1221.06 37.1317 1218.38 41.1644 1214.65 46.7062L1234.68 73.6083L1215.45 101.629C1218.24 105.992 1221.39 110.092 1224.86 113.883L1252.54 73.7124Z" fill="#F4A321"></path><path d="M701.212 66.4194H684.555C684.219 66.4194 684.05 66.4658 684.05 66.5587C684.05 66.5587 684.05 66.7907 684.387 66.9764C684.723 67.1621 684.723 67.3013 684.723 67.3941C684.723 67.487 684.555 67.5334 684.219 67.5334C683.882 67.5334 683.181 67.5334 683.125 67.2549C683.069 66.9764 683.125 66.9764 682.873 66.9764C682.283 72.2063 682.114 77.4628 682.368 82.7112C684.05 83.8252 687.92 84.3822 693.977 84.3822C694.853 84.3396 695.725 84.2466 696.585 84.1037C697.612 83.9405 698.653 83.8474 699.698 83.8252C699.757 89.8232 698.444 95.7763 695.828 101.37C693.016 107.154 689.757 112.782 686.069 118.219C684.836 119.611 682.648 121.932 679.508 125.181C677.638 126.574 674.834 128.894 671.095 132.144C671.095 132.144 670.422 132.283 669.076 132.283C668.627 132.283 667.786 132.77 666.552 133.745C665.318 134.72 664.477 135.346 664.028 135.625C661.49 137.087 658.633 138.127 655.616 138.688C654.943 138.688 654.803 138.874 655.195 139.245C655.588 139.616 655.476 139.802 654.859 139.802C653.854 139.928 652.896 140.237 652.055 140.707C651.213 141.177 650.255 141.487 649.25 141.612C648.08 141.696 646.924 141.882 645.801 142.169C644.705 142.449 643.578 142.636 642.436 142.726C641.875 142.726 639.884 142.819 636.463 143.005C633.042 143.19 631.051 143.283 630.49 143.283C629.184 143.183 627.89 142.997 626.621 142.726C625.404 142.468 624.167 142.282 622.919 142.169C618.32 142.169 610.076 139.849 598.186 135.207L595.999 133.397C578.276 123.093 567.34 107.404 563.19 86.3316C563.415 85.9379 563.763 85.6013 564.199 85.3569C570.299 84.8892 576.439 84.8892 582.539 85.3569L582.875 86.0531V68.0904H562.517V65.027C562.517 66.1409 563.134 63.2168 564.367 56.2545C565.694 50.7369 567.783 45.3638 570.593 40.2412C574.678 31.9853 580.9 24.5706 588.82 18.5188C596.454 12.1978 606.237 7.95528 616.862 6.35795L618.376 5.10473C622.56 4.65933 626.778 4.47315 630.995 4.54775C631.556 4.54775 633.659 4.73341 637.305 5.10473C640.95 5.47605 643.053 5.66172 643.614 5.66172C646.418 5.66172 651.185 7.1238 657.915 10.048C661.208 11.2932 664.36 12.7765 667.337 14.4806C669.207 14.4806 672.404 16.4301 676.928 20.329C680.817 23.5822 684.191 27.2319 686.967 31.1902L692.351 39.6842C692.191 40.2307 692.134 40.7943 692.183 41.3551C692.159 41.2226 692.173 41.0874 692.224 40.9602C692.275 40.833 692.361 40.7174 692.475 40.6227C692.59 40.528 692.729 40.4568 692.883 40.4147C693.037 40.3726 693.2 40.3609 693.36 40.3804C694.033 40.3804 694.37 41.6336 694.37 44.14C694.861 45.6591 695.479 47.148 696.221 48.5959C697.567 51.5665 698.408 53.5624 698.744 54.5835C699.081 56.6258 699.922 59.8749 701.268 64.3307L701.212 66.4194ZM688.762 54.8156C687.191 51.5665 684.667 46.925 681.19 40.891C680.629 40.0555 678.386 37.4562 674.46 33.0932C673.741 32.1865 673.175 31.2026 672.778 30.169C672.105 28.9622 671.488 28.3588 670.927 28.3588C669.693 28.3588 669.076 28.6373 669.076 29.1943L670.085 28.4981C663.131 22.4641 657.635 19.1686 653.597 18.6116L652.251 17.4976C651.535 17.4563 650.828 17.3393 650.148 17.1495C649.413 16.9493 648.649 16.8322 647.876 16.8014C645.957 16.4894 644.078 16.023 642.268 15.4089C640.458 14.7949 638.579 14.3285 636.66 14.0165C631.56 14.0768 626.484 14.5903 621.517 15.5482C619.049 16.2908 615.516 17.2191 610.917 18.3331C610.917 18.3331 610.917 18.542 611.254 18.6812C611.59 18.8205 611.59 18.9365 611.59 19.0293C611.59 19.1222 611.31 19.1686 610.749 19.1686C609.259 19.0931 607.768 19.2831 606.374 19.7256L604.187 21.5358C598.579 23.7637 593.026 28.2196 587.53 34.9034C582.069 41.5223 578.028 48.8707 575.584 56.6258C575.964 56.7055 576.331 56.8223 576.678 56.9739C577.285 57.2041 577.945 57.3229 578.613 57.322C578.845 57.3427 579.079 57.2895 579.267 57.1732C579.454 57.0569 579.581 56.8862 579.622 56.6954C579.734 56.2777 580.127 56.0688 580.8 56.0688C582.258 56.0688 583.099 55.6046 583.324 54.6763C583.583 54.1467 583.698 53.5761 583.66 53.0054C585.412 49.6267 587.378 46.3267 589.549 43.1189C591.685 38.8122 594.962 34.9577 599.139 31.84C604.411 27.3841 609.01 24.8777 612.936 24.3207L615.123 22.6497C615.864 22.6413 616.601 22.5476 617.311 22.3712C617.938 22.2072 618.588 22.1135 619.245 22.0928C620.213 22.0001 621.158 21.789 622.05 21.4661C623.396 21.0484 624.33 20.7931 624.854 20.7003C629.01 20.7529 633.167 20.6134 637.305 20.2826L638.65 21.3965C642.239 21.4154 645.787 22.031 649.082 23.2067L651.269 24.8777C654.747 25.249 659.177 27.709 664.561 32.2577C669.142 35.8404 672.804 40.1499 675.329 44.9291C675.859 45.282 676.314 45.7055 676.675 46.1823C677.746 49.3364 679.038 52.4361 680.545 55.4654C680.994 55.9296 682.115 56.1616 683.91 56.1616C685.65 56.0353 687.321 55.5398 688.762 54.7228V54.8156ZM687.247 94.9184C681.639 94.9184 679.395 95.0577 680.517 95.3362C679.77 96.3205 678.926 97.2519 677.993 98.1211C677.881 98.4924 677.769 99.003 677.657 99.6528C676.708 101.622 675.583 103.531 674.292 105.362C671.488 108.797 669.244 111.349 667.562 113.02C665.03 115.825 661.857 118.19 658.224 119.983C655.476 121.143 652.027 122.69 647.876 124.624L648.381 124.972C648.605 125.112 648.718 125.228 648.718 125.321H647.876L645.689 124.764L644.343 126.017L643.67 125.321L642.156 126.574C640.999 126.585 639.845 126.678 638.707 126.852C637.782 127.004 636.844 127.097 635.902 127.131C634.961 127.164 634.023 127.258 633.098 127.409C632.173 127.561 631.236 127.654 630.294 127.688C629.733 127.688 629.621 127.502 629.958 127.131C630.294 126.759 630.182 126.574 629.621 126.574H620.535C619.174 126.287 617.89 125.791 616.75 125.112C615.589 124.417 614.274 123.92 612.88 123.65C612.263 123.65 611.898 123.464 611.786 123.093C611.674 122.721 611.31 122.536 610.693 122.536C609.166 122.137 607.761 121.472 606.57 120.586C603.766 118.822 602.196 117.848 601.859 117.662C600.439 116.562 599.092 115.4 597.821 114.181C596.363 112.788 595.326 112.092 594.709 112.092C594.092 112.092 590.418 106.615 583.688 95.6611C581.663 95.7352 579.634 95.6419 577.631 95.3826V98.446C578.458 100.356 579.5 102.198 580.744 103.946C582.447 106.647 584.319 109.274 586.352 111.814C590.648 116.956 596.001 121.433 602.168 125.042C610.244 129.869 617.591 132.283 624.209 132.283C625.487 132.381 626.754 132.567 627.995 132.84C629.236 133.112 630.502 133.298 631.78 133.397C635.863 133.369 639.929 132.949 643.894 132.144C645.019 131.9 646.095 131.525 647.091 131.03C648.011 130.54 649.041 130.208 650.12 130.055C650.756 130.029 651.357 129.805 651.802 129.428C652.247 129.051 652.848 128.827 653.485 128.802C657.523 128.802 663.944 124.856 672.749 116.966C681.555 109.075 685.901 102.886 685.789 98.3996C686.363 97.234 686.849 96.0404 687.247 94.8256V94.9184ZM665.711 54.6763C662.944 50.2105 659.736 45.9413 656.121 41.9121C651.862 37.5155 646.031 34.3472 639.464 32.8611C638.118 31.7472 637.183 31.1902 636.66 31.1902L634.64 31.7472L633.294 30.6332H631.444C623.021 30.8695 614.932 33.4167 608.449 37.874C606.094 40.1019 602.897 43.2582 598.859 47.3427C596.676 50.2157 595.031 53.3455 593.98 56.6258H600.037C601.82 53.0535 604.324 49.7576 607.44 46.8786C612.936 41.1231 617.815 38.2453 622.078 38.2453C623.772 38.1401 625.457 37.9542 627.125 37.6883C629.817 37.317 631.388 37.1313 631.836 37.1313C635.002 37.4778 638.043 38.3799 640.754 39.777C643.325 40.7745 645.744 42.0209 647.96 43.4902C649.25 44.5114 650.624 45.5325 652.083 46.5536C653.718 47.9728 654.928 49.6898 655.616 51.5665C656.006 52.2876 656.456 52.9855 656.962 53.6552C657.544 54.353 657.945 55.1433 658.14 55.976H664.87C664.948 55.4455 665.245 54.9536 665.711 54.5835V54.6763ZM664.197 94.9184C665.318 94.9184 662.907 95.1969 656.962 95.7539C655.027 98.7172 652.591 101.437 649.727 103.83C647.616 105.616 645.242 107.176 642.661 108.472C640.026 110.098 636.941 111.152 633.687 111.535H625.611C623.325 110.832 621.127 109.946 619.049 108.889C615.049 107.064 612.992 106.151 612.88 106.151C612.095 106.151 610.861 105.455 609.178 104.062C607.679 102.863 606.378 101.505 605.309 100.024C604.636 99.003 604.019 98.0283 603.458 97.1C603.011 96.5514 602.41 96.1003 601.707 95.7851C601.004 95.4699 600.219 95.3 599.42 95.2898C598.179 95.164 596.925 95.4111 595.887 95.986C597.12 99.8849 601.495 104.944 609.01 111.164C610.381 112.342 611.971 113.329 613.721 114.088C615.954 115.043 618.292 115.82 620.704 116.409C622.577 117.001 624.524 117.421 626.508 117.662C627.181 117.662 628.668 117.569 630.967 117.383C633.266 117.198 634.753 117.105 635.426 117.105C636.201 117.08 636.955 116.888 637.613 116.548C638.192 116.232 638.857 116.041 639.548 115.991C640.165 115.956 640.754 115.761 641.23 115.434C641.732 115.097 642.351 114.902 642.997 114.877C645.801 114.877 649.334 112.974 653.597 109.168C656.328 106.902 658.652 104.323 660.495 101.509C661.892 99.3458 663.128 97.1138 664.197 94.8256V94.9184ZM651.073 75.424C651.073 74.1244 648.718 72.4998 644.007 70.5504C641.426 69.3129 638.652 68.3758 635.762 67.7655C635.089 64.0522 634.416 60.3854 633.743 56.765C632.734 51.845 631.444 49.0137 629.873 48.271C629.649 48.271 629.509 48.3174 629.453 48.4103C629.453 48.4103 629.032 48.5495 628.359 48.5495C627.125 48.5495 626.34 50.2205 626.004 53.5624C625.555 57.6469 624.826 62.3813 623.816 67.7655L623.48 68.1832L614.31 70.6896C611.915 71.2112 609.771 72.3292 608.169 73.8923C607.384 75.5632 606.991 76.3368 606.991 76.2131C606.991 78.3482 609.122 80.1584 613.385 81.6437L623.985 84.9856C624.658 87.9562 625.387 90.8803 626.172 93.7581C627.406 98.3068 628.808 100.999 630.378 101.834C631.046 101.349 631.59 100.757 631.977 100.094C632.273 99.5737 632.64 99.0832 633.07 98.6317C633.97 95.5741 634.644 92.474 635.089 89.3486C635.201 84.8927 636.435 82.6648 638.791 82.6648L640.978 83.2218L642.997 81.5508L643.67 82.1078L646.026 80.2976C647.386 79.949 648.587 79.2697 649.475 78.3482C650.435 77.5381 651.004 76.4648 651.073 75.3312V75.424Z" fill="#F4A321"></path><path d="M1083.58 90.7855C1083.36 98.8403 1082.68 106.875 1081.51 114.847C1079.4 129.8 1076.77 137.264 1073.77 137.264C1073.25 137.195 1072.74 137.01 1072.3 136.721C1071.85 136.432 1071.47 136.047 1071.19 135.593C1070.37 134.601 1069.87 133.383 1069.75 132.096L1070.44 103.573C1070.57 99.9529 1070.38 96.3286 1069.87 92.7427C1068.87 87.5234 1066.49 84.9137 1062.73 84.9137C1056.86 84.9137 1053.93 89.5067 1053.93 98.6927C1053.93 100.497 1054.02 102.3 1054.21 104.095C1054.39 106.156 1054.47 107.226 1054.47 107.305V134.262C1054.47 134.844 1054.34 135.418 1054.08 135.936C1053.82 136.454 1053.44 136.901 1052.97 137.238C1052.26 137.905 1051.36 138.325 1050.39 138.438C1047.81 138.438 1045.85 134.811 1044.74 127.582C1044.27 122.858 1043.78 118.109 1043.22 113.385C1043.22 108.166 1043.04 102.947 1042.96 97.5184C1042.32 88.9935 1039.93 84.731 1035.78 84.731C1031.64 84.731 1029.58 89.6894 1029.62 99.6061C1029.64 103.541 1029.89 107.471 1030.37 111.376C1030.52 113.353 1030.77 115.322 1031.11 117.274V134.262C1031.11 135.359 1030.39 136.376 1028.92 137.316C1028.17 137.908 1027.28 138.294 1026.34 138.438C1023.22 138.438 1021.51 136.585 1021.18 132.853C1020.84 129.121 1020.35 119.805 1019.78 103.912C1019.75 100.518 1019.53 97.1285 1019.11 93.7605C1018.11 87.2886 1015.94 84.0265 1012.64 84.0265C1008.04 84.0265 1005.77 91.4901 1005.77 106.417C1005.77 108.74 1005.77 111.428 1005.77 114.507C1005.77 117.587 1005.77 119.179 1005.77 119.361C1005.84 121.458 1006.03 123.549 1006.34 125.624C1006.63 127.744 1006.81 129.879 1006.88 132.018C1006.98 134.277 1006.4 136.514 1005.23 138.438H1003.58C1001.57 138.438 999.914 136.298 998.624 132.018C997.765 129.183 997.304 126.24 997.256 123.276V103.234C997.256 91.8206 995.372 86.1141 991.604 86.1141C986.65 86.1141 984.172 90.568 984.172 99.4757C984.298 104.363 984.669 109.24 985.282 114.09C986.005 120.77 986.366 125.39 986.366 127.999C986.366 134.576 984.766 137.864 981.566 137.864C981.065 137.824 980.577 137.681 980.133 137.443C979.689 137.206 979.299 136.878 978.985 136.481C978.148 135.704 977.571 134.682 977.334 133.558C976.792 130.766 976.172 123.119 975.553 110.593C975.45 108.662 974.805 103.286 973.618 94.4651C973.452 93.603 973.101 92.7886 972.588 92.0803C972.075 91.3719 971.413 90.7871 970.65 90.3679C969.116 89.3439 967.326 88.7828 965.489 88.7499C960.826 88.7499 958.486 93.0994 958.469 101.798C958.469 102.372 959.329 107.992 961.05 118.657C962.856 129.304 963.631 134.915 963.631 135.489C963.47 136.454 962.954 137.321 962.185 137.916C961.381 138.787 960.367 139.435 959.243 139.795C958.31 139.147 957.445 138.404 956.663 137.577C953.046 131.026 950.345 124 948.637 116.699C946.225 109.036 944.811 101.088 944.431 93.0559C944.461 87.6552 945.932 82.3629 948.689 77.7372C950.16 74.9448 955.037 71.9959 963.269 68.8382C970.182 67.3804 977.169 66.3088 984.198 65.6283C993.54 64.4279 998.237 62.3923 998.237 59.5217C998.25 59.2275 998.194 58.9344 998.072 58.6666C997.951 58.3989 997.769 58.1642 997.54 57.982C997.136 57.5499 996.765 57.0876 996.43 56.5989C974.598 52.8932 963.682 44.3595 963.682 30.9981C963.682 17.6366 971.071 8.68546 985.85 4.14464C993.454 1.81335 1004.55 0.647705 1019.14 0.647705C1020.51 0.844895 1021.87 1.15026 1023.19 1.56106C1024.7 2.02798 1026.24 2.33413 1027.81 2.47446C1035.5 2.78241 1042.92 5.39899 1049.13 9.9903C1052.1 12.0814 1054.52 14.8679 1056.2 18.1123C1057.88 21.3567 1058.75 24.9628 1058.75 28.6233C1058.75 38.4704 1053.59 46.1255 1043.27 51.5883C1040.43 52.2408 1037.54 52.8932 1034.6 53.5195C1029 55.1114 1026.21 56.9642 1026.21 59.1042C1026.21 60.8526 1027.45 61.9226 1029.93 62.2879C1036.93 63.4951 1044.01 64.1928 1051.11 64.3757C1072.76 64.741 1083.58 73.5443 1083.58 90.7855ZM1046.42 29.0147C1046.2 25.1733 1044.75 21.5081 1042.29 18.5761C1041.02 16.6414 1039.3 15.0483 1037.29 13.9343C1035.27 12.8204 1033.02 12.2191 1030.73 12.1824C1029.15 12.2029 1027.58 12.4309 1026.06 12.8609C1023.11 13.7656 1021.64 15.0182 1021.64 16.6188C1022.46 18.6511 1023.59 20.5371 1025 22.2035C1026.36 23.8415 1027.5 25.6587 1028.38 27.6055C1028.38 31.2417 1025.9 34.0775 1020.95 36.113C1017.71 37.6307 1014.19 38.4315 1010.62 38.4617C1004.12 38.4617 999.398 36.2348 996.456 31.781C995.577 30.7198 995.053 29.4042 994.959 28.0231C995.284 25.7254 996.388 23.6132 998.082 22.0469C999.256 20.8702 1000.24 19.514 1001 18.0281V14.4006C998.013 12.9782 994.826 12.0361 991.553 11.6083C990.733 11.843 989.981 12.2725 989.359 12.8609C987.358 13.0621 985.438 13.7702 983.778 14.9195C982.119 16.0689 980.772 17.6226 979.863 19.4373C978.084 22.8711 977.196 26.7052 977.282 30.5806C977.282 37.5223 981.617 42.8199 990.34 46.4473C996.292 49.0709 1002.71 50.4385 1009.2 50.4662C1015.03 50.2779 1020.8 49.3485 1026.39 47.6999C1034.74 45.4556 1040.38 42.759 1043.32 39.61C1044.23 38.2682 1044.88 36.7622 1045.23 35.1735C1045.89 33.185 1046.25 31.1101 1046.31 29.0147H1046.42Z" fill="#F4A321"></path><path d="M2932.18 109.267C2932.18 111.233 2931.41 112.386 2929.8 112.779C2921.52 114.168 2912.83 114.92 2904.05 115.007C2899.83 115.012 2895.69 115.528 2892.02 116.505C2888.35 117.483 2885.27 118.889 2883.07 120.589C2883.07 122.45 2883.07 125.15 2882.46 128.688C2881.84 130.981 2879.92 133.153 2876.92 134.978C2875.51 136.071 2873.57 136.986 2871.25 137.644C2868.92 138.301 2866.3 138.682 2863.6 138.752C2859.46 138.566 2855.64 137.626 2852.94 136.131C2849.66 134.702 2847.22 132.896 2845.84 130.889C2845.84 130.339 2845.84 128.714 2845.84 126.015C2846.06 124.551 2845.66 123.081 2844.68 121.69C2843.64 120.482 2842.08 119.392 2840.09 118.488C2838.1 117.585 2835.73 116.89 2833.13 116.448C2827.9 115.85 2822.53 115.568 2817.15 115.609C2811.19 115.657 2805.26 115.259 2799.56 114.43C2797.67 114.149 2796.04 113.573 2794.93 112.797C2793.82 112.021 2793.3 111.091 2793.46 110.158C2793.46 106.253 2799.29 103.92 2810.94 103.186C2812.39 102.77 2813.99 102.486 2815.65 102.348L2818.65 102.898L2820.7 101.928C2823.1 101.492 2825.57 101.159 2828.08 100.932C2829.4 100.541 2830.79 100.216 2832.25 99.9627C2835.02 99.9627 2836.46 98.4163 2836.69 95.3498C2836.69 92.9386 2831.14 90.5011 2820.87 88.0113C2810.61 85.5214 2804.95 83.0053 2804.95 80.4892C2804.87 79.7112 2805.15 78.9346 2805.76 78.2115C2806.38 77.4883 2807.31 76.8352 2808.5 76.2957C2813.47 74.7682 2818.72 73.461 2824.2 72.3905C2830.82 71.1066 2836.7 69.0938 2841.35 66.5197C2842.35 59.6179 2842.84 56.4466 2842.84 57.0057C2842.9 56.2162 2842.79 55.4261 2842.51 54.6469C2841.1 53.2075 2838.85 51.9889 2836.02 51.1349C2834.06 50.241 2832.81 49.057 2832.47 47.7801C2831.69 46.1289 2830.91 44.5301 2830.14 43.0362C2829.51 42.5514 2828.7 42.1251 2827.75 41.7782C2822.2 41.2278 2816.65 40.5988 2811.1 39.8911C2808.53 39.6152 2806.27 38.9012 2804.74 37.8856C2803.22 36.8701 2802.54 35.6244 2802.84 34.3872C2802.58 33.0735 2803.26 31.7569 2804.75 30.6428C2806.25 29.5287 2808.48 28.6796 2811.1 28.228C2816.55 27.5907 2822.14 27.2651 2827.75 27.2583C2832.52 27.4737 2837.31 26.9294 2841.35 25.712C2841.96 21.0467 2842.68 16.4077 2843.46 11.7425C2845.4 3.87972 2850.95 0.000732422 2860.1 0.000732422C2869.26 0.000732422 2875.19 3.46038 2878.19 10.3534C2878.97 14.7216 2879.86 19.0898 2880.85 23.458C2881.28 24.2596 2882.12 24.9984 2883.3 25.6072C2884.48 26.216 2885.97 26.6755 2887.62 26.9438L2905.99 27.7825C2915.04 28.5164 2919.59 30.8227 2919.59 34.6231C2919.76 35.544 2919.42 36.4703 2918.59 37.308C2917.76 38.1458 2916.48 38.8652 2914.87 39.3932C2911.55 40.1352 2907.98 40.6049 2904.33 40.7822C2900.69 40.963 2897.14 41.4326 2893.84 42.1713C2892.37 45.3044 2890.2 48.3536 2887.35 51.2659C2885.25 51.9088 2883.37 52.705 2881.8 53.6248C2880.86 56.1681 2880.47 58.7498 2880.63 61.3303C2880.54 63.0303 2881.35 64.7138 2883 66.2255C2884.65 67.7372 2887.08 69.0283 2890.07 69.9793C2896 71.4733 2902.05 72.9933 2908.27 74.5135C2914.48 76.0336 2917.59 77.947 2917.59 80.1747C2917.59 82.4025 2912.59 84.9447 2902.66 87.4608C2892.73 89.9769 2887.74 92.493 2887.74 95.0091C2887.79 96.5074 2888.82 97.9617 2890.68 99.1764C2891.49 99.8315 2892.66 100.371 2894.07 100.74C2895.47 101.109 2897.06 101.293 2898.67 101.273H2903.38C2904.48 101.329 2905.54 101.499 2906.49 101.771C2907.51 102.07 2908.68 102.241 2909.88 102.269H2914.65C2919.73 102.263 2924.62 103.205 2928.24 104.89C2929.51 105.448 2930.52 106.127 2931.2 106.881C2931.88 107.635 2932.21 108.448 2932.18 109.267Z" fill="#F4A321"></path><path d="M2748.35 22.4998C2739.87 29.7326 2735.64 34.0689 2735.64 35.5085C2735.64 36.237 2738.25 39.151 2743.48 44.2504C2739.66 48.4826 2734.61 53.6861 2728.31 59.8609C2719.86 67.9784 2714.66 73.1299 2712.62 75.2373L2743.4 106.901C2737.74 112.104 2734.9 115.018 2734.9 115.643C2734.9 116.293 2736.24 117.958 2738.93 120.638L2746.2 127.845C2743.77 130.629 2739.69 134.922 2733.91 140.854C2729.9 136.702 2725.66 132.767 2721.22 129.068C2718.02 131.635 2715 134.417 2712.18 137.393L2680 105.938L2643.6 140.021C2640.39 137.645 2637.53 134.844 2635.1 131.695C2632.03 134.193 2627.62 137.888 2621.86 142.779C2620.92 141.868 2616.84 137.575 2609.6 129.77C2613.22 125.912 2617.18 122.385 2621.44 119.233C2619.1 115.432 2616.29 111.936 2613.07 108.826L2648.2 74.3007C2647.81 73.6114 2647.52 72.8774 2647.31 72.1152C2639.31 63.8937 2628.38 52.7062 2614.54 38.5526L2623.04 30.0969C2621.72 28.0431 2620.13 26.1785 2618.31 24.5552C2614.49 20.5745 2612.08 18.0248 2611.06 16.932C2612.71 14.7561 2614.58 12.7513 2616.63 10.948L2624.03 4.02734C2631.64 11.9627 2635.75 15.9434 2636.3 15.9434C2636.85 15.9434 2640.12 13.1335 2645.77 7.48768L2680.74 43.1837L2712.99 13.0294C2714.86 14.3497 2716.61 15.839 2718.22 17.4784C2720.44 19.6899 2721.88 20.8086 2722.53 20.8086C2724.58 19.7049 2726.43 18.252 2727.97 16.5158C2732.35 12.4397 2734.86 10.1241 2735.51 9.56909C2737.47 11.1421 2739.29 12.8833 2740.95 14.7726C2745.08 19.1956 2747.59 21.7713 2748.35 22.4998ZM2722.35 106.224L2690.96 74.8471L2722.51 44.1724C2720.55 41.7614 2717.39 38.3792 2713.01 34.0256L2680.71 64.0238L2645.09 29.2123C2644.15 30.1229 2642.47 31.8141 2640.35 34.2597C2638.24 36.7054 2636.56 38.3705 2635.65 39.2811L2669.83 74.717L2634.23 109.659C2635.18 110.569 2636.69 112.26 2638.84 114.654C2640.98 117.048 2642.63 118.765 2643.73 119.857L2680.11 85.7744L2712.23 116.345C2715.96 113.347 2719.35 109.953 2722.35 106.224Z" fill="#F4A321"></path><path d="M3114.91 28.9087H3017.91C3013.81 29.0217 3009.8 30.1205 3006.21 32.1121C3002.63 34.1036 2999.58 36.9294 2997.32 40.3499C2994.93 43.8532 2993.6 47.9678 2993.48 52.2053C2993.36 56.4428 2994.47 60.6251 2996.65 64.2556C2998.14 67.107 3000.3 69.5562 3002.94 71.394C3005.57 73.2319 3008.62 74.4039 3011.81 74.81C3015 75.2161 3018.24 74.8443 3021.26 73.7262C3024.27 72.6081 3026.97 70.777 3029.13 68.3892C3031.93 65.2832 3033.47 61.2505 3033.47 57.0695C3033.47 52.8885 3031.93 48.8557 3029.13 45.7496C3026.71 43.0008 3023.29 41.3214 3019.64 41.0777C3015.98 40.834 3012.38 42.0459 3009.62 44.4489C3007.8 46.1237 3006.56 48.3346 3006.08 50.7608C3005.6 53.187 3005.91 55.7025 3006.96 57.9425C3007.66 59.6129 3008.9 61.0059 3010.47 61.9089C3012.04 62.8119 3013.87 63.1751 3015.67 62.9432C3016.62 62.8566 3017.51 62.4074 3018.14 61.6879C3018.77 60.9685 3019.11 60.0335 3019.07 59.0756C3019.04 58.5699 3018.9 58.0765 3018.67 57.6273C3018.43 57.178 3018.11 56.783 3017.71 56.4676C3017.32 56.1522 3016.86 55.9233 3016.37 55.796C3015.88 55.6686 3015.36 55.6456 3014.86 55.7282C3014.52 55.7861 3014 55.8669 3013.52 54.8494C3013.16 54.0342 3013.05 53.1288 3013.2 52.2493C3013.35 51.3697 3013.77 50.556 3014.38 49.9122C3015.07 49.3085 3015.87 48.8532 3016.74 48.5749C3017.6 48.2966 3018.52 48.2015 3019.43 48.2955C3020.33 48.3895 3021.21 48.6706 3022 49.1211C3022.79 49.5715 3023.48 50.1815 3024.03 50.9124C3025.54 52.7369 3026.33 55.0546 3026.25 57.4236C3026.16 59.7926 3025.21 62.0474 3023.57 63.7584C3022.16 65.2364 3020.41 66.3534 3018.48 67.015C3016.55 67.6766 3014.49 67.8633 3012.47 67.5594C3010.45 67.2555 3008.53 66.4698 3006.88 65.2689C3005.23 64.0679 3003.89 62.487 3002.98 60.6597C3001.46 58.1935 3000.69 55.3388 3000.76 52.4433C3000.84 49.5477 3001.75 46.7361 3003.39 44.3506C3005.15 41.6768 3007.59 39.5179 3010.45 38.0956C3013.32 36.6733 3016.51 36.0386 3019.7 36.2567C3024.2 36.5059 3028.48 38.2737 3031.85 41.2714C3035.22 44.2692 3037.47 48.32 3038.24 52.7624C3038.73 56.0668 3038.52 59.4383 3037.61 62.6528C3036.7 65.8674 3035.11 68.8514 3032.96 71.4067C3030.81 73.9621 3028.14 76.0301 3025.12 77.4735C3022.11 78.9169 3018.82 79.7026 3015.48 79.7784H2999.3C2997.76 79.7784 2996.29 80.3875 2995.21 81.4717C2994.12 82.5559 2993.51 84.0264 2993.51 85.5597V86.1379C2993.51 87.6712 2994.12 89.1417 2995.21 90.2259C2996.29 91.3101 2997.76 91.9192 2999.3 91.9192H3036.48C3037.25 91.9192 3037.98 92.2237 3038.53 92.7658C3039.07 93.3079 3039.37 94.0432 3039.37 94.8099C3039.37 95.5765 3039.07 96.3117 3038.53 96.8538C3037.98 97.3959 3037.25 97.7005 3036.48 97.7005H2999.28C2997.75 97.7005 2996.28 98.3096 2995.2 99.3938C2994.11 100.478 2993.5 101.949 2993.5 103.482V104.06C2993.5 105.593 2994.11 107.064 2995.2 108.148C2996.28 109.232 2997.75 109.841 2999.28 109.841H3096.28C3100.38 109.728 3104.39 108.629 3107.98 106.637C3111.56 104.646 3114.61 101.82 3116.87 98.4001C3119.26 94.8974 3120.59 90.783 3120.71 86.5455C3120.83 82.308 3119.73 78.1253 3117.54 74.4943C3116.05 71.6439 3113.9 69.1959 3111.26 67.3589C3108.62 65.5218 3105.57 64.3504 3102.38 63.9443C3099.19 63.5383 3095.95 63.9097 3092.94 65.027C3089.92 66.1442 3087.22 67.9741 3085.07 70.3607C3082.27 73.4667 3080.72 77.4996 3080.72 81.6805C3080.72 85.8615 3082.27 89.8942 3085.07 93.0003C3087.49 95.7491 3090.9 97.4285 3094.56 97.6722C3098.21 97.9159 3101.81 96.7041 3104.58 94.3011C3106.4 92.6263 3107.64 90.4154 3108.12 87.9892C3108.59 85.563 3108.29 83.0475 3107.24 80.8076C3106.53 79.1372 3105.3 77.7441 3103.72 76.8411C3102.15 75.9381 3100.33 75.5748 3098.53 75.8067C3097.57 75.8933 3096.69 76.3426 3096.05 77.0621C3095.42 77.7816 3095.09 78.7165 3095.12 79.6744C3095.15 80.1801 3095.29 80.6735 3095.53 81.1228C3095.76 81.572 3096.09 81.967 3096.48 82.2824C3096.88 82.5979 3097.34 82.8266 3097.83 82.9539C3098.32 83.0813 3098.83 83.1044 3099.33 83.0218C3099.67 82.964 3100.19 82.8772 3100.67 83.9005C3101.03 84.7158 3101.15 85.6211 3100.99 86.5007C3100.84 87.3802 3100.43 88.1939 3099.81 88.8378C3099.13 89.4414 3098.33 89.8967 3097.46 90.175C3096.59 90.4533 3095.67 90.5485 3094.77 90.4545C3093.86 90.3605 3092.98 90.0793 3092.19 89.6289C3091.4 89.1784 3090.71 88.5684 3090.17 87.8376C3088.65 86.0137 3087.86 83.6965 3087.95 81.3275C3088.03 78.9585 3088.98 76.7032 3090.62 74.9915C3092.03 73.5135 3093.78 72.3965 3095.71 71.7349C3097.64 71.0733 3099.7 70.8866 3101.72 71.1905C3103.74 71.4945 3105.66 72.2802 3107.31 73.4811C3108.96 74.6821 3110.3 76.2631 3111.21 78.0903C3112.73 80.5565 3113.5 83.4111 3113.43 86.3067C3113.35 89.2023 3112.44 92.014 3110.79 94.3994C3109.04 97.0733 3106.6 99.232 3103.74 100.654C3100.87 102.077 3097.68 102.711 3094.49 102.493C3089.99 102.244 3085.71 100.476 3082.34 97.4786C3078.97 94.4808 3076.72 90.43 3075.95 85.9876C3075.46 82.6833 3075.67 79.3122 3076.59 76.0981C3077.5 72.8839 3079.08 69.9002 3081.23 67.3451C3083.38 64.79 3086.06 62.722 3089.07 61.2783C3092.08 59.8346 3095.37 59.0482 3098.71 58.9715H3114.89C3116.43 58.9715 3117.9 58.3624 3118.98 57.2782C3120.07 56.194 3120.67 54.7235 3120.67 53.1902V52.6121C3120.67 51.0788 3120.07 49.6083 3118.98 48.5241C3117.9 47.4399 3116.43 46.8308 3114.89 46.8308H3077.72C3076.96 46.8308 3076.22 46.5262 3075.68 45.9841C3075.14 45.442 3074.83 44.7068 3074.83 43.9401C3074.83 43.1735 3075.14 42.4382 3075.68 41.8961C3076.22 41.354 3076.96 41.0495 3077.72 41.0495H3114.91C3116.44 41.0495 3117.91 40.4404 3119 39.3562C3120.08 38.272 3120.69 36.8015 3120.69 35.2682V34.69C3120.69 33.1567 3120.08 31.6862 3119 30.602C3117.91 29.5178 3116.44 28.9087 3114.91 28.9087Z" fill="#F4A321"></path><path d="M3310.8 66.4194H3294.15C3293.81 66.4194 3293.64 66.4658 3293.64 66.5587C3293.64 66.5587 3293.64 66.7907 3293.98 66.9764C3294.32 67.1621 3294.32 67.3013 3294.32 67.3941C3294.32 67.487 3294.15 67.5334 3293.81 67.5334C3293.47 67.5334 3292.77 67.5334 3292.72 67.2549C3292.66 66.9764 3292.72 66.9764 3292.47 66.9764C3291.88 72.2063 3291.71 77.4628 3291.96 82.7112C3293.64 83.8252 3297.51 84.3822 3303.57 84.3822C3304.45 84.3396 3305.32 84.2466 3306.18 84.1037C3307.2 83.9405 3308.25 83.8474 3309.29 83.8252C3309.35 89.8232 3308.04 95.7763 3305.42 101.37C3302.61 107.154 3299.35 112.782 3295.66 118.219C3294.43 119.611 3292.24 121.932 3289.1 125.181C3287.23 126.574 3284.43 128.894 3280.69 132.144C3280.69 132.144 3280.01 132.283 3278.67 132.283C3278.22 132.283 3277.38 132.77 3276.14 133.745C3274.91 134.72 3274.07 135.346 3273.62 135.625C3271.08 137.087 3268.23 138.127 3265.21 138.688C3264.54 138.688 3264.4 138.874 3264.79 139.245C3265.18 139.616 3265.07 139.802 3264.45 139.802C3263.45 139.928 3262.49 140.237 3261.65 140.707C3260.81 141.177 3259.85 141.487 3258.84 141.612C3257.67 141.696 3256.52 141.882 3255.39 142.169C3254.3 142.449 3253.17 142.636 3252.03 142.726C3251.47 142.726 3249.48 142.819 3246.06 143.005C3242.63 143.19 3240.64 143.283 3240.08 143.283C3238.78 143.183 3237.48 142.997 3236.21 142.726C3235 142.468 3233.76 142.282 3232.51 142.169C3227.91 142.169 3219.67 139.849 3207.78 135.207L3205.59 133.397C3187.87 123.093 3176.93 107.404 3172.78 86.3316C3173.01 85.9379 3173.36 85.6013 3173.79 85.3569C3179.89 84.8892 3186.03 84.8892 3192.13 85.3569L3192.47 86.0531V68.0904H3172.11V65.027C3172.11 66.1409 3172.73 63.2168 3173.96 56.2545C3175.29 50.7369 3177.38 45.3638 3180.19 40.2412C3184.27 31.9853 3190.49 24.5706 3198.41 18.5188C3206.05 12.1978 3215.83 7.95528 3226.45 6.35795L3227.97 5.10473C3232.15 4.65933 3236.37 4.47315 3240.59 4.54775C3241.15 4.54775 3243.25 4.73341 3246.9 5.10473C3250.54 5.47605 3252.65 5.66172 3253.21 5.66172C3256.01 5.66172 3260.78 7.1238 3267.51 10.048C3270.8 11.2932 3273.95 12.7765 3276.93 14.4806C3278.8 14.4806 3282 16.4301 3286.52 20.329C3290.41 23.5822 3293.78 27.2319 3296.56 31.1902L3301.94 39.6842C3301.78 40.2307 3301.73 40.7943 3301.78 41.3551C3301.75 41.2226 3301.77 41.0874 3301.82 40.9602C3301.87 40.833 3301.95 40.7174 3302.07 40.6227C3302.18 40.528 3302.32 40.4568 3302.48 40.4147C3302.63 40.3726 3302.79 40.3609 3302.95 40.3804C3303.63 40.3804 3303.96 41.6336 3303.96 44.14C3304.45 45.6591 3305.07 47.148 3305.81 48.5959C3307.16 51.5665 3308 53.5624 3308.34 54.5835C3308.67 56.6258 3309.51 59.8749 3310.86 64.3307L3310.8 66.4194ZM3298.35 54.8156C3296.78 51.5665 3294.26 46.925 3290.78 40.891C3290.22 40.0555 3287.98 37.4562 3284.05 33.0932C3283.33 32.1865 3282.77 31.2026 3282.37 30.169C3281.7 28.9622 3281.08 28.3588 3280.52 28.3588C3279.29 28.3588 3278.67 28.6373 3278.67 29.1943L3279.68 28.4981C3272.72 22.4641 3267.23 19.1686 3263.19 18.6116L3261.84 17.4976C3261.13 17.4563 3260.42 17.3393 3259.74 17.1495C3259.01 16.9493 3258.24 16.8322 3257.47 16.8014C3255.55 16.4894 3253.67 16.023 3251.86 15.4089C3250.05 14.7949 3248.17 14.3285 3246.25 14.0165C3241.15 14.0768 3236.08 14.5903 3231.11 15.5482C3228.64 16.2908 3225.11 17.2191 3220.51 18.3331C3220.51 18.3331 3220.51 18.542 3220.85 18.6812C3221.18 18.8205 3221.18 18.9365 3221.18 19.0293C3221.18 19.1222 3220.9 19.1686 3220.34 19.1686C3218.85 19.0931 3217.36 19.2831 3215.97 19.7256L3213.78 21.5358C3208.17 23.7637 3202.62 28.2196 3197.12 34.9034C3191.66 41.5223 3187.62 48.8707 3185.18 56.6258C3185.56 56.7055 3185.92 56.8223 3186.27 56.9739C3186.88 57.2041 3187.54 57.3229 3188.21 57.322C3188.44 57.3427 3188.67 57.2895 3188.86 57.1732C3189.05 57.0569 3189.17 56.8862 3189.21 56.6954C3189.33 56.2777 3189.72 56.0688 3190.39 56.0688C3191.85 56.0688 3192.69 55.6046 3192.92 54.6763C3193.18 54.1467 3193.29 53.5761 3193.25 53.0054C3195.01 49.6267 3196.97 46.3267 3199.14 43.1189C3201.28 38.8122 3204.55 34.9577 3208.73 31.84C3214 27.3841 3218.6 24.8777 3222.53 24.3207L3224.72 22.6497C3225.46 22.6413 3226.19 22.5476 3226.9 22.3712C3227.53 22.2072 3228.18 22.1135 3228.84 22.0928C3229.81 22.0001 3230.75 21.789 3231.64 21.4661C3232.99 21.0484 3233.92 20.7931 3234.45 20.7003C3238.6 20.7529 3242.76 20.6134 3246.9 20.2826L3248.24 21.3965C3251.83 21.4154 3255.38 22.031 3258.67 23.2067L3260.86 24.8777C3264.34 25.249 3268.77 27.709 3274.15 32.2577C3278.73 35.8404 3282.4 40.1499 3284.92 44.9291C3285.45 45.282 3285.91 45.7055 3286.27 46.1823C3287.34 49.3364 3288.63 52.4361 3290.14 55.4654C3290.59 55.9296 3291.71 56.1616 3293.5 56.1616C3295.24 56.0353 3296.91 55.5398 3298.35 54.7228V54.8156ZM3296.84 94.9184C3291.23 94.9184 3288.99 95.0577 3290.11 95.3362C3289.36 96.3205 3288.52 97.2519 3287.59 98.1211C3287.47 98.4924 3287.36 99.003 3287.25 99.6528C3286.3 101.622 3285.18 103.531 3283.88 105.362C3281.08 108.797 3278.84 111.349 3277.15 113.02C3274.62 115.825 3271.45 118.19 3267.82 119.983C3265.07 121.143 3261.62 122.69 3257.47 124.624L3257.97 124.972C3258.2 125.112 3258.31 125.228 3258.31 125.321H3257.47L3255.28 124.764L3253.94 126.017L3253.26 125.321L3251.75 126.574C3250.59 126.585 3249.44 126.678 3248.3 126.852C3247.37 127.004 3246.44 127.097 3245.5 127.131C3244.55 127.164 3243.62 127.258 3242.69 127.409C3241.77 127.561 3240.83 127.654 3239.89 127.688C3239.33 127.688 3239.21 127.502 3239.55 127.131C3239.89 126.759 3239.77 126.574 3239.21 126.574H3230.13C3228.77 126.287 3227.48 125.791 3226.34 125.112C3225.18 124.417 3223.87 123.92 3222.47 123.65C3221.86 123.65 3221.49 123.464 3221.38 123.093C3221.27 122.721 3220.9 122.536 3220.29 122.536C3218.76 122.137 3217.35 121.472 3216.16 120.586C3213.36 118.822 3211.79 117.848 3211.45 117.662C3210.03 116.562 3208.68 115.4 3207.41 114.181C3205.96 112.788 3204.92 112.092 3204.3 112.092C3203.68 112.092 3200.01 106.615 3193.28 95.6611C3191.26 95.7352 3189.23 95.6419 3187.22 95.3826V98.446C3188.05 100.356 3189.09 102.198 3190.34 103.946C3192.04 106.647 3193.91 109.274 3195.95 111.814C3200.24 116.956 3205.59 121.433 3211.76 125.042C3219.84 129.869 3227.18 132.283 3233.8 132.283C3235.08 132.381 3236.35 132.567 3237.59 132.84C3238.83 133.112 3240.09 133.298 3241.37 133.397C3245.46 133.369 3249.52 132.949 3253.49 132.144C3254.61 131.9 3255.69 131.525 3256.68 131.03C3257.6 130.54 3258.63 130.208 3259.71 130.055C3260.35 130.029 3260.95 129.805 3261.39 129.428C3261.84 129.051 3262.44 128.827 3263.08 128.802C3267.12 128.802 3273.54 124.856 3282.34 116.966C3291.15 109.075 3295.49 102.886 3295.38 98.3996C3295.96 97.234 3296.44 96.0404 3296.84 94.8256V94.9184ZM3275.3 54.6763C3272.54 50.2105 3269.33 45.9413 3265.71 41.9121C3261.45 37.5155 3255.62 34.3472 3249.06 32.8611C3247.71 31.7472 3246.78 31.1902 3246.25 31.1902L3244.23 31.7472L3242.89 30.6332H3241.04C3232.61 30.8695 3224.52 33.4167 3218.04 37.874C3215.69 40.1019 3212.49 43.2582 3208.45 47.3427C3206.27 50.2157 3204.62 53.3455 3203.57 56.6258H3209.63C3211.41 53.0535 3213.92 49.7576 3217.03 46.8786C3222.53 41.1231 3227.41 38.2453 3231.67 38.2453C3233.36 38.1401 3235.05 37.9542 3236.72 37.6883C3239.41 37.317 3240.98 37.1313 3241.43 37.1313C3244.6 37.4778 3247.64 38.3799 3250.35 39.777C3252.92 40.7745 3255.34 42.0209 3257.55 43.4902C3258.84 44.5114 3260.22 45.5325 3261.68 46.5536C3263.31 47.9728 3264.52 49.6898 3265.21 51.5665C3265.6 52.2876 3266.05 52.9855 3266.55 53.6552C3267.14 54.353 3267.54 55.1433 3267.73 55.976H3274.46C3274.54 55.4455 3274.84 54.9536 3275.3 54.5835V54.6763ZM3273.79 94.9184C3274.91 94.9184 3272.5 95.1969 3266.55 95.7539C3264.62 98.7172 3262.18 101.437 3259.32 103.83C3257.21 105.616 3254.83 107.176 3252.25 108.472C3249.62 110.098 3246.53 111.152 3243.28 111.535H3235.2C3232.92 110.832 3230.72 109.946 3228.64 108.889C3224.64 107.064 3222.58 106.151 3222.47 106.151C3221.69 106.151 3220.45 105.455 3218.77 104.062C3217.27 102.863 3215.97 101.505 3214.9 100.024C3214.23 99.003 3213.61 98.0283 3213.05 97.1C3212.6 96.5514 3212 96.1003 3211.3 95.7851C3210.6 95.4699 3209.81 95.3 3209.01 95.2898C3207.77 95.164 3206.52 95.4111 3205.48 95.986C3206.71 99.8849 3211.09 104.944 3218.6 111.164C3219.97 112.342 3221.56 113.329 3223.31 114.088C3225.55 115.043 3227.89 115.82 3230.3 116.409C3232.17 117.001 3234.12 117.421 3236.1 117.662C3236.77 117.662 3238.26 117.569 3240.56 117.383C3242.86 117.198 3244.35 117.105 3245.02 117.105C3245.79 117.08 3246.55 116.888 3247.21 116.548C3247.78 116.232 3248.45 116.041 3249.14 115.991C3249.76 115.956 3250.35 115.761 3250.82 115.434C3251.33 115.097 3251.94 114.902 3252.59 114.877C3255.39 114.877 3258.93 112.974 3263.19 109.168C3265.92 106.902 3268.24 104.323 3270.09 101.509C3271.48 99.3458 3272.72 97.1138 3273.79 94.8256V94.9184ZM3260.67 75.424C3260.67 74.1244 3258.31 72.4998 3253.6 70.5504C3251.02 69.3129 3248.24 68.3758 3245.35 67.7655C3244.68 64.0522 3244.01 60.3854 3243.34 56.765C3242.33 51.845 3241.04 49.0137 3239.47 48.271C3239.24 48.271 3239.1 48.3174 3239.05 48.4103C3239.05 48.4103 3238.62 48.5495 3237.95 48.5495C3236.72 48.5495 3235.93 50.2205 3235.6 53.5624C3235.15 57.6469 3234.42 62.3813 3233.41 67.7655L3233.07 68.1832L3223.9 70.6896C3221.51 71.2112 3219.36 72.3292 3217.76 73.8923C3216.98 75.5632 3216.58 76.3368 3216.58 76.2131C3216.58 78.3482 3218.72 80.1584 3222.98 81.6437L3233.58 84.9856C3234.25 87.9562 3234.98 90.8803 3235.76 93.7581C3237 98.3068 3238.4 100.999 3239.97 101.834C3240.64 101.349 3241.18 100.757 3241.57 100.094C3241.87 99.5737 3242.23 99.0832 3242.66 98.6317C3243.56 95.5741 3244.24 92.474 3244.68 89.3486C3244.79 84.8927 3246.03 82.6648 3248.38 82.6648L3250.57 83.2218L3252.59 81.5508L3253.26 82.1078L3255.62 80.2976C3256.98 79.949 3258.18 79.2697 3259.07 78.3482C3260.03 77.5381 3260.6 76.4648 3260.67 75.3312V75.424Z" fill="#F4A321"></path><path d="M1634.05 111.208C1634.05 113.174 1633.27 114.327 1631.66 114.72C1623.39 116.109 1614.7 116.861 1605.92 116.948C1601.7 116.953 1597.56 117.469 1593.89 118.447C1590.21 119.424 1587.13 120.83 1584.94 122.531C1584.94 124.392 1584.94 127.091 1584.33 130.629C1583.7 132.922 1581.79 135.094 1578.78 136.92C1577.38 138.013 1575.43 138.927 1573.11 139.585C1570.79 140.243 1568.17 140.623 1565.46 140.694C1561.33 140.508 1557.5 139.568 1554.81 138.073C1551.53 136.643 1549.08 134.838 1547.71 132.831C1547.71 132.28 1547.71 130.656 1547.71 127.956C1547.93 126.492 1547.53 125.023 1546.54 123.631C1545.51 122.424 1543.94 121.333 1541.95 120.43C1539.96 119.527 1537.6 118.832 1535 118.39C1529.77 117.791 1524.4 117.509 1519.02 117.551C1513.06 117.598 1507.12 117.2 1501.43 116.371C1499.54 116.09 1497.91 115.514 1496.8 114.739C1495.69 113.963 1495.17 113.032 1495.33 112.099C1495.33 108.194 1501.15 105.862 1512.8 105.128C1514.25 104.712 1515.85 104.427 1517.52 104.289L1520.52 104.839L1522.57 103.87C1524.96 103.433 1527.43 103.1 1529.95 102.874C1531.26 102.483 1532.66 102.158 1534.11 101.904C1536.89 101.904 1538.33 100.358 1538.55 97.2912C1538.55 94.88 1533 92.4426 1522.74 89.9527C1512.47 87.4628 1506.81 84.9467 1506.81 82.4306C1506.74 81.6526 1507.02 80.876 1507.63 80.1529C1508.24 79.4297 1509.17 78.7766 1510.36 78.2371C1515.33 76.7096 1520.59 75.4024 1526.07 74.3319C1532.69 73.048 1538.57 71.0352 1543.21 68.4611C1544.21 61.5593 1544.71 58.388 1544.71 58.9471C1544.76 58.1576 1544.65 57.3675 1544.38 56.5883C1542.97 55.1489 1540.72 53.9303 1537.89 53.0763C1535.93 52.1824 1534.67 50.9985 1534.33 49.7215C1533.56 48.0703 1532.78 46.4715 1532 44.9776C1531.38 44.4928 1530.57 44.0665 1529.62 43.7196C1524.07 43.1692 1518.52 42.5402 1512.97 41.8325C1510.4 41.5566 1508.14 40.8426 1506.61 39.827C1505.08 38.8115 1504.41 37.5658 1504.7 36.3286C1504.45 35.0149 1505.12 33.6983 1506.62 32.5842C1508.11 31.4701 1510.35 30.621 1512.97 30.1694C1518.42 29.5321 1524.01 29.2065 1529.62 29.1997C1534.39 29.4151 1539.17 28.8708 1543.21 27.6534C1543.82 22.9881 1544.54 18.3491 1545.32 13.6839C1547.26 5.82113 1552.81 1.94214 1561.97 1.94214C1571.12 1.94214 1577.06 5.40178 1580.06 12.2948C1580.83 16.663 1581.72 21.0312 1582.72 25.3994C1583.14 26.201 1583.99 26.9398 1585.17 27.5486C1586.35 28.1574 1587.84 28.6169 1589.49 28.8852L1607.86 29.7239C1616.9 30.4578 1621.45 32.7641 1621.45 36.5645C1621.63 37.4854 1621.28 38.4117 1620.45 39.2495C1619.63 40.0872 1618.34 40.8066 1616.74 41.3346C1613.41 42.0766 1609.85 42.5463 1606.19 42.7236C1602.56 42.9044 1599.01 43.374 1595.71 44.1127C1594.24 47.2458 1592.06 50.2951 1589.21 53.2073C1587.11 53.8502 1585.24 54.6464 1583.66 55.5662C1582.73 58.1095 1582.34 60.6912 1582.5 63.2717C1582.41 64.9717 1583.22 66.6552 1584.87 68.1669C1586.52 69.6786 1588.95 70.9697 1591.93 71.9207C1597.87 73.4147 1603.92 74.9347 1610.13 76.4549C1616.35 77.975 1619.45 79.8884 1619.45 82.1161C1619.45 84.3439 1614.46 86.8861 1604.53 89.4022C1594.6 91.9183 1589.6 94.4344 1589.6 96.9505C1589.66 98.4488 1590.68 99.9031 1592.54 101.118C1593.36 101.773 1594.53 102.313 1595.93 102.682C1597.34 103.05 1598.93 103.234 1600.53 103.215H1605.25C1606.35 103.271 1607.41 103.441 1608.36 103.713C1609.38 104.011 1610.54 104.182 1611.74 104.21H1616.51C1621.6 104.204 1626.48 105.146 1630.11 106.831C1631.38 107.39 1632.39 108.068 1633.06 108.822C1633.74 109.576 1634.08 110.389 1634.05 111.208Z" fill="#F4A321"></path><path d="M1450.21 24.4419C1441.74 31.6748 1437.5 36.011 1437.5 37.4507C1437.5 38.1792 1440.11 41.0931 1445.34 46.1926C1441.53 50.4248 1436.47 55.6283 1430.17 61.8031C1421.73 69.9206 1416.52 75.072 1414.48 77.1795L1445.27 108.843C1439.6 114.046 1436.77 116.96 1436.77 117.585C1436.77 118.235 1438.1 119.9 1440.79 122.58L1448.06 129.787C1445.63 132.571 1441.55 136.864 1435.77 142.796C1431.76 138.644 1427.52 134.709 1423.09 131.01C1419.88 133.578 1416.86 136.359 1414.04 139.335L1381.87 107.88L1345.46 141.963C1342.26 139.587 1339.4 136.786 1336.96 133.637C1333.89 136.135 1329.48 139.83 1323.72 144.721C1322.78 143.81 1318.7 139.517 1311.46 131.712C1315.08 127.854 1319.05 124.327 1323.31 121.175C1320.96 117.374 1318.15 113.878 1314.94 110.768L1350.06 76.2428C1349.68 75.5536 1349.38 74.8195 1349.17 74.0574C1341.17 65.8358 1330.25 54.6483 1316.4 40.4948L1324.9 32.0391C1323.59 29.9853 1321.99 28.1206 1320.17 26.4973C1316.35 22.5166 1313.94 19.9669 1312.92 18.8742C1314.57 16.6982 1316.44 14.6934 1318.49 12.8902L1325.9 5.96948C1333.51 13.9048 1337.61 17.8855 1338.16 17.8855C1338.71 17.8855 1341.98 15.0756 1347.63 9.42982L1382.6 45.1259L1414.85 14.9715C1416.73 16.2918 1418.48 17.7811 1420.08 19.4205C1422.3 21.632 1423.74 22.7508 1424.39 22.7508C1426.45 21.6471 1428.29 20.1941 1429.83 18.4579C1434.21 14.3818 1436.72 12.0663 1437.37 11.5112C1439.33 13.0843 1441.15 14.8254 1442.81 16.7147C1446.94 21.1377 1449.45 23.7134 1450.21 24.4419ZM1424.21 108.166L1392.83 76.7892L1424.37 46.1145C1422.42 43.7036 1419.25 40.3213 1414.87 35.9677L1382.57 65.9659L1346.95 31.1544C1346.01 32.065 1344.33 33.7562 1342.22 36.2018C1340.1 38.6475 1338.42 40.3126 1337.51 41.2232L1371.69 76.6591L1336.1 111.601C1337.04 112.511 1338.55 114.202 1340.7 116.596C1342.84 118.99 1344.49 120.707 1345.59 121.8L1381.97 87.7166L1414.09 118.287C1417.82 115.289 1421.22 111.895 1424.21 108.166Z" fill="#F4A321"></path><path d="M1815.2 30.8494H1718.2C1714.1 30.9624 1710.09 32.0612 1706.51 34.0527C1702.92 36.0443 1699.87 38.87 1697.61 42.2906C1695.23 45.7938 1693.89 49.9085 1693.78 54.146C1693.66 58.3835 1694.76 62.5658 1696.95 66.1963C1698.44 69.0477 1700.59 71.4969 1703.23 73.3347C1705.87 75.1726 1708.91 76.3446 1712.1 76.7507C1715.29 77.1568 1718.54 76.7849 1721.55 75.6669C1724.57 74.5488 1727.27 72.7177 1729.42 70.3299C1732.22 67.2239 1733.77 63.1911 1733.77 59.0101C1733.77 54.8292 1732.22 50.7964 1729.42 47.6903C1727 44.9415 1723.59 43.2621 1719.93 43.0184C1716.28 42.7747 1712.67 43.9866 1709.91 46.3896C1708.09 48.0644 1706.85 50.2752 1706.37 52.7015C1705.89 55.1277 1706.2 57.6432 1707.25 59.8831C1707.96 61.5535 1709.19 62.9466 1710.76 63.8496C1712.34 64.7526 1714.16 65.1158 1715.96 64.8839C1716.92 64.7973 1717.8 64.3481 1718.44 63.6286C1719.07 62.9091 1719.4 61.9742 1719.37 61.0163C1719.34 60.5105 1719.2 60.0172 1718.96 59.5679C1718.73 59.1187 1718.4 58.7237 1718.01 58.4083C1717.61 58.0928 1717.15 57.864 1716.66 57.7367C1716.17 57.6093 1715.66 57.5863 1715.16 57.6689C1714.82 57.7267 1714.3 57.8076 1713.82 56.7901C1713.45 55.9749 1713.34 55.0695 1713.49 54.1899C1713.65 53.3104 1714.06 52.4967 1714.68 51.8528C1715.36 51.2492 1716.16 50.7939 1717.03 50.5156C1717.9 50.2373 1718.81 50.1422 1719.72 50.2362C1720.63 50.3302 1721.5 50.6113 1722.3 51.0617C1723.09 51.5122 1723.78 52.1222 1724.32 52.853C1725.84 54.6776 1726.62 56.9952 1726.54 59.3642C1726.45 61.7333 1725.5 63.9881 1723.86 65.6991C1722.45 67.1771 1720.71 68.2941 1718.77 68.9557C1716.84 69.6173 1714.78 69.804 1712.76 69.5001C1710.74 69.1961 1708.82 68.4105 1707.17 67.2095C1705.52 66.0086 1704.18 64.4276 1703.27 62.6004C1701.75 60.1342 1700.98 57.2795 1701.06 54.3839C1701.13 51.4883 1702.05 48.6767 1703.69 46.2913C1705.44 43.6174 1707.88 41.4586 1710.74 40.0362C1713.61 38.6139 1716.8 37.9793 1719.99 38.1974C1724.49 38.4465 1728.78 40.2143 1732.14 43.2121C1735.51 46.2099 1737.76 50.2606 1738.53 54.7031C1739.03 58.0075 1738.81 61.3789 1737.9 64.5935C1736.99 67.8081 1735.41 70.7921 1733.25 73.3474C1731.1 75.9027 1728.43 77.9708 1725.42 79.4142C1722.4 80.8576 1719.12 81.6433 1715.78 81.7191H1699.59C1698.06 81.7191 1696.59 82.3282 1695.5 83.4124C1694.42 84.4966 1693.81 85.9671 1693.81 87.5004V88.0786C1693.81 89.6119 1694.42 91.0824 1695.5 92.1666C1696.59 93.2508 1698.06 93.8599 1699.59 93.8599H1736.78C1737.54 93.8599 1738.28 94.1644 1738.82 94.7065C1739.36 95.2486 1739.67 95.9839 1739.67 96.7505C1739.67 97.5172 1739.36 98.2524 1738.82 98.7945C1738.28 99.3366 1737.54 99.6412 1736.78 99.6412H1699.58C1698.04 99.6412 1696.57 100.25 1695.49 101.335C1694.41 102.419 1693.8 103.889 1693.8 105.423V106.001C1693.8 107.534 1694.41 109.004 1695.49 110.089C1696.57 111.173 1698.04 111.782 1699.58 111.782H1796.58C1800.68 111.668 1804.69 110.569 1808.27 108.578C1811.85 106.586 1814.9 103.761 1817.16 100.341C1819.55 96.8381 1820.88 92.7236 1821 88.4861C1821.12 84.2486 1820.02 80.066 1817.83 76.435C1816.35 73.5846 1814.19 71.1366 1811.55 69.2996C1808.91 67.4625 1805.87 66.291 1802.68 65.885C1799.49 65.4789 1796.25 65.8504 1793.23 66.9677C1790.22 68.0849 1787.52 69.9148 1785.36 72.3014C1782.56 75.4074 1781.01 79.4402 1781.01 83.6212C1781.01 87.8022 1782.56 91.8349 1785.36 94.941C1787.78 97.6898 1791.19 99.3692 1794.85 99.6129C1798.5 99.8566 1802.11 98.6448 1804.87 96.2418C1806.69 94.567 1807.93 92.3561 1808.41 89.9299C1808.89 87.5036 1808.58 84.9882 1807.53 82.7482C1806.83 81.0778 1805.59 79.6848 1804.02 78.7818C1802.44 77.8788 1800.62 77.5155 1798.82 77.7474C1797.87 77.834 1796.98 78.2833 1796.35 79.0028C1795.71 79.7222 1795.38 80.6572 1795.41 81.6151C1795.45 82.1208 1795.58 82.6142 1795.82 83.0634C1796.05 83.5126 1796.38 83.9077 1796.78 84.2231C1797.17 84.5385 1797.63 84.7673 1798.12 84.8946C1798.61 85.022 1799.12 85.0451 1799.62 84.9624C1799.96 84.9046 1800.49 84.8179 1800.96 85.8412C1801.33 86.6564 1801.44 87.5618 1801.29 88.4413C1801.13 89.3209 1800.72 90.1346 1800.1 90.7784C1799.42 91.3821 1798.62 91.8374 1797.75 92.1157C1796.88 92.394 1795.97 92.4892 1795.06 92.3952C1794.16 92.3012 1793.28 92.02 1792.49 91.5695C1791.69 91.1191 1791 90.5091 1790.46 89.7782C1788.95 87.9543 1788.16 85.6372 1788.24 83.2682C1788.32 80.8992 1789.28 78.6439 1790.92 76.9322C1792.33 75.4542 1794.07 74.3372 1796 73.6756C1797.93 73.014 1800 72.8273 1802.02 73.1312C1804.04 73.4351 1805.95 74.2209 1807.6 75.4218C1809.25 76.6228 1810.59 78.2037 1811.5 80.031C1813.02 82.4972 1813.79 85.3517 1813.72 88.2473C1813.65 91.1429 1812.73 93.9546 1811.09 96.3401C1809.33 99.0139 1806.9 101.173 1804.03 102.595C1801.17 104.017 1797.98 104.652 1794.78 104.434C1790.28 104.185 1786 102.417 1782.63 99.4193C1779.26 96.4215 1777.01 92.3707 1776.24 87.9283C1775.75 84.624 1775.97 81.2529 1776.88 78.0387C1777.79 74.8246 1779.37 71.8409 1781.53 69.2858C1783.68 66.7307 1786.35 64.6626 1789.36 63.2189C1792.37 61.7752 1795.66 60.9889 1799 60.9122H1815.19C1816.72 60.9122 1818.19 60.3031 1819.27 59.2189C1820.36 58.1347 1820.97 56.6642 1820.97 55.1309V54.5528C1820.97 53.0195 1820.36 51.549 1819.27 50.4648C1818.19 49.3806 1816.72 48.7715 1815.19 48.7715H1778.02C1777.25 48.7715 1776.52 48.4669 1775.97 47.9248C1775.43 47.3827 1775.13 46.6475 1775.13 45.8808C1775.13 45.1142 1775.43 44.3789 1775.97 43.8368C1776.52 43.2947 1777.25 42.9902 1778.02 42.9902H1815.2C1816.74 42.9902 1818.21 42.3811 1819.29 41.2969C1820.38 40.2126 1820.99 38.7421 1820.99 37.2088V36.6307C1820.99 35.0974 1820.38 33.6269 1819.29 32.5427C1818.21 31.4585 1816.74 30.8494 1815.2 30.8494Z" fill="#F4A321"></path><path d="M2204.33 103.904C2204.28 109.32 2202.92 114.631 2200.37 119.324C2198.03 124.26 2194.1 128.139 2189.3 130.252C2185.34 132.097 2181.19 133.455 2176.94 134.297C2171.53 134.158 2166.26 132.519 2161.64 129.543C2156.68 126.697 2152.54 122.487 2149.65 117.354C2147.41 119.304 2145.7 121.852 2144.7 124.736C2142.23 130.882 2141.09 133.982 2140.99 134.087C2139.35 136.697 2137.24 140.409 2134.69 145.225L2120.97 119.744C2117.33 123.937 2113.27 127.69 2108.86 130.935C2105.03 133.217 2100.71 134.378 2096.32 134.297C2096.59 134.297 2094.27 133.798 2089.35 132.774C2082.13 131.443 2075.69 127.163 2071.4 120.848C2067.47 114.915 2065.45 107.795 2065.62 100.542C2065.52 98.4893 2065.6 96.431 2065.87 94.3951C2066.76 90.9311 2068.29 87.6897 2070.37 84.8596C2071.76 83.2176 2073.3 81.7221 2074.96 80.3939C2076.37 79.2643 2077.09 78.2924 2077.09 77.4518C2076.15 75.7032 2074.99 74.0954 2073.65 72.6709C2071.76 70.4433 2070.1 68.0035 2068.71 65.3944C2067.02 61.4354 2066.18 57.1304 2066.24 52.7854C2066.37 44.0502 2069.46 35.6584 2074.94 29.1436C2081.02 21.2629 2087.94 17.5328 2095.78 17.5328C2103.62 17.5328 2111.33 23.6009 2118.7 35.737C2120.91 31.2528 2122.85 26.6197 2124.5 21.8671C2126.45 16.3694 2129.12 11.1881 2132.42 6.47363C2136.44 11.3071 2141.62 20.8777 2147.96 35.1854C2148.19 35.2195 2148.43 35.1832 2148.64 35.0808C2148.85 34.9784 2149.03 34.8141 2149.15 34.6075C2151.95 29.7493 2156.09 25.9317 2161.02 23.6797C2165.51 21.0388 2170.52 19.5543 2175.65 19.3453C2179.61 19.3335 2183.5 20.3785 2186.98 22.3844C2190.46 24.3903 2193.41 27.2926 2195.55 30.8248C2199.69 36.5522 2201.98 43.5439 2202.08 50.7627C2201.84 55.272 2200.58 59.6525 2198.4 63.5293C2195.78 68.9358 2191.95 73.5735 2187.25 77.0315C2187.25 77.2942 2187.64 77.7145 2188.43 78.2924C2199.03 82.3027 2204.33 90.8401 2204.33 103.904ZM2113.26 78.9754C2113.24 71.5495 2112.31 64.1578 2110.49 56.9884C2107.19 44.8523 2102 38.7842 2094.91 38.7842C2093.29 38.7721 2091.68 39.1511 2090.21 39.8926C2088.74 40.6341 2087.45 41.719 2086.43 43.066C2084.19 45.6382 2082.94 49.014 2082.92 52.5227C2082.85 55.3775 2083.72 58.1695 2085.4 60.4034C2086.41 61.6623 2087.69 62.6574 2089.13 63.313C2090.56 63.9685 2092.12 64.2672 2093.68 64.1861C2095.85 64.3897 2098.01 63.735 2099.76 62.3473C2100.45 61.5859 2101 60.6953 2101.39 59.7204C2101.67 58.9661 2102.06 58.2585 2102.53 57.6189C2103.08 58.599 2103.39 59.7091 2103.44 60.8499C2103.25 62.6468 2102.86 64.4117 2102.26 66.1037C2101.55 68.4118 2100.6 70.6247 2099.41 72.6972C2098.23 74.5712 2096.89 76.3293 2095.41 77.9509C2099.27 82.5055 2101.51 88.3504 2101.74 94.4739C2101.74 99.5175 2100.91 102.039 2099.26 102.039C2098.92 102.039 2098.52 101.146 2098.08 99.4125C2097.83 97.5813 2097.15 95.8467 2096.1 94.3689C2095.31 93.4519 2094.33 92.7389 2093.23 92.2838C2092.14 91.8287 2090.97 91.6434 2089.8 91.742C2083.27 91.742 2080.03 95.4984 2080.03 102.959C2079.99 104.457 2080.03 105.957 2080.16 107.451C2080.76 108.814 2081.6 110.044 2082.63 111.076C2084.44 112.544 2086.44 113.729 2088.56 114.596C2089.96 115.362 2091.47 115.876 2093.04 116.119C2093.22 116.142 2093.4 116.09 2093.55 115.972C2093.7 115.855 2093.8 115.682 2093.83 115.489C2093.83 115.069 2094.22 114.858 2094.77 114.858C2097.36 114.691 2099.86 113.784 2102.01 112.232C2104.09 110.747 2105.92 108.9 2107.42 106.768C2111.31 100.113 2113.26 90.8488 2113.26 78.9754ZM2142.5 78.7127C2142.5 65.9986 2139.56 51.4807 2133.68 35.1591C2128.42 47.1871 2125.59 60.2515 2125.37 73.5115C2125.53 88.6055 2128.53 103.513 2134.2 117.354C2136.9 111.926 2138.84 106.101 2139.93 100.069C2141.55 93.0767 2142.41 85.912 2142.5 78.7127ZM2187.25 101.803C2187.25 100.519 2186.98 99.2515 2186.47 98.0894C2185.96 96.9272 2185.21 95.8991 2184.28 95.0781C2182.34 93.2345 2179.81 92.2397 2177.21 92.2936C2175.7 92.084 2174.16 92.4267 2172.86 93.2655C2171.05 96.0942 2169.79 99.2847 2169.18 102.644C2168.04 100.876 2167.2 98.9113 2166.7 96.8381C2166 94.6923 2165.56 92.4583 2165.39 90.1921C2165.39 88.4408 2166.93 84.378 2169.99 78.0034C2167.38 75.6389 2165.4 72.5857 2164.26 69.1509C2163.19 66.444 2162.6 63.5488 2162.53 60.6135C2162.45 58.0983 2162.95 55.6011 2163.98 53.3371L2166.88 60.0619C2167.36 61.3086 2168.18 62.3738 2169.24 63.1222C2170.3 63.8706 2171.54 64.2683 2172.81 64.2649C2174.19 64.2961 2175.57 64.0177 2176.85 63.4475C2178.13 62.8773 2179.28 62.0281 2180.23 60.955C2181.25 59.7558 2182.03 58.354 2182.54 56.8303C2183.05 55.3065 2183.27 53.6908 2183.19 52.0762C2183.19 44.4057 2179.24 40.5705 2171.33 40.5705C2168.2 40.3917 2165.11 41.2386 2162.45 42.9963C2159.8 44.7541 2157.72 47.3373 2156.49 50.395C2154.21 55.7975 2153.13 61.684 2153.33 67.601C2153.32 75.2951 2154.15 82.9647 2155.8 90.4548C2158.17 100.437 2161.78 107.205 2166.6 110.761C2167.77 111.77 2169.12 112.529 2170.56 112.993C2170.82 112.993 2171.08 113.049 2171.31 113.157C2171.55 113.265 2171.77 113.424 2171.94 113.624C2172.1 113.812 2172.29 113.964 2172.5 114.073C2172.71 114.181 2172.95 114.243 2173.18 114.254C2173.77 114.227 2174.35 114.13 2174.91 113.965C2175.47 113.806 2176.04 113.718 2176.62 113.703C2178.19 113.693 2179.74 113.265 2181.12 112.457C2182.51 111.65 2183.68 110.489 2184.53 109.079C2186.15 107.029 2187.1 104.476 2187.25 101.803Z" fill="#F4A321"></path><path d="M2584.95 74.3013L2536.65 144.549L2516.25 118.323L2497.03 145.225L2446.2 77.3974L2494.63 7.35822L2515.05 33.3758C2518.95 28.0161 2525.36 19.0488 2534.27 6.47363L2584.95 74.3013ZM2505.04 104.274L2485.82 77.3714L2505.04 48.7521C2502.74 45.7081 2499.43 41.6233 2495.18 36.5499L2467.2 78.178L2497.01 116.554L2505.04 104.274ZM2524.91 75.4721L2520.26 69.306C2518.12 66.4961 2516.57 64.4927 2515.6 63.2959C2515.6 63.2959 2513.65 66.1579 2509.97 71.5955C2508.69 73.2242 2507.66 75.0499 2506.92 77.0072C2507.64 78.9336 2508.71 80.6993 2510.07 82.2107C2511.75 84.5421 2513.56 86.7662 2515.5 88.8712L2524.91 75.4721ZM2564 75.6543L2534.22 36.4719C2532.52 39.0736 2529.84 43.1063 2526.11 48.648L2546.13 75.5502L2526.91 103.571C2529.7 107.934 2532.85 112.034 2536.32 115.825L2564 75.6543Z" fill="#F4A321"></path><path d="M2012.67 68.3613H1996.01C1995.68 68.3613 1995.51 68.4077 1995.51 68.5006C1995.51 68.5006 1995.51 68.7326 1995.84 68.9183C1996.18 69.104 1996.18 69.2432 1996.18 69.336C1996.18 69.4289 1996.01 69.4753 1995.68 69.4753C1995.34 69.4753 1994.64 69.4753 1994.58 69.1968C1994.53 68.9183 1994.58 68.9183 1994.33 68.9183C1993.74 74.1482 1993.57 79.4047 1993.83 84.6531C1995.51 85.7671 1999.38 86.3241 2005.44 86.3241C2006.31 86.2815 2007.18 86.1885 2008.04 86.0456C2009.07 85.8824 2010.11 85.7892 2011.16 85.7671C2011.22 91.7651 2009.9 97.7182 2007.29 103.312C2004.47 109.096 2001.21 114.724 1997.53 120.161C1996.29 121.553 1994.11 123.874 1990.97 127.123C1989.1 128.516 1986.29 130.836 1982.55 134.085C1982.55 134.085 1981.88 134.225 1980.53 134.225C1980.09 134.225 1979.24 134.712 1978.01 135.687C1976.78 136.662 1975.94 137.288 1975.49 137.567C1972.95 139.029 1970.09 140.069 1967.07 140.63C1966.4 140.63 1966.26 140.816 1966.65 141.187C1967.05 141.558 1966.93 141.744 1966.32 141.744C1965.31 141.87 1964.35 142.179 1963.51 142.649C1962.67 143.119 1961.71 143.428 1960.71 143.554C1959.54 143.637 1958.38 143.824 1957.26 144.111C1956.16 144.391 1955.04 144.578 1953.89 144.668C1953.33 144.668 1951.34 144.761 1947.92 144.947C1944.5 145.132 1942.51 145.225 1941.95 145.225C1940.64 145.125 1939.35 144.939 1938.08 144.668C1936.86 144.41 1935.63 144.224 1934.38 144.111C1929.78 144.111 1921.53 141.79 1909.64 137.149L1907.46 135.339C1889.73 125.034 1878.8 109.346 1874.65 88.2735C1874.87 87.8798 1875.22 87.5432 1875.66 87.2988C1881.76 86.8311 1887.9 86.8311 1894 87.2988L1894.33 87.995V70.0323H1873.97V66.9689C1873.97 68.0828 1874.59 65.1587 1875.83 58.1964C1877.15 52.6787 1879.24 47.3057 1882.05 42.1831C1886.14 33.9272 1892.36 26.5125 1900.28 20.4607C1907.91 14.1397 1917.7 9.89717 1928.32 8.29984L1929.83 7.04663C1934.02 6.60122 1938.24 6.41504 1942.45 6.48964C1943.01 6.48964 1945.12 6.6753 1948.76 7.04663C1952.41 7.41795 1954.51 7.60361 1955.07 7.60361C1957.88 7.60361 1962.64 9.0657 1969.37 11.9899C1972.67 13.235 1975.82 14.7184 1978.8 16.4225C1980.66 16.4225 1983.86 18.372 1988.39 22.2709C1992.28 25.5241 1995.65 29.1738 1998.42 33.1321L2003.81 41.6261C2003.65 42.1726 2003.59 42.7362 2003.64 43.297C2003.62 43.1645 2003.63 43.0292 2003.68 42.9021C2003.73 42.7749 2003.82 42.6593 2003.93 42.5646C2004.05 42.4699 2004.19 42.3987 2004.34 42.3566C2004.49 42.3145 2004.66 42.3028 2004.82 42.3223C2005.49 42.3223 2005.83 43.5755 2005.83 46.0819C2006.32 47.601 2006.94 49.0899 2007.68 50.5378C2009.02 53.5084 2009.87 55.5043 2010.2 56.5254C2010.54 58.5677 2011.38 61.8167 2012.73 66.2726L2012.67 68.3613ZM2000.22 56.7575C1998.65 53.5084 1996.13 48.8669 1992.65 42.8329C1992.09 41.9974 1989.84 39.3981 1985.92 35.0351C1985.2 34.1283 1984.63 33.1445 1984.24 32.1109C1983.56 30.9041 1982.95 30.3007 1982.38 30.3007C1981.15 30.3007 1980.53 30.5792 1980.53 31.1362L1981.54 30.44C1974.59 24.406 1969.09 21.1105 1965.05 20.5535L1963.71 19.4395C1962.99 19.3982 1962.29 19.2812 1961.61 19.0914C1960.87 18.8912 1960.11 18.7741 1959.33 18.7433C1957.41 18.4313 1955.54 17.9649 1953.73 17.3508C1951.92 16.7367 1950.04 16.2704 1948.12 15.9584C1943.02 16.0186 1937.94 16.5322 1932.97 17.4901C1930.51 18.2327 1926.97 19.161 1922.38 20.275C1922.38 20.275 1922.38 20.4839 1922.71 20.6231C1923.05 20.7624 1923.05 20.8784 1923.05 20.9712C1923.05 21.0641 1922.77 21.1105 1922.21 21.1105C1920.72 21.035 1919.23 21.225 1917.83 21.6675L1915.64 23.4777C1910.04 25.7056 1904.48 30.1615 1898.99 36.8453C1893.53 43.4642 1889.49 50.8126 1887.04 58.5677C1887.42 58.6474 1887.79 58.7642 1888.14 58.9158C1888.74 59.146 1889.4 59.2648 1890.07 59.2639C1890.3 59.2846 1890.54 59.2314 1890.72 59.1151C1890.91 58.9988 1891.04 58.8281 1891.08 58.6373C1891.19 58.2196 1891.59 58.0107 1892.26 58.0107C1893.72 58.0107 1894.56 57.5465 1894.78 56.6182C1895.04 56.0886 1895.16 55.518 1895.12 54.9473C1896.87 51.5686 1898.84 48.2686 1901.01 45.0608C1903.14 40.7541 1906.42 36.8995 1910.6 33.7819C1915.87 29.326 1920.47 26.8196 1924.39 26.2626L1926.58 24.5916C1927.32 24.5832 1928.06 24.4895 1928.77 24.3131C1929.4 24.1491 1930.05 24.0554 1930.7 24.0347C1931.67 23.942 1932.62 23.7309 1933.51 23.408C1934.85 22.9903 1935.79 22.735 1936.31 22.6422C1940.47 22.6948 1944.62 22.5553 1948.76 22.2245L1950.11 23.3384C1953.7 23.3573 1957.24 23.9729 1960.54 25.1486L1962.73 26.8196C1966.2 27.1909 1970.64 29.6509 1976.02 34.1996C1980.6 37.7823 1984.26 42.0918 1986.79 46.871C1987.32 47.2239 1987.77 47.6474 1988.13 48.1242C1989.2 51.2783 1990.5 54.378 1992 57.4073C1992.45 57.8714 1993.57 58.1035 1995.37 58.1035C1997.11 57.9772 1998.78 57.4816 2000.22 56.6646V56.7575ZM1998.71 96.8603C1993.1 96.8603 1990.85 96.9996 1991.98 97.2781C1991.23 98.2624 1990.38 99.1938 1989.45 100.063C1989.34 100.434 1989.23 100.945 1989.11 101.595C1988.17 103.564 1987.04 105.472 1985.75 107.304C1982.95 110.739 1980.7 113.291 1979.02 114.962C1976.49 117.767 1973.32 120.132 1969.68 121.925C1966.93 123.085 1963.48 124.632 1959.33 126.566L1959.84 126.914C1960.06 127.054 1960.18 127.17 1960.18 127.262H1959.33L1957.15 126.705L1955.8 127.959L1955.13 127.262L1953.61 128.516C1952.46 128.527 1951.3 128.62 1950.16 128.794C1949.24 128.946 1948.3 129.039 1947.36 129.073C1946.42 129.106 1945.48 129.199 1944.56 129.351C1943.63 129.503 1942.69 129.596 1941.75 129.63C1941.19 129.63 1941.08 129.444 1941.42 129.073C1941.75 128.701 1941.64 128.516 1941.08 128.516H1931.99C1930.63 128.229 1929.35 127.733 1928.21 127.054C1927.05 126.359 1925.73 125.862 1924.34 125.591C1923.72 125.591 1923.36 125.406 1923.24 125.034C1923.13 124.663 1922.77 124.477 1922.15 124.477C1920.62 124.079 1919.22 123.414 1918.03 122.528C1915.22 120.764 1913.65 119.79 1913.32 119.604C1911.9 118.504 1910.55 117.342 1909.28 116.123C1907.82 114.73 1906.78 114.034 1906.17 114.034C1905.55 114.034 1901.88 108.557 1895.15 97.603C1893.12 97.6771 1891.09 97.5838 1889.09 97.3245V100.388C1889.92 102.298 1890.96 104.14 1892.2 105.888C1893.91 108.589 1895.78 111.215 1897.81 113.756C1902.11 118.897 1907.46 123.375 1913.63 126.984C1921.7 131.811 1929.05 134.225 1935.67 134.225C1936.95 134.323 1938.21 134.509 1939.45 134.782C1940.69 135.054 1941.96 135.24 1943.24 135.339C1947.32 135.311 1951.39 134.891 1955.35 134.085C1956.48 133.842 1957.55 133.467 1958.55 132.971C1959.47 132.482 1960.5 132.15 1961.58 131.997C1962.21 131.971 1962.81 131.747 1963.26 131.37C1963.71 130.993 1964.31 130.769 1964.94 130.744C1968.98 130.744 1975.4 126.798 1984.21 118.908C1993.01 111.017 1997.36 104.828 1997.25 100.341C1997.82 99.1758 1998.31 97.9823 1998.71 96.7675V96.8603ZM1977.17 56.6182C1974.4 52.1524 1971.19 47.8832 1967.58 43.854C1963.32 39.4574 1957.49 36.2891 1950.92 34.803C1949.58 33.689 1948.64 33.1321 1948.12 33.1321L1946.1 33.689L1944.75 32.5751H1942.9C1934.48 32.8114 1926.39 35.3586 1919.91 39.8159C1917.55 42.0438 1914.35 45.2001 1910.32 49.2846C1908.13 52.1576 1906.49 55.2874 1905.44 58.5677H1911.49C1913.28 54.9954 1915.78 51.6995 1918.9 48.8204C1924.39 43.0649 1929.27 40.1872 1933.54 40.1872C1935.23 40.082 1936.92 39.8961 1938.58 39.6302C1941.28 39.2589 1942.85 39.0732 1943.29 39.0732C1946.46 39.4197 1949.5 40.3218 1952.21 41.7189C1954.78 42.7164 1957.2 43.9628 1959.42 45.4321C1960.71 46.4533 1962.08 47.4744 1963.54 48.4955C1965.18 49.9147 1966.39 51.6317 1967.07 53.5084C1967.46 54.2295 1967.91 54.9274 1968.42 55.5971C1969 56.2949 1969.4 57.0852 1969.6 57.9179H1976.33C1976.41 57.3874 1976.7 56.8955 1977.17 56.5254V56.6182ZM1975.65 96.8603C1976.78 96.8603 1974.36 97.1388 1968.42 97.6958C1966.48 100.659 1964.05 103.379 1961.19 105.772C1959.07 107.558 1956.7 109.118 1954.12 110.414C1951.48 112.04 1948.4 113.094 1945.15 113.477H1937.07C1934.78 112.774 1932.59 111.888 1930.51 110.831C1926.51 109.006 1924.45 108.093 1924.34 108.093C1923.55 108.093 1922.32 107.397 1920.64 106.004C1919.14 104.805 1917.84 103.447 1916.77 101.966C1916.09 100.945 1915.48 99.9702 1914.92 99.0419C1914.47 98.4933 1913.87 98.0422 1913.17 97.727C1912.46 97.4118 1911.68 97.2419 1910.88 97.2317C1909.64 97.1059 1908.38 97.353 1907.34 97.9279C1908.58 101.827 1912.95 106.886 1920.47 113.106C1921.84 114.284 1923.43 115.271 1925.18 116.03C1927.41 116.985 1929.75 117.762 1932.16 118.351C1934.04 118.943 1935.98 119.363 1937.97 119.604C1938.64 119.604 1940.13 119.511 1942.43 119.325C1944.72 119.14 1946.21 119.047 1946.88 119.047C1947.66 119.022 1948.41 118.83 1949.07 118.49C1949.65 118.174 1950.32 117.983 1951.01 117.933C1951.62 117.898 1952.21 117.703 1952.69 117.376C1953.19 117.039 1953.81 116.844 1954.46 116.819C1957.26 116.819 1960.79 114.916 1965.05 111.11C1967.79 108.844 1970.11 106.265 1971.95 103.451C1973.35 101.288 1974.59 99.0556 1975.65 96.7675V96.8603ZM1962.53 77.3659C1962.53 76.0663 1960.18 74.4417 1955.46 72.4923C1952.88 71.2548 1950.11 70.3177 1947.22 69.7074C1946.55 65.9941 1945.87 62.3273 1945.2 58.7069C1944.19 53.7869 1942.9 50.9556 1941.33 50.2129C1941.11 50.2129 1940.97 50.2593 1940.91 50.3522C1940.91 50.3522 1940.49 50.4914 1939.82 50.4914C1938.58 50.4914 1937.8 52.1624 1937.46 55.5043C1937.01 59.5888 1936.28 64.3232 1935.27 69.7074L1934.94 70.1251L1925.77 72.6315C1923.37 73.1531 1921.23 74.2711 1919.63 75.8342C1918.84 77.5051 1918.45 78.2787 1918.45 78.155C1918.45 80.2901 1920.58 82.1003 1924.84 83.5855L1935.44 86.9275C1936.12 89.898 1936.84 92.8222 1937.63 95.7C1938.86 100.249 1940.27 102.941 1941.84 103.776C1942.5 103.29 1943.05 102.699 1943.43 102.036C1943.73 101.516 1944.1 101.025 1944.53 100.574C1945.43 97.516 1946.1 94.4159 1946.55 91.2905C1946.66 86.8346 1947.89 84.6067 1950.25 84.6067L1952.44 85.1637L1954.46 83.4927L1955.13 84.0497L1957.48 82.2395C1958.84 81.8908 1960.05 81.2116 1960.93 80.2901C1961.89 79.48 1962.46 78.4066 1962.53 77.2731V77.3659Z" fill="#F4A321"></path><path d="M2395.04 92.7274C2394.82 100.782 2394.13 108.817 2392.97 116.788C2390.86 131.742 2388.22 139.205 2385.23 139.205C2384.71 139.137 2384.2 138.952 2383.75 138.663C2383.31 138.374 2382.93 137.989 2382.65 137.535C2381.83 136.543 2381.33 135.325 2381.2 134.038L2381.9 105.515C2382.03 101.895 2381.84 98.2705 2381.33 94.6846C2380.33 89.4653 2377.95 86.8556 2374.19 86.8556C2368.32 86.8556 2365.39 91.4486 2365.39 100.635C2365.39 102.439 2365.48 104.242 2365.67 106.037C2365.85 108.098 2365.93 109.168 2365.93 109.247V136.204C2365.93 136.786 2365.8 137.36 2365.54 137.878C2365.28 138.396 2364.9 138.842 2364.43 139.179C2363.72 139.847 2362.81 140.267 2361.85 140.38C2359.27 140.38 2357.31 136.752 2356.2 129.524C2355.73 124.8 2355.24 120.051 2354.68 115.327C2354.68 110.108 2354.5 104.888 2354.42 99.4603C2353.78 90.9354 2351.39 86.6729 2347.24 86.6729C2343.1 86.6729 2341.04 91.6313 2341.08 101.548C2341.1 105.483 2341.35 109.413 2341.82 113.318C2341.97 115.295 2342.22 117.264 2342.57 119.215V136.204C2342.57 137.3 2341.85 138.318 2340.38 139.258C2339.63 139.849 2338.74 140.236 2337.8 140.38C2334.68 140.38 2332.97 138.527 2332.64 134.795C2332.3 131.063 2331.81 121.747 2331.24 105.854C2331.21 102.46 2330.99 99.0704 2330.57 95.7024C2329.57 89.2305 2327.4 85.9683 2324.1 85.9683C2319.5 85.9683 2317.23 93.4319 2317.23 108.359C2317.23 110.682 2317.23 113.37 2317.23 116.449C2317.23 119.529 2317.23 121.121 2317.23 121.303C2317.3 123.4 2317.49 125.491 2317.8 127.566C2318.09 129.686 2318.27 131.821 2318.34 133.96C2318.44 136.219 2317.86 138.456 2316.69 140.38H2315.04C2313.02 140.38 2311.37 138.24 2310.08 133.96C2309.22 131.125 2308.76 128.182 2308.72 125.218V105.175C2308.72 93.7625 2306.83 88.056 2303.06 88.056C2298.11 88.056 2295.63 92.5099 2295.63 101.418C2295.76 106.305 2296.13 111.182 2296.74 116.032C2297.46 122.712 2297.82 127.332 2297.82 129.941C2297.82 136.518 2296.22 139.806 2293.02 139.806C2292.52 139.766 2292.04 139.623 2291.59 139.385C2291.15 139.147 2290.76 138.82 2290.44 138.423C2289.61 137.645 2289.03 136.624 2288.79 135.5C2288.25 132.707 2287.63 125.061 2287.01 112.535C2286.91 110.604 2286.26 105.228 2285.08 96.407C2284.91 95.5449 2284.56 94.7305 2284.05 94.0222C2283.53 93.3138 2282.87 92.729 2282.11 92.3098C2280.58 91.2858 2278.78 90.7246 2276.95 90.6918C2272.29 90.6918 2269.95 95.0413 2269.93 103.74C2269.93 104.314 2270.79 109.934 2272.51 120.599C2274.32 131.246 2275.09 136.857 2275.09 137.431C2274.93 138.396 2274.41 139.263 2273.64 139.858C2272.84 140.729 2271.83 141.376 2270.7 141.737C2269.77 141.089 2268.9 140.346 2268.12 139.519C2264.51 132.968 2261.8 125.942 2260.1 118.641C2257.68 110.978 2256.27 103.03 2255.89 94.9978C2255.92 89.5971 2257.39 84.3048 2260.15 79.679C2261.62 76.8867 2266.5 73.9378 2274.73 70.7801C2281.64 69.3223 2288.63 68.2507 2295.66 67.5702C2305 66.3698 2309.7 64.3342 2309.7 61.4636C2309.71 61.1694 2309.65 60.8763 2309.53 60.6085C2309.41 60.3408 2309.23 60.1061 2309 59.9239C2308.6 59.4918 2308.22 59.0295 2307.89 58.5408C2286.06 54.8351 2275.14 46.3014 2275.14 32.94C2275.14 19.5785 2282.53 10.6274 2297.31 6.08654C2304.91 3.75524 2316.01 2.5896 2330.6 2.5896C2331.97 2.78679 2333.33 3.09216 2334.65 3.50296C2336.15 3.96987 2337.7 4.27602 2339.27 4.41636C2346.96 4.7243 2354.38 7.34088 2360.59 11.9322C2363.56 14.0233 2365.98 16.8098 2367.66 20.0542C2369.34 23.2986 2370.21 26.9047 2370.21 30.5652C2370.21 40.4123 2365.05 48.0673 2354.73 53.5302C2351.89 54.1827 2349 54.835 2346.06 55.4614C2340.46 57.0533 2337.67 58.9061 2337.67 61.0461C2337.67 62.7945 2338.91 63.8645 2341.39 64.2298C2348.39 65.437 2355.47 66.1347 2362.57 66.3176C2384.22 66.6829 2395.04 75.4862 2395.04 92.7274ZM2357.88 30.9566C2357.66 27.1152 2356.21 23.45 2353.75 20.518C2352.48 18.5833 2350.76 16.9902 2348.75 15.8762C2346.73 14.7623 2344.48 14.161 2342.19 14.1243C2340.61 14.1448 2339.04 14.3728 2337.51 14.8028C2334.57 15.7075 2333.1 16.9601 2333.1 18.5607C2333.92 20.593 2335.05 22.479 2336.46 24.1454C2337.82 25.7834 2338.96 27.6006 2339.84 29.5474C2339.84 33.1836 2337.36 36.0194 2332.41 38.0549C2329.17 39.5726 2325.65 40.3734 2322.08 40.4036C2315.58 40.4036 2310.86 38.1767 2307.92 33.7229C2307.04 32.6616 2306.51 31.3461 2306.42 29.9649C2306.74 27.6673 2307.85 25.5551 2309.54 23.9888C2310.72 22.8121 2311.7 21.4559 2312.46 19.97V16.3425C2309.47 14.9201 2306.28 13.9779 2303.01 13.5502C2302.19 13.7849 2301.44 14.2144 2300.82 14.8028C2298.82 15.004 2296.9 15.7121 2295.24 16.8614C2293.58 18.0108 2292.23 19.5645 2291.32 21.3792C2289.54 24.813 2288.66 28.6471 2288.74 32.5224C2288.74 39.4641 2293.08 44.7618 2301.8 48.3892C2307.75 51.0128 2314.17 52.3804 2320.66 52.4081C2326.48 52.2198 2332.26 51.2904 2337.85 49.6418C2346.19 47.3975 2351.84 44.7009 2354.78 41.5519C2355.69 40.21 2356.34 38.7041 2356.69 37.1154C2357.35 35.1269 2357.71 33.052 2357.77 30.9566H2357.88Z" fill="#F4A321"></path><path d="M3488.66 101.315C3488.61 106.73 3487.25 112.041 3484.71 116.735C3482.37 121.671 3478.44 125.549 3473.63 127.662C3469.67 129.508 3465.52 130.865 3461.27 131.708C3455.87 131.569 3450.59 129.93 3445.97 126.953C3441.01 124.107 3436.87 119.897 3433.98 114.764C3431.74 116.714 3430.03 119.262 3429.03 122.146C3426.56 128.293 3425.42 131.393 3425.33 131.498C3423.68 134.107 3421.58 137.82 3419.02 142.636L3405.3 117.155C3401.66 121.348 3397.6 125.101 3393.19 128.345C3389.37 130.628 3385.04 131.788 3380.66 131.708C3380.93 131.708 3378.6 131.209 3373.68 130.184C3366.46 128.854 3360.02 124.573 3355.74 118.258C3351.81 112.325 3349.78 105.205 3349.95 97.9524C3349.85 95.8997 3349.93 93.8414 3350.2 91.8055C3351.09 88.3415 3352.62 85.1001 3354.7 82.27C3356.09 80.628 3357.63 79.1325 3359.3 77.8043C3360.71 76.6747 3361.42 75.7028 3361.42 74.8622C3360.48 73.1136 3359.33 71.5058 3357.99 70.0813C3356.09 67.8537 3354.44 65.4139 3353.04 62.8048C3351.36 58.8458 3350.51 54.5408 3350.57 50.1958C3350.7 41.4606 3353.79 33.0688 3359.27 26.554C3365.35 18.6733 3372.27 14.9432 3380.11 14.9432C3387.95 14.9432 3395.66 21.0113 3403.03 33.1474C3405.25 28.6632 3407.19 24.0301 3408.84 19.2775C3410.79 13.7798 3413.45 8.59847 3416.75 3.88403C3420.77 8.71748 3425.95 18.2881 3432.3 32.5958C3432.53 32.6299 3432.76 32.5936 3432.97 32.4912C3433.18 32.3888 3433.36 32.2245 3433.48 32.0179C3436.28 27.1597 3440.43 23.3421 3445.35 21.0901C3449.84 18.4492 3454.85 16.9647 3459.98 16.7557C3463.94 16.7439 3467.84 17.7889 3471.31 19.7948C3474.79 21.8007 3477.74 24.703 3479.88 28.2352C3484.02 33.9626 3486.31 40.9543 3486.41 48.1731C3486.17 52.6824 3484.91 57.0629 3482.73 60.9397C3480.11 66.3462 3476.28 70.9839 3471.58 74.4419C3471.58 74.7046 3471.97 75.1249 3472.77 75.7028C3483.36 79.7131 3488.66 88.2505 3488.66 101.315ZM3397.59 76.3858C3397.57 68.9599 3396.64 61.5682 3394.82 54.3988C3391.52 42.2627 3386.33 36.1946 3379.25 36.1946C3377.62 36.1825 3376.01 36.5615 3374.54 37.303C3373.08 38.0445 3371.78 39.1294 3370.77 40.4764C3368.52 43.0486 3367.27 46.4244 3367.26 49.9331C3367.18 52.7879 3368.05 55.5799 3369.73 57.8138C3370.75 59.0727 3372.02 60.0678 3373.46 60.7234C3374.89 61.3789 3376.45 61.6776 3378.01 61.5965C3380.18 61.8001 3382.35 61.1454 3384.09 59.7577C3384.78 58.9963 3385.34 58.1057 3385.72 57.1308C3386.01 56.3765 3386.39 55.6689 3386.86 55.0293C3387.41 56.0094 3387.73 57.1195 3387.77 58.2603C3387.59 60.0572 3387.19 61.8221 3386.59 63.5141C3385.89 65.8222 3384.93 68.0351 3383.75 70.1076C3382.56 71.9816 3381.22 73.7397 3379.74 75.3613C3383.6 79.9159 3385.84 85.7608 3386.07 91.8843C3386.07 96.9279 3385.24 99.4497 3383.6 99.4497C3383.25 99.4497 3382.86 98.5566 3382.41 96.8229C3382.16 94.9917 3381.48 93.2571 3380.43 91.7793C3379.64 90.8623 3378.66 90.1493 3377.57 89.6942C3376.47 89.2391 3375.3 89.0538 3374.13 89.1524C3367.6 89.1524 3364.36 92.9088 3364.36 100.369C3364.32 101.868 3364.36 103.368 3364.49 104.861C3365.09 106.224 3365.93 107.454 3366.96 108.486C3368.77 109.954 3370.77 111.139 3372.89 112.006C3374.3 112.772 3375.81 113.287 3377.37 113.53C3377.55 113.553 3377.73 113.5 3377.88 113.383C3378.03 113.265 3378.13 113.092 3378.16 112.899C3378.16 112.479 3378.55 112.269 3379.1 112.269C3381.69 112.102 3384.19 111.194 3386.34 109.642C3388.42 108.158 3390.25 106.31 3391.75 104.178C3395.64 97.5234 3397.59 88.2592 3397.59 76.3858ZM3426.83 76.1231C3426.83 63.409 3423.89 48.8911 3418.01 32.5695C3412.75 44.5975 3409.92 57.6619 3409.7 70.9219C3409.86 86.0159 3412.86 100.924 3418.53 114.764C3421.23 109.337 3423.17 103.511 3424.26 97.4796C3425.88 90.4871 3426.74 83.3224 3426.83 76.1231ZM3471.58 99.2133C3471.58 97.9297 3471.31 96.6619 3470.8 95.4998C3470.29 94.3376 3469.54 93.3095 3468.61 92.4885C3466.67 90.6449 3464.14 89.6501 3461.54 89.704C3460.03 89.4944 3458.5 89.8371 3457.19 90.6759C3455.38 93.5046 3454.13 96.6951 3453.51 100.054C3452.37 98.2864 3451.54 96.3217 3451.04 94.2485C3450.33 92.1027 3449.89 89.8687 3449.73 87.6025C3449.73 85.8512 3451.26 81.7884 3454.32 75.4138C3451.71 73.0493 3449.74 69.9961 3448.59 66.5613C3447.52 63.8544 3446.93 60.9592 3446.86 58.0239C3446.78 55.5087 3447.28 53.0115 3448.32 50.7475L3451.21 57.4723C3451.69 58.719 3452.52 59.7842 3453.57 60.5326C3454.63 61.281 3455.87 61.6787 3457.14 61.6753C3458.53 61.7065 3459.9 61.4281 3461.18 60.8579C3462.46 60.2877 3463.61 59.4385 3464.56 58.3654C3465.58 57.1662 3466.37 55.7644 3466.88 54.2407C3467.38 52.7169 3467.6 51.1012 3467.52 49.4866C3467.52 41.8161 3463.57 37.9809 3455.66 37.9809C3452.54 37.8021 3449.44 38.649 3446.78 40.4067C3444.13 42.1645 3442.05 44.7477 3440.83 47.8054C3438.55 53.2079 3437.46 59.0944 3437.66 65.0114C3437.65 72.7055 3438.48 80.3751 3440.13 87.8652C3442.51 97.8473 3446.11 104.616 3450.94 108.171C3452.11 109.181 3453.45 109.939 3454.89 110.404C3455.15 110.403 3455.41 110.459 3455.65 110.567C3455.88 110.676 3456.1 110.835 3456.28 111.034C3456.43 111.222 3456.62 111.375 3456.83 111.483C3457.05 111.591 3457.28 111.653 3457.51 111.665C3458.1 111.637 3458.68 111.54 3459.24 111.376C3459.8 111.216 3460.37 111.128 3460.95 111.113C3462.53 111.103 3464.07 110.675 3465.46 109.868C3466.84 109.06 3468.01 107.899 3468.86 106.49C3470.48 104.439 3471.43 101.887 3471.58 99.2133Z" fill="#F4A321"></path><path d="M3869.28 71.7117L3820.98 141.959L3800.58 115.733L3781.36 142.636L3730.53 74.8078L3778.96 4.76862L3799.38 30.7862C3803.28 25.4265 3809.69 16.4592 3818.6 3.88403L3869.28 71.7117ZM3789.37 101.684L3770.15 74.7818L3789.37 46.1625C3787.07 43.1185 3783.76 39.0337 3779.51 33.9603L3751.53 75.5884L3781.33 113.964L3789.37 101.684ZM3809.24 72.8825L3804.59 66.7164C3802.45 63.9065 3800.9 61.9031 3799.93 60.7063C3799.93 60.7063 3797.98 63.5683 3794.3 69.0059C3793.02 70.6346 3791.99 72.4603 3791.25 74.4176C3791.97 76.344 3793.04 78.1097 3794.4 79.6211C3796.08 81.9525 3797.89 84.1766 3799.83 86.2816L3809.24 72.8825ZM3848.33 73.0647L3818.55 33.8823C3816.85 36.484 3814.17 40.5167 3810.44 46.0584L3830.46 72.9606L3811.24 100.981C3814.03 105.344 3817.18 109.445 3820.65 113.236L3848.33 73.0647Z" fill="#F4A321"></path><path d="M3679.37 90.1378C3679.16 98.1926 3678.47 106.227 3677.31 114.199C3675.19 129.152 3672.56 136.616 3669.56 136.616C3669.04 136.547 3668.53 136.362 3668.09 136.073C3667.64 135.785 3667.26 135.4 3666.98 134.946C3666.16 133.954 3665.66 132.735 3665.54 131.449L3666.23 102.925C3666.36 99.3052 3666.17 95.6809 3665.67 92.095C3664.66 86.8757 3662.29 84.266 3658.52 84.266C3652.65 84.266 3649.72 88.859 3649.72 98.045C3649.72 99.8494 3649.82 101.652 3650 103.447C3650.18 105.509 3650.26 106.579 3650.26 106.657V133.615C3650.27 134.196 3650.13 134.77 3649.87 135.288C3649.61 135.806 3649.23 136.253 3648.76 136.59C3648.05 137.257 3647.15 137.678 3646.18 137.79C3643.6 137.79 3641.64 134.163 3640.53 126.934C3640.07 122.211 3639.58 117.461 3639.01 112.737C3639.01 107.518 3638.83 102.299 3638.75 96.8707C3638.11 88.3458 3635.72 84.0833 3631.58 84.0833C3627.43 84.0833 3625.37 89.0417 3625.41 98.9584C3625.43 102.893 3625.68 106.823 3626.16 110.728C3626.31 112.706 3626.56 114.674 3626.91 116.626V133.615C3626.91 134.711 3626.18 135.729 3624.71 136.668C3623.96 137.26 3623.07 137.646 3622.13 137.79C3619.01 137.79 3617.31 135.937 3616.97 132.206C3616.63 128.474 3616.14 119.157 3615.58 103.264C3615.55 99.8703 3615.32 96.4808 3614.91 93.1128C3613.9 86.6409 3611.73 83.3787 3608.43 83.3787C3603.84 83.3787 3601.56 90.8423 3601.56 105.77C3601.56 108.092 3601.56 110.78 3601.56 113.86C3601.56 116.939 3601.56 118.531 3601.56 118.714C3601.64 120.811 3601.83 122.902 3602.13 124.977C3602.43 127.097 3602.61 129.231 3602.67 131.37C3602.77 133.629 3602.2 135.866 3601.02 137.79H3599.37C3597.36 137.79 3595.71 135.65 3594.42 131.37C3593.56 128.536 3593.1 125.593 3593.05 122.628V102.586C3593.05 91.1729 3591.16 85.4664 3587.4 85.4664C3582.44 85.4664 3579.96 89.9203 3579.96 98.828C3580.09 103.715 3580.46 108.593 3581.07 113.442C3581.8 120.123 3582.16 124.742 3582.16 127.352C3582.16 133.928 3580.56 137.216 3577.36 137.216C3576.86 137.177 3576.37 137.034 3575.93 136.796C3575.48 136.558 3575.09 136.23 3574.78 135.833C3573.94 135.056 3573.36 134.034 3573.13 132.91C3572.58 130.118 3571.96 122.471 3571.34 109.945C3571.24 108.014 3570.6 102.638 3569.41 93.8174C3569.24 92.9553 3568.89 92.1409 3568.38 91.4326C3567.87 90.7242 3567.2 90.1394 3566.44 89.7202C3564.91 88.6962 3563.12 88.135 3561.28 88.1022C3556.62 88.1022 3554.28 92.4517 3554.26 101.151C3554.26 101.725 3555.12 107.344 3556.84 118.009C3558.65 128.656 3559.42 134.267 3559.42 134.841C3559.26 135.806 3558.75 136.674 3557.98 137.268C3557.17 138.14 3556.16 138.787 3555.04 139.147C3554.1 138.5 3553.24 137.756 3552.45 136.929C3548.84 130.378 3546.14 123.352 3544.43 116.052C3542.02 108.389 3540.6 100.441 3540.22 92.4082C3540.25 87.0075 3541.72 81.7152 3544.48 77.0894C3545.95 74.2971 3550.83 71.3482 3559.06 68.1905C3565.97 66.7327 3572.96 65.6611 3579.99 64.9806C3589.33 63.7802 3594.03 61.7446 3594.03 58.874C3594.04 58.5798 3593.99 58.2867 3593.86 58.0189C3593.74 57.7512 3593.56 57.5165 3593.33 57.3343C3592.93 56.9022 3592.56 56.4399 3592.22 55.9512C3570.39 52.2455 3559.47 43.7118 3559.47 30.3504C3559.47 16.9889 3566.86 8.03775 3581.64 3.49694C3589.25 1.16564 3600.34 0 3614.93 0C3616.3 0.19719 3617.66 0.502558 3618.98 0.913358C3620.49 1.38027 3622.04 1.68642 3623.6 1.82676C3631.29 2.1347 3638.71 4.75128 3644.92 9.3426C3647.89 11.4337 3650.32 14.2202 3651.99 17.4646C3653.67 20.709 3654.54 24.3151 3654.54 27.9756C3654.54 37.8227 3649.38 45.4777 3639.06 50.9406C3636.22 51.5931 3633.33 52.2454 3630.39 52.8718C3624.79 54.4637 3622 56.3165 3622 58.4565C3622 60.2049 3623.24 61.2749 3625.72 61.6402C3632.72 62.8474 3639.8 63.5451 3646.91 63.728C3668.55 64.0933 3679.37 72.8966 3679.37 90.1378ZM3642.21 28.367C3641.99 24.5256 3640.54 20.8604 3638.08 17.9284C3636.81 15.9937 3635.09 14.4006 3633.08 13.2866C3631.07 12.1727 3628.81 11.5714 3626.52 11.5347C3624.94 11.5552 3623.37 11.7832 3621.85 12.2132C3618.91 13.1179 3617.43 14.3705 3617.43 15.9711C3618.25 18.0034 3619.38 19.8894 3620.79 21.5558C3622.15 23.1938 3623.29 25.011 3624.17 26.9578C3624.17 30.594 3621.69 33.4298 3616.74 35.4653C3613.5 36.983 3609.98 37.7838 3606.42 37.814C3599.91 37.814 3595.19 35.5871 3592.25 31.1333C3591.37 30.072 3590.84 28.7565 3590.75 27.3753C3591.08 25.0777 3592.18 22.9655 3593.87 21.3992C3595.05 20.2225 3596.03 18.8663 3596.79 17.3804V13.7529C3593.8 12.3305 3590.62 11.3883 3587.34 10.9606C3586.53 11.1953 3585.77 11.6248 3585.15 12.2132C3583.15 12.4144 3581.23 13.1225 3579.57 14.2718C3577.91 15.4212 3576.56 16.9749 3575.65 18.7896C3573.88 22.2234 3572.99 26.0575 3573.07 29.9328C3573.07 36.8745 3577.41 42.1722 3586.13 45.7996C3592.08 48.4232 3598.5 49.7908 3605 49.8185C3610.82 49.6302 3616.59 48.7008 3622.18 47.0522C3630.53 44.8079 3636.17 42.1113 3639.11 38.9623C3640.02 37.6204 3640.67 36.1145 3641.02 34.5258C3641.68 32.5373 3642.04 30.4624 3642.11 28.367H3642.21Z" fill="#F4A321"></path><path d="M4046 23.7942C4037.53 31.0271 4033.29 35.3633 4033.29 36.803C4033.29 37.5315 4035.9 40.4454 4041.13 45.5449C4037.32 49.777 4032.26 54.9806 4025.96 61.1554C4017.52 69.2729 4012.31 74.4243 4010.27 76.5318L4041.06 108.195C4035.39 113.399 4032.56 116.313 4032.56 116.937C4032.56 117.587 4033.89 119.253 4036.58 121.932L4043.85 129.139C4041.42 131.923 4037.34 136.216 4031.56 142.148C4027.55 137.996 4023.31 134.062 4018.88 130.362C4015.67 132.93 4012.65 135.712 4009.83 138.688L3977.66 107.232L3941.25 141.315C3938.05 138.939 3935.19 136.138 3932.75 132.99C3929.68 135.487 3925.27 139.182 3919.51 144.073C3918.57 143.163 3914.49 138.87 3907.25 131.065C3910.87 127.206 3914.84 123.679 3919.1 120.527C3916.75 116.726 3913.94 113.23 3910.73 110.12L3945.85 75.5951C3945.47 74.9059 3945.17 74.1718 3944.96 73.4097C3936.96 65.1881 3926.04 54.0006 3912.19 39.8471L3920.69 31.3914C3919.38 29.3375 3917.78 27.4729 3915.96 25.8496C3912.14 21.8689 3909.73 19.3192 3908.71 18.2265C3910.36 16.0505 3912.23 14.0457 3914.28 12.2425L3921.69 5.32178C3929.3 13.2571 3933.4 17.2378 3933.95 17.2378C3934.5 17.2378 3937.77 14.4279 3943.42 8.78211L3978.39 44.4782L4010.64 14.3238C4012.52 15.6441 4014.27 17.1334 4015.87 18.7728C4018.09 20.9843 4019.53 22.1031 4020.18 22.1031C4022.24 20.9994 4024.08 19.5464 4025.62 17.8102C4030 13.7341 4032.51 11.4186 4033.16 10.8635C4035.12 12.4366 4036.94 14.1777 4038.6 16.067C4042.73 20.49 4045.24 23.0657 4046 23.7942ZM4020 107.519L3988.62 76.1415L4020.16 45.4668C4018.21 43.0559 4015.04 39.6736 4010.66 35.32L3978.36 65.3182L3942.74 30.5067C3941.8 31.4173 3940.12 33.1085 3938.01 35.5541C3935.89 37.9998 3934.21 39.6649 3933.3 40.5755L3967.48 76.0114L3931.89 110.953C3932.83 111.864 3934.34 113.555 3936.49 115.948C3938.63 118.342 3940.28 120.059 3941.38 121.152L3977.76 87.0689L4009.88 117.639C4013.61 114.641 4017.01 111.247 4020 107.519Z" fill="#F4A321"></path></svg>