<svg xmlns="http://www.w3.org/2000/svg" xmlns:xlink="http://www.w3.org/1999/xlink" width="307" zoomAndPan="magnify" viewBox="0 0 230.25 246.749997" height="329" preserveAspectRatio="xMidYMid meet" version="1.0"><defs><clipPath id="b917f8a82e"><path d="M 52.503906 161.488281 L 177 161.488281 L 177 185.734375 L 52.503906 185.734375 Z M 52.503906 161.488281 " clip-rule="nonzero"/></clipPath><clipPath id="c001e8e45e"><path d="M 0.503906 0.488281 L 125 0.488281 L 125 24.734375 L 0.503906 24.734375 Z M 0.503906 0.488281 " clip-rule="nonzero"/></clipPath><clipPath id="bec705640c"><rect x="0" width="125" y="0" height="25"/></clipPath><clipPath id="8e77c6c220"><path d="M 8.960938 47.15625 L 220.523438 47.15625 L 220.523438 171.25 L 8.960938 171.25 Z M 8.960938 47.15625 " clip-rule="nonzero"/></clipPath><clipPath id="aa44bbe3b0"><path d="M 26.902344 47.15625 L 202.59375 47.15625 C 212.503906 47.15625 220.535156 55.1875 220.535156 65.097656 L 220.535156 153.285156 C 220.535156 163.191406 212.503906 171.226562 202.59375 171.226562 L 26.902344 171.226562 C 16.996094 171.226562 8.960938 163.191406 8.960938 153.285156 L 8.960938 65.097656 C 8.960938 55.1875 16.996094 47.15625 26.902344 47.15625 Z M 26.902344 47.15625 " clip-rule="nonzero"/></clipPath><clipPath id="ec40a0b4cf"><path d="M 35.9375 180.621094 L 190.207031 180.621094 L 190.207031 199.347656 L 35.9375 199.347656 Z M 35.9375 180.621094 " clip-rule="nonzero"/></clipPath><clipPath id="bff8914c84"><path d="M 45.300781 180.621094 L 180.804688 180.621094 C 185.976562 180.621094 190.167969 184.8125 190.167969 189.984375 C 190.167969 195.15625 185.976562 199.347656 180.804688 199.347656 L 45.300781 199.347656 C 40.128906 199.347656 35.9375 195.15625 35.9375 189.984375 C 35.9375 184.8125 40.128906 180.621094 45.300781 180.621094 Z M 45.300781 180.621094 " clip-rule="nonzero"/></clipPath><clipPath id="4c557bc448"><path d="M 0.9375 0.621094 L 155.179688 0.621094 L 155.179688 19.347656 L 0.9375 19.347656 Z M 0.9375 0.621094 " clip-rule="nonzero"/></clipPath><clipPath id="f9fe212ba2"><path d="M 10.300781 0.621094 L 145.804688 0.621094 C 150.976562 0.621094 155.167969 4.8125 155.167969 9.984375 C 155.167969 15.15625 150.976562 19.347656 145.804688 19.347656 L 10.300781 19.347656 C 5.128906 19.347656 0.9375 15.15625 0.9375 9.984375 C 0.9375 4.8125 5.128906 0.621094 10.300781 0.621094 Z M 10.300781 0.621094 " clip-rule="nonzero"/></clipPath><clipPath id="276444b237"><rect x="0" width="156" y="0" height="20"/></clipPath></defs><g clip-path="url(#b917f8a82e)"><g transform="matrix(1, 0, 0, 1, 52, 161)"><g clip-path="url(#bec705640c)"><g clip-path="url(#c001e8e45e)"><path fill="#131212" d="M 0.503906 0.488281 L 124.964844 0.488281 L 124.964844 24.734375 L 0.503906 24.734375 Z M 0.503906 0.488281 " fill-opacity="1" fill-rule="nonzero"/></g></g></g></g><g clip-path="url(#8e77c6c220)"><g clip-path="url(#aa44bbe3b0)"><path stroke-linecap="butt" transform="matrix(0.747565, 0, 0, 0.747565, 8.962093, 47.155253)" fill="none" stroke-linejoin="miter" d="M 23.99825 0.00133323 L 259.016499 0.00133323 C 272.273081 0.00133323 283.016295 10.744547 283.016295 24.001129 L 283.016295 141.967467 C 283.016295 155.218824 272.273081 165.967263 259.016499 165.967263 L 23.99825 165.967263 C 10.746893 165.967263 -0.00154598 155.218824 -0.00154598 141.967467 L -0.00154598 24.001129 C -0.00154598 10.744547 10.746893 0.00133323 23.99825 0.00133323 Z M 23.99825 0.00133323 " stroke="#222222" stroke-width="26" stroke-opacity="1" stroke-miterlimit="4"/></g></g><g clip-path="url(#ec40a0b4cf)"><g clip-path="url(#bff8914c84)"><g transform="matrix(1, 0, 0, 1, 35, 180)"><g clip-path="url(#276444b237)"><g clip-path="url(#4c557bc448)"><g clip-path="url(#f9fe212ba2)"><path fill="#000000" d="M 0.9375 0.621094 L 155.132812 0.621094 L 155.132812 19.347656 L 0.9375 19.347656 Z M 0.9375 0.621094 " fill-opacity="1" fill-rule="nonzero"/></g></g></g></g></g></g></svg>