<svg xmlns="http://www.w3.org/2000/svg" xmlns:xlink="http://www.w3.org/1999/xlink" width="500" zoomAndPan="magnify" viewBox="0 0 375 374.999991" height="500" preserveAspectRatio="xMidYMid meet" version="1.0"><defs><clipPath id="9c0151ddf2"><path d="M 15.15625 15.15625 L 359.84375 15.15625 L 359.84375 359.84375 L 15.15625 359.84375 Z M 15.15625 15.15625 " clip-rule="nonzero"/></clipPath><clipPath id="87a2f7668c"><path d="M 187.5 15.15625 C 92.316406 15.15625 15.15625 92.316406 15.15625 187.5 C 15.15625 282.683594 92.316406 359.84375 187.5 359.84375 C 282.683594 359.84375 359.84375 282.683594 359.84375 187.5 C 359.84375 92.316406 282.683594 15.15625 187.5 15.15625 Z M 187.5 15.15625 " clip-rule="nonzero"/></clipPath><clipPath id="dcadea8438"><path d="M 0.15625 0.15625 L 344.84375 0.15625 L 344.84375 344.84375 L 0.15625 344.84375 Z M 0.15625 0.15625 " clip-rule="nonzero"/></clipPath><clipPath id="5d1233208f"><path d="M 172.5 0.15625 C 77.316406 0.15625 0.15625 77.316406 0.15625 172.5 C 0.15625 267.683594 77.316406 344.84375 172.5 344.84375 C 267.683594 344.84375 344.84375 267.683594 344.84375 172.5 C 344.84375 77.316406 267.683594 0.15625 172.5 0.15625 Z M 172.5 0.15625 " clip-rule="nonzero"/></clipPath><clipPath id="53fb284d16"><rect x="0" width="345" y="0" height="345"/></clipPath><clipPath id="a9777d3f32"><path d="M 24.222656 24.222656 L 350.777344 24.222656 L 350.777344 350.777344 L 24.222656 350.777344 Z M 24.222656 24.222656 " clip-rule="nonzero"/></clipPath><clipPath id="75897dc1a3"><path d="M 187.5 24.222656 C 97.324219 24.222656 24.222656 97.324219 24.222656 187.5 C 24.222656 277.675781 97.324219 350.777344 187.5 350.777344 C 277.675781 350.777344 350.777344 277.675781 350.777344 187.5 C 350.777344 97.324219 277.675781 24.222656 187.5 24.222656 Z M 187.5 24.222656 " clip-rule="nonzero"/></clipPath><clipPath id="595aa59d07"><path d="M 0.222656 0.222656 L 326.777344 0.222656 L 326.777344 326.777344 L 0.222656 326.777344 Z M 0.222656 0.222656 " clip-rule="nonzero"/></clipPath><clipPath id="d490c69d70"><path d="M 163.5 0.222656 C 73.324219 0.222656 0.222656 73.324219 0.222656 163.5 C 0.222656 253.675781 73.324219 326.777344 163.5 326.777344 C 253.675781 326.777344 326.777344 253.675781 326.777344 163.5 C 326.777344 73.324219 253.675781 0.222656 163.5 0.222656 Z M 163.5 0.222656 " clip-rule="nonzero"/></clipPath><clipPath id="242a69b345"><rect x="0" width="327" y="0" height="327"/></clipPath><clipPath id="6cf5881163"><path d="M 114 183 L 247 183 L 247 351 L 114 351 Z M 114 183 " clip-rule="nonzero"/></clipPath><clipPath id="59f8e9ff67"><path d="M 79.675781 37.5 L 295.675781 37.5 L 295.675781 351 L 79.675781 351 Z M 79.675781 37.5 " clip-rule="nonzero"/></clipPath></defs><g clip-path="url(#9c0151ddf2)"><g clip-path="url(#87a2f7668c)"><g transform="matrix(1, 0, 0, 1, 15, 15)"><g clip-path="url(#53fb284d16)"><g clip-path="url(#dcadea8438)"><g clip-path="url(#5d1233208f)"><path fill="#000000" d="M 0.15625 0.15625 L 344.84375 0.15625 L 344.84375 344.84375 L 0.15625 344.84375 Z M 0.15625 0.15625 " fill-opacity="1" fill-rule="nonzero"/></g></g></g></g></g></g><g clip-path="url(#a9777d3f32)"><g clip-path="url(#75897dc1a3)"><g transform="matrix(1, 0, 0, 1, 24, 24)"><g clip-path="url(#242a69b345)"><g clip-path="url(#595aa59d07)"><g clip-path="url(#d490c69d70)"><path fill="#ffffff" d="M 0.222656 0.222656 L 326.777344 0.222656 L 326.777344 326.777344 L 0.222656 326.777344 Z M 0.222656 0.222656 " fill-opacity="1" fill-rule="nonzero"/></g></g></g></g></g></g><path fill="#ce2129" d="M 273.363281 212.277344 C 283.339844 225.578125 287.171875 242.515625 283.875 258.835938 C 280.578125 275.144531 270.453125 289.257812 256.089844 297.628906 C 207.410156 321.425781 153.734375 319.726562 110.15625 290.101562 C 87.644531 274.46875 82.03125 253.140625 93.339844 226.125 C 99.351562 209.40625 95.0625 192.128906 80.492188 174.304688 C 104.125 168.714844 117.644531 175.15625 121.070312 193.65625 C 126.164062 183.28125 126.25 173.121094 121.328125 163.179688 C 110.972656 142.25 115.378906 129.679688 131.863281 112.074219 C 134.824219 146.125 144.90625 163.003906 162.101562 162.726562 C 170.027344 160.398438 173.046875 154.441406 171.171875 144.878906 C 166.925781 123.136719 154.332031 122.621094 153.582031 101.238281 C 152.6875 76.257812 161.230469 58.742188 180.835938 43.3125 C 180.875 88.890625 187.394531 78.355469 204.609375 107.011719 C 213.046875 121.058594 216.449219 136.300781 214.832031 152.761719 C 227.339844 132.824219 245.265625 126.890625 268.585938 134.996094 C 238.410156 154.839844 228.964844 175.316406 240.242188 196.464844 C 249.929688 177.632812 264.332031 170.847656 283.507812 176.167969 C 272.683594 193.898438 269.3125 205.933594 273.363281 212.277344 Z M 273.363281 212.277344 " fill-opacity="1" fill-rule="evenodd"/><g clip-path="url(#6cf5881163)"><path fill="#ffffff" d="M 214.71875 357.066406 L 214.71875 322.089844 C 227.3125 314.914062 235.574219 306.730469 241.457031 295.824219 C 246.832031 285.882812 247.566406 275.226562 243.589844 264.636719 L 225.210938 215.6875 C 222.226562 209.105469 209.992188 212.9375 205.152344 216.851562 L 182.1875 185.503906 C 176.273438 179.160156 166.058594 188.3125 162.71875 195.027344 C 152.960938 192.121094 144.160156 199.652344 142.046875 209.632812 C 130.921875 209.632812 124.144531 218.449219 125.230469 229.53125 C 117.960938 234.972656 110.765625 240.164062 116.097656 248.902344 L 122.441406 258.84375 L 127.203125 309.734375 C 127.875 316.832031 130.921875 322.703125 136.339844 327.34375 C 138.234375 328.960938 140.3125 330.390625 142.523438 331.589844 L 142.523438 357.066406 Z M 214.71875 357.066406 " fill-opacity="1" fill-rule="evenodd"/></g><path fill="#ffffff" d="M 142.046875 209.628906 C 130.921875 209.628906 124.144531 218.441406 125.230469 229.527344 L 159.542969 268.792969 C 166.695312 276.28125 182.089844 260.335938 173.964844 251.027344 C 167.246094 247.195312 165.25 240.417969 165.25 240.417969 Z M 142.046875 209.628906 " fill-opacity="1" fill-rule="evenodd"/><path fill="#ffffff" d="M 185.058594 226.6875 L 162.726562 195.027344 C 152.964844 192.121094 144.167969 199.648438 142.054688 209.632812 L 165.257812 240.421875 C 164.589844 238.449219 164.246094 236.371094 164.246094 234.261719 C 164.269531 231.492188 166.519531 229.359375 169.289062 229.238281 C 176.476562 228.917969 177.84375 228.640625 185.058594 226.6875 Z M 185.058594 226.6875 " fill-opacity="1" fill-rule="evenodd"/><path fill="#ffffff" d="M 205.152344 216.84375 C 199.085938 221.464844 192.269531 224.375 185.171875 226.648438 L 162.71875 195.027344 C 166.058594 188.308594 176.28125 179.160156 182.1875 185.503906 Z M 205.152344 216.84375 " fill-opacity="1" fill-rule="evenodd"/><path fill="#ffffff" d="M 155.789062 264.589844 C 159.464844 271.582031 147.570312 281.742188 141.558594 276.484375 L 122.449219 258.835938 L 116.105469 248.894531 C 110.769531 240.160156 117.960938 234.964844 125.238281 229.527344 Z M 155.789062 264.589844 " fill-opacity="1" fill-rule="evenodd"/><g clip-path="url(#59f8e9ff67)"><path fill="#000000" d="M 164.207031 275.445312 C 159.640625 282.222656 149.5 286.828125 142.523438 280.582031 L 134.066406 272.773438 L 137.503906 309.238281 C 138.253906 317.359375 142.976562 322.917969 149.933594 326.691406 C 150.09375 326.765625 150.269531 326.886719 150.40625 326.988281 C 153.746094 329.164062 158.238281 330.488281 162.167969 330.664062 C 165.230469 330.804688 167.609375 333.410156 167.46875 336.472656 C 167.328125 339.554688 164.722656 341.925781 161.660156 341.769531 C 158.613281 341.632812 155.671875 341.113281 152.847656 340.25 L 152.847656 351.496094 L 213.894531 351.496094 L 213.894531 329.996094 C 210.4375 331.003906 206.9375 331.75 203.359375 332.203125 C 200.3125 332.582031 197.53125 330.425781 197.15625 327.378906 C 196.757812 324.332031 198.914062 321.550781 201.960938 321.175781 C 205.933594 320.660156 213.617188 318.882812 217.082031 317.046875 C 222.792969 313.761719 227.519531 310.269531 231.472656 306.394531 C 238.453125 299.519531 244.574219 289.890625 245.25 280.109375 C 245.550781 275.640625 244.851562 271.113281 243.160156 266.589844 L 224.898438 217.953125 C 224.703125 217.714844 223.875 217.652344 222.765625 217.695312 C 219.621094 217.832031 215.828125 219.332031 213.296875 221.269531 C 203.277344 228.917969 187.445312 234.652344 174.582031 234.789062 C 174.753906 239.496094 177.347656 243.839844 181.476562 246.210938 C 186.929688 249.332031 197.386719 246.878906 201.738281 242.320312 C 204.269531 239.671875 208.597656 240.144531 210.492188 243.210938 L 210.515625 243.210938 L 219.015625 256.828125 C 221.210938 260.328125 218.972656 265.132812 214.425781 265.347656 C 202.84375 265.984375 193.441406 275.84375 193.335938 287.679688 C 193.3125 290.742188 190.804688 293.214844 187.742188 293.195312 C 184.660156 293.175781 182.1875 290.664062 182.230469 287.605469 C 182.347656 273.019531 191.773438 260.371094 205.292969 255.878906 L 204.269531 254.261719 C 199.066406 257.289062 192.625 258.925781 186.558594 258.691406 C 185.472656 269.394531 173.632812 279.570312 164.207031 275.445312 Z M 131.457031 255.226562 L 150.015625 272.34375 C 150.632812 272.773438 153.90625 271.296875 155.253906 268.703125 C 155.53125 268.164062 155.707031 267.675781 155.652344 267.355469 L 129.246094 237.117188 C 125.726562 240.0625 123.675781 242.851562 125.691406 246.1875 Z M 174.914062 255.246094 C 171.476562 253.050781 168.730469 250.128906 166.769531 246.769531 C 166.101562 245.582031 165.507812 244.335938 165.035156 243.074219 L 144.222656 215.421875 C 138.449219 216.550781 135.410156 221.410156 135.433594 227.261719 L 168.339844 264.972656 C 169.09375 265.800781 171.625 264.003906 172.488281 263.152344 C 174.460938 261.234375 176.398438 257.757812 174.914062 255.246094 Z M 166.617188 226.703125 C 168.535156 224.847656 171.144531 223.675781 174.03125 223.675781 C 176.085938 223.675781 178.261719 223.496094 180.492188 223.140625 L 164.171875 200.011719 C 158.894531 199.460938 154.683594 203.652344 152.925781 208.492188 Z M 191.976562 220.121094 C 195.53125 218.816406 198.933594 217.234375 201.972656 215.457031 L 182.703125 189.128906 C 182.367188 188.773438 181.636719 188.933594 180.902344 189.207031 C 178.472656 190.113281 175.808594 192.644531 174.148438 194.839844 Z M 225.039062 325.246094 L 225.039062 357.066406 C 225.039062 360.148438 222.546875 362.636719 219.46875 362.636719 L 147.269531 362.636719 C 144.1875 362.636719 141.699219 360.148438 141.699219 357.066406 L 141.699219 334.734375 C 132.867188 328.90625 127.425781 320.957031 126.445312 310.25 L 125.773438 303.136719 C 121.304688 300.765625 115.875 297.546875 111.742188 294.679688 L 111.71875 294.703125 C 86.382812 277.109375 80.910156 252.410156 92.945312 224.003906 L 92.984375 223.941406 C 95.496094 216.746094 95.828125 209.417969 93.976562 201.964844 C 92.035156 194.15625 87.695312 186.132812 80.929688 177.855469 C 78.300781 174.65625 80.039062 169.832031 83.957031 168.902344 C 99.984375 165.109375 115.003906 165.878906 124.09375 176.453125 C 123.878906 172.855469 122.867188 169.257812 121.089844 165.660156 C 109.371094 142.003906 115.046875 126.945312 132.550781 108.289062 C 135.851562 104.765625 141.742188 106.863281 142.160156 111.605469 C 143.582031 127.808594 146.566406 139.753906 151.175781 147.4375 C 154.945312 153.757812 159.890625 157 165.976562 157.164062 C 168.011719 156.449219 169.378906 155.40625 170.089844 153.996094 C 171.015625 152.15625 171.15625 149.492188 170.464844 145.972656 C 166.492188 125.695312 153.609375 124.902344 152.777344 101.449219 C 151.832031 74.6875 161.179688 55.4375 182.144531 38.957031 C 185.679688 36.167969 191.3125 38.480469 191.140625 43.71875 C 191.195312 73.761719 194.144531 77.371094 201.320312 86.171875 C 213.449219 101.050781 223.175781 116.332031 225.171875 137.261719 C 229.835938 133.019531 235.015625 129.972656 240.664062 128.09375 C 250.800781 124.734375 262.28125 125.304688 275.144531 129.753906 C 279.53125 131.273438 280.207031 137.144531 276.394531 139.65625 C 258.921875 151.117188 243.289062 166.136719 246.371094 183.964844 C 257.222656 170.207031 272.105469 165.941406 289.730469 170.820312 C 293.328125 171.8125 294.914062 175.9375 293.015625 179.082031 C 287.878906 187.503906 284.539062 194.476562 282.976562 200.011719 C 281.769531 204.320312 281.671875 207.382812 282.71875 209.160156 C 288.113281 216.390625 291.832031 224.617188 293.78125 233.214844 C 299.910156 260.371094 287.71875 288.476562 263.621094 302.46875 C 261.800781 303.535156 253.957031 306.894531 252.0625 307.667969 C 248.777344 309.015625 245.460938 310.242188 242.097656 311.363281 C 241.191406 312.375 240.242188 313.359375 239.253906 314.328125 C 235.195312 318.308594 230.53125 321.90625 225.039062 325.246094 Z M 124.5 289.652344 L 121.773438 260.699219 L 116.082031 251.800781 C 108.769531 239.84375 115.890625 233.222656 124.324219 226.820312 C 124.484375 215.617188 131.402344 206.34375 142.550781 204.425781 C 146.050781 195.175781 154.585938 188.105469 164.722656 188.890625 C 169.582031 182.09375 178.953125 174.800781 187.429688 179.011719 C 188.734375 179.667969 190.492188 180.929688 191.4375 182.214844 L 211.398438 209.46875 C 218.15625 206.300781 228.238281 204.371094 233.558594 210.964844 L 235.175781 213.734375 L 253.5625 262.714844 C 257.652344 273.625 257.394531 284.765625 252.6875 295.300781 C 254.53125 294.492188 256.328125 293.640625 258.085938 292.792969 C 264.546875 289.019531 270.0625 283.9375 274.351562 277.96875 C 287.792969 259.191406 287.453125 234.167969 273.660156 215.617188 C 270.460938 211.308594 270.160156 204.46875 272.261719 197 C 273.625 192.164062 276.03125 186.542969 279.53125 180.140625 C 265.914062 178.816406 256.566406 185.949219 249.984375 198.898438 C 247.90625 203.046875 242.175781 203.011719 240.082031 199.078125 C 227.101562 174.753906 239.566406 153.824219 260.34375 137.472656 C 244.910156 135.339844 233.035156 141.601562 224.332031 155.65625 C 221.210938 160.71875 213.464844 158.046875 214.035156 152.238281 C 216.46875 127.691406 207.097656 110.875 192.695312 93.1875 C 184.90625 83.660156 181.132812 79.019531 180.242188 55.59375 C 167.992188 68.300781 163.222656 82.53125 163.878906 101.070312 C 164.546875 120.222656 176.882812 120.796875 181.386719 143.839844 C 183.65625 155.398438 179.863281 164.691406 168.417969 168.066406 C 167.941406 168.207031 167.449219 168.28125 166.933594 168.28125 C 144.578125 168.636719 136.058594 146.382812 132.644531 125.472656 C 129.636719 129.683594 127.621094 133.660156 126.695312 137.648438 C 125.132812 144.285156 126.5 151.5 131.058594 160.730469 C 136.867188 172.472656 136.5 184.03125 130.921875 195.871094 C 128.570312 201.050781 121.3125 199.921875 120.34375 194.664062 C 117.734375 180.457031 108.503906 176.738281 95.0625 178.226562 C 99.804688 185.28125 103.023438 192.292969 104.769531 199.316406 C 107.136719 208.882812 106.707031 218.328125 103.445312 227.636719 C 103.386719 227.851562 103.304688 228.070312 103.226562 228.292969 C 93.328125 251.992188 96.945312 270.886719 118.070312 285.546875 C 120.167969 286.984375 122.308594 288.351562 124.5 289.652344 Z M 124.5 289.652344 " fill-opacity="1" fill-rule="nonzero"/></g></svg>