<svg xmlns="http://www.w3.org/2000/svg" xmlns:xlink="http://www.w3.org/1999/xlink" width="500" zoomAndPan="magnify" viewBox="0 0 375 374.999991" height="500" preserveAspectRatio="xMidYMid meet" version="1.0"><defs><clipPath id="0de32d951a"><path d="M 15.15625 15.15625 L 359.84375 15.15625 L 359.84375 359.84375 L 15.15625 359.84375 Z M 15.15625 15.15625 " clip-rule="nonzero"/></clipPath><clipPath id="10b1284935"><path d="M 187.5 15.15625 C 92.316406 15.15625 15.15625 92.316406 15.15625 187.5 C 15.15625 282.683594 92.316406 359.84375 187.5 359.84375 C 282.683594 359.84375 359.84375 282.683594 359.84375 187.5 C 359.84375 92.316406 282.683594 15.15625 187.5 15.15625 Z M 187.5 15.15625 " clip-rule="nonzero"/></clipPath><clipPath id="08384be4de"><path d="M 0.15625 0.15625 L 344.84375 0.15625 L 344.84375 344.84375 L 0.15625 344.84375 Z M 0.15625 0.15625 " clip-rule="nonzero"/></clipPath><clipPath id="bb2222cd6c"><path d="M 172.5 0.15625 C 77.316406 0.15625 0.15625 77.316406 0.15625 172.5 C 0.15625 267.683594 77.316406 344.84375 172.5 344.84375 C 267.683594 344.84375 344.84375 267.683594 344.84375 172.5 C 344.84375 77.316406 267.683594 0.15625 172.5 0.15625 Z M 172.5 0.15625 " clip-rule="nonzero"/></clipPath><clipPath id="e4951651ae"><rect x="0" width="345" y="0" height="345"/></clipPath><clipPath id="c2075a09b4"><path d="M 24.222656 24.222656 L 350.777344 24.222656 L 350.777344 350.777344 L 24.222656 350.777344 Z M 24.222656 24.222656 " clip-rule="nonzero"/></clipPath><clipPath id="16c2b28e88"><path d="M 187.5 24.222656 C 97.324219 24.222656 24.222656 97.324219 24.222656 187.5 C 24.222656 277.675781 97.324219 350.777344 187.5 350.777344 C 277.675781 350.777344 350.777344 277.675781 350.777344 187.5 C 350.777344 97.324219 277.675781 24.222656 187.5 24.222656 Z M 187.5 24.222656 " clip-rule="nonzero"/></clipPath><clipPath id="d9a6823570"><path d="M 0.222656 0.222656 L 326.777344 0.222656 L 326.777344 326.777344 L 0.222656 326.777344 Z M 0.222656 0.222656 " clip-rule="nonzero"/></clipPath><clipPath id="a786d862f7"><path d="M 163.5 0.222656 C 73.324219 0.222656 0.222656 73.324219 0.222656 163.5 C 0.222656 253.675781 73.324219 326.777344 163.5 326.777344 C 253.675781 326.777344 326.777344 253.675781 326.777344 163.5 C 326.777344 73.324219 253.675781 0.222656 163.5 0.222656 Z M 163.5 0.222656 " clip-rule="nonzero"/></clipPath><clipPath id="d8470a77bb"><rect x="0" width="327" y="0" height="327"/></clipPath><clipPath id="8c760c8fa4"><path d="M 44.109375 71.890625 L 330.609375 71.890625 L 330.609375 302.890625 L 44.109375 302.890625 Z M 44.109375 71.890625 " clip-rule="nonzero"/></clipPath></defs><g clip-path="url(#0de32d951a)"><g clip-path="url(#10b1284935)"><g transform="matrix(1, 0, 0, 1, 15, 15)"><g clip-path="url(#e4951651ae)"><g clip-path="url(#08384be4de)"><g clip-path="url(#bb2222cd6c)"><path fill="#000000" d="M 0.15625 0.15625 L 344.84375 0.15625 L 344.84375 344.84375 L 0.15625 344.84375 Z M 0.15625 0.15625 " fill-opacity="1" fill-rule="nonzero"/></g></g></g></g></g></g><g clip-path="url(#c2075a09b4)"><g clip-path="url(#16c2b28e88)"><g transform="matrix(1, 0, 0, 1, 24, 24)"><g clip-path="url(#d8470a77bb)"><g clip-path="url(#d9a6823570)"><g clip-path="url(#a786d862f7)"><path fill="#ffffff" d="M 0.222656 0.222656 L 326.777344 0.222656 L 326.777344 326.777344 L 0.222656 326.777344 Z M 0.222656 0.222656 " fill-opacity="1" fill-rule="nonzero"/></g></g></g></g></g></g><g clip-path="url(#8c760c8fa4)"><path fill="#389973" d="M 243.894531 197.328125 C 234.457031 183.3125 219.941406 172.992188 203.003906 169.023438 C 202.867188 168.984375 202.726562 168.953125 202.585938 168.925781 C 197.730469 167.820312 192.679688 167.234375 187.492188 167.234375 C 153.859375 167.234375 125.863281 191.796875 120.484375 223.925781 C 120.464844 224.027344 120.449219 224.125 120.433594 224.226562 C 119.855469 227.792969 119.546875 231.453125 119.546875 235.179688 C 119.546875 244.433594 121.410156 253.257812 124.777344 261.304688 C 124.863281 261.578125 124.976562 261.847656 125.117188 262.105469 C 133.015625 280.316406 148.664062 294.417969 167.882812 300.222656 C 168.085938 300.300781 168.296875 300.363281 168.511719 300.410156 C 174.539062 302.164062 180.90625 303.109375 187.492188 303.109375 C 204.722656 303.109375 220.472656 296.664062 232.460938 286.058594 C 232.761719 285.851562 233.03125 285.609375 233.265625 285.339844 C 246.882812 272.90625 255.441406 255.023438 255.441406 235.179688 C 255.441406 221.527344 251.390625 208.804688 244.429688 198.144531 C 244.28125 197.847656 244.097656 197.578125 243.894531 197.328125 Z M 187.492188 176.183594 C 189.542969 176.183594 191.570312 176.289062 193.566406 176.496094 C 186.351562 185.257812 179.472656 191.535156 166.46875 197.148438 C 153.394531 202.804688 148.785156 210.429688 145.421875 216 C 143.007812 219.996094 142.046875 221.320312 139.929688 221.652344 C 136.726562 222.148438 133.480469 222.089844 130.105469 221.484375 C 136.296875 195.535156 159.675781 176.183594 187.492188 176.183594 Z M 168.417969 290.996094 C 153.265625 285.804688 140.878906 274.609375 134.105469 260.261719 C 137.621094 254.710938 141.480469 249.820312 145.941406 248.929688 C 149.53125 248.214844 153.996094 249.851562 159.585938 253.945312 C 166.503906 259.011719 172.140625 260.46875 176.671875 261.640625 C 180.097656 262.527344 182.800781 263.230469 185.46875 265.296875 C 187.601562 266.949219 187.816406 268.515625 187.761719 269.691406 C 187.519531 275.164062 180.058594 283.511719 169.1875 290.484375 C 168.933594 290.632812 168.679688 290.804688 168.417969 290.996094 Z M 231.914062 273.949219 C 229.589844 266.125 228.058594 258.957031 227.175781 251.820312 C 226.515625 246.433594 225.421875 240.597656 220.796875 239.484375 C 216.316406 238.417969 213.554688 242.507812 211.117188 246.121094 C 210.492188 247.042969 209.527344 248.480469 208.886719 249.199219 C 205.105469 248.558594 194.664062 241.46875 193.347656 236.40625 C 193.183594 235.761719 193.070312 235.335938 194.523438 234.546875 C 194.667969 234.476562 195.125 234.324219 195.457031 234.214844 C 197.984375 233.375 204.644531 231.164062 204.710938 222.464844 C 205.085938 221.832031 207.1875 219.210938 217.882812 214.203125 C 224.363281 211.167969 231.929688 208.210938 238.566406 205.675781 C 243.601562 214.359375 246.488281 224.4375 246.488281 235.179688 C 246.488281 250.007812 240.984375 263.574219 231.914062 273.949219 Z M 325.339844 159.445312 L 303.363281 144.414062 C 301.699219 143.269531 299.988281 142.445312 298.203125 141.921875 C 301.277344 138.117188 303.121094 133.285156 303.121094 128.023438 C 303.121094 115.8125 293.183594 105.875 280.96875 105.875 C 268.757812 105.875 258.820312 115.8125 258.820312 128.023438 C 258.820312 133.285156 260.664062 138.117188 263.734375 141.921875 C 261.953125 142.445312 260.246094 143.265625 258.59375 144.40625 L 236.605469 159.445312 C 233.8125 161.347656 231.941406 164.261719 231.34375 167.640625 C 230.738281 171.042969 231.539062 174.597656 233.535156 177.394531 C 237.546875 182.992188 245.335938 184.34375 251.253906 180.480469 L 254.457031 178.410156 L 254.457031 189.210938 C 254.457031 191.683594 256.460938 193.6875 258.929688 193.6875 L 303.011719 193.6875 C 305.480469 193.6875 307.484375 191.683594 307.484375 189.210938 L 307.484375 178.417969 L 310.664062 180.476562 C 316.605469 184.335938 324.398438 182.984375 328.40625 177.390625 C 330.402344 174.597656 331.203125 171.042969 330.597656 167.640625 C 329.996094 164.261719 328.128906 161.347656 325.339844 159.445312 Z M 280.96875 114.824219 C 288.25 114.824219 294.171875 120.746094 294.171875 128.023438 C 294.171875 135.304688 288.25 141.226562 280.96875 141.226562 C 273.691406 141.226562 267.769531 135.304688 267.769531 128.023438 C 267.769531 120.746094 273.691406 114.824219 280.96875 114.824219 Z M 246.375 172.976562 C 244.4375 174.242188 242.042969 173.902344 240.816406 172.183594 C 240.210938 171.335938 239.96875 170.25 240.15625 169.203125 C 240.332031 168.214844 240.859375 167.375 241.652344 166.832031 L 247.996094 162.496094 L 252.585938 168.960938 Z M 321.128906 172.183594 C 319.894531 173.902344 317.496094 174.242188 315.535156 172.96875 L 309.355469 168.964844 L 313.945312 162.496094 L 320.292969 166.835938 C 321.078125 167.375 321.609375 168.214844 321.785156 169.203125 C 321.972656 170.25 321.730469 171.335938 321.128906 172.183594 Z M 120.53125 178.410156 L 123.71875 180.46875 C 129.667969 184.355469 137.460938 183 141.453125 177.390625 C 143.449219 174.597656 144.25 171.042969 143.644531 167.640625 C 143.042969 164.261719 141.175781 161.347656 138.386719 159.445312 L 116.410156 144.414062 C 114.746094 143.269531 113.035156 142.445312 111.25 141.921875 C 114.324219 138.117188 116.167969 133.285156 116.167969 128.023438 C 116.167969 115.8125 106.230469 105.875 94.015625 105.875 C 81.804688 105.875 71.867188 115.8125 71.867188 128.023438 C 71.867188 133.285156 73.710938 138.121094 76.785156 141.925781 C 75.007812 142.449219 73.304688 143.265625 71.640625 144.40625 L 49.652344 159.441406 C 46.855469 161.351562 44.984375 164.265625 44.390625 167.648438 C 43.789062 171.054688 44.597656 174.609375 46.59375 177.382812 C 50.582031 182.988281 58.371094 184.34375 64.316406 180.480469 L 67.503906 178.417969 L 67.503906 189.210938 C 67.503906 191.683594 69.507812 193.6875 71.976562 193.6875 L 116.058594 193.6875 C 118.53125 193.6875 120.53125 191.683594 120.53125 189.210938 Z M 133.339844 166.835938 C 134.125 167.375 134.65625 168.214844 134.832031 169.203125 C 135.019531 170.25 134.777344 171.335938 134.164062 172.191406 C 132.964844 173.878906 130.523438 174.226562 128.59375 172.964844 L 122.40625 168.960938 L 126.992188 162.496094 Z M 94.015625 114.824219 C 101.296875 114.824219 107.21875 120.746094 107.21875 128.023438 C 107.21875 135.304688 101.296875 141.226562 94.015625 141.226562 C 86.734375 141.226562 80.8125 135.304688 80.8125 128.023438 C 80.8125 120.746094 86.738281 114.824219 94.015625 114.824219 Z M 59.445312 172.972656 C 57.492188 174.242188 55.101562 173.90625 53.871094 172.175781 C 53.261719 171.328125 53.019531 170.246094 53.203125 169.203125 C 53.375 168.214844 53.90625 167.375 54.699219 166.832031 L 61.039062 162.496094 L 65.625 168.96875 Z M 143.128906 125.453125 C 140.332031 127.363281 138.460938 130.277344 137.867188 133.660156 C 137.265625 137.066406 138.074219 140.617188 140.070312 143.394531 C 144.058594 148.996094 151.847656 150.355469 157.792969 146.488281 L 160.976562 144.425781 L 160.976562 155.222656 C 160.976562 157.695312 162.980469 159.699219 165.453125 159.699219 L 209.535156 159.699219 C 212.003906 159.699219 214.007812 157.695312 214.007812 155.222656 L 214.007812 144.421875 L 217.195312 146.480469 C 223.128906 150.355469 230.917969 149.003906 234.929688 143.402344 C 236.925781 140.605469 237.726562 137.050781 237.121094 133.648438 C 236.519531 130.269531 234.652344 127.359375 231.863281 125.457031 L 209.882812 110.425781 C 208.222656 109.277344 206.511719 108.457031 204.726562 107.933594 C 207.800781 104.128906 209.644531 99.296875 209.644531 94.035156 C 209.644531 81.824219 199.707031 71.886719 187.492188 71.886719 C 175.277344 71.886719 165.34375 81.824219 165.34375 94.035156 C 165.34375 99.296875 167.1875 104.128906 170.261719 107.933594 C 168.476562 108.457031 166.769531 109.277344 165.117188 110.417969 Z M 152.921875 138.984375 C 150.96875 140.253906 148.578125 139.917969 147.347656 138.1875 C 146.738281 137.339844 146.496094 136.257812 146.679688 135.214844 C 146.855469 134.226562 147.382812 133.386719 148.175781 132.84375 L 154.515625 128.507812 L 159.105469 134.976562 Z M 226.816406 132.847656 C 227.601562 133.386719 228.132812 134.226562 228.308594 135.214844 C 228.496094 136.261719 228.253906 137.347656 227.652344 138.191406 C 226.417969 139.914062 224.027344 140.253906 222.070312 138.976562 L 215.882812 134.972656 L 220.46875 128.507812 Z M 187.492188 80.835938 C 194.773438 80.835938 200.695312 86.757812 200.695312 94.035156 C 200.695312 101.316406 194.773438 107.238281 187.492188 107.238281 C 180.214844 107.238281 174.289062 101.316406 174.289062 94.035156 C 174.289062 86.757812 180.214844 80.835938 187.492188 80.835938 Z M 187.492188 80.835938 " fill-opacity="1" fill-rule="nonzero"/></g></svg>