<svg xmlns="http://www.w3.org/2000/svg" xmlns:xlink="http://www.w3.org/1999/xlink" width="500" zoomAndPan="magnify" viewBox="0 0 375 374.999991" height="500" preserveAspectRatio="xMidYMid meet" version="1.0"><defs><clipPath id="bdb9ca7b92"><path d="M 15.15625 15.15625 L 359.84375 15.15625 L 359.84375 359.84375 L 15.15625 359.84375 Z M 15.15625 15.15625 " clip-rule="nonzero"/></clipPath><clipPath id="b7dd359007"><path d="M 187.5 15.15625 C 92.316406 15.15625 15.15625 92.316406 15.15625 187.5 C 15.15625 282.683594 92.316406 359.84375 187.5 359.84375 C 282.683594 359.84375 359.84375 282.683594 359.84375 187.5 C 359.84375 92.316406 282.683594 15.15625 187.5 15.15625 Z M 187.5 15.15625 " clip-rule="nonzero"/></clipPath><clipPath id="447df0326e"><path d="M 0.15625 0.15625 L 344.84375 0.15625 L 344.84375 344.84375 L 0.15625 344.84375 Z M 0.15625 0.15625 " clip-rule="nonzero"/></clipPath><clipPath id="1302568e03"><path d="M 172.5 0.15625 C 77.316406 0.15625 0.15625 77.316406 0.15625 172.5 C 0.15625 267.683594 77.316406 344.84375 172.5 344.84375 C 267.683594 344.84375 344.84375 267.683594 344.84375 172.5 C 344.84375 77.316406 267.683594 0.15625 172.5 0.15625 Z M 172.5 0.15625 " clip-rule="nonzero"/></clipPath><clipPath id="5fc1c0147f"><rect x="0" width="345" y="0" height="345"/></clipPath><clipPath id="3d420c674b"><path d="M 24.222656 24.222656 L 350.777344 24.222656 L 350.777344 350.777344 L 24.222656 350.777344 Z M 24.222656 24.222656 " clip-rule="nonzero"/></clipPath><clipPath id="e1d5112699"><path d="M 187.5 24.222656 C 97.324219 24.222656 24.222656 97.324219 24.222656 187.5 C 24.222656 277.675781 97.324219 350.777344 187.5 350.777344 C 277.675781 350.777344 350.777344 277.675781 350.777344 187.5 C 350.777344 97.324219 277.675781 24.222656 187.5 24.222656 Z M 187.5 24.222656 " clip-rule="nonzero"/></clipPath><clipPath id="78a759894d"><path d="M 0.222656 0.222656 L 326.777344 0.222656 L 326.777344 326.777344 L 0.222656 326.777344 Z M 0.222656 0.222656 " clip-rule="nonzero"/></clipPath><clipPath id="6999344345"><path d="M 163.5 0.222656 C 73.324219 0.222656 0.222656 73.324219 0.222656 163.5 C 0.222656 253.675781 73.324219 326.777344 163.5 326.777344 C 253.675781 326.777344 326.777344 253.675781 326.777344 163.5 C 326.777344 73.324219 253.675781 0.222656 163.5 0.222656 Z M 163.5 0.222656 " clip-rule="nonzero"/></clipPath><clipPath id="05a46e6de3"><rect x="0" width="327" y="0" height="327"/></clipPath><clipPath id="b7c28557a6"><path d="M 183 153 L 307.335938 153 L 307.335938 296.726562 L 183 296.726562 Z M 183 153 " clip-rule="nonzero"/></clipPath><clipPath id="1b73a4ce3f"><path d="M 67.335938 152 L 192 152 L 192 296.726562 L 67.335938 296.726562 Z M 67.335938 152 " clip-rule="nonzero"/></clipPath><clipPath id="a6bfe19d82"><path d="M 186 296 L 189 296 L 189 296.726562 L 186 296.726562 Z M 186 296 " clip-rule="nonzero"/></clipPath><clipPath id="52d0f25aae"><path d="M 67.335938 152 L 307.335938 152 L 307.335938 296.726562 L 67.335938 296.726562 Z M 67.335938 152 " clip-rule="nonzero"/></clipPath><clipPath id="7f3256ec64"><path d="M 187 296 L 189 296 L 189 296.726562 L 187 296.726562 Z M 187 296 " clip-rule="nonzero"/></clipPath><clipPath id="e30b5e4570"><path d="M 67.335938 152 L 188 152 L 188 296.726562 L 67.335938 296.726562 Z M 67.335938 152 " clip-rule="nonzero"/></clipPath><clipPath id="729e244f2d"><path d="M 182 78.476562 L 192 78.476562 L 192 105 L 182 105 Z M 182 78.476562 " clip-rule="nonzero"/></clipPath></defs><g clip-path="url(#bdb9ca7b92)"><g clip-path="url(#b7dd359007)"><g transform="matrix(1, 0, 0, 1, 15, 15)"><g clip-path="url(#5fc1c0147f)"><g clip-path="url(#447df0326e)"><g clip-path="url(#1302568e03)"><path fill="#000000" d="M 0.15625 0.15625 L 344.84375 0.15625 L 344.84375 344.84375 L 0.15625 344.84375 Z M 0.15625 0.15625 " fill-opacity="1" fill-rule="nonzero"/></g></g></g></g></g></g><g clip-path="url(#3d420c674b)"><g clip-path="url(#e1d5112699)"><g transform="matrix(1, 0, 0, 1, 24, 24)"><g clip-path="url(#05a46e6de3)"><g clip-path="url(#78a759894d)"><g clip-path="url(#6999344345)"><path fill="#ffffff" d="M 0.222656 0.222656 L 326.777344 0.222656 L 326.777344 326.777344 L 0.222656 326.777344 Z M 0.222656 0.222656 " fill-opacity="1" fill-rule="nonzero"/></g></g></g></g></g></g><path fill="#f3ac00" d="M 194.132812 164.304688 L 187.347656 160.6875 C 196.265625 154.710938 205.671875 148.378906 217.609375 144.304688 C 229.472656 140.257812 243.605469 138.507812 254.964844 137.871094 C 258.976562 137.644531 262.671875 137.558594 266.167969 137.558594 C 272.640625 137.558594 278.40625 137.863281 284.054688 138.160156 C 286.355469 138.28125 288.164062 140.171875 288.183594 142.476562 L 288.964844 243.117188 C 288.980469 245.3125 287.363281 247.179688 285.183594 247.46875 C 276.527344 248.628906 267.984375 249.773438 256.898438 251.984375 C 245.769531 254.203125 232.179688 257.480469 220.621094 261.472656 C 209.101562 265.453125 199.503906 270.171875 189.664062 275.019531 C 187.507812 276.082031 184.894531 275.195312 183.832031 273.035156 C 182.769531 270.878906 183.660156 268.265625 185.816406 267.203125 C 195.621094 262.375 205.671875 257.417969 217.777344 253.238281 C 229.84375 249.070312 243.859375 245.703125 255.195312 243.441406 C 266.574219 241.167969 275.359375 239.996094 284.03125 238.835938 L 280.25 243.183594 L 279.472656 142.542969 L 283.597656 146.859375 C 277.929688 146.5625 272.378906 146.269531 266.167969 146.269531 C 262.824219 146.269531 259.289062 146.355469 255.453125 146.570312 C 244.425781 147.191406 231.199219 148.875 220.421875 152.550781 C 209.722656 156.203125 201.207031 161.886719 192.199219 167.921875 C 190.863281 168.820312 189.144531 168.90625 187.722656 168.148438 C 186.304688 167.390625 185.417969 165.914062 185.417969 164.304688 C 185.417969 161.898438 187.367188 159.949219 189.773438 159.949219 C 192.179688 159.949219 194.132812 161.898438 194.132812 164.304688 Z M 194.132812 164.304688 " fill-opacity="1" fill-rule="nonzero"/><path fill="#f3ac00" d="M 181.367188 164.273438 L 188.167969 160.6875 C 179.28125 154.667969 169.90625 148.292969 157.988281 144.160156 C 146.144531 140.054688 132.023438 138.234375 120.664062 137.542969 C 116.65625 137.296875 112.957031 137.1875 109.464844 137.171875 C 102.992188 137.140625 97.222656 137.417969 91.570312 137.6875 C 89.269531 137.796875 87.453125 139.679688 87.425781 141.984375 L 86.148438 242.617188 C 86.121094 244.8125 87.730469 246.6875 89.90625 246.988281 C 98.558594 248.191406 107.09375 249.375 118.167969 251.644531 C 129.285156 253.917969 142.863281 257.261719 154.398438 261.3125 C 165.902344 265.347656 175.472656 270.113281 185.289062 275.007812 C 187.441406 276.082031 190.058594 275.207031 191.132812 273.054688 C 192.203125 270.898438 191.328125 268.285156 189.175781 267.210938 C 179.394531 262.332031 169.367188 257.328125 157.285156 253.089844 C 145.238281 248.863281 131.242188 245.425781 119.914062 243.109375 C 108.546875 240.78125 99.765625 239.5625 91.105469 238.359375 L 94.859375 242.730469 L 96.136719 142.09375 L 91.988281 146.390625 C 97.660156 146.117188 103.210938 145.855469 109.421875 145.882812 C 112.765625 145.902344 116.300781 146.003906 120.132812 146.238281 C 131.160156 146.910156 144.375 148.660156 155.132812 152.390625 C 165.816406 156.09375 174.304688 161.820312 183.28125 167.902344 C 184.613281 168.804688 186.332031 168.898438 187.753906 168.148438 C 189.179688 167.398438 190.074219 165.925781 190.082031 164.316406 C 190.09375 161.910156 188.152344 159.949219 185.746094 159.9375 C 183.339844 159.925781 181.378906 161.867188 181.367188 164.273438 Z M 181.367188 164.273438 " fill-opacity="1" fill-rule="nonzero"/><path fill="#f3ac00" d="M 208.617188 177.507812 L 202.609375 173.472656 L 202.710938 173.433594 C 213.539062 169.003906 224.824219 164.375 235.574219 162.058594 C 245.3125 159.957031 254.46875 159.777344 263.210938 159.777344 C 264.234375 159.777344 265.242188 159.777344 266.257812 159.78125 L 266.265625 159.78125 C 268.671875 159.785156 270.617188 161.742188 270.613281 164.148438 C 270.605469 166.554688 268.652344 168.5 266.246094 168.492188 L 266.234375 168.492188 C 265.21875 168.492188 264.21875 168.488281 263.210938 168.488281 C 254.539062 168.488281 246.179688 168.683594 237.410156 170.574219 C 227.558594 172.699219 217.015625 176.992188 206.007812 181.496094 L 205.910156 181.539062 C 204.566406 182.085938 203.035156 181.933594 201.832031 181.125 C 200.625 180.3125 199.902344 178.957031 199.902344 177.507812 C 199.902344 175.101562 201.851562 173.148438 204.257812 173.148438 C 206.664062 173.148438 208.617188 175.101562 208.617188 177.507812 Z M 208.617188 177.507812 " fill-opacity="1" fill-rule="nonzero"/><path fill="#f3ac00" d="M 166.820312 177.402344 L 172.84375 173.402344 L 172.746094 173.359375 C 161.9375 168.875 150.675781 164.191406 139.9375 161.824219 C 130.207031 159.675781 121.054688 159.449219 112.3125 159.40625 C 111.289062 159.398438 110.28125 159.398438 109.265625 159.394531 L 109.253906 159.394531 C 106.847656 159.390625 104.894531 161.335938 104.890625 163.742188 C 104.882812 166.144531 106.828125 168.101562 109.234375 168.105469 L 109.246094 168.105469 C 110.261719 168.109375 111.261719 168.113281 112.269531 168.117188 C 120.941406 168.160156 129.300781 168.394531 138.058594 170.328125 C 147.902344 172.503906 158.421875 176.847656 169.40625 181.40625 L 169.503906 181.449219 C 170.847656 182.003906 172.375 181.855469 173.585938 181.054688 C 174.792969 180.25 175.523438 178.898438 175.53125 177.445312 C 175.542969 175.039062 173.601562 173.082031 171.195312 173.070312 C 168.789062 173.058594 166.832031 174.996094 166.820312 177.402344 Z M 166.820312 177.402344 " fill-opacity="1" fill-rule="nonzero"/><path fill="#f3ac00" d="M 209.574219 196.375 L 203.566406 192.34375 C 214.425781 187.898438 225.75 183.25 236.53125 180.925781 C 246.269531 178.828125 255.425781 178.644531 264.167969 178.644531 C 265.199219 178.644531 266.199219 178.648438 267.222656 178.648438 C 269.628906 178.65625 271.574219 180.609375 271.570312 183.015625 C 271.5625 185.421875 269.609375 187.367188 267.203125 187.363281 C 266.175781 187.359375 265.1875 187.355469 264.167969 187.355469 C 255.496094 187.355469 247.136719 187.550781 238.367188 189.441406 C 228.484375 191.574219 217.90625 195.886719 206.867188 200.40625 C 205.523438 200.957031 203.992188 200.800781 202.789062 199.992188 C 201.582031 199.183594 200.859375 197.828125 200.859375 196.375 C 200.859375 193.96875 202.8125 192.019531 205.214844 192.019531 C 207.621094 192.019531 209.574219 193.96875 209.574219 196.375 Z M 209.574219 196.375 " fill-opacity="1" fill-rule="nonzero"/><path fill="#f3ac00" d="M 167.777344 196.273438 L 173.800781 192.269531 C 162.964844 187.773438 151.664062 183.070312 140.894531 180.691406 C 131.167969 178.542969 122.011719 178.316406 113.269531 178.273438 C 112.234375 178.269531 111.238281 178.265625 110.210938 178.261719 C 107.808594 178.257812 105.851562 180.203125 105.847656 182.609375 C 105.839844 185.015625 107.785156 186.96875 110.191406 186.976562 C 111.21875 186.976562 112.207031 186.980469 113.226562 186.984375 C 121.898438 187.027344 130.257812 187.265625 139.015625 189.199219 C 148.890625 191.378906 159.445312 195.746094 170.460938 200.316406 C 171.804688 200.875 173.332031 200.726562 174.542969 199.921875 C 175.75 199.121094 176.480469 197.765625 176.488281 196.316406 C 176.5 193.910156 174.558594 191.949219 172.152344 191.9375 C 169.746094 191.925781 167.789062 193.867188 167.777344 196.273438 Z M 167.777344 196.273438 " fill-opacity="1" fill-rule="nonzero"/><path fill="#f3ac00" d="M 209.855469 216.511719 L 203.847656 212.480469 C 214.710938 208.035156 226.03125 203.386719 236.8125 201.0625 C 246.550781 198.960938 255.707031 198.78125 264.449219 198.78125 C 265.464844 198.78125 266.5 198.78125 267.507812 198.785156 C 269.914062 198.792969 271.859375 200.746094 271.851562 203.152344 C 271.84375 205.558594 269.890625 207.503906 267.484375 207.496094 C 266.488281 207.496094 265.4375 207.492188 264.449219 207.492188 C 255.78125 207.492188 247.417969 207.6875 238.648438 209.578125 C 228.765625 211.710938 218.1875 216.023438 207.148438 220.542969 C 205.804688 221.09375 204.277344 220.9375 203.070312 220.128906 C 201.867188 219.320312 201.144531 217.960938 201.144531 216.511719 C 201.144531 214.105469 203.09375 212.15625 205.5 212.15625 C 207.90625 212.15625 209.855469 214.105469 209.855469 216.511719 Z M 209.855469 216.511719 " fill-opacity="1" fill-rule="nonzero"/><path fill="#f3ac00" d="M 168.058594 216.40625 L 174.085938 212.40625 C 163.246094 207.910156 151.945312 203.203125 141.175781 200.828125 C 131.449219 198.679688 122.292969 198.453125 113.550781 198.410156 C 112.539062 198.402344 111.5 198.402344 110.496094 198.398438 C 108.089844 198.394531 106.132812 200.339844 106.128906 202.746094 C 106.121094 205.152344 108.070312 207.105469 110.472656 207.113281 C 111.46875 207.113281 112.519531 207.117188 113.507812 207.121094 C 122.179688 207.164062 130.539062 207.402344 139.296875 209.335938 C 149.171875 211.515625 159.726562 215.878906 170.746094 220.453125 C 172.085938 221.007812 173.617188 220.859375 174.824219 220.058594 C 176.035156 219.253906 176.765625 217.902344 176.769531 216.449219 C 176.78125 214.042969 174.84375 212.085938 172.4375 212.074219 C 170.03125 212.0625 168.070312 214.003906 168.058594 216.40625 Z M 168.058594 216.40625 " fill-opacity="1" fill-rule="nonzero"/><path fill="#f3ac00" d="M 209.746094 235.3125 L 203.738281 231.28125 C 214.601562 226.835938 225.921875 222.1875 236.703125 219.863281 C 246.441406 217.765625 255.597656 217.582031 264.339844 217.582031 C 265.363281 217.582031 266.382812 217.585938 267.398438 217.585938 C 269.804688 217.59375 271.75 219.546875 271.742188 221.953125 C 271.734375 224.359375 269.78125 226.304688 267.375 226.300781 C 266.359375 226.296875 265.347656 226.292969 264.339844 226.292969 C 255.667969 226.292969 247.308594 226.488281 238.539062 228.378906 C 228.65625 230.511719 218.078125 234.824219 207.039062 239.34375 C 205.695312 239.894531 204.167969 239.738281 202.960938 238.929688 C 201.757812 238.121094 201.035156 236.765625 201.035156 235.3125 C 201.035156 232.90625 202.984375 230.957031 205.390625 230.957031 C 207.796875 230.957031 209.746094 232.90625 209.746094 235.3125 Z M 209.746094 235.3125 " fill-opacity="1" fill-rule="nonzero"/><path fill="#f3ac00" d="M 167.949219 235.210938 L 173.976562 231.207031 C 163.136719 226.710938 151.835938 222.007812 141.066406 219.628906 C 131.339844 217.480469 122.183594 217.253906 113.441406 217.210938 C 112.417969 217.207031 111.402344 217.203125 110.386719 217.199219 C 107.980469 217.195312 106.023438 219.140625 106.019531 221.546875 C 106.011719 223.953125 107.960938 225.90625 110.363281 225.914062 C 111.378906 225.914062 112.390625 225.917969 113.398438 225.921875 C 122.070312 225.964844 130.429688 226.203125 139.1875 228.136719 C 149.0625 230.316406 159.617188 234.683594 170.636719 239.253906 C 171.976562 239.8125 173.507812 239.664062 174.714844 238.859375 C 175.925781 238.058594 176.652344 236.703125 176.660156 235.253906 C 176.671875 232.847656 174.734375 230.886719 172.328125 230.875 C 169.921875 230.863281 167.960938 232.804688 167.949219 235.210938 Z M 167.949219 235.210938 " fill-opacity="1" fill-rule="nonzero"/><g clip-path="url(#b7c28557a6)"><path fill="#f3ac00" d="M 291.691406 157.503906 L 287.832031 153.175781 L 303.058594 154.921875 C 305.246094 155.175781 306.902344 157.019531 306.917969 159.21875 L 307.667969 263.933594 C 307.6875 266.335938 305.757812 268.296875 303.355469 268.320312 C 288.109375 268.46875 273.15625 268.621094 258.046875 270.546875 C 242.925781 272.472656 227.5625 276.1875 211.914062 279.980469 L 214.46875 278.230469 C 211.148438 283.011719 207.203125 288.804688 202.503906 292.074219 C 197.523438 295.539062 192.039062 296.003906 187.84375 296.417969 C 185.449219 296.65625 183.316406 294.910156 183.078125 292.515625 C 182.839844 290.121094 184.589844 287.988281 186.984375 287.75 C 191.476562 287.304688 194.679688 286.90625 197.527344 284.925781 C 200.652344 282.75 203.667969 278.511719 207.3125 273.261719 C 207.917969 272.386719 208.828125 271.761719 209.863281 271.511719 C 225.421875 267.742188 241.261719 263.902344 256.945312 261.902344 C 272.644531 259.902344 288.105469 259.757812 303.269531 259.609375 L 298.957031 263.996094 L 298.207031 159.28125 L 302.066406 163.578125 L 286.839844 161.832031 C 284.640625 161.578125 282.980469 159.714844 282.980469 157.503906 C 282.980469 155.097656 284.929688 153.144531 287.335938 153.144531 C 289.742188 153.144531 291.691406 155.097656 291.691406 157.503906 Z M 291.691406 157.503906 " fill-opacity="1" fill-rule="nonzero"/></g><g clip-path="url(#1b73a4ce3f)"><path fill="#f3ac00" d="M 83.84375 156.992188 L 87.722656 152.683594 L 72.488281 154.355469 C 70.296875 154.597656 68.632812 156.433594 68.605469 158.632812 L 67.339844 263.339844 C 67.3125 265.742188 69.230469 267.714844 71.632812 267.75 C 86.878906 267.972656 101.828125 268.199219 116.929688 270.199219 C 132.042969 272.199219 147.386719 275.992188 163.015625 279.859375 L 160.46875 278.097656 C 163.765625 282.894531 167.683594 288.707031 172.367188 292 C 177.328125 295.492188 182.8125 295.980469 187.007812 296.417969 C 189.398438 296.667969 191.539062 294.929688 191.789062 292.535156 C 192.039062 290.144531 190.300781 288 187.90625 287.753906 C 183.417969 287.285156 180.214844 286.871094 177.378906 284.875 C 174.261719 282.683594 171.269531 278.429688 167.652344 273.164062 C 167.046875 272.285156 166.140625 271.65625 165.105469 271.402344 C 149.570312 267.558594 133.75 263.636719 118.074219 261.5625 C 102.386719 259.484375 86.925781 259.261719 71.761719 259.039062 L 76.054688 263.445312 L 77.320312 158.738281 L 73.4375 163.015625 L 88.675781 161.34375 C 90.875 161.101562 92.542969 159.246094 92.554688 157.035156 C 92.566406 154.628906 90.625 152.667969 88.21875 152.65625 C 85.8125 152.644531 83.855469 154.585938 83.84375 156.992188 Z M 83.84375 156.992188 " fill-opacity="1" fill-rule="nonzero"/></g><path fill="#f3ac00" d="M 218.210938 109.574219 L 210.5 106.792969 L 222.378906 92.457031 C 223.914062 90.605469 226.660156 90.347656 228.511719 91.882812 C 230.367188 93.417969 230.621094 96.164062 229.089844 98.015625 L 217.207031 112.351562 C 216.035156 113.765625 214.101562 114.292969 212.375 113.671875 C 210.648438 113.050781 209.496094 111.410156 209.496094 109.574219 C 209.496094 107.167969 211.445312 105.21875 213.851562 105.21875 C 216.257812 105.21875 218.210938 107.167969 218.210938 109.574219 Z M 218.210938 109.574219 " fill-opacity="1" fill-rule="nonzero"/><path fill="#f3ac00" d="M 157.558594 109.425781 L 165.285156 106.683594 L 153.472656 92.289062 C 151.949219 90.425781 149.203125 90.15625 147.34375 91.683594 C 145.484375 93.207031 145.210938 95.953125 146.738281 97.8125 L 158.546875 112.210938 C 159.710938 113.628906 161.640625 114.164062 163.371094 113.550781 C 165.101562 112.9375 166.261719 111.304688 166.273438 109.46875 C 166.285156 107.0625 164.34375 105.101562 161.9375 105.089844 C 159.53125 105.078125 157.570312 107.019531 157.558594 109.425781 Z M 157.558594 109.425781 " fill-opacity="1" fill-rule="nonzero"/><path fill="#f3ac00" d="M 233.691406 130.015625 L 228.351562 125.773438 L 246.6875 121.515625 C 249.03125 120.96875 251.371094 122.429688 251.917969 124.769531 C 252.460938 127.113281 251.003906 129.457031 248.660156 130 L 230.320312 134.261719 C 229.027344 134.558594 227.667969 134.253906 226.625 133.425781 C 225.585938 132.601562 224.980469 131.34375 224.980469 130.015625 C 224.980469 127.609375 226.929688 125.660156 229.335938 125.660156 C 231.742188 125.660156 233.691406 127.609375 233.691406 130.015625 Z M 233.691406 130.015625 " fill-opacity="1" fill-rule="nonzero"/><path fill="#f3ac00" d="M 141.976562 129.789062 L 141.976562 129.792969 L 147.339844 125.574219 L 129.023438 121.222656 C 126.683594 120.667969 124.332031 122.117188 123.777344 124.457031 C 123.222656 126.796875 124.667969 129.144531 127.007812 129.699219 L 145.324219 134.050781 C 146.617188 134.359375 147.980469 134.058594 149.023438 133.238281 C 150.070312 132.414062 150.683594 131.164062 150.6875 129.835938 L 150.6875 129.832031 C 150.699219 127.429688 148.757812 125.46875 146.355469 125.457031 C 143.949219 125.445312 141.988281 127.386719 141.976562 129.789062 Z M 141.976562 129.789062 " fill-opacity="1" fill-rule="nonzero"/><g clip-path="url(#a6bfe19d82)"><path fill="#f3ac00" d="M 186.753906 296.390625 C 186.964844 296.421875 187.179688 296.441406 187.398438 296.441406 C 187.40625 296.441406 187.414062 296.441406 187.421875 296.441406 C 187.429688 296.441406 187.433594 296.441406 187.441406 296.441406 C 187.441406 296.441406 187.445312 296.441406 187.449219 296.441406 C 187.667969 296.441406 187.878906 296.425781 188.085938 296.394531 L 188.082031 296.398438 C 188 296.402344 187.921875 296.410156 187.84375 296.417969 C 187.703125 296.433594 187.5625 296.441406 187.425781 296.441406 C 187.285156 296.441406 187.148438 296.433594 187.007812 296.417969 C 186.925781 296.410156 186.84375 296.402344 186.757812 296.390625 Z M 186.753906 296.390625 " fill-opacity="1" fill-rule="nonzero"/></g><g clip-path="url(#52d0f25aae)"><path fill="#f3ac00" d="M 88.214844 152.65625 C 88.101562 152.65625 87.992188 152.660156 87.878906 152.667969 C 87.800781 152.675781 87.726562 152.683594 87.648438 152.691406 L 72.488281 154.355469 C 70.296875 154.597656 68.632812 156.433594 68.605469 158.632812 L 67.339844 263.34375 C 67.3125 265.742188 69.230469 267.714844 71.632812 267.75 C 86.875 267.972656 101.832031 268.199219 116.929688 270.199219 C 131.523438 272.132812 146.335938 275.734375 161.410156 279.460938 C 164.503906 283.957031 168.121094 289.015625 172.367188 292 C 177.226562 295.421875 182.585938 295.960938 186.746094 296.390625 C 184.828125 296.09375 183.277344 294.535156 183.078125 292.515625 C 182.839844 290.121094 184.589844 287.988281 186.984375 287.75 C 187.140625 287.734375 187.292969 287.71875 187.445312 287.703125 C 187.601562 287.71875 187.753906 287.734375 187.90625 287.753906 C 190.300781 288 192.039062 290.144531 191.789062 292.535156 C 191.578125 294.554688 190.019531 296.109375 188.101562 296.394531 C 192.265625 295.984375 197.625 295.46875 202.503906 292.074219 C 206.765625 289.109375 210.40625 284.070312 213.523438 279.589844 C 228.613281 275.9375 243.441406 272.40625 258.046875 270.546875 C 273.15625 268.621094 288.109375 268.46875 303.355469 268.320312 C 305.757812 268.296875 307.6875 266.335938 307.667969 263.933594 L 306.917969 159.21875 C 306.902344 157.019531 305.246094 155.175781 303.058594 154.921875 L 287.832031 153.175781 C 287.78125 153.167969 287.730469 153.164062 287.675781 153.160156 C 287.5625 153.152344 287.453125 153.144531 287.339844 153.144531 C 285.085938 153.140625 283.171875 154.875 282.992188 157.160156 C 282.808594 159.5 284.507812 161.5625 286.839844 161.832031 L 298.234375 163.140625 L 298.925781 259.652344 C 285.152344 259.800781 271.144531 260.09375 256.945312 261.902344 C 241.261719 263.902344 225.421875 267.742188 209.863281 271.511719 C 208.828125 271.761719 207.917969 272.386719 207.3125 273.261719 C 203.667969 278.511719 200.652344 282.75 197.527344 284.925781 C 194.777344 286.839844 191.695312 287.273438 187.445312 287.703125 C 183.195312 287.253906 180.117188 286.800781 177.378906 284.875 C 174.261719 282.683594 171.269531 278.429688 167.652344 273.164062 C 167.046875 272.285156 166.140625 271.65625 165.105469 271.402344 C 149.570312 267.558594 133.75 263.636719 118.074219 261.5625 C 103.882812 259.683594 89.878906 259.320312 76.109375 259.105469 L 77.273438 162.59375 L 88.675781 161.34375 C 91.003906 161.085938 92.714844 159.03125 92.542969 156.691406 C 92.375 154.40625 90.46875 152.660156 88.214844 152.65625 Z M 88.214844 152.65625 " fill-opacity="1" fill-rule="nonzero"/></g><path fill="#f3ac00" d="M 247.6875 121.398438 C 247.359375 121.398438 247.023438 121.4375 246.6875 121.515625 L 228.371094 125.769531 C 226.429688 126.210938 224.984375 127.9375 224.980469 130.003906 C 224.976562 131.335938 225.582031 132.59375 226.621094 133.425781 C 227.398438 134.042969 228.351562 134.371094 229.324219 134.371094 C 229.65625 134.375 229.992188 134.335938 230.320312 134.257812 L 248.660156 130 C 251.003906 129.457031 252.460938 127.113281 251.917969 124.773438 C 251.449219 122.761719 249.664062 121.40625 247.6875 121.398438 Z M 247.6875 121.398438 " fill-opacity="1" fill-rule="nonzero"/><path fill="#f3ac00" d="M 128.023438 121.105469 C 126.046875 121.101562 124.253906 122.449219 123.777344 124.457031 C 123.222656 126.796875 124.667969 129.144531 127.007812 129.703125 L 145.324219 134.050781 C 145.65625 134.128906 145.988281 134.167969 146.320312 134.167969 C 147.292969 134.171875 148.25 133.847656 149.027344 133.234375 C 150.074219 132.410156 150.683594 131.152344 150.6875 129.824219 C 150.695312 127.746094 149.242188 126.003906 147.300781 125.5625 L 129.023438 121.226562 C 128.6875 121.144531 128.351562 121.105469 128.023438 121.105469 Z M 128.023438 121.105469 " fill-opacity="1" fill-rule="nonzero"/><path fill="#f3ac00" d="M 225.746094 90.878906 C 224.492188 90.875 223.242188 91.414062 222.378906 92.457031 L 210.5 106.792969 C 209.875 107.546875 209.5 108.511719 209.496094 109.5625 C 209.492188 111.402344 210.640625 113.042969 212.371094 113.671875 C 212.851562 113.84375 213.347656 113.929688 213.839844 113.929688 C 215.117188 113.933594 216.359375 113.375 217.207031 112.351562 L 229.089844 98.015625 C 230.621094 96.164062 230.367188 93.417969 228.511719 91.882812 C 227.703125 91.210938 226.722656 90.882812 225.746094 90.878906 Z M 225.746094 90.878906 " fill-opacity="1" fill-rule="nonzero"/><path fill="#f3ac00" d="M 150.113281 90.695312 C 149.136719 90.691406 148.15625 91.015625 147.34375 91.683594 C 145.484375 93.207031 145.210938 95.953125 146.738281 97.8125 L 158.546875 112.210938 C 159.390625 113.234375 160.628906 113.800781 161.90625 113.800781 C 162.398438 113.804688 162.894531 113.722656 163.378906 113.550781 C 165.109375 112.933594 166.265625 111.296875 166.273438 109.457031 C 166.273438 108.40625 165.902344 107.4375 165.285156 106.683594 L 153.472656 92.289062 C 152.613281 91.242188 151.371094 90.695312 150.113281 90.695312 Z M 150.113281 90.695312 " fill-opacity="1" fill-rule="nonzero"/><g clip-path="url(#7f3256ec64)"><path fill="#f3ac00" d="M 188.089844 296.394531 C 188.007812 296.402344 187.925781 296.410156 187.84375 296.417969 C 187.703125 296.433594 187.5625 296.441406 187.421875 296.441406 C 187.429688 296.441406 187.433594 296.441406 187.441406 296.441406 L 187.449219 296.441406 C 187.453125 296.441406 187.453125 296.441406 187.457031 296.441406 C 187.671875 296.441406 187.882812 296.425781 188.09375 296.394531 Z M 188.089844 296.394531 " fill-opacity="1" fill-rule="nonzero"/></g><path fill="#f3ac00" d="M 298.644531 220.304688 L 298.925781 259.652344 C 298.925781 259.652344 298.921875 259.652344 298.921875 259.652344 L 298.917969 259.652344 C 298.917969 259.652344 298.917969 259.652344 298.921875 259.652344 L 298.917969 259.652344 L 298.925781 259.652344 L 298.957031 263.996094 L 303.269531 259.609375 L 303.265625 259.609375 C 301.820312 259.621094 300.375 259.636719 298.925781 259.652344 Z M 298.644531 220.304688 " fill-opacity="1" fill-rule="nonzero"/><g clip-path="url(#e30b5e4570)"><path fill="#f3ac00" d="M 88.214844 152.65625 C 88.101562 152.65625 87.992188 152.660156 87.878906 152.667969 C 87.800781 152.675781 87.726562 152.683594 87.648438 152.691406 L 72.488281 154.355469 C 70.296875 154.597656 68.632812 156.433594 68.605469 158.632812 L 67.339844 263.34375 C 67.3125 265.742188 69.230469 267.714844 71.632812 267.75 C 86.875 267.972656 101.832031 268.199219 116.929688 270.199219 C 131.527344 272.132812 146.335938 275.734375 161.410156 279.460938 C 164.503906 283.957031 168.121094 289.015625 172.367188 292 C 177.226562 295.421875 182.585938 295.960938 186.746094 296.390625 C 184.828125 296.09375 183.277344 294.535156 183.078125 292.515625 C 182.839844 290.121094 184.589844 287.988281 186.984375 287.75 C 187.140625 287.734375 187.292969 287.71875 187.445312 287.703125 C 183.199219 287.253906 180.117188 286.800781 177.378906 284.875 C 174.261719 282.683594 171.269531 278.429688 167.652344 273.164062 C 167.046875 272.285156 166.140625 271.65625 165.105469 271.402344 C 149.570312 267.558594 133.75 263.636719 118.074219 261.5625 C 103.882812 259.683594 89.878906 259.320312 76.109375 259.105469 L 77.269531 162.652344 L 77.273438 162.59375 L 88.675781 161.34375 C 91.003906 161.085938 92.714844 159.03125 92.542969 156.691406 C 92.375 154.40625 90.46875 152.660156 88.214844 152.65625 Z M 88.214844 152.65625 " fill-opacity="1" fill-rule="nonzero"/></g><path fill="#f3ac00" d="M 298.207031 159.28125 L 298.234375 163.140625 L 302.066406 163.578125 Z M 298.207031 159.28125 " fill-opacity="1" fill-rule="nonzero"/><path fill="#f3ac00" d="M 287.832031 153.175781 L 291.675781 157.84375 C 291.863281 155.5 290.15625 153.441406 287.835938 153.175781 Z M 287.832031 153.175781 " fill-opacity="1" fill-rule="nonzero"/><path fill="#f3ac00" d="M 128.023438 121.105469 C 126.046875 121.101562 124.253906 122.449219 123.777344 124.457031 C 123.222656 126.796875 124.667969 129.144531 127.007812 129.703125 L 145.324219 134.050781 C 145.65625 134.128906 145.988281 134.167969 146.320312 134.167969 C 147.292969 134.171875 148.25 133.847656 149.027344 133.234375 C 150.074219 132.410156 150.683594 131.152344 150.6875 129.824219 C 150.695312 127.746094 149.242188 126.003906 147.300781 125.5625 L 129.023438 121.226562 C 128.6875 121.144531 128.351562 121.105469 128.023438 121.105469 Z M 128.023438 121.105469 " fill-opacity="1" fill-rule="nonzero"/><path fill="#f3ac00" d="M 246.6875 121.515625 L 228.371094 125.769531 C 228.359375 125.769531 228.351562 125.773438 228.34375 125.773438 L 228.351562 125.773438 L 233.691406 130.027344 C 233.699219 127.621094 231.753906 125.667969 229.347656 125.660156 C 229.035156 125.660156 228.730469 125.691406 228.4375 125.753906 Z M 246.6875 121.515625 " fill-opacity="1" fill-rule="nonzero"/><path fill="#f3ac00" d="M 150.113281 90.695312 C 149.136719 90.691406 148.15625 91.015625 147.34375 91.683594 C 145.484375 93.207031 145.210938 95.953125 146.738281 97.8125 L 158.546875 112.210938 C 159.390625 113.234375 160.628906 113.800781 161.90625 113.800781 C 162.398438 113.804688 162.894531 113.722656 163.378906 113.550781 C 165.109375 112.933594 166.265625 111.296875 166.273438 109.457031 C 166.273438 108.40625 165.902344 107.4375 165.285156 106.683594 L 153.472656 92.289062 C 152.613281 91.242188 151.371094 90.695312 150.113281 90.695312 Z M 150.113281 90.695312 " fill-opacity="1" fill-rule="nonzero"/><path fill="#f3ac00" d="M 213.863281 105.21875 C 212.511719 105.214844 211.300781 105.828125 210.496094 106.796875 L 218.210938 109.585938 C 218.214844 107.179688 216.269531 105.222656 213.863281 105.21875 Z M 213.863281 105.21875 " fill-opacity="1" fill-rule="nonzero"/><g clip-path="url(#729e244f2d)"><path fill="#f3ac00" d="M 191.136719 99.851562 C 191.136719 102.242188 189.207031 104.1875 186.816406 104.207031 C 184.425781 104.226562 182.464844 102.3125 182.425781 99.921875 L 182.152344 82.96875 C 182.113281 80.5625 184.035156 78.582031 186.4375 78.542969 C 188.84375 78.503906 190.824219 80.425781 190.863281 82.828125 L 191.136719 99.78125 L 182.425781 99.851562 C 182.425781 97.445312 184.375 95.496094 186.78125 95.496094 C 189.1875 95.496094 191.136719 97.445312 191.136719 99.851562 Z M 191.136719 99.851562 " fill-opacity="1" fill-rule="nonzero"/></g><path fill="#f3ac00" d="M 155.480469 137.101562 L 155.875 134.789062 C 155.894531 134.675781 155.917969 134.5625 155.945312 134.449219 L 156.523438 132.179688 C 156.554688 132.066406 156.585938 131.957031 156.625 131.84375 L 157.378906 129.625 C 157.417969 129.515625 157.460938 129.410156 157.503906 129.300781 L 158.4375 127.152344 C 158.484375 127.042969 158.535156 126.941406 158.585938 126.835938 L 159.6875 124.765625 C 159.742188 124.664062 159.800781 124.566406 159.863281 124.46875 L 161.125 122.492188 C 161.1875 122.394531 161.253906 122.296875 161.320312 122.207031 L 162.738281 120.335938 C 162.808594 120.242188 162.878906 120.152344 162.957031 120.066406 L 164.515625 118.316406 C 164.59375 118.230469 164.675781 118.144531 164.757812 118.066406 L 166.453125 116.445312 C 166.535156 116.363281 166.621094 116.289062 166.710938 116.214844 L 168.527344 114.734375 C 168.617188 114.660156 168.710938 114.589844 168.804688 114.523438 L 170.738281 113.191406 C 170.832031 113.128906 170.929688 113.066406 171.03125 113.007812 L 173.058594 111.832031 C 173.160156 111.773438 173.261719 111.722656 173.367188 111.671875 L 175.484375 110.664062 C 175.589844 110.613281 175.695312 110.566406 175.800781 110.527344 L 177.992188 109.6875 C 178.101562 109.648438 178.210938 109.609375 178.320312 109.578125 L 180.570312 108.917969 C 180.683594 108.886719 180.796875 108.859375 180.910156 108.835938 L 183.203125 108.355469 C 183.316406 108.332031 183.433594 108.3125 183.546875 108.300781 L 185.875 108.003906 C 185.988281 107.992188 186.101562 107.980469 186.21875 107.976562 L 188.5625 107.867188 C 188.675781 107.863281 188.792969 107.863281 188.910156 107.867188 L 191.257812 107.945312 C 191.375 107.949219 191.488281 107.957031 191.605469 107.972656 L 193.9375 108.238281 C 194.054688 108.25 194.167969 108.269531 194.28125 108.292969 L 196.589844 108.742188 C 196.703125 108.765625 196.816406 108.792969 196.925781 108.824219 L 199.191406 109.457031 C 199.300781 109.492188 199.410156 109.527344 199.519531 109.566406 L 201.726562 110.378906 C 201.835938 110.421875 201.941406 110.464844 202.046875 110.511719 L 204.179688 111.5 C 204.285156 111.550781 204.386719 111.601562 204.488281 111.660156 L 206.535156 112.8125 C 206.636719 112.871094 206.734375 112.929688 206.832031 112.996094 L 208.78125 114.308594 C 208.875 114.375 208.96875 114.441406 209.0625 114.515625 L 210.898438 115.980469 C 210.988281 116.054688 211.078125 116.128906 211.160156 116.207031 L 212.875 117.816406 C 212.960938 117.894531 213.042969 117.976562 213.121094 118.0625 L 214.699219 119.800781 C 214.777344 119.886719 214.851562 119.976562 214.925781 120.070312 L 216.359375 121.929688 C 216.433594 122.019531 216.5 122.113281 216.5625 122.210938 L 217.847656 124.179688 C 217.910156 124.277344 217.96875 124.375 218.023438 124.480469 L 219.148438 126.542969 C 219.203125 126.644531 219.253906 126.75 219.300781 126.855469 L 220.253906 129.003906 C 220.300781 129.109375 220.34375 129.214844 220.382812 129.324219 L 221.164062 131.542969 C 221.203125 131.652344 221.234375 131.761719 221.265625 131.875 L 221.867188 134.148438 C 221.894531 134.257812 221.921875 134.371094 221.941406 134.488281 L 222.359375 136.800781 C 222.785156 139.167969 221.210938 141.433594 218.84375 141.859375 C 216.476562 142.285156 214.210938 140.714844 213.785156 138.34375 L 213.367188 136.03125 L 213.441406 136.371094 L 212.84375 134.101562 L 212.945312 134.433594 L 212.164062 132.214844 L 212.292969 132.539062 L 211.339844 130.394531 L 211.492188 130.703125 L 210.371094 128.640625 L 210.546875 128.941406 L 209.265625 126.972656 L 209.464844 127.253906 L 208.03125 125.394531 L 208.253906 125.664062 L 206.671875 123.921875 L 206.917969 124.171875 L 205.203125 122.5625 L 205.464844 122.792969 L 203.628906 121.328125 L 203.910156 121.53125 L 201.960938 120.21875 L 202.257812 120.402344 L 200.210938 119.25 L 200.519531 119.40625 L 198.386719 118.417969 L 198.710938 118.554688 L 196.503906 117.738281 L 196.835938 117.847656 L 194.574219 117.210938 L 194.910156 117.292969 L 192.605469 116.839844 L 192.949219 116.894531 L 190.613281 116.625 L 190.960938 116.652344 L 188.613281 116.574219 L 188.960938 116.570312 L 186.621094 116.679688 L 186.964844 116.648438 L 184.640625 116.941406 L 184.980469 116.886719 L 182.6875 117.363281 L 183.023438 117.28125 L 180.773438 117.9375 L 181.101562 117.828125 L 178.910156 118.664062 L 179.230469 118.527344 L 177.113281 119.535156 L 177.421875 119.375 L 175.390625 120.546875 L 175.683594 120.363281 L 173.753906 121.695312 L 174.035156 121.488281 L 172.214844 122.96875 L 172.476562 122.738281 L 170.78125 124.359375 L 171.023438 124.109375 L 169.464844 125.859375 L 169.683594 125.59375 L 168.269531 127.460938 L 168.46875 127.175781 L 167.207031 129.152344 L 167.382812 128.855469 L 166.28125 130.925781 L 166.433594 130.613281 L 165.5 132.761719 L 165.625 132.4375 L 164.871094 134.660156 L 164.96875 134.324219 L 164.390625 136.597656 L 164.460938 136.257812 L 164.066406 138.570312 C 163.664062 140.941406 161.410156 142.535156 159.039062 142.128906 C 156.667969 141.722656 155.074219 139.472656 155.480469 137.101562 Z M 155.480469 137.101562 " fill-opacity="1" fill-rule="nonzero"/><path fill="#f3ac00" d="M 187.753906 160.296875 C 187.699219 160.296875 187.644531 160.296875 187.589844 160.300781 C 187.25 160.3125 186.910156 160.363281 186.574219 160.457031 C 184.6875 160.980469 183.382812 162.699219 183.386719 164.65625 L 183.386719 167.976562 C 183.390625 167.976562 183.394531 167.976562 183.394531 167.980469 L 183.390625 167.980469 L 183.464844 264.378906 C 184.820312 265.042969 186.164062 265.710938 187.5 266.375 C 189.046875 265.613281 190.601562 264.851562 192.171875 264.089844 L 192.101562 167.992188 L 192.097656 167.992188 L 192.101562 167.664062 C 192.824219 166.34375 192.847656 164.6875 192.015625 163.304688 L 191.472656 162.40625 C 190.703125 161.128906 189.359375 160.363281 187.929688 160.300781 C 187.871094 160.339844 187.816406 160.375 187.757812 160.414062 C 187.816406 160.375 187.871094 160.339844 187.925781 160.300781 C 187.871094 160.296875 187.8125 160.296875 187.753906 160.296875 Z M 187.785156 160.429688 C 187.773438 160.433594 187.765625 160.4375 187.757812 160.441406 C 187.765625 160.4375 187.773438 160.433594 187.78125 160.429688 Z M 187.738281 168.160156 C 187.738281 168.160156 187.742188 168.160156 187.742188 168.160156 L 187.734375 168.160156 C 187.734375 168.160156 187.738281 168.160156 187.738281 168.160156 Z M 187.738281 168.160156 " fill-opacity="1" fill-rule="nonzero"/><path fill="#f3ac00" d="M 187.496094 266.375 C 186.9375 266.652344 186.375 266.925781 185.816406 267.203125 C 184.703125 267.75 183.925781 268.714844 183.582031 269.8125 C 184.042969 271.726562 185.761719 273.148438 187.8125 273.15625 C 187.820312 273.15625 187.824219 273.15625 187.828125 273.15625 C 189.429688 273.152344 190.828125 272.289062 191.585938 271 C 191.546875 269.441406 190.667969 267.957031 189.175781 267.210938 C 188.617188 266.933594 188.058594 266.65625 187.5 266.375 Z M 187.496094 266.375 " fill-opacity="1" fill-rule="nonzero"/><path fill="#f3ac00" d="M 188.171875 160.691406 L 187.757812 160.90625 L 189.21875 161.6875 C 189.382812 161.910156 189.527344 162.148438 189.648438 162.398438 L 189.648438 162.402344 C 189.527344 162.148438 189.378906 161.910156 189.214844 161.6875 L 187.757812 160.90625 L 188.167969 160.691406 Z M 188.171875 160.691406 " fill-opacity="1" fill-rule="nonzero"/></svg>