<svg xmlns="http://www.w3.org/2000/svg" xmlns:xlink="http://www.w3.org/1999/xlink" width="500" zoomAndPan="magnify" viewBox="0 0 375 374.999991" height="500" preserveAspectRatio="xMidYMid meet" version="1.0"><defs><clipPath id="cdaf9c955a"><path d="M 15.15625 15.15625 L 359.84375 15.15625 L 359.84375 359.84375 L 15.15625 359.84375 Z M 15.15625 15.15625 " clip-rule="nonzero"/></clipPath><clipPath id="865ee2192a"><path d="M 187.5 15.15625 C 92.316406 15.15625 15.15625 92.316406 15.15625 187.5 C 15.15625 282.683594 92.316406 359.84375 187.5 359.84375 C 282.683594 359.84375 359.84375 282.683594 359.84375 187.5 C 359.84375 92.316406 282.683594 15.15625 187.5 15.15625 Z M 187.5 15.15625 " clip-rule="nonzero"/></clipPath><clipPath id="688ebbebf9"><path d="M 0.15625 0.15625 L 344.84375 0.15625 L 344.84375 344.84375 L 0.15625 344.84375 Z M 0.15625 0.15625 " clip-rule="nonzero"/></clipPath><clipPath id="d49634114e"><path d="M 172.5 0.15625 C 77.316406 0.15625 0.15625 77.316406 0.15625 172.5 C 0.15625 267.683594 77.316406 344.84375 172.5 344.84375 C 267.683594 344.84375 344.84375 267.683594 344.84375 172.5 C 344.84375 77.316406 267.683594 0.15625 172.5 0.15625 Z M 172.5 0.15625 " clip-rule="nonzero"/></clipPath><clipPath id="3ec3cc8a52"><rect x="0" width="345" y="0" height="345"/></clipPath><clipPath id="0cf56d09ce"><path d="M 24.222656 24.222656 L 350.777344 24.222656 L 350.777344 350.777344 L 24.222656 350.777344 Z M 24.222656 24.222656 " clip-rule="nonzero"/></clipPath><clipPath id="ae294c38d7"><path d="M 187.5 24.222656 C 97.324219 24.222656 24.222656 97.324219 24.222656 187.5 C 24.222656 277.675781 97.324219 350.777344 187.5 350.777344 C 277.675781 350.777344 350.777344 277.675781 350.777344 187.5 C 350.777344 97.324219 277.675781 24.222656 187.5 24.222656 Z M 187.5 24.222656 " clip-rule="nonzero"/></clipPath><clipPath id="7e403a3a51"><path d="M 0.222656 0.222656 L 326.777344 0.222656 L 326.777344 326.777344 L 0.222656 326.777344 Z M 0.222656 0.222656 " clip-rule="nonzero"/></clipPath><clipPath id="03b8748a07"><path d="M 163.5 0.222656 C 73.324219 0.222656 0.222656 73.324219 0.222656 163.5 C 0.222656 253.675781 73.324219 326.777344 163.5 326.777344 C 253.675781 326.777344 326.777344 253.675781 326.777344 163.5 C 326.777344 73.324219 253.675781 0.222656 163.5 0.222656 Z M 163.5 0.222656 " clip-rule="nonzero"/></clipPath><clipPath id="37bb4a6f0b"><rect x="0" width="327" y="0" height="327"/></clipPath><clipPath id="11305bd027"><path d="M 92 124.878906 L 283.355469 124.878906 L 283.355469 294 L 92 294 Z M 92 124.878906 " clip-rule="nonzero"/></clipPath><clipPath id="e76470c3ca"><path d="M 179 130 L 197 130 L 197 135.65625 L 179 135.65625 Z M 179 130 " clip-rule="nonzero"/></clipPath><clipPath id="aee21b87a6"><path d="M 186 80.90625 L 190 80.90625 L 190 88 L 186 88 Z M 186 80.90625 " clip-rule="nonzero"/></clipPath><clipPath id="0e1b4dd5c0"><path d="M 161.722656 104 L 169 104 L 169 108 L 161.722656 108 Z M 161.722656 104 " clip-rule="nonzero"/></clipPath><clipPath id="c61dbc128f"><path d="M 206 104 L 213.472656 104 L 213.472656 108 L 206 108 Z M 206 104 " clip-rule="nonzero"/></clipPath></defs><g clip-path="url(#cdaf9c955a)"><g clip-path="url(#865ee2192a)"><g transform="matrix(1, 0, 0, 1, 15, 15)"><g clip-path="url(#3ec3cc8a52)"><g clip-path="url(#688ebbebf9)"><g clip-path="url(#d49634114e)"><path fill="#000000" d="M 0.15625 0.15625 L 344.84375 0.15625 L 344.84375 344.84375 L 0.15625 344.84375 Z M 0.15625 0.15625 " fill-opacity="1" fill-rule="nonzero"/></g></g></g></g></g></g><g clip-path="url(#0cf56d09ce)"><g clip-path="url(#ae294c38d7)"><g transform="matrix(1, 0, 0, 1, 24, 24)"><g clip-path="url(#37bb4a6f0b)"><g clip-path="url(#7e403a3a51)"><g clip-path="url(#03b8748a07)"><path fill="#ffffff" d="M 0.222656 0.222656 L 326.777344 0.222656 L 326.777344 326.777344 L 0.222656 326.777344 Z M 0.222656 0.222656 " fill-opacity="1" fill-rule="nonzero"/></g></g></g></g></g></g><g clip-path="url(#11305bd027)"><path fill="#ffc63b" d="M 225.578125 272.363281 C 225.390625 283.601562 214.964844 289.460938 205.199219 291.351562 C 191.859375 293.941406 176.046875 294.023438 163.253906 288.835938 C 159.421875 287.285156 155.839844 284.835938 153.648438 281.335938 C 150.746094 276.714844 151.460938 271.46875 151.722656 266.296875 C 152.003906 260.652344 152.660156 255.023438 153.800781 249.484375 C 156.113281 238.25 160.492188 227.460938 167.226562 218.136719 C 170.238281 213.964844 174.03125 209.769531 178.636719 207.273438 C 168.640625 203.324219 161.566406 193.59375 161.566406 182.195312 C 161.566406 167.308594 173.632812 155.242188 188.519531 155.242188 C 203.40625 155.242188 215.472656 167.308594 215.472656 182.195312 C 215.472656 193.753906 208.191406 203.609375 197.96875 207.4375 C 207.6875 212.363281 214.492188 223.71875 218.292969 233.433594 C 220.652344 239.472656 221.921875 245.648438 223.011719 252.011719 C 224.164062 258.75 225.691406 265.492188 225.578125 272.363281 Z M 280.980469 221.691406 C 279.890625 215.339844 278.632812 209.164062 276.273438 203.121094 C 272.464844 193.402344 265.664062 182.050781 255.949219 177.125 C 266.164062 173.300781 273.449219 163.4375 273.449219 151.886719 C 273.449219 136.992188 261.375 124.917969 246.488281 124.917969 C 231.601562 124.917969 219.535156 136.992188 219.535156 151.878906 C 219.535156 163.277344 226.613281 173.011719 236.601562 176.953125 C 231.988281 179.449219 228.195312 183.648438 225.1875 187.816406 C 219.261719 196.023438 215.148438 205.378906 212.683594 215.167969 C 217.195312 221.058594 220.207031 227.539062 221.957031 232.003906 C 224.335938 238.097656 225.644531 244.136719 226.878906 251.34375 C 227.085938 252.550781 227.316406 253.765625 227.53125 254.972656 C 227.886719 256.910156 228.238281 258.875 228.542969 260.859375 C 239.742188 263.59375 252.28125 263.152344 263.175781 261.039062 C 272.9375 259.140625 283.375 253.28125 283.5625 242.050781 C 283.667969 235.171875 282.144531 228.4375 280.980469 221.691406 Z M 158.929688 203.113281 C 155.121094 193.398438 148.320312 182.042969 138.605469 177.117188 C 148.820312 173.296875 156.105469 163.433594 156.105469 151.878906 C 156.105469 136.992188 144.03125 124.917969 129.144531 124.917969 C 114.253906 124.917969 102.191406 136.992188 102.191406 151.878906 C 102.191406 163.277344 109.269531 173.011719 119.257812 176.953125 C 114.644531 179.449219 110.859375 183.648438 107.84375 187.816406 C 101.121094 197.136719 96.734375 207.921875 94.421875 219.164062 C 93.28125 224.703125 92.628906 230.335938 92.34375 235.976562 C 92.078125 241.148438 91.371094 246.402344 94.269531 251.019531 C 96.464844 254.511719 100.054688 256.96875 103.875 258.523438 C 116.671875 263.714844 132.480469 263.625 145.820312 261.039062 C 146.605469 260.882812 147.402344 260.703125 148.191406 260.5 C 148.578125 256.40625 149.15625 252.445312 149.933594 248.6875 C 152.332031 237.019531 156.679688 226.53125 162.863281 217.488281 C 161.9375 212.601562 160.765625 207.828125 158.929688 203.113281 Z M 158.929688 203.113281 " fill-opacity="1" fill-rule="nonzero"/></g><path fill="#ffc63b" d="M 193.898438 125.746094 L 181.339844 125.746094 C 180.070312 125.746094 179.042969 126.777344 179.042969 128.046875 C 179.042969 129.316406 180.070312 130.34375 181.339844 130.34375 L 193.898438 130.34375 C 195.167969 130.34375 196.199219 129.316406 196.199219 128.046875 C 196.199219 126.777344 195.167969 125.746094 193.898438 125.746094 Z M 193.898438 125.746094 " fill-opacity="1" fill-rule="nonzero"/><g clip-path="url(#e76470c3ca)"><path fill="#ffc63b" d="M 193.898438 130.941406 L 181.339844 130.941406 C 180.070312 130.941406 179.042969 131.96875 179.042969 133.238281 C 179.042969 134.507812 180.070312 135.539062 181.339844 135.539062 L 193.898438 135.539062 C 195.167969 135.539062 196.199219 134.507812 196.199219 133.238281 C 196.199219 131.96875 195.167969 130.941406 193.898438 130.941406 Z M 193.898438 130.941406 " fill-opacity="1" fill-rule="nonzero"/></g><path fill="#ffc63b" d="M 188.589844 88.890625 C 178.257812 88.328125 169.660156 96.972656 170.269531 107.304688 C 170.628906 113.34375 174.070312 118.550781 179.042969 121.378906 C 180.003906 121.929688 180.597656 122.957031 180.597656 124.066406 L 180.597656 125.136719 L 194.664062 125.136719 L 194.667969 124.015625 C 194.683594 122.910156 195.292969 121.910156 196.253906 121.363281 C 201.492188 118.367188 205.023438 112.722656 205.023438 106.253906 C 205.023438 96.972656 197.75 89.386719 188.589844 88.890625 Z M 188.589844 88.890625 " fill-opacity="1" fill-rule="nonzero"/><g clip-path="url(#aee21b87a6)"><path fill="#ffc63b" d="M 187.039062 86.53125 C 187.066406 87.066406 187.511719 87.488281 188.050781 87.488281 C 188.589844 87.488281 189.039062 87.0625 189.0625 86.519531 L 189.257812 82.183594 C 189.289062 81.484375 188.734375 80.90625 188.035156 80.90625 C 187.328125 80.90625 186.765625 81.5 186.804688 82.203125 L 187.039062 86.527344 Z M 187.039062 86.53125 " fill-opacity="1" fill-rule="nonzero"/></g><path fill="#ffc63b" d="M 167.988281 90.460938 L 171.210938 93.351562 C 171.613281 93.714844 172.222656 93.695312 172.605469 93.316406 C 172.988281 92.933594 173 92.316406 172.636719 91.914062 L 169.707031 88.710938 C 169.238281 88.195312 168.433594 88.179688 167.941406 88.671875 C 167.445312 89.164062 167.460938 89.988281 167.988281 90.460938 Z M 167.988281 90.460938 " fill-opacity="1" fill-rule="nonzero"/><path fill="#ffc63b" d="M 204.070312 93.375 L 207.273438 90.445312 C 207.789062 89.976562 207.808594 89.171875 207.316406 88.679688 C 206.8125 88.175781 205.996094 88.199219 205.523438 88.726562 L 202.632812 91.949219 C 202.273438 92.347656 202.289062 92.960938 202.667969 93.339844 C 203.050781 93.722656 203.667969 93.738281 204.070312 93.375 Z M 204.070312 93.375 " fill-opacity="1" fill-rule="nonzero"/><path fill="#ffc63b" d="M 171.210938 118.1875 L 167.988281 121.078125 C 167.460938 121.550781 167.441406 122.367188 167.941406 122.867188 C 168.441406 123.367188 169.238281 123.34375 169.707031 122.828125 L 172.636719 119.625 C 173.003906 119.222656 172.988281 118.605469 172.605469 118.222656 C 172.222656 117.839844 171.613281 117.824219 171.210938 118.1875 Z M 171.210938 118.1875 " fill-opacity="1" fill-rule="nonzero"/><path fill="#ffc63b" d="M 204.070312 118.164062 C 203.671875 117.796875 203.054688 117.8125 202.667969 118.195312 C 202.285156 118.578125 202.273438 119.1875 202.632812 119.589844 L 205.523438 122.8125 C 205.996094 123.339844 206.816406 123.359375 207.316406 122.859375 C 207.808594 122.367188 207.789062 121.5625 207.273438 121.09375 Z M 204.070312 118.164062 " fill-opacity="1" fill-rule="nonzero"/><g clip-path="url(#0e1b4dd5c0)"><path fill="#ffc63b" d="M 168.308594 105.914062 C 168.308594 105.371094 167.882812 104.925781 167.34375 104.902344 L 163.003906 104.707031 C 162.308594 104.675781 161.726562 105.230469 161.726562 105.925781 C 161.726562 106.625 162.320312 107.199219 163.027344 107.160156 L 167.351562 106.925781 C 167.886719 106.894531 168.308594 106.453125 168.308594 105.914062 Z M 168.308594 105.914062 " fill-opacity="1" fill-rule="nonzero"/></g><g clip-path="url(#c61dbc128f)"><path fill="#ffc63b" d="M 211.96875 104.707031 L 207.648438 104.941406 C 207.109375 104.96875 206.6875 105.414062 206.6875 105.953125 C 206.6875 106.492188 207.113281 106.941406 207.65625 106.964844 L 211.996094 107.160156 C 212.691406 107.191406 213.273438 106.636719 213.273438 105.9375 C 213.273438 105.230469 212.679688 104.667969 211.972656 104.707031 Z M 211.96875 104.707031 " fill-opacity="1" fill-rule="nonzero"/></g></svg>