<svg xmlns="http://www.w3.org/2000/svg" xmlns:xlink="http://www.w3.org/1999/xlink" width="500" zoomAndPan="magnify" viewBox="0 0 375 374.999991" height="500" preserveAspectRatio="xMidYMid meet" version="1.0"><defs><clipPath id="c9dcc385a7"><path d="M 15.15625 15.15625 L 359.84375 15.15625 L 359.84375 359.84375 L 15.15625 359.84375 Z M 15.15625 15.15625 " clip-rule="nonzero"/></clipPath><clipPath id="72801afe44"><path d="M 187.5 15.15625 C 92.316406 15.15625 15.15625 92.316406 15.15625 187.5 C 15.15625 282.683594 92.316406 359.84375 187.5 359.84375 C 282.683594 359.84375 359.84375 282.683594 359.84375 187.5 C 359.84375 92.316406 282.683594 15.15625 187.5 15.15625 Z M 187.5 15.15625 " clip-rule="nonzero"/></clipPath><clipPath id="5cb8851323"><path d="M 0.15625 0.15625 L 344.84375 0.15625 L 344.84375 344.84375 L 0.15625 344.84375 Z M 0.15625 0.15625 " clip-rule="nonzero"/></clipPath><clipPath id="85f4ec0add"><path d="M 172.5 0.15625 C 77.316406 0.15625 0.15625 77.316406 0.15625 172.5 C 0.15625 267.683594 77.316406 344.84375 172.5 344.84375 C 267.683594 344.84375 344.84375 267.683594 344.84375 172.5 C 344.84375 77.316406 267.683594 0.15625 172.5 0.15625 Z M 172.5 0.15625 " clip-rule="nonzero"/></clipPath><clipPath id="aec887c6d6"><rect x="0" width="345" y="0" height="345"/></clipPath><clipPath id="863870c2e1"><path d="M 24.222656 24.222656 L 350.777344 24.222656 L 350.777344 350.777344 L 24.222656 350.777344 Z M 24.222656 24.222656 " clip-rule="nonzero"/></clipPath><clipPath id="742ddd8764"><path d="M 187.5 24.222656 C 97.324219 24.222656 24.222656 97.324219 24.222656 187.5 C 24.222656 277.675781 97.324219 350.777344 187.5 350.777344 C 277.675781 350.777344 350.777344 277.675781 350.777344 187.5 C 350.777344 97.324219 277.675781 24.222656 187.5 24.222656 Z M 187.5 24.222656 " clip-rule="nonzero"/></clipPath><clipPath id="b6719e2607"><path d="M 0.222656 0.222656 L 326.777344 0.222656 L 326.777344 326.777344 L 0.222656 326.777344 Z M 0.222656 0.222656 " clip-rule="nonzero"/></clipPath><clipPath id="9dd637250c"><path d="M 163.5 0.222656 C 73.324219 0.222656 0.222656 73.324219 0.222656 163.5 C 0.222656 253.675781 73.324219 326.777344 163.5 326.777344 C 253.675781 326.777344 326.777344 253.675781 326.777344 163.5 C 326.777344 73.324219 253.675781 0.222656 163.5 0.222656 Z M 163.5 0.222656 " clip-rule="nonzero"/></clipPath><clipPath id="362249bd64"><rect x="0" width="327" y="0" height="327"/></clipPath><clipPath id="f153ba3705"><path d="M 119 106.34375 L 314 106.34375 L 314 319.34375 L 119 319.34375 Z M 119 106.34375 " clip-rule="nonzero"/></clipPath><clipPath id="14abfb09c6"><path d="M 64 106.34375 L 248 106.34375 L 248 244 L 64 244 Z M 64 106.34375 " clip-rule="nonzero"/></clipPath></defs><g clip-path="url(#c9dcc385a7)"><g clip-path="url(#72801afe44)"><g transform="matrix(1, 0, 0, 1, 15, 15)"><g clip-path="url(#aec887c6d6)"><g clip-path="url(#5cb8851323)"><g clip-path="url(#85f4ec0add)"><path fill="#000000" d="M 0.15625 0.15625 L 344.84375 0.15625 L 344.84375 344.84375 L 0.15625 344.84375 Z M 0.15625 0.15625 " fill-opacity="1" fill-rule="nonzero"/></g></g></g></g></g></g><g clip-path="url(#863870c2e1)"><g clip-path="url(#742ddd8764)"><g transform="matrix(1, 0, 0, 1, 24, 24)"><g clip-path="url(#362249bd64)"><g clip-path="url(#b6719e2607)"><g clip-path="url(#9dd637250c)"><path fill="#ffffff" d="M 0.222656 0.222656 L 326.777344 0.222656 L 326.777344 326.777344 L 0.222656 326.777344 Z M 0.222656 0.222656 " fill-opacity="1" fill-rule="nonzero"/></g></g></g></g></g></g><g clip-path="url(#f153ba3705)"><path fill="#ce2129" d="M 296.414062 127.144531 C 283.230469 113.71875 265.6875 106.324219 247.007812 106.324219 L 246.914062 106.324219 C 228.203125 106.351562 210.621094 113.777344 197.398438 127.25 L 195.6875 128.988281 C 195.429688 129.25 195.4375 129.667969 195.6875 129.925781 C 216.304688 150.929688 230.066406 164.949219 251.742188 187.027344 C 258.34375 193.75 258.683594 202.460938 252.613281 209.210938 C 244.746094 217.96875 227.480469 221.90625 214.421875 210.769531 L 214.273438 210.636719 C 213.285156 209.769531 202.660156 200.5625 185.121094 185.375 C 184.769531 185.070312 184.226562 185.089844 183.886719 185.425781 C 170.117188 199.25 137.191406 231.640625 119.640625 249.375 C 119.378906 249.636719 119.386719 250.058594 119.648438 250.316406 L 131.742188 262.207031 C 132.003906 262.460938 132.417969 262.460938 132.679688 262.207031 C 145.386719 249.335938 170.386719 224.03125 185.804688 208.441406 C 186.648438 207.582031 187.796875 207.113281 188.972656 207.121094 C 190.171875 207.121094 191.292969 207.601562 192.136719 208.46875 C 193.871094 210.25 193.863281 213.128906 192.113281 214.902344 C 176.746094 230.4375 151.855469 255.632812 139.117188 268.53125 C 138.859375 268.792969 138.867188 269.214844 139.128906 269.472656 L 151.214844 281.363281 C 151.476562 281.621094 151.894531 281.621094 152.15625 281.363281 C 162.523438 270.851562 185.214844 247.835938 201.234375 231.585938 L 204.882812 227.886719 C 205.726562 227.03125 206.847656 226.558594 208.039062 226.558594 L 208.050781 226.558594 C 209.25 226.558594 210.371094 227.039062 211.214844 227.902344 C 212.949219 229.679688 212.945312 232.566406 211.199219 234.335938 C 195.234375 250.53125 169.832031 276.292969 158.589844 287.695312 C 158.332031 287.957031 158.335938 288.375 158.597656 288.636719 L 170.933594 300.761719 C 171.195312 301.019531 171.617188 301.019531 171.871094 300.757812 L 224.257812 247.632812 C 225.101562 246.777344 226.222656 246.304688 227.414062 246.304688 L 227.425781 246.304688 C 228.621094 246.304688 229.742188 246.785156 230.589844 247.648438 C 232.324219 249.425781 232.320312 252.3125 230.574219 254.082031 L 178.304688 307.089844 C 178.050781 307.351562 178.050781 307.773438 178.308594 308.035156 L 188.898438 318.445312 C 189.359375 318.90625 189.996094 319.15625 190.628906 319.144531 C 191.28125 319.140625 191.890625 318.878906 192.34375 318.417969 L 288.769531 220.203125 C 313.40625 195.097656 325.320312 156.605469 296.414062 127.15625 Z M 296.414062 127.144531 " fill-opacity="1" fill-rule="nonzero"/></g><g clip-path="url(#14abfb09c6)"><path fill="#ce2129" d="M 190.917969 178.445312 C 214.59375 198.9375 219.121094 202.871094 220.105469 203.734375 L 220.175781 203.796875 C 229.679688 211.902344 241.578125 208 246.015625 203.066406 C 247.941406 200.921875 249.40625 197.511719 245.417969 193.449219 C 222.496094 170.113281 208.429688 155.777344 185.746094 132.664062 L 184.285156 131.179688 C 183.460938 130.347656 182.625 129.496094 181.789062 128.640625 L 180.417969 127.242188 C 167.179688 113.761719 149.566406 106.339844 130.820312 106.339844 L 130.808594 106.339844 C 112.113281 106.339844 94.570312 113.734375 81.402344 127.148438 C 68.609375 140.179688 62.832031 156.089844 64.695312 173.15625 C 66.453125 189.28125 75.097656 205.976562 89.027344 220.160156 L 89.589844 220.734375 C 89.675781 220.820312 89.773438 220.917969 89.867188 221.023438 L 90.410156 221.570312 L 112.261719 243.058594 C 112.523438 243.3125 112.9375 243.3125 113.199219 243.058594 C 131.644531 224.421875 166.914062 189.6875 177.601562 178.953125 C 181.269531 175.273438 186.996094 175.054688 190.914062 178.449219 Z M 190.917969 178.445312 " fill-opacity="1" fill-rule="nonzero"/></g></svg>