<svg xmlns="http://www.w3.org/2000/svg" xmlns:xlink="http://www.w3.org/1999/xlink" width="500" zoomAndPan="magnify" viewBox="0 0 375 374.999991" height="500" preserveAspectRatio="xMidYMid meet" version="1.0"><defs><clipPath id="a92a7946cb"><path d="M 15.15625 15.15625 L 359.84375 15.15625 L 359.84375 359.84375 L 15.15625 359.84375 Z M 15.15625 15.15625 " clip-rule="nonzero"/></clipPath><clipPath id="83e2e13ae3"><path d="M 187.5 15.15625 C 92.316406 15.15625 15.15625 92.316406 15.15625 187.5 C 15.15625 282.683594 92.316406 359.84375 187.5 359.84375 C 282.683594 359.84375 359.84375 282.683594 359.84375 187.5 C 359.84375 92.316406 282.683594 15.15625 187.5 15.15625 Z M 187.5 15.15625 " clip-rule="nonzero"/></clipPath><clipPath id="71a48b1e4d"><path d="M 0.15625 0.15625 L 344.84375 0.15625 L 344.84375 344.84375 L 0.15625 344.84375 Z M 0.15625 0.15625 " clip-rule="nonzero"/></clipPath><clipPath id="91bbd8ce1c"><path d="M 172.5 0.15625 C 77.316406 0.15625 0.15625 77.316406 0.15625 172.5 C 0.15625 267.683594 77.316406 344.84375 172.5 344.84375 C 267.683594 344.84375 344.84375 267.683594 344.84375 172.5 C 344.84375 77.316406 267.683594 0.15625 172.5 0.15625 Z M 172.5 0.15625 " clip-rule="nonzero"/></clipPath><clipPath id="6e6a0d867b"><rect x="0" width="345" y="0" height="345"/></clipPath><clipPath id="0c2ff4218d"><path d="M 24.222656 24.222656 L 350.777344 24.222656 L 350.777344 350.777344 L 24.222656 350.777344 Z M 24.222656 24.222656 " clip-rule="nonzero"/></clipPath><clipPath id="c6f3937a1d"><path d="M 187.5 24.222656 C 97.324219 24.222656 24.222656 97.324219 24.222656 187.5 C 24.222656 277.675781 97.324219 350.777344 187.5 350.777344 C 277.675781 350.777344 350.777344 277.675781 350.777344 187.5 C 350.777344 97.324219 277.675781 24.222656 187.5 24.222656 Z M 187.5 24.222656 " clip-rule="nonzero"/></clipPath><clipPath id="96d3d0da30"><path d="M 0.222656 0.222656 L 326.777344 0.222656 L 326.777344 326.777344 L 0.222656 326.777344 Z M 0.222656 0.222656 " clip-rule="nonzero"/></clipPath><clipPath id="6311cb7a47"><path d="M 163.5 0.222656 C 73.324219 0.222656 0.222656 73.324219 0.222656 163.5 C 0.222656 253.675781 73.324219 326.777344 163.5 326.777344 C 253.675781 326.777344 326.777344 253.675781 326.777344 163.5 C 326.777344 73.324219 253.675781 0.222656 163.5 0.222656 Z M 163.5 0.222656 " clip-rule="nonzero"/></clipPath><clipPath id="4009ef1475"><rect x="0" width="327" y="0" height="327"/></clipPath><clipPath id="8915957c5d"><path d="M 68.363281 68.363281 L 306.863281 68.363281 L 306.863281 306.863281 L 68.363281 306.863281 Z M 68.363281 68.363281 " clip-rule="nonzero"/></clipPath></defs><g clip-path="url(#a92a7946cb)"><g clip-path="url(#83e2e13ae3)"><g transform="matrix(1, 0, 0, 1, 15, 15)"><g clip-path="url(#6e6a0d867b)"><g clip-path="url(#71a48b1e4d)"><g clip-path="url(#91bbd8ce1c)"><path fill="#000000" d="M 0.15625 0.15625 L 344.84375 0.15625 L 344.84375 344.84375 L 0.15625 344.84375 Z M 0.15625 0.15625 " fill-opacity="1" fill-rule="nonzero"/></g></g></g></g></g></g><g clip-path="url(#0c2ff4218d)"><g clip-path="url(#c6f3937a1d)"><g transform="matrix(1, 0, 0, 1, 24, 24)"><g clip-path="url(#4009ef1475)"><g clip-path="url(#96d3d0da30)"><g clip-path="url(#6311cb7a47)"><path fill="#ffffff" d="M 0.222656 0.222656 L 326.777344 0.222656 L 326.777344 326.777344 L 0.222656 326.777344 Z M 0.222656 0.222656 " fill-opacity="1" fill-rule="nonzero"/></g></g></g></g></g></g><g clip-path="url(#8915957c5d)"><path fill="#ea3323" d="M 236.996094 68.363281 L 138.210938 68.363281 L 68.363281 138.210938 L 68.363281 236.996094 L 138.210938 306.84375 L 236.996094 306.84375 L 306.84375 236.996094 L 306.84375 138.210938 Z M 236.996094 68.363281 " fill-opacity="1" fill-rule="nonzero"/></g><path fill="#ffffff" d="M 141.816406 298.144531 L 77.0625 233.394531 L 77.0625 141.816406 L 141.816406 77.0625 L 233.394531 77.0625 L 298.144531 141.816406 L 298.144531 233.394531 L 233.394531 298.144531 Z M 141.816406 298.144531 " fill-opacity="1" fill-rule="nonzero"/><path fill="#ea3323" d="M 145.417969 289.441406 L 85.765625 229.785156 L 85.765625 145.417969 L 145.417969 85.765625 L 229.785156 85.765625 L 289.441406 145.417969 L 289.441406 229.785156 L 229.785156 289.441406 Z M 145.417969 289.441406 " fill-opacity="1" fill-rule="nonzero"/><path fill="#ffffff" d="M 248.425781 191.195312 C 244.855469 188.636719 240.648438 190.351562 237.335938 193.023438 L 223.316406 205.320312 C 222.832031 205.742188 222.078125 205.402344 222.078125 204.757812 L 222.078125 137.40625 C 222.078125 133.015625 218.519531 129.457031 214.128906 129.457031 C 209.738281 129.457031 206.179688 133.015625 206.179688 137.40625 L 206.179688 185.054688 C 206.179688 186.0625 205.363281 186.886719 204.347656 186.886719 C 203.339844 186.886719 202.515625 186.066406 202.515625 185.054688 L 202.515625 129.097656 C 202.515625 124.746094 199.164062 120.945312 194.8125 120.816406 C 190.308594 120.683594 186.621094 124.289062 186.621094 128.761719 L 186.621094 185.054688 C 186.621094 186.0625 185.800781 186.886719 184.789062 186.886719 C 183.777344 186.886719 182.957031 186.066406 182.957031 185.054688 L 182.957031 135.234375 C 182.957031 130.882812 179.601562 127.085938 175.25 126.957031 C 170.75 126.820312 167.058594 130.425781 167.058594 134.898438 L 167.058594 185.054688 C 167.058594 186.0625 166.242188 186.886719 165.226562 186.886719 C 164.21875 186.886719 163.394531 186.066406 163.394531 185.054688 L 163.394531 145.039062 C 163.394531 140.691406 160.042969 136.890625 155.691406 136.761719 C 151.1875 136.625 147.5 140.234375 147.5 144.707031 L 147.5 226.609375 C 147.5 240.265625 159.375 251.339844 174.027344 251.339844 L 199.203125 251.339844 C 206.398438 251.339844 212.808594 248.234375 217.003906 243.390625 C 217.074219 243.320312 217.148438 243.25 217.203125 243.171875 L 250.242188 202.292969 C 252.800781 198.726562 251.984375 193.761719 248.414062 191.203125 Z M 248.425781 191.195312 " fill-opacity="1" fill-rule="nonzero"/></svg>