<svg xmlns="http://www.w3.org/2000/svg" xmlns:xlink="http://www.w3.org/1999/xlink" width="500" zoomAndPan="magnify" viewBox="0 0 375 374.999991" height="500" preserveAspectRatio="xMidYMid meet" version="1.0"><defs><clipPath id="fae476b55a"><path d="M 15.15625 15.15625 L 359.84375 15.15625 L 359.84375 359.84375 L 15.15625 359.84375 Z M 15.15625 15.15625 " clip-rule="nonzero"/></clipPath><clipPath id="d2d5a55312"><path d="M 187.5 15.15625 C 92.316406 15.15625 15.15625 92.316406 15.15625 187.5 C 15.15625 282.683594 92.316406 359.84375 187.5 359.84375 C 282.683594 359.84375 359.84375 282.683594 359.84375 187.5 C 359.84375 92.316406 282.683594 15.15625 187.5 15.15625 Z M 187.5 15.15625 " clip-rule="nonzero"/></clipPath><clipPath id="657a4661ea"><path d="M 0.15625 0.15625 L 344.84375 0.15625 L 344.84375 344.84375 L 0.15625 344.84375 Z M 0.15625 0.15625 " clip-rule="nonzero"/></clipPath><clipPath id="437038d33e"><path d="M 172.5 0.15625 C 77.316406 0.15625 0.15625 77.316406 0.15625 172.5 C 0.15625 267.683594 77.316406 344.84375 172.5 344.84375 C 267.683594 344.84375 344.84375 267.683594 344.84375 172.5 C 344.84375 77.316406 267.683594 0.15625 172.5 0.15625 Z M 172.5 0.15625 " clip-rule="nonzero"/></clipPath><clipPath id="c77a6a7d55"><rect x="0" width="345" y="0" height="345"/></clipPath><clipPath id="8181774b6c"><path d="M 24.222656 24.222656 L 350.777344 24.222656 L 350.777344 350.777344 L 24.222656 350.777344 Z M 24.222656 24.222656 " clip-rule="nonzero"/></clipPath><clipPath id="4652b63fc4"><path d="M 187.5 24.222656 C 97.324219 24.222656 24.222656 97.324219 24.222656 187.5 C 24.222656 277.675781 97.324219 350.777344 187.5 350.777344 C 277.675781 350.777344 350.777344 277.675781 350.777344 187.5 C 350.777344 97.324219 277.675781 24.222656 187.5 24.222656 Z M 187.5 24.222656 " clip-rule="nonzero"/></clipPath><clipPath id="15a1bea5da"><path d="M 0.222656 0.222656 L 326.777344 0.222656 L 326.777344 326.777344 L 0.222656 326.777344 Z M 0.222656 0.222656 " clip-rule="nonzero"/></clipPath><clipPath id="0d8665a062"><path d="M 163.5 0.222656 C 73.324219 0.222656 0.222656 73.324219 0.222656 163.5 C 0.222656 253.675781 73.324219 326.777344 163.5 326.777344 C 253.675781 326.777344 326.777344 253.675781 326.777344 163.5 C 326.777344 73.324219 253.675781 0.222656 163.5 0.222656 Z M 163.5 0.222656 " clip-rule="nonzero"/></clipPath><clipPath id="e0675696a4"><rect x="0" width="327" y="0" height="327"/></clipPath><clipPath id="e98c510f9c"><path d="M 132 84.171875 L 291.726562 84.171875 L 291.726562 233 L 132 233 Z M 132 84.171875 " clip-rule="nonzero"/></clipPath><clipPath id="941ecacdae"><path d="M 83.226562 146 L 239 146 L 239 291 L 83.226562 291 Z M 83.226562 146 " clip-rule="nonzero"/></clipPath></defs><g clip-path="url(#fae476b55a)"><g clip-path="url(#d2d5a55312)"><g transform="matrix(1, 0, 0, 1, 15, 15)"><g clip-path="url(#c77a6a7d55)"><g clip-path="url(#657a4661ea)"><g clip-path="url(#437038d33e)"><path fill="#000000" d="M 0.15625 0.15625 L 344.84375 0.15625 L 344.84375 344.84375 L 0.15625 344.84375 Z M 0.15625 0.15625 " fill-opacity="1" fill-rule="nonzero"/></g></g></g></g></g></g><g clip-path="url(#8181774b6c)"><g clip-path="url(#4652b63fc4)"><g transform="matrix(1, 0, 0, 1, 24, 24)"><g clip-path="url(#e0675696a4)"><g clip-path="url(#15a1bea5da)"><g clip-path="url(#0d8665a062)"><path fill="#ffffff" d="M 0.222656 0.222656 L 326.777344 0.222656 L 326.777344 326.777344 L 0.222656 326.777344 Z M 0.222656 0.222656 " fill-opacity="1" fill-rule="nonzero"/></g></g></g></g></g></g><g clip-path="url(#e98c510f9c)"><path fill="#389973" d="M 291.773438 154.707031 L 291.773438 136.050781 C 291.773438 107.582031 268.480469 84.289062 240.011719 84.289062 L 184.125 84.289062 C 155.652344 84.289062 132.363281 107.582031 132.363281 136.050781 L 132.363281 142.433594 C 132.507812 142.433594 132.652344 142.429688 132.796875 142.429688 L 188.683594 142.429688 C 218.433594 142.429688 242.632812 166.632812 242.632812 196.382812 L 242.632812 208.484375 L 282.632812 232.097656 C 284.824219 233.390625 287.417969 231.203125 286.511719 228.828125 L 273.359375 194.203125 C 284.601562 184.691406 291.773438 170.492188 291.773438 154.703125 Z M 291.773438 154.707031 " fill-opacity="1" fill-rule="nonzero"/></g><g clip-path="url(#941ecacdae)"><path fill="#389973" d="M 188.683594 146.8125 L 132.796875 146.8125 C 132.652344 146.8125 132.507812 146.820312 132.363281 146.820312 C 105.226562 147.050781 83.226562 169.195312 83.226562 196.382812 L 83.226562 215.039062 C 83.226562 229.59375 89.652344 243.382812 100.863281 252.867188 L 102.050781 253.871094 L 88.339844 289.941406 C 88.308594 290.019531 88.214844 290.269531 88.484375 290.496094 C 88.753906 290.71875 88.980469 290.585938 89.054688 290.539062 L 132.996094 264.601562 L 188.683594 264.601562 C 216.015625 264.601562 238.253906 242.367188 238.253906 215.03125 L 238.253906 196.375 C 238.253906 169.042969 216.019531 146.800781 188.683594 146.800781 Z M 130.605469 213.949219 C 124.109375 213.949219 118.84375 208.683594 118.84375 202.1875 C 118.84375 195.695312 124.113281 190.425781 130.605469 190.425781 C 137.101562 190.425781 142.371094 195.695312 142.371094 202.1875 C 142.371094 208.683594 137.101562 213.949219 130.605469 213.949219 Z M 160.738281 213.949219 C 154.238281 213.949219 148.976562 208.683594 148.976562 202.1875 C 148.976562 199.414062 149.941406 196.863281 151.546875 194.851562 C 153.703125 192.152344 157.019531 190.421875 160.738281 190.421875 C 167.238281 190.421875 172.5 195.6875 172.5 202.183594 C 172.5 203.171875 172.375 204.136719 172.144531 205.054688 C 170.863281 210.164062 166.242188 213.945312 160.738281 213.945312 Z M 190.867188 213.949219 C 185.8125 213.949219 181.503906 210.761719 179.839844 206.289062 C 179.367188 205.011719 179.105469 203.628906 179.105469 202.1875 C 179.105469 195.6875 184.375 190.425781 190.867188 190.425781 C 197.363281 190.425781 202.632812 195.695312 202.632812 202.1875 C 202.632812 203.699219 202.34375 205.140625 201.820312 206.46875 C 200.109375 210.847656 195.847656 213.949219 190.863281 213.949219 Z M 190.867188 213.949219 " fill-opacity="1" fill-rule="nonzero"/></g></svg>